<svg id="Calque_1" data-name="Calque 1" xmlns="http://www.w3.org/2000/svg" viewBox="0 0 122 122"><defs><style>.cls-1{fill:#f2f9ff;}.cls-2{fill:#c6e873;}.cls-3{fill:#e2f4ff;}.cls-4{fill:#e4936b;}.cls-5{fill:#e27d47;}.cls-6{fill:#a8d340;}.cls-7{fill:#c6865c;}.cls-8{fill:#b5e245;}</style></defs><path class="cls-1" d="M57.58,1A10.36,10.36,0,0,0,53,.79,41.31,41.31,0,0,0,19.6,41.42v74.39H87.83V41A41.64,41.64,0,0,0,57.58,1Z"/><path class="cls-2" d="M35.22,56.4a.49.49,0,0,1,.67-.55c1.39.59,4.94,2,13.49,1.49C63,56.55,62,74.15,62,74.15S40.41,84.61,35.22,56.4Z"/><path class="cls-3" d="M61,0A41.62,41.62,0,0,0,53,.8,41.4,41.4,0,0,1,86.37,41.42v74.39h16V41.42A41.4,41.4,0,0,0,61,0Z"/><path class="cls-4" d="M97.47,115a7,7,0,0,0-7-7H17.08a7,7,0,1,0,0,14H90.45A7,7,0,0,0,97.47,115Z"/><path class="cls-5" d="M104.92,107.94h-16a7,7,0,1,1,0,14h16a7,7,0,1,0,0-14Z"/><path class="cls-6" d="M61.88,100.84A1.84,1.84,0,0,1,60,99V53.47a1.84,1.84,0,1,1,3.68,0V99A1.84,1.84,0,0,1,61.88,100.84Z"/><path class="cls-7" d="M90,107.94a41.95,41.95,0,0,0-56.06,0Z"/><path class="cls-7" d="M90,107.94a41.95,41.95,0,0,0-56.06,0Z"/><path class="cls-8" d="M88.18,39.55a.48.48,0,0,0-.59-.62c-1.45.41-5.07.88-13.57-.16-16.45-2-14,15.18-14,15.18s19.57,13,28.13-14.4Z"/></svg>