<svg id="Calque_1" data-name="Calque 1" xmlns="http://www.w3.org/2000/svg" viewBox="0 0 122 122"><defs><style>.cls-1{fill:#f89b31;}.cls-2{fill:#fff;}</style></defs><circle class="cls-1" cx="60.79" cy="61.13" r="60.87"/><path class="cls-2" d="M94.36,39.29l4.22-7.7a1.32,1.32,0,1,0-2.32-1.27L92,38A8.66,8.66,0,0,0,91,42.2V62a3.89,3.89,0,0,0-2.56,3.65V85.58A3.9,3.9,0,0,0,91,89.24v8.53a6,6,0,0,1-6,6H82.85a8.45,8.45,0,0,0,2.34-5.85V53.09a11.34,11.34,0,0,0-5.43-9.64L69,36.94V32.51A2.56,2.56,0,0,0,66.46,30H62.64V27.29h7a5.72,5.72,0,0,0,0-11.44H53a5.72,5.72,0,0,0,0,11.44h7V30H56.16a2.56,2.56,0,0,0-2.56,2.56v4.43l-2.83,1.71-1.83-2.94a2.81,2.81,0,0,0-3.87-.9l-.69.43A8.53,8.53,0,0,0,28.83,40.1V97.77a8.64,8.64,0,0,0,8.63,8.63H85a8.65,8.65,0,0,0,8.64-8.63V89.24a3.9,3.9,0,0,0,2.56-3.66V74.5a1.33,1.33,0,0,0-2.65,0V85.58a1.24,1.24,0,1,1-2.48,0V65.64a1.24,1.24,0,0,1,2.48,0v2.62a1.33,1.33,0,1,0,2.65,0V65.64A3.89,3.89,0,0,0,93.62,62V42.2a6.05,6.05,0,0,1,.74-2.91ZM49.92,21.57A3.06,3.06,0,0,1,53,18.51H69.64a3.07,3.07,0,0,1,0,6.13H53A3.07,3.07,0,0,1,49.92,21.57ZM82.54,65.86H62.23a1.33,1.33,0,1,0,0,2.65H82.54v5H62.23a1.33,1.33,0,1,0,0,2.65H82.54v5H62.23a1.33,1.33,0,1,0,0,2.65H82.54V92H57.8a1.56,1.56,0,0,1-1.55-1.55V59.2a1.55,1.55,0,0,1,1.55-1.55H82.54ZM56.25,32.6H66.37v3.76H56.25ZM46.59,37a.16.16,0,0,1,.09.07L48.5,40l-3.69,2.24L43,39.39a.17.17,0,0,1,0-.22l3.4-2.11a.17.17,0,0,1,.12,0Zm-.66,66.71a5.86,5.86,0,0,1-5.85-5.85V95.15a1.33,1.33,0,0,0-2.65,0V97.9a8.45,8.45,0,0,0,2.34,5.85H37.46a6,6,0,0,1-6-6V40.1a5.88,5.88,0,0,1,10.64-3.46l-.45.28a2.81,2.81,0,0,0-.9,3.86l1.78,2.87a11.34,11.34,0,0,0-5.12,9.44V88.91a1.33,1.33,0,1,0,2.65,0V53.09a8.68,8.68,0,0,1,4.15-7.37L55.29,39h12l11.06,6.71a8.67,8.67,0,0,1,4.15,7.37V55H57.8a4.2,4.2,0,0,0-4.2,4.2V90.48a4.21,4.21,0,0,0,4.2,4.2H82.54V97.9a5.86,5.86,0,0,1-5.85,5.85Z"/></svg>