<svg id="Calque_1" data-name="Calque 1" xmlns="http://www.w3.org/2000/svg" viewBox="0 0 122 122"><defs><style>.cls-1{fill:#f89b31;}.cls-2{fill:#fff;}</style></defs><circle class="cls-1" cx="61" cy="61.13" r="60.87"/><path class="cls-2" d="M83.27,58.9a21.36,21.36,0,1,0,21.36,21.36A21.39,21.39,0,0,0,83.27,58.9Zm0,40.16a18.8,18.8,0,1,1,18.79-18.8A18.82,18.82,0,0,1,83.27,99.06Z"/><path class="cls-2" d="M66.71,98a36.56,36.56,0,0,1-8.56,1c-20.69,0-39.28-17.51-38.16-41C20.5,47.16,26.9,37,37.1,33.42a63.21,63.21,0,0,1,6.82,2.52c-3.14,1.79-5.66,5.26-6.94,7.28a1.76,1.76,0,0,0,.1,2,1.71,1.71,0,0,0,1.91.59c2.86-.94,9.85-1.6,12.93-.8a16.74,16.74,0,0,0,4.29,10.64,2.52,2.52,0,0,0,3.88,0A16.74,16.74,0,0,0,64.38,45c3.08-.8,10.07-.14,12.93.8a1.71,1.71,0,0,0,1.91-.59,1.76,1.76,0,0,0,.1-2c-1.28-2-3.8-5.49-6.94-7.28a63.21,63.21,0,0,1,6.82-2.52C89.42,37,95.8,47.18,96.31,58.08c0,.57,0,1.15,0,1.71a1.28,1.28,0,0,0,1.28,1.27h0a1.27,1.27,0,0,0,1.27-1.29c0-.6,0-1.21,0-1.81-.52-11-6.6-21.44-16.54-26a2,2,0,0,0,.29-1,2,2,0,0,0-1.34-2c-4.94-1.74-10.77-2.75-15.94-1.82a11.45,11.45,0,0,1,5-2.5,4.08,4.08,0,1,0-2-7.91C60.17,18.84,56.62,24,55.08,28.4,47.66,25.19,38.69,27.7,35,29a2,2,0,0,0-1.34,2,2,2,0,0,0,.29,1c-9.94,4.59-16,15-16.54,26a41.24,41.24,0,0,0,40.72,43.66,39,39,0,0,0,9.16-1.09,1.28,1.28,0,1,0-.6-2.49ZM69,19.24a1.52,1.52,0,0,1,1.86,1.19,1.57,1.57,0,0,1-1.15,1.76c-5,1.29-8.27,4.28-9.58,8.87a15.22,15.22,0,0,0-.48,2.4,1.51,1.51,0,1,1-3-.37,18.56,18.56,0,0,1,.57-2.86C58.31,26.3,61.26,21.2,69,19.24ZM54.38,30.9c-.13.61-.24,1.24-.32,1.87a4.08,4.08,0,1,0,8.09,1A12.28,12.28,0,0,1,63,30.43c5.52-2,12-.68,15.74.44A61.64,61.64,0,0,0,70.42,34a2.11,2.11,0,0,0,.06,3.82c2.2,1,4.19,3.26,5.5,5-3.83-.75-10-1.19-13-.09a1.85,1.85,0,0,0-1.22,1.82c.07,1.79-.31,5.38-3.66,9.41-3.35-4-3.73-7.62-3.66-9.41a1.85,1.85,0,0,0-1.22-1.82c-3-1.1-9.12-.66-13,.09,1.31-1.77,3.31-4,5.5-5A2.11,2.11,0,0,0,45.88,34a62.5,62.5,0,0,0-8.36-3.15c8.65-2.66,14.23-1.16,16.86,0Z"/><path class="cls-2" d="M95.65,75.74a22.58,22.58,0,0,0-6.89,2.39,25.71,25.71,0,0,0-4.09-9.43,1.71,1.71,0,0,0-2.81,0,25.56,25.56,0,0,0-4.08,9.43,22.64,22.64,0,0,0-6.9-2.39A1.65,1.65,0,0,0,69,77.66a24.15,24.15,0,0,0,2.28,6.67,15.07,15.07,0,0,0,3.09,4.11H72A1.28,1.28,0,0,0,72,91H94.58a1.28,1.28,0,1,0,0-2.56H92.2a15.09,15.09,0,0,0,3.1-4.11,24,24,0,0,0,2.27-6.67,1.65,1.65,0,0,0-1.92-1.92Zm-12.38-4.5A21.63,21.63,0,0,1,86.4,79.7a12.17,12.17,0,0,0-3.13,3.69,12.46,12.46,0,0,0-3.13-3.69A21.32,21.32,0,0,1,83.27,71.24ZM71.78,78.55c5.3,1.34,10.1,4.4,10.2,9.89H79.42C74.54,87.06,72.5,81.39,71.78,78.55Zm15.33,9.89H84.55c.1-5.49,4.9-8.55,10.2-9.89C94,81.39,92,87.06,87.11,88.44Z"/></svg>