<svg id="Calque_1" data-name="Calque 1" xmlns="http://www.w3.org/2000/svg" viewBox="0 0 122 122"><defs><style>.cls-1{fill:#f89b31;}.cls-2{fill:#fff;}</style></defs><circle class="cls-1" cx="60.87" cy="61.13" r="60.87"/><path class="cls-2" d="M114.17,54.58,94.62,34.93a26.74,26.74,0,0,0-33.75-3.5,26.74,26.74,0,0,0-33.75,3.5L7.57,54.58h0a2.09,2.09,0,0,0-.23,2.69L18.4,73.11A51.74,51.74,0,0,0,51.05,94.3a1.87,1.87,0,0,0,.4,0,2.1,2.1,0,0,0,.4-4.17,47.37,47.37,0,0,1-30-19.47L13.1,58.17H29.56a23.16,23.16,0,0,1,14.62,5.38,26.23,26.23,0,0,0,33.39,0,23.14,23.14,0,0,1,14.62-5.38h16.45L99.89,70.7a47.35,47.35,0,0,1-30,19.46,2.11,2.11,0,0,0,.39,4.18,2.85,2.85,0,0,0,.41,0,51.56,51.56,0,0,0,32.62-21.19S114.57,57,114.62,56.88a2.11,2.11,0,0,0-.45-2.3ZM74.88,60.3a22,22,0,0,1-28,0,30.51,30.51,0,0,0-2.94-2.13h1.27a48.59,48.59,0,0,0,15.68-2.59,48.59,48.59,0,0,0,15.68,2.59h1.27A30.51,30.51,0,0,0,74.88,60.3ZM76.55,54a44.44,44.44,0,0,1-15-2.59,2.16,2.16,0,0,0-1.42,0,44.44,44.44,0,0,1-15,2.59H14.13l16-16.06a22.55,22.55,0,0,1,29.5-2.21,2.07,2.07,0,0,0,2.52,0,22.55,22.55,0,0,1,29.5,2.21l16,16.06Z"/><path class="cls-2" d="M60.88,91a2.16,2.16,0,0,0-1.49.62,2.12,2.12,0,0,0,0,3,2.15,2.15,0,0,0,1.49.61A2.1,2.1,0,0,0,63,93.15a2.08,2.08,0,0,0-.62-1.49A2.12,2.12,0,0,0,60.88,91Z"/></svg>