<svg id="Calque_1" data-name="Calque 1" xmlns="http://www.w3.org/2000/svg" viewBox="0 0 122 122"><defs><style>.cls-1{fill:#f89b31;}.cls-2{fill:#fff;}</style></defs><circle class="cls-1" cx="61" cy="61.13" r="60.87"/><path class="cls-2" d="M21.71,90.68H35.45A1.59,1.59,0,0,0,37,89.09V87.53c5.17.23,8.59,1.6,12.19,3,4.06,1.63,8.27,3.31,15,3.31,3,0,7.31-1,13-2.94a1.6,1.6,0,1,0-1-3c-5.33,1.83-9.35,2.76-11.94,2.76-6.08,0-9.82-1.49-13.78-3.08A37.07,37.07,0,0,0,37,84.33V68.1a18.85,18.85,0,0,0,3.13-1.22c3.15-1.44,6.72-3.07,11.61-.32l7.71,4.34a4.69,4.69,0,0,0,2.35.62H72.18a3.2,3.2,0,0,1,0,6.39H55.94a1.6,1.6,0,0,0,0,3.19H72.18a6.36,6.36,0,0,0,2.25-.41h0l19.87-7.35a3.26,3.26,0,0,1,1.16-.21,3.19,3.19,0,0,1,3.19,3.19,3.23,3.23,0,0,1-1.82,2.89l-1.08.51-.46-.92a1.6,1.6,0,0,0-2.86,1.43l.43.85c-1.05.48-2.24,1-3.54,1.58a1.6,1.6,0,1,0,1.29,2.93c3.14-1.38,5.22-2.37,7.58-3.49A6.39,6.39,0,0,0,95.5,69.92a6.22,6.22,0,0,0-2.3.43L78.47,75.79a5.49,5.49,0,0,0,.1-1.08,6.4,6.4,0,0,0-6.39-6.39H61.84a1.66,1.66,0,0,1-.79-.2l-7.71-4.34c-6.3-3.55-11-1.38-14.5.19a10,10,0,0,1-3.39,1.16H21.71a1.6,1.6,0,0,0-1.6,1.6V89.09a1.6,1.6,0,0,0,1.6,1.59Zm1.6-22.36H33.85V87.49H23.31Z"/><path class="cls-2" d="M72.92,61.67a1.55,1.55,0,0,0,1.75,0C98.1,46.26,98.87,34.85,97.25,29.43a13,13,0,0,0-12.28-9A14.76,14.76,0,0,0,73.8,25.73a14.77,14.77,0,0,0-11.18-5.35,13,13,0,0,0-12.27,9.06C48.73,34.87,49.5,46.26,72.92,61.67ZM53.41,30.36a9.91,9.91,0,0,1,9.21-6.79c6.37,0,9.65,5.39,9.8,5.64A1.61,1.61,0,0,0,73.8,30a1.58,1.58,0,0,0,1.37-.79c0-.05,3.37-5.63,9.8-5.63a9.92,9.92,0,0,1,9.22,6.77C95.28,34,95.42,43.93,73.8,58.42,52.18,43.93,52.32,34,53.41,30.36Z"/><path class="cls-2" d="M67.39,42.77h4.79v4.79a1.6,1.6,0,1,0,3.19,0V42.77h4.8a1.6,1.6,0,0,0,0-3.19h-4.8v-4.8a1.6,1.6,0,0,0-3.19,0v4.8H67.39a1.6,1.6,0,1,0,0,3.19Z"/><circle class="cls-2" cx="83.36" cy="86.85" r="1.6"/></svg>