<svg id="Calque_1" data-name="Calque 1" xmlns="http://www.w3.org/2000/svg" viewBox="0 0 122 122"><defs><style>.cls-1{fill:#f89b31;}.cls-2{fill:#fff;}</style></defs><circle class="cls-1" cx="61" cy="61.13" r="60.87"/><path class="cls-2" d="M84.18,47.9h2.56v2.56H84.18Z"/><path class="cls-2" d="M49.66,82.42h2.55V85H49.66Z"/><path class="cls-2" d="M91.28,66.11,89,65.34l1.53-4.57a2.52,2.52,0,0,0-3.18-3.19l-4.58,1.53L82,56.8a2.52,2.52,0,0,0-3.18-1.6,2.74,2.74,0,0,0-1,.61l-5.26,5.26a2.51,2.51,0,0,0-4.75.06l-1.47,4.42a10.81,10.81,0,0,0,2.62,11.12l.29.28A26.53,26.53,0,0,1,67,78.65a13.12,13.12,0,0,1-6.75,2.49V83.7c4.55,0,8.94-3.31,10.81-4.93l.37.37a10.79,10.79,0,0,0,11.12,2.62L87,80.29A2.51,2.51,0,0,0,87,75.54l5.26-5.26a2.52,2.52,0,0,0,0-3.56,2.42,2.42,0,0,0-1-.61Zm-6.12,7.66A2.52,2.52,0,0,0,86,77.9l-4.3,1.44a8.3,8.3,0,0,1-8.51-2L72.89,77l1.3-1.3,6.53,1.63.62-2.48-5-1.26,4.17-4.17L85.14,71,86,68.55,82.49,67.4l3.06-3.06-1.81-1.81-5.56,5.56.5-4.51-2.54-.29L75.29,71l-2.53,2.53.5-4.52-2.54-.28-.61,5.42a8.25,8.25,0,0,1-1.36-7.79l1.43-4.3a2.52,2.52,0,0,0,3.26,1.44,2.63,2.63,0,0,0,.87-.57l5.26-5.25L80.33,60a2.52,2.52,0,0,0,3.18,1.6L88.05,60l-1.52,4.54a2.52,2.52,0,0,0,1.6,3.18l2.28.77Z"/><path class="cls-2" d="M61.32,72.6l1.43-4.3a10.79,10.79,0,0,0-2.63-11.12l-.28-.28a24.57,24.57,0,0,1,2.25-1.7c1.71-1.14,4.26-2.5,6.75-2.5V50.15c-4.55,0-8.94,3.31-10.81,4.93l-.37-.37a10.81,10.81,0,0,0-11.12-2.62l-4.3,1.43a2.56,2.56,0,0,0-.18,4.79l-5.21,5.21a2.56,2.56,0,0,0,0,3.62,2.59,2.59,0,0,0,1,.62l2.24.75L38.6,73a2.55,2.55,0,0,0,1.61,3.23,2.5,2.5,0,0,0,1.62,0l4.5-1.5L47.08,77a2.54,2.54,0,0,0,1.84,1.68,2.32,2.32,0,0,0,.59.07,2.53,2.53,0,0,0,1.8-.75l5.22-5.22a2.56,2.56,0,0,0,4.79-.17Zm-1-5.11-1.43,4.3a2.44,2.44,0,0,0-4-1L49.5,76.18l-.78-2.36a2.44,2.44,0,0,0-3.09-1.54h0L41,73.81l1.54-4.6A2.45,2.45,0,0,0,41,66.12l-2.36-.79L44,60a2.44,2.44,0,0,0-1-4l4.3-1.44a8.28,8.28,0,0,1,8.51,2l.33.33-1.3,1.3-6.53-1.64L47.73,59l5,1.25L48.6,64.43l-4.67-1.56-.81,2.43,3.46,1.15-3.06,3.06,1.81,1.81,5.56-5.56-.5,4.51,2.54.28.85-7.69,2.53-2.53-.5,4.52,2.54.28.6-5.42a8.23,8.23,0,0,1,1.37,7.78Z"/><path class="cls-2" d="M104.64,90.09c-3,0-6.4-2-6.4-7.67v-55a3.83,3.83,0,0,0-3.83-3.83H86.74V21.05a3.85,3.85,0,0,0-3.84-3.84H77.79A3.85,3.85,0,0,0,74,21.05v2.56H49.66V21.05a3.85,3.85,0,0,0-3.84-3.84H40.71a3.85,3.85,0,0,0-3.84,3.84v2.56H27.92a3.83,3.83,0,0,0-3.83,3.83V95.21A3.82,3.82,0,0,0,27.92,99H94.41a3.82,3.82,0,0,0,3.83-3.83V92.65h6.4a1.28,1.28,0,0,0,0-2.56Zm-28.13-69a1.28,1.28,0,0,1,1.28-1.28H82.9a1.28,1.28,0,0,1,1.28,1.28v2.56H76.51Zm-37.08,0a1.28,1.28,0,0,1,1.28-1.28h5.11a1.28,1.28,0,0,1,1.28,1.28v2.56H39.43Zm-2.56,5.11H47.1v1.32a5.74,5.74,0,1,0,2.56.29V26.16H84.18v1.32a5.74,5.74,0,1,0,2.56.29V26.16h7.67a1.3,1.3,0,0,1,1.28,1.28V40.23H33V27.44a1.29,1.29,0,0,1,1.27-1.28Zm12.79,4.49a3.19,3.19,0,1,1-4.47.62,3.24,3.24,0,0,1,1.91-1.21v3.78h2.56Zm37.08,0a3.19,3.19,0,1,1-4.47.62,3.24,3.24,0,0,1,1.91-1.21v3.78h2.56Zm9,64.56a1.29,1.29,0,0,1-1.28,1.28H27.92a1.29,1.29,0,0,1-1.28-1.28V27.44a1.3,1.3,0,0,1,1.28-1.28H30.7a3.75,3.75,0,0,0-.22,1.28v55A10.24,10.24,0,0,0,40.71,92.65h55Zm-55-5.12A7.66,7.66,0,0,1,33,82.42V42.79H95.69V82.42A11.38,11.38,0,0,0,98,89.55c.15.19.31.37.47.54Z"/></svg>