<svg id="Calque_1" data-name="Calque 1" xmlns="http://www.w3.org/2000/svg" viewBox="0 0 122 122"><defs><style>.cls-1{fill:#f89b31;}.cls-2{fill:#fff;}</style></defs><circle class="cls-1" cx="60.79" cy="61.13" r="60.87"/><path class="cls-2" d="M98.55,23.45a53.1,53.1,0,1,0-75.1,75.1,53.1,53.1,0,1,0,75.1-75.1Zm-2.2,72.9a50,50,0,0,1-70.7-70.7,50,50,0,0,1,70.7,70.7Z"/><path class="cls-2" d="M95.3,33.62A1.55,1.55,0,0,0,93,33.5L79.72,46.76a10.43,10.43,0,0,0-1.59-2.17l-2.84-3L88.16,28.74A1.57,1.57,0,0,0,88,26.41a43.48,43.48,0,0,0-27-9.3A43.94,43.94,0,0,0,17.11,61a43.48,43.48,0,0,0,9.3,27,1.56,1.56,0,0,0,2.33.14L41,75.94v8.32a6.42,6.42,0,0,0,.11,1.16L33.5,93a1.55,1.55,0,0,0,.12,2.31A43.45,43.45,0,0,0,61,104.89,43.94,43.94,0,0,0,104.89,61,43.45,43.45,0,0,0,95.3,33.62ZM49.72,39a.52.52,0,0,1-.52-.53v-3.5a.52.52,0,0,1,.52-.52H72.28a.52.52,0,0,1,.52.52v3.5a.52.52,0,0,1-.52.53ZM27.8,84.69A40.39,40.39,0,0,1,20.22,61,40.83,40.83,0,0,1,61,20.22,40.39,40.39,0,0,1,84.69,27.8l-8.77,8.78V34.94a3.64,3.64,0,0,0-3.64-3.63H49.72a3.64,3.64,0,0,0-3.64,3.63v3.5a3.6,3.6,0,0,0,1.14,2.63l-3.35,3.52A10.52,10.52,0,0,0,41,51.88V71.54Zm16.27-.43v-.44H77.93v.44a3.32,3.32,0,0,1-3.32,3.32H47.39a3.32,3.32,0,0,1-3.32-3.32ZM61,101.78a40.31,40.31,0,0,1-24-7.85l5.53-5.52a6.39,6.39,0,0,0,4.91,2.28H74.61a6.44,6.44,0,0,0,6.44-6.43V77.63a1.56,1.56,0,0,0-3.12,0v3.08H44.07V51.88a7.53,7.53,0,0,1,.35-2.27H50a1.56,1.56,0,1,0,0-3.11H46.34l4.22-4.42H71.44l4.22,4.42H57.27a1.56,1.56,0,1,0,0,3.11H77.58c0,.09,0,.17.08.25l0,.12a7.55,7.55,0,0,1,.24,1.9V70.34a1.56,1.56,0,0,0,3.12,0V51.88A10.57,10.57,0,0,0,80.88,50L93.93,37a40.31,40.31,0,0,1,7.85,24A40.83,40.83,0,0,1,61,101.78Z"/><path class="cls-2" d="M73.3,76.16l-.77-2.63a3.54,3.54,0,0,0-2.48-2.42L69.56,71a10.67,10.67,0,0,0,.44-2h1.32a1.56,1.56,0,0,0,0-3.11h-1.4a11.11,11.11,0,0,0-.33-1.41l.89-.3a3.51,3.51,0,0,0,2.34-2.8L73.34,58a1.56,1.56,0,1,0-3.08-.48l-.51,3.35a.4.4,0,0,1-.28.32l-1.26.43c-.18-.25-.36-.49-.56-.72a6.84,6.84,0,0,0,.34-2.1,6.6,6.6,0,1,0-12.84,2.1,8.27,8.27,0,0,0-.71.94l-1.91-.65a.4.4,0,0,1-.28-.32l-.51-3.35a1.56,1.56,0,1,0-3.08.48l.52,3.34a3.53,3.53,0,0,0,2.34,2.8l1.62.55a10.88,10.88,0,0,0-.27,1.16H50.68a1.56,1.56,0,0,0,0,3.11h2.11a12.12,12.12,0,0,0,.38,1.85L52,71.11a3.54,3.54,0,0,0-2.48,2.42l-.77,2.63a1.56,1.56,0,0,0,1.06,1.93,1.67,1.67,0,0,0,.44.06A1.56,1.56,0,0,0,51.69,77l.77-2.63a.39.39,0,0,1,.29-.28l1.78-.48a8.09,8.09,0,0,0,13.61.18l1.11.3a.39.39,0,0,1,.29.28L70.31,77a1.56,1.56,0,0,0,1.49,1.12,1.67,1.67,0,0,0,.44-.06,1.56,1.56,0,0,0,1.06-1.93ZM61.4,55.28a3.49,3.49,0,0,1,3.48,3.4,7.79,7.79,0,0,0-7,0A3.49,3.49,0,0,1,61.4,55.28Zm0,19.06c-3.07,0-5.57-3-5.57-6.69,0-3.34,2.25-6.68,5.57-6.68S67,64.3,67,67.65C67,71.34,64.47,74.34,61.4,74.34Z"/></svg>