<svg id="Calque_1" data-name="Calque 1" xmlns="http://www.w3.org/2000/svg" viewBox="0 0 122 122"><defs><style>.cls-1{fill:#f89b31;}.cls-2{fill:#fff;}</style></defs><circle class="cls-1" cx="61" cy="61.13" r="60.87"/><path class="cls-2" d="M57.58,76.27a1.66,1.66,0,1,0-2.35-2.34,1.66,1.66,0,0,0,2.35,2.34Z"/><path class="cls-2" d="M49.72,36.9A18.25,18.25,0,1,0,68,18.65,18.27,18.27,0,0,0,49.72,36.9Zm33.18,0A14.93,14.93,0,1,1,68,22,15,15,0,0,1,82.9,36.9Z"/><path class="cls-2" d="M37.64,103.12a1.67,1.67,0,0,0,2.34,0L48,95.21a5,5,0,0,0,1.18-5.15l1.73-1.67A4.92,4.92,0,0,1,54.39,87h22a14.87,14.87,0,0,0,10.42-4.24c.11-.11-.88,1.06,15-18a6.64,6.64,0,0,0-10.1-8.61L82,66.24a6.69,6.69,0,0,0-5.16-2.47H58.36a21.4,21.4,0,0,0-8.31-1.66c-8,0-15,3.69-18.7,10.61a5,5,0,0,0-4.44,1.37L19,82a1.66,1.66,0,0,0,0,2.34ZM50.05,65.43A18.14,18.14,0,0,1,57.36,67a1.66,1.66,0,0,0,.66.14H76.86a3.32,3.32,0,1,1,0,6.63H63.32a1.66,1.66,0,0,0,0,3.32H76.86a6.63,6.63,0,0,0,6.63-6.63,6.36,6.36,0,0,0-.06-.87L94.3,58.37a3.32,3.32,0,1,1,5.06,4.29L84.48,80.44a11.52,11.52,0,0,1-8,3.24h-22A8.24,8.24,0,0,0,48.63,86l-1.41,1.36-13-13C37.26,68.67,43,65.43,50.05,65.43Zm-20.79,11a1.64,1.64,0,0,1,2-.23c.29.17-.53-.58,14.37,14.3a1.67,1.67,0,0,1,0,2.34l-6.86,6.76L22.53,83.18Z"/><path class="cls-2" d="M73.87,44.8a9.27,9.27,0,0,1-4.53,1.09,8.3,8.3,0,0,1-5.92-2.31,7.71,7.71,0,0,1-2-3.94H59.32V38h1.85c0-.36-.07-.6-.07-.79a8.8,8.8,0,0,1,.1-1.16H59.32V34.48h2.12a8.13,8.13,0,0,1,2.08-3.87,8.8,8.8,0,0,1,6.25-2.48,8.64,8.64,0,0,1,4.07.93l-.67,2.05a7.16,7.16,0,0,0-3.44-.79,5.72,5.72,0,0,0-4.06,1.58,4.83,4.83,0,0,0-1.36,2.58h8.24v1.59H64c0,.36-.06.73-.06,1s0,.59,0,1h8.6v1.62H64.28A5,5,0,0,0,65.57,42a5.56,5.56,0,0,0,4.16,1.62,8.36,8.36,0,0,0,3.74-.86Z"/></svg>