<svg id="Calque_1" data-name="Calque 1" xmlns="http://www.w3.org/2000/svg" viewBox="0 0 122 122"><defs><style>.cls-1{fill:#f89b31;}.cls-2{fill:#fff;}</style></defs><circle class="cls-1" cx="61" cy="61.13" r="60.87"/><path class="cls-2" d="M100.47,80.87A48.89,48.89,0,0,0,66.05,95.25a1.53,1.53,0,0,0,0,2.17,1.55,1.55,0,0,0,2.17,0,45.8,45.8,0,0,1,32.25-13.48,1.53,1.53,0,0,0,0-3.06Z"/><path class="cls-2" d="M68.55,79.45A1.52,1.52,0,0,0,66.43,79,60.2,60.2,0,0,0,50,95.48a1.52,1.52,0,0,0,1.26,2.38,1.56,1.56,0,0,0,1.28-.67,57.26,57.26,0,0,1,15.6-15.62A1.53,1.53,0,0,0,68.55,79.45Z"/><path class="cls-2" d="M100.47,68.55A60,60,0,0,0,80.34,72a1.53,1.53,0,0,0,.51,3,1.51,1.51,0,0,0,.51-.08,57.07,57.07,0,0,1,19.11-3.3,1.53,1.53,0,0,0,0-3.06Z"/><path class="cls-2" d="M45.56,87.36A69.79,69.79,0,0,1,86.29,61.7h0a68.3,68.3,0,0,1,14.17-1.49,1.54,1.54,0,0,0,0-3.07,71.87,71.87,0,0,0-13,1.18V55c5.53-4.69,8.57-10.82,8.57-17.36,0-6.75-3.25-13.08-9.14-17.82a1.53,1.53,0,0,0-1.92,0c-5.9,4.74-9.14,11.07-9.14,17.82,0,6.54,3,12.67,8.57,17.36V59a70.89,70.89,0,0,0-8.58,2.52v-9a1.52,1.52,0,0,0-.45-1.08h0l-8.57-8.62a1.55,1.55,0,0,0-1.09-.46H48.27a1.54,1.54,0,0,0-1.08.46l-8.57,8.62h0a1.52,1.52,0,0,0-.45,1.08v5.84C37.11,58.16,36,58,35,57.84V52.38a17.48,17.48,0,0,0,6.48-13.29c0-5.22-2.51-10.11-7-13.77a1.53,1.53,0,0,0-1.92,0c-4.55,3.66-7,8.55-7,13.77A17.45,17.45,0,0,0,31.9,52.38v5.11q-3.34-.32-6.74-.32a1.53,1.53,0,0,0,0,3.06,69.11,69.11,0,0,1,34.77,9.38,71.69,71.69,0,0,0-7.23,5.62,60.85,60.85,0,0,0-27.54-6.66,1.53,1.53,0,1,0,0,3.06,57.78,57.78,0,0,1,25.13,5.82,72.81,72.81,0,0,0-6.51,7.2,48,48,0,0,0-18.62-3.76,1.53,1.53,0,1,0,0,3.06,44.93,44.93,0,0,1,16.72,3.23c-1.06,1.47-2.07,3-3,4.53l-2.34,3.82A1.54,1.54,0,0,0,37,97.64a1.56,1.56,0,0,0,.8.22,1.53,1.53,0,0,0,1.31-.73l2.33-3.82a69.37,69.37,0,0,1,3.93-5.75A1,1,0,0,0,45.56,87.36ZM79,37.66c0-5.44,2.49-10.59,7-14.63,4.55,4,7,9.19,7,14.63a19.06,19.06,0,0,1-5.51,13.15V39.09a1.53,1.53,0,0,0-3.06,0V50.81A19,19,0,0,1,79,37.66ZM28.48,39.09a14.34,14.34,0,0,1,4.95-10.56,14.34,14.34,0,0,1,5,10.56,13.84,13.84,0,0,1-3.42,9V37.86a1.53,1.53,0,0,0-3.06,0V48.05A13.84,13.84,0,0,1,28.48,39.09ZM70.67,51H57.48L52,45.42H65.14Zm-22.4-4.92L53.17,51H43.38Zm-7,8H55.32v9.73c-.71-.33-1.43-.64-2.15-.94V57.69a1.53,1.53,0,0,0-1.53-1.54H44.91a1.53,1.53,0,0,0-1.53,1.54V59.5c-.71-.18-1.43-.36-2.15-.52Zm8.88,7.58c-1.21-.45-2.44-.86-3.67-1.25V59.22h3.67Zm8.27,3.65V54H72.82v8.62a68.61,68.61,0,0,0-7.67,3.72c-.8.44-1.58.91-2.36,1.38C61.35,66.88,59.87,66.05,58.38,65.27Z"/><path class="cls-2" d="M86,34.8a1.51,1.51,0,0,0,1.08-.45,1.54,1.54,0,0,0,.45-1.08,1.57,1.57,0,0,0-.45-1.08,1.52,1.52,0,0,0-2.16,0,1.53,1.53,0,0,0-.45,1.08,1.5,1.5,0,0,0,.45,1.08A1.51,1.51,0,0,0,86,34.8Z"/><path class="cls-2" d="M72.7,75.4A1.56,1.56,0,1,0,73.78,75,1.58,1.58,0,0,0,72.7,75.4Z"/></svg>