<svg id="Calque_1" data-name="Calque 1" xmlns="http://www.w3.org/2000/svg" xmlns:xlink="http://www.w3.org/1999/xlink" viewBox="0 0 1920 960"><defs><style>.cls-1{fill:none;}.cls-2{clip-path:url(#clip-path);}.cls-3{fill:#d8e9ff;}.cls-4{fill:#adc8fe;}.cls-5{fill:#73b471;}.cls-6{fill:#fddbba;}.cls-7{fill:#fff2e7;}.cls-8{fill:#ed9f4a;}.cls-9{fill:#f4cbaa;}.cls-10{fill:#f89b31;}.cls-11{fill:#f28018;}.cls-12{fill:#ffb27d;}.cls-13{fill:#233862;}.cls-14{fill:#2b478b;}.cls-15{fill:#739af0;}.cls-16{fill:#ed975d;}.cls-17{fill:#4a75cb;}.cls-18{fill:#e58638;}.cls-19{fill:#82b378;}.cls-20{fill:#ffb64d;}.cls-21{fill:#67935d;}.cls-22{fill:#c66b28;}.cls-23{fill:#ffcf83;}.cls-24{fill:#c18e4c;}.cls-25{fill:#edbd77;}.cls-26{fill:#f2ac6d;}.cls-27{fill:#5e9f5c;}.cls-28{fill:#2c3a64;}.cls-29{fill:#35488b;}.cls-30{fill:#c65447;}.cls-31{fill:#fff;}.cls-32{fill:#e8945b;}.cls-33{fill:#ed7d2b;}.cls-34{fill:#ed985f;}.cls-35{fill:#f6fbff;}.cls-36{fill:#ee9849;}.cls-37{fill:#db5b52;}.cls-38{fill:#97d389;}.cls-39{fill:#365da4;}.cls-40{fill:#db9958;}.cls-41{fill:#ffc36c;}</style><clipPath id="clip-path"><rect class="cls-1" x="0.99" width="1920" height="960"/></clipPath></defs><g class="cls-2"><path class="cls-3" d="M233.5,870.75c2.61,32.06,15.54,63.22,30.16,91.53.07.08,135.24,0,135.34,0l125.26,0h51.19l53.13,0,54.25,0H822.15l57.8,0h45.27l204.39-.06,544.18-.18c15.35-15.35,52.27-68.59,72.78-124.56,10.57-28.83,18.64-61.56,20.78-97,7.86-129.88-85.51-262.56-180.85-322.14-106.17-66.14-214.83-43.16-300.89,14.52-33.14,22.21-107.11,17.15-189.1-45A448,448,0,0,1,1045.23,342q-16.12-16.69-32.25-36.56A679.33,679.33,0,0,1,964.61,237C844.5,43.89,514.47,70.61,370.44,251.79a320.4,320.4,0,0,0-30.92,46.64c-36.92,68-50,152.39-24.87,250.72A276.14,276.14,0,0,1,321.2,583c4.49,35.22.38,63.94-8.07,89q-2.47,7.32-5.4,14.24a278.31,278.31,0,0,1-13.8,27.9c-13.26,23.65-28.64,45-40.64,67.87C238.48,810.28,230.57,837.6,233.5,870.75Z"/><path class="cls-4" d="M1129.61,962.07l544.17-.17s45-48.81,72.79-124.57c-31.73-7-75.85-12.47-117.25-3.08-76.39,17.33-186.84,93.44-270,83.75C1276.39,908.35,1146.29,920.28,1129.61,962.07Z"/><path class="cls-5" d="M680.54,778.52s26.32-27.36,66.57-14.88,25.54,47.17,45.32,54.24,73.78-3.31,89,47-16.57,72.23,3.32,69.58,25.84,25.83,25.84,25.83-227.74,0-227.74,4.37S680.54,778.52,680.54,778.52Z"/><polygon class="cls-6" points="410.68 686.28 410.68 962.24 461.09 962.22 590.14 962.18 626.19 962.17 626.19 686.28 410.68 686.28"/><path class="cls-7" d="M253.29,782.05a209.74,209.74,0,0,0-10,21.75V962.29h20.39l147,0v-276H307.73a278.31,278.31,0,0,1-13.8,27.9C280.67,737.83,265.29,759.22,253.29,782.05Z"/><polygon class="cls-8" points="355.9 560.74 426.51 706.12 641.03 706.12 529.19 561.27 355.9 560.74"/><polygon class="cls-6" points="347.43 560.74 418.04 706.12 632.57 706.12 520.72 561.27 347.43 560.74"/><path class="cls-9" d="M492,633.43h59a0,0,0,0,1,0,0v71.32a26.81,26.81,0,0,1-26.81,26.81H519.7A27.71,27.71,0,0,1,492,703.85V633.43a0,0,0,0,1,0,0Z" transform="translate(1043 1364.99) rotate(-180)"/><path class="cls-10" d="M313.13,672c8.45-25.06,12.56-53.78,8.07-89l17.19-22.27H529.76l-.49.64-4.16,5.56L435.6,686.28l-11.37,15.15-3.51,4.69-6.05,8.06H293.93a278.31,278.31,0,0,0,13.8-27.9Z"/><path class="cls-11" d="M313.13,672l65.16-47.77,6.25-4.57,80-58.61,0,0,.44-.32H338.39L321.2,583C325.69,618.26,321.58,647,313.13,672Z"/><polygon class="cls-8" points="544.11 746.72 594.38 850.22 747.11 850.22 667.48 747.1 544.11 746.72"/><polygon class="cls-6" points="539.53 746.72 589.8 850.22 742.53 850.22 662.91 747.1 539.53 746.72"/><path class="cls-6" d="M590.14,850.22V961.06H640.7c1.69-.25,2.55-.42,2.55-.42s.52.58,1.49,1.53l54.84,0,42.95,0V850.22Z"/><polygon class="cls-7" points="461.09 850.22 461.09 962.22 590.14 962.18 590.14 850.22 461.09 850.22"/><polygon class="cls-10" points="446.91 856.34 585.54 856.34 667.48 747.09 626.19 747.1 531.24 747.12 446.91 856.34"/><path class="cls-9" d="M635.38,873.19v87.87l.4,1.11h9l54.84,0V874.26A32.64,32.64,0,0,0,667,841.62a31.58,31.58,0,0,0-31.57,31.57Z"/><path class="cls-9" d="M674.69,804.55a7.21,7.21,0,1,0-7.21,7.21A7.2,7.2,0,0,0,674.69,804.55Z"/><polygon class="cls-11" points="446.91 856.34 473.22 856.34 626.19 747.1 531.24 747.12 446.91 856.34"/><path class="cls-12" d="M711,703.14s-15.09-2.7-18-7a28.28,28.28,0,0,1-3.84-8.31L711,693.2Z"/><path class="cls-13" d="M806.87,960.31a4.67,4.67,0,0,1-.87,2.14H763.67c1.73-5,10.52-7.89,10.52-7.89C788.83,950.2,793.36,939,793.36,939l13.73-1.84s.74,14,.3,18.69C807.23,957.56,807.05,959.05,806.87,960.31Z"/><path class="cls-14" d="M760.58,757.33s6.48,38.35,13,86.51q1,7.44,1.93,15c3.7,30,6.43,60.76,8.45,90.06,0,0,17.72,8,27.22-2,0,0,5.35-31.63,6.74-62,.45-9.87.1-19.27-1.6-26.86-3-13.35-3-29.62-2.58-46.72.52-22.58,1.7-46.6-2.56-67.25Z"/><path class="cls-13" d="M760.58,757.33s6.48,38.35,13,86.51q1,7.44,1.93,15l38.23-47.51c.52-22.58,1.7-46.6-2.56-67.25Z"/><path class="cls-13" d="M693.73,930.53s-8,9-23.25,8.25c0,0-12.23-.27-13.59,6.08,0,0,19.77,5.43,24.82,7a55.23,55.23,0,0,1,11,5.17,4.79,4.79,0,0,0,6.69-1.91c.59-1.14,1.26-2.47,2-4,2-4.3,5.95-17.71,5.95-17.71Z"/><path class="cls-14" d="M689.28,932s8.47,12.09,21.26,6.93c0,0,22.52-28,36.35-55,4.49-8.79,8.07-17.49,9.66-25.11C763,827.67,815.4,784.28,811.2,744H747.44s-10,37.59-23.94,84.13C713.43,861.7,701.28,899.87,689.28,932Z"/><path class="cls-12" d="M791.35,634.66c12.72,7.18,38.75.55,38.75.55s-6.85-7.83-7-21a41.94,41.94,0,0,1,1.24-10.52l-15.6,7.93-5.11,2.59s-.48,2.4-.92,6.8c-.22,2.21-.43,4.94-.56,8.12A33.14,33.14,0,0,0,791.35,634.66Z"/><path class="cls-15" d="M744.73,745.39c0,2.23,2.57,3.3,3.13,3.41,5.12.94,19.44,6.5,32.34,7.78,10.86,1.14,20.94.06,32-2.16,1.47-.3,4.92-1.23,5.16-2.63s42.73-86.49,9.75-123c-.78-.86-7.29.68-13.24,2.1a24.43,24.43,0,0,1-15-1.23l-5.59,2.93c-6.86,3.82-19.83,17.4-21.35,28,0,0,0,.08,0,.12-.79,5.35-3.85,9.34-4.74,14.08q-.49,2.64-1,5.15c-.67,3.3-1.37,6.42-2.09,9.41q-1.57,6.52-3.22,12.1c-.59,2.06-1.2,4-1.8,5.9-.33,1-.65,2-1,3-2.14,6.36-4.23,11.65-6.11,16.08-2.43,5.74-4.49,10-5.77,13.31-.18.48-.36,1-.52,1.39A13.34,13.34,0,0,0,744.73,745.39Z"/><path class="cls-16" d="M802.7,621c18,.72,20.39-6.8,20.39-6.8a29.75,29.75,0,0,0-14.36-2.59l-5.11,2.59S803.14,616.58,802.7,621Z"/><path class="cls-12" d="M797.12,611s19,13.59,27.23,1.66,16.31-18.2,4.57-27.39-17.29-6.28-21-3S792.41,607.11,797.12,611Z"/><path class="cls-13" d="M806.93,578a26.42,26.42,0,0,1,2.05-7s1.1,4.39,9.45,3.79,21.58.79,26,9.94c.28.58.53,1.18.76,1.8a20.88,20.88,0,0,0,1-5.07c1.58,3.94,0,8.87,0,8.87h0l.06.43c1.84,1.5,3.39,6.16,3.39,6.16a5.69,5.69,0,0,0-3.12-2.67c0,7.13-3,14.09-8.23,16.16-7.71,3-7.65.72-15.4,5.67,0,0-2.08-2.48-.66-4.15s6.77-4.09,3.78-6.52-4.09.3-5.2-1.36,4.41-6.52-2.68-11.07S806.3,582.11,806.93,578Z"/><path class="cls-17" d="M745.64,741.18c63.92-2.15,67.25-68,67.25-68s-27.52,13.42-52.07,28.34c-.92,3.17-1.86,6.13-2.78,8.88-2.14,6.36-4.23,11.65-6.11,16.08-2.43,5.74-4.49,10-5.77,13.31C746,740.27,745.8,740.74,745.64,741.18Z"/><path class="cls-17" d="M759,707.42a23.86,23.86,0,0,0,9-.24c20.23-4.38,34.68-51.85,34.68-51.85-.22-.39-15.42.37-30.81,5.45-.79,5.35-3.85,9.34-4.74,14.08q-.49,2.64-1,5.15c-.67,3.3-1.37,6.42-2.09,9.41q-1.57,6.52-3.22,12.1C760.23,703.58,759.62,705.55,759,707.42Z"/><path class="cls-18" d="M714.67,656.31s7.69-1.39,11.06-5.34c2-2.31,2-3.92,1.09-5a5,5,0,0,0-2.57-1.32l-.67-.14C720.3,644,715.19,655.74,714.67,656.31Z"/><path class="cls-19" d="M724.41,640c1.29-.41,1.37,3.41.83,5l0,0c1-1.47,7.63-11.18,11.6-10.83,4.24.37-6,7.24-11.5,10.87h0c1.24-.73,7.11-3.9,10.29-.12,0,0,.26,1.45-2.15.8s-4.94-1.43-8-.62a3.78,3.78,0,0,1,1.28.88s-2.17-.14-2.57-1.32l.79.23C724.62,643.87,723.27,640.32,724.41,640Z"/><path class="cls-18" d="M689.14,652.2s-7.06-3.35-9.29-8.05c-1.3-2.73-.94-4.31.25-5.08a5,5,0,0,1,2.83-.6c.22,0,.44,0,.67,0C686.92,638.84,688.79,651.51,689.14,652.2Z"/><path class="cls-19" d="M684,633.86c-1.14-.73-2.21,2.94-2.11,4.66h-.06c-.57-1.68-4.46-12.78-8.38-13.48-4.19-.75,3.92,8.56,8.27,13.49h0c-1-1-5.84-5.62-9.9-2.8,0,0-.62,1.33,1.87,1.33s5.14-.09,7.89,1.49a3.82,3.82,0,0,0-1.47.51s2.13.43,2.83-.6a7.48,7.48,0,0,0-.83,0C682.78,637.59,685,634.51,684,633.86Z"/><path class="cls-18" d="M706.94,660s-11.16-6.78-14.05-15c-1.69-4.78-.81-7.33,1.29-8.4a8.33,8.33,0,0,1,4.8-.51c.37,0,.74.11,1.12.19C705.55,637.43,706.46,658.81,706.94,660Z"/><path class="cls-19" d="M701.56,628.65c-1.75-1.42-4.17,4.49-4.31,7.37h-.1c-.65-2.88-5.18-22-11.59-23.85-6.82-2,5,14.9,11.41,23.86h0c-1.49-1.89-8.73-10.36-16-6.37,0,0-1.27,2.09,2.87,2.52,4,.42,8.56.75,12.85,3.85a6.58,6.58,0,0,0-2.53.6s3.47,1.08,4.8-.51a13.25,13.25,0,0,0-1.38-.11C698.89,634.63,703.13,629.9,701.56,628.65Z"/><path class="cls-20" d="M732.07,657.37s-37.68-26.89-56.53-9.87c0,0-7.92,23.18,16.43,32.75S744.52,681,732.07,657.37Z"/><path class="cls-19" d="M758,654.64s11.9,8,1.08,24.85-28.18,21-43.69,12S728.17,626.17,758,654.64Z"/><path class="cls-21" d="M718,692.84c-.38.17,48.66-.93,40.93-32.9,0,0-2.51-5.06-4.69.4S758,674.55,718,692.84Z"/><path class="cls-21" d="M751.93,651.13s-6.17-6.34-19.75-.21c-10.54,4.76-19.43,26.31-18.47,31.81,0,0,12.74-28.63,23-29.57S753.85,654.9,751.93,651.13Z"/><path class="cls-21" d="M733.57,678.26c.63-.94,19.2-11.39,19.76-21S733.57,678.26,733.57,678.26Z"/><path class="cls-21" d="M758.21,655.88a5.16,5.16,0,0,1-4-2.17s2.36.95,2.51-2.15a6.29,6.29,0,0,0-1.44-4.67l.62.31A11.12,11.12,0,0,1,758.21,655.88Z"/><path class="cls-18" d="M650.34,643.29c.64,13.2,24.6,34,42.69,40.46,6.75,2.42,12.67,2.88,16.27.22a8.1,8.1,0,0,0,1.41-1.34c11.1-13.69.57-23-10.23-25-6.08-1.14-13.43-3.05-19.45-6.66-4.68-2.79-8.55-6.6-10.38-11.86-4.21-12-13-11.77-13-11.77a5,5,0,0,0-1.35.31,7.34,7.34,0,0,0-1.13.56,9.22,9.22,0,0,0-3.67,4.93A26,26,0,0,0,650.34,643.29Z"/><path class="cls-19" d="M659.49,629s-2.31,1.74-4.38,1.1a1,1,0,0,0,.3-1.21c-.26-.84-1.34-3.59-1.34-3.59s-.59-.59,1.47.3C655.54,625.61,655.12,628.35,659.49,629Z"/><path class="cls-22" d="M650.34,643.29c.64,13.2,24.6,34,42.69,40.46,5.15.28,10.68.4,16.27.22a8.1,8.1,0,0,0,1.41-1.34c11.1-13.69.57-23-10.23-25-6.08-1.14-13.43-3.05-19.45-6.66-12.22-2.75-19.41-11.29-22.54-15.58-2.55-3.48-5.21-3.14-7-2.25A26,26,0,0,0,650.34,643.29Z"/><path class="cls-19" d="M693,668.14a7.59,7.59,0,0,1,5.46,4.64,10.73,10.73,0,0,1,1.57-4.66,7.38,7.38,0,0,1,2.33,5.67,10.43,10.43,0,0,1,7.35-.88s-1.61,4.41-8,4.52a17.31,17.31,0,0,1-1.14,2.63A6.19,6.19,0,0,1,699.3,678,10.61,10.61,0,0,1,693,668.14Z"/><path class="cls-19" d="M671.62,670.61c-.46-.67-3.86-16.27-15.15-18.69s-12.42,8.74-10,11.73S671.62,670.61,671.62,670.61Z"/><path class="cls-23" d="M643.23,652.93l123.33,30.63a2.86,2.86,0,0,0,3.45-2.08l2.48-10a2.87,2.87,0,0,0-2.08-3.46L647.08,637.43a2.86,2.86,0,0,0-3.46,2.08l-2.47,10A2.87,2.87,0,0,0,643.23,652.93Z"/><path class="cls-23" d="M751.8,702.53l9-36a.81.81,0,0,0-.58-1l-2.53-.63a.79.79,0,0,0-.95.58l-9,36a.79.79,0,0,0,.58,1l2.53.63A.78.78,0,0,0,751.8,702.53Z"/><path class="cls-23" d="M643.5,675.63l9-36a.79.79,0,0,0-.57-1l-2.53-.62a.79.79,0,0,0-1,.57l-8.95,36a.79.79,0,0,0,.57,1l2.53.62A.78.78,0,0,0,643.5,675.63Z"/><path class="cls-23" d="M637.74,675l123.33,30.63a2.86,2.86,0,0,0,3.46-2.08l2.47-10a2.86,2.86,0,0,0-2.08-3.45L641.59,659.52a2.86,2.86,0,0,0-3.46,2.08l-2.47,9.95A2.86,2.86,0,0,0,637.74,675Z"/><path class="cls-24" d="M768,672a1.47,1.47,0,1,0-1.79,1.08A1.47,1.47,0,0,0,768,672Z"/><path class="cls-24" d="M766.22,679.1a1.48,1.48,0,1,0-2.87-.71,1.47,1.47,0,0,0,1.08,1.79A1.49,1.49,0,0,0,766.22,679.1Z"/><path class="cls-24" d="M762.52,694a1.48,1.48,0,0,0-2.87-.72,1.48,1.48,0,0,0,2.87.72Z"/><path class="cls-24" d="M760.75,701.11a1.48,1.48,0,1,0-1.79,1.08A1.47,1.47,0,0,0,760.75,701.11Z"/><path class="cls-24" d="M651,642.92a1.48,1.48,0,0,0-2.87-.71,1.48,1.48,0,1,0,2.87.71Z"/><path class="cls-24" d="M649.22,650a1.47,1.47,0,0,0-1.08-1.79,1.48,1.48,0,1,0,1.08,1.79Z"/><path class="cls-24" d="M645.52,664.94a1.48,1.48,0,1,0-1.79,1.08A1.48,1.48,0,0,0,645.52,664.94Z"/><path class="cls-24" d="M643.75,672.06a1.47,1.47,0,1,0-1.79,1.07A1.46,1.46,0,0,0,643.75,672.06Z"/><path class="cls-15" d="M833.48,657.71S802,712.12,781.32,720C766.55,725.55,711,704.67,711,704.67s-6-7.74,0-11.47c0,0,50.63,4.85,54.32,2.46s25-43,31.69-47.61S833,645,833.48,657.71Z"/><path class="cls-23" d="M814.25,603.17c17.81,18.79,39,27.63,47.28,19.76s.58-29.47-17.24-48.26S805.3,547,797,554.91,796.43,584.39,814.25,603.17Z"/><path class="cls-25" d="M816.63,569.09s18.75-12.36,32-1.49,1,34.52,1,34.52-15.52-2.52-24.9-13.2S816.63,569.09,816.63,569.09Z"/><path class="cls-26" d="M1672.47,675.25c.54,7.49,0,248.58-8.52,285.09h29.82s-1.06-261.16,0-265.4S1672.47,675.25,1672.47,675.25Z"/><path class="cls-27" d="M1469.64,572.47c-25.22,36.42-19,109.19,62.44,118.44s48.74,43.66,120.62,62.6c37.71,9.94,81.52-.75,114.65-13.16,3.75-62-10.68-132.28-61.68-204.33-38.43-54.3-78.62-92.55-119.17-117.81-58.18,4.54-113.81,15.77-133.66,26.58C1408.78,468.79,1494.85,536.05,1469.64,572.47Z"/><path class="cls-5" d="M262.64,960.34H443.42c-2-66.29-68.92-62.94-84.16-71.55s19.88-50.37-18.56-90.13c-28.18-29.14-68.1-22.33-87.41-16.61C229.83,826.69,219.27,876.86,262.64,960.34Z"/><g id="man"><path class="cls-28" d="M1189,932.66s-5.71,5.29-4.59,9.05,6.26,6.26,6.95,10.85,3.48,7.09,6,7.09h11.94s1.84-3.23-2.61-4.2-6.13-6.37-5.86-11.38a90,90,0,0,0-.41-11.69l-9.46-2.22Z"/><path class="cls-28" d="M1259,947.08s-1.39,11.13,1.11,12.38,32.42.83,32.42.83,0-3.75-5.15-4.59-14.19-3.89-15.72-10.71S1259,947.08,1259,947.08Z"/><path class="cls-29" d="M1286,777.12s-1.69,21.09-3.68,46.44c-2.7,34.44-5.95,76.74-6.27,84.75-.55,13.92-2.78,36.18-2.78,36.18s-5.29,5.29-15.86,3.06c0,0-9.43-31.78-12.12-65.4l-.12-1.66c-2.51-34.22-6.4-106.29-6.4-106.29Z"/><path class="cls-28" d="M1286,777.12s-1.69,21.09-3.68,46.44l-37,58.59-.12-1.66c-2.51-34.22-6.4-106.29-6.4-106.29Z"/><path class="cls-29" d="M1278.32,779.62s-30.47,76.38-50.5,112.28-26.3,45.91-26.3,45.91-11.48-4.59-12.52-7.72c0,0,7.66-69.3,21.08-86.19,7.58-9.55,16.48-38.19,16.9-48.21s2.71-29.84,2.71-29.84Z"/><path class="cls-12" d="M1338.11,769.05s10.75,5.16,12.2,6.49,5,7.82,4.75,8.31-.81.65-1.79,0-3.71-3.49-3.81-3,7.3,9.24,6,11.08-8.72,1.3-13-1.72-8.46-14.08-9.1-14.69C1328,770.39,1338.11,769.05,1338.11,769.05Z"/><path class="cls-10" d="M1338.6,774.58c3-2.6,3.06-3.25,3.06-3.25s-19.06-33-20.72-36.14-11.87-52.69-11.87-52.69l-35.32-10.24s24.88,64.34,29.22,72.29c7.19,13.14,30.63,32.48,30.63,32.48A11,11,0,0,0,1338.6,774.58Z"/><path class="cls-12" d="M1291.74,659.38s12.43,21.87,24.58,24.73c0,0-.5-7.35-3.46-12.38,1.21-1.43,2.27-2.74,3.2-3.91a72.4,72.4,0,0,0,4.51-6.32l-4.12-11.09-2.8-7.52a36.32,36.32,0,0,1-4.38,6.3C1301.31,658.34,1291.74,659.38,1291.74,659.38Z"/><path class="cls-16" d="M1309.27,649.19s-1.48,11,6.79,18.63a72.4,72.4,0,0,0,4.51-6.32l-4.12-11.09A23.48,23.48,0,0,0,1309.27,649.19Z"/><path class="cls-12" d="M1323.85,663.11s-18.58-7.24-13.89-18.74,5.45-20.17,17.5-16,12.56,9.45,11.93,13.67S1328.8,664.7,1323.85,663.11Z"/><path class="cls-10" d="M1227.89,771.62c7.5,10.77,63.52,25.17,62.85,17.71a81.7,81.7,0,0,1,0-14.7c.14-1.6.34-3.3.59-5.08,1.43-9.81,4.81-22.4,12.35-37,.57-1.09,1.15-2.19,1.76-3.31a113.11,113.11,0,0,0,7.77-17.45c3.88-11.21,5.45-21.95,3.49-29l0-.1c-11.71-5.41-16.25-26.41-16.25-26.41s-40,7.17-62.33,60.42c0,0-2.15,5.85-4.6,13.78-3,9.63-6.42,22.32-7,31.37C1226.19,766.2,1226.55,769.68,1227.89,771.62Z"/><path class="cls-14" d="M1307.29,623c-.13-.26-.51-.54-1.43-.82a3.89,3.89,0,0,1,1.87-.07c.52-1.27,1.79-3.44,4.17-3.45a2.93,2.93,0,0,0-1.87,1.72c3.26-2.07,9.3-2.67,24.38,2.35,19.87,6.62,9.94,18.16,6.93,19.08s-8.56-5-13.54-5.82-7.69,6.14-9.59,6.71-.82-1-2.81-2.59-3.13,2.15-3.09,4.76-3.84,5.1-3.84,5.1l-2.28-4.18c-2.27-4.18-1.65-19.34.52-22.06Z"/><path class="cls-25" d="M1304.74,625.75s2.3-18.48,15.67-17.46,19,7.93,19.91,18.19Z"/><path class="cls-23" d="M1291.07,632.41c-.12,4,5.49,7.67,14.13,10,0,0,0,0,0,0l-.09-.6c0-.06,0-.13,0-.19a3.86,3.86,0,0,1-.06-.49c0-.44-.1-.89-.13-1.36,0,0,0-.08,0-.14-.07-1.81.08-8.42.08-8.42,2.91-1.71,7.91-2.88,13.81-3.13,1.36-.07,2.78-.08,4.23,0s3,.15,4.38.31h0c5.3.58,9.8,1.86,12.65,3.51,2.1,1.22,3.3,2.64,3.25,4.12,0,1.28-2.2,4.79-3.86,5.78,0,0,0,.08,0,.12h0a13.94,13.94,0,0,1-.49,1.85c0,.11-.08.24-.13.36,10.4-1.57,16.61-5.17,16.74-9.6.13-4.19-6.11-8.05-15.51-10.35h0c-.77-.19-1.59-.37-2.42-.54-.6-.13-1.22-.24-1.85-.35a85.59,85.59,0,0,0-12.07-1.21,81.22,81.22,0,0,0-16.42,1l-.57.11c-.52.09-1,.2-1.51.3h0C1296.76,625.28,1291.2,628.54,1291.07,632.41Z"/><path class="cls-11" d="M1226.48,761.9c48.21-14.54,55.88-72,55.88-72s-27.45,21-48.86,40.65C1230.51,740.16,1227.08,752.85,1226.48,761.9Z"/><path class="cls-30" d="M1179.22,849.12l26.33,2.83,12.83,1.38a9.11,9.11,0,0,0,10-8.07l4.85-45.1-6.65-.72-.33,0a21.88,21.88,0,0,0-13.48-21.11,21.44,21.44,0,0,0-6-1.51,21.76,21.76,0,0,0-23.81,18l-7-.74-4.84,45.1A9.11,9.11,0,0,0,1179.22,849.12ZM1184.7,795a20.14,20.14,0,0,1,17.7-16.45,20.07,20.07,0,0,1,7.37.61.79.79,0,0,1,.22.06,19.59,19.59,0,0,1,2,.7,20.13,20.13,0,0,1,12.49,19.35Z"/><path class="cls-12" d="M1213.26,763.79s1.09,9.12.83,10.61-2,5.91-2.43,5.94-1.75.07-1.71-.84.63-1.76.25-1.61-.5,3.59-2.23,3.5-6.86-2-6.65-6,5.66-11.33,5.79-12C1208.21,757.76,1213.26,763.79,1213.26,763.79Z"/><path class="cls-10" d="M1210.38,765.33c3.82,1.75,5.24,0,5.24,0s22.28-37.2,24.63-40.19,43.47-20.64,43.47-20.64,16.74-6.4,17.4-16.55c.57-8.83-4.44-14.25-9.92-17.52a18.53,18.53,0,0,0-20.82,1.35c-13.49,10.48-40.23,31.55-44.54,37.27-9.58,12.72-20.19,52.59-20.19,52.59A13.22,13.22,0,0,0,1210.38,765.33Z"/><path class="cls-31" d="M1323.31,654.78s-.32,1.34,2.76,2.67c0,0,2.59,1.11,3.18-.25A9,9,0,0,0,1323.31,654.78Z"/></g><path class="cls-12" d="M1107.39,940.32l6.13-2a193.39,193.39,0,0,0-1.45-36.6c-1.73-12.65-4.9-26.34-10.64-37.34a48.32,48.32,0,0,0-9.48-12.93s-4.71-10.93-10.94-25.54c-6.94-16.24-50.32-21-25.56,13,5.07,7,10.53,19.28,17.07,26.74,11.16,12.76,19,27.66,24.46,40.77A182.67,182.67,0,0,1,1107.39,940.32Z"/><path class="cls-12" d="M1121.35,941.25c1.86,3-2.15,6-7.12,8.75s-2.91,3.06-9.26,7.79-10.1,4.21-11.07,3.52,1.73-3.54,4.45-6.73l1-1.22c3-3.64,3.49-8.22,4.92-13,1.35-4.49-.79-15.66-.79-15.66L1112,918s1.72,10.16,2.67,14.39c.55,2.49,2.59,4.57,4.24,6.1A14,14,0,0,1,1121.35,941.25Z"/><path class="cls-11" d="M1114.23,950c-5,2.78-2.91,3.06-9.26,7.79s-10.1,4.21-11.07,3.52,1.73-3.54,4.45-6.73l.08,0a22.2,22.2,0,0,0,10.64-5.12c4-3.55,7.09-8.53,9.83-11a14,14,0,0,1,2.45,2.76C1123.21,944.26,1119.2,947.22,1114.23,950Z"/><path class="cls-10" d="M1064.91,621s15-1.82,22.49,12.11,6.91,34.09,14.21,43.61-1.22,18.54-1.22,18.54l-56.83,1.91a39.5,39.5,0,0,1,0-23.4C1047.51,661,1028.21,622.9,1064.91,621Z"/><path class="cls-12" d="M1049.37,757.54c9.92-31.72-10.06-31.31-9-47.19s13.32-32.94,13.32-32.94l1.21-.12a1.09,1.09,0,0,0,.93-.71,25.85,25.85,0,0,0,.59-6.86c0-4.37-.35-9-.35-9l14.74-2.92.88-.17c0,7.41,1.38,13,2.89,16.1a4.94,4.94,0,0,0,3.77,2.72c3.17.45,8.74,1.4,12.5,3,1.82.76,3.21,1.67,3.7,2.73,4,8.9,8.09,31.37,10.93,47.39,1.58,8.94,3.35,16.44,2.68,19.61-.14.69-12.73,5.19-14.49-3.15-.57-2.72-2-8.15-3.62-14.25l-.76-2.8c-2.89,7.86-4.37,11.49-4.29,14.88.11,4.83,3.39,9.17,10.23,24.52C1099,776.82,1039.23,790,1049.37,757.54Z"/><path class="cls-32" d="M1056.05,660.71s.34,4.64.35,9c8.24-.23,12.61-7.76,14.39-11.93Z"/><path class="cls-12" d="M1053.3,664.85s19.51.32,19.53-11.84,2.54-20.3-9.92-21S1048,635.9,1047,640,1048.22,664.45,1053.3,664.85Z"/><path class="cls-12" d="M1026.06,948.19l6.26,1.54a193.19,193.19,0,0,0,18-31.89c5.19-11.66,9.7-25,10.61-37.34a48.05,48.05,0,0,0-1.25-16s1.75-11.77,4.15-27.48c2.66-17.46,6.1-39.78,8.8-56.19l-1.63-.49-26.64-15.58s-12.25,27.91-9.12,69.88c.64,8.61-1.19,21.93.43,31.72,2.78,16.73,1.64,33.54-.67,47.54A182.1,182.1,0,0,1,1026.06,948.19Z"/><path class="cls-10" d="M1047.61,633.2c3-3.65,5.29-2.85,6.57-1.76,10.46-5.8,17.54,2.81,17.54,2.81a23.21,23.21,0,0,0,7.6,13.72s-3.47,1.85-11.76.09c-9.83-2.08-12.53-13.16-12.93-14.6-1.19,1.07-3.54,3.39-4.25,5.67-1,3.09-1.41,9.47-3.27,9.25C1047.11,648.38,1043.08,638.69,1047.61,633.2Z"/><path class="cls-31" d="M1028.21,875.94c23.57,13.46,85.61-8,85.55-9.22-.33-6.59-6.29-46.27-13.29-84.13-4.31-23.29-15.77-32-13.93-33.45l0,0c7.07-5,4-13.62,3.55-16.7a23.5,23.5,0,0,0,17.19-2.52c-3.3-16.13-8-38.76-12.72-47.72a3.69,3.69,0,0,0-1.16-1.23s0-.05,0-.05c-4.41-3.22-13.42-4.2-13.42-4.2s-4.86,11.89-6.35,13.75c-9.62,12-26.89,6.6-24.54-.89.85-2.73,5.21-11.3,5.74-12.26a10.7,10.7,0,0,0-1.22.12c-2.9.38-5,.67-6.43.93-2.9.49-3.62.84-4.34,1.39-2.54,2.55-5.85,8.86-6.12,20.14-.1,4.19-4.46,50.5,9.67,49.7.32,0,0,.74-.57,2.17-2,4.58-7.65,16.09-9.3,30.85C1031.24,830.61,1028.21,875.94,1028.21,875.94Z"/><path class="cls-31" d="M1058.9,657.67s-.37,1.5-4.1,1.22c0,0-3.13-.23-3-1.88A10.07,10.07,0,0,1,1058.9,657.67Z"/><path class="cls-12" d="M1037.45,956.33c0,3.55-5,3.94-10.67,3.69s-4.08,1.07-12,1.75-10.81-1.74-11.27-2.84,3.33-2.1,7.33-3.38l1.51-.49c4.51-1.5,7.3-5.15,11-8.43,3.52-3.11,7.58-13.73,7.58-13.73l10.75-1.26s-3.88,9.54-5.3,13.63c-.84,2.41-.21,5.25.39,7.43A14,14,0,0,1,1037.45,956.33Z"/><path class="cls-11" d="M1026.78,960c-5.69-.25-4.08,1.07-12,1.75s-10.81-1.74-11.27-2.84,3.33-2.1,7.33-3.38l.06.07a22.14,22.14,0,0,0,11.73,1.25c5.27-.91,10.52-3.51,14.15-4.17a14,14,0,0,1,.64,3.63C1037.44,959.88,1032.47,960.27,1026.78,960Z"/><path class="cls-11" d="M1028.21,875.94c23.57,13.46,85.61-8,85.55-9.22-.33-6.59-6.29-46.27-13.29-84.13-4.31-23.29-15.77-32-13.93-33.45-.44.35-7.09,5.71-19.28,5a204,204,0,0,1-21.38-2.39c-2,4.58-7.65,16.09-9.3,30.85C1031.24,830.61,1028.21,875.94,1028.21,875.94Z"/><path class="cls-33" d="M1086.56,749.11s-19.29,8.06-40.11.46l-1.06,3.26s21.42,7.44,42-1Z"/><path class="cls-18" d="M1045.86,756.74s6.91-6,8-11.92c.62-3.49-.28-5.15-1.85-5.64a5.8,5.8,0,0,0-3.36.19,7.41,7.41,0,0,0-.75.26C1044.24,741,1046.05,755.86,1045.86,756.74Z"/><path class="cls-19" d="M1046,734.51c1-1.17,3.38,2.62,3.81,4.59h.07c.12-2.05,1.06-15.75,5.26-17.75,4.48-2.14-1.76,10.84-5.14,17.74h0c.82-1.47,4.84-8.13,10.28-6.2,0,0,1.11,1.3-1.69,2.06s-5.82,1.5-8.42,4.12a4.45,4.45,0,0,1,1.81.13s-2.26,1.13-3.36.19a8.4,8.4,0,0,1,.93-.23C1048.51,738.34,1045.05,735.56,1046,734.51Z"/><path class="cls-18" d="M1001.29,736.71s-6.94-1.41-9.92-5.07c-1.74-2.13-1.76-3.59-.88-4.52a4.48,4.48,0,0,1,2.36-1.14,5.33,5.33,0,0,1,.6-.11C996.44,725.44,1000.82,736.19,1001.29,736.71Z"/><path class="cls-19" d="M992.79,721.69c-1.15-.4-1.3,3.06-.85,4.55l-.05,0c-.86-1.35-6.68-10.28-10.29-10-3.84.25,5.3,6.69,10.2,10.09h0c-1.11-.69-6.35-3.69-9.31-.32,0,0-.27,1.3,1.92.76s4.51-1.19,7.27-.39a3.45,3.45,0,0,0-1.18.77s2-.09,2.36-1.14a7,7,0,0,0-.73.19C992.53,725.23,993.82,722,992.79,721.69Z"/><path class="cls-18" d="M1018.64,739.74s-11.29-3.56-15.6-10.15c-2.53-3.83-2.31-6.27-.68-7.67a7.47,7.47,0,0,1,4.11-1.48,8.43,8.43,0,0,1,1-.08C1012.53,720.16,1018,738.79,1018.64,739.74Z"/><path class="cls-19" d="M1007.13,713.3c-1.86-.87-2.71,4.85-2.21,7.42l-.08,0c-1.2-2.39-9.33-18.25-15.36-18.48-6.44-.26,7.64,12,15.2,18.53h0c-1.72-1.34-9.92-7.23-15.42-2.15,0,0-.67,2.12,3.06,1.6s7.71-1.19,12.15.61a5.81,5.81,0,0,0-2.09,1.07s3.28.2,4.11-1.48a11.91,11.91,0,0,0-1.24.19C1006.07,719.14,1008.77,714.07,1007.13,713.3Z"/><path class="cls-18" d="M1052.35,757.3s-.28-11.84,4.57-18c2.82-3.63,5.2-4.21,7-3.12a7.52,7.52,0,0,1,2.74,3.41c.15.3.27.62.4,1C1068.91,745.21,1053,756.35,1052.35,757.3Z"/><path class="cls-19" d="M1073.67,737.87c.22-2-5.47-1-7.74.31l0-.07c1.88-1.9,14.26-14.72,12.55-20.5-1.84-6.18-8.93,11.11-12.64,20.36h0c.71-2.06,3.64-11.73-2.94-15.3,0,0-2.22.05-.53,3.42s3.62,6.91,3.35,11.7a5.85,5.85,0,0,0-1.7-1.64s.87,3.17,2.74,3.41c-.19-.39-.38-.76-.59-1.1C1067.79,738.76,1073.47,739.68,1073.67,737.87Z"/><path class="cls-20" d="M1040.19,732s-39-15.52-51.89,3.54c0,0-2,22.11,21.54,25.27S1056.26,750.11,1040.19,732Z"/><path class="cls-18" d="M965.2,737.26c3.42,11.49,29,24.57,46.34,26.38,6.45.68,11.77-.2,14.36-3.33a6.46,6.46,0,0,0,.95-1.48c6.81-14.45-4.47-20.35-14.42-19.81-5.6.3-12.48.21-18.55-1.66-4.73-1.44-9-4-11.71-8.19-6.3-9.68-14-7.55-14-7.55a4.51,4.51,0,0,0-1.12.57,6,6,0,0,0-.88.74,8.33,8.33,0,0,0-2.16,5.12A23.67,23.67,0,0,0,965.2,737.26Z"/><path class="cls-19" d="M970.18,722.72s-1.67,2-3.63,1.91a.93.93,0,0,0,0-1.13c-.42-.68-2-2.86-2-2.86s-.65-.39,1.36-.06C966,720.58,966.18,723.09,970.18,722.72Z"/><path class="cls-22" d="M965.2,737.26c3.42,11.49,29,24.57,46.34,26.38,4.58-.86,9.48-2,14.36-3.33a6.46,6.46,0,0,0,.95-1.48c6.81-14.45-4.47-20.35-14.42-19.81-5.6.3-12.48.21-18.55-1.66-11.35.22-19.53-5.74-23.22-8.84-3-2.51-5.26-1.64-6.64-.47A23.67,23.67,0,0,0,965.2,737.26Z"/><path class="cls-19" d="M1008.11,749.91a6.89,6.89,0,0,1,5.81,2.91,9.83,9.83,0,0,1,.37-4.44,6.67,6.67,0,0,1,3.28,4.48,9.46,9.46,0,0,1,6.28-2.36s-.46,4.23-6.06,5.71a14.7,14.7,0,0,1-.43,2.56,6.07,6.07,0,0,1-1.56-1.57A9.61,9.61,0,0,1,1008.11,749.91Z"/><path class="cls-19" d="M989.85,756.71c-.55-.49-6.92-13.49-17.38-13.18s-9,10.39-6.26,12.5S989.85,756.71,989.85,756.71Z"/><path class="cls-23" d="M961,747.28l115.18.29a2.59,2.59,0,0,0,2.59-2.58l0-9.3a2.59,2.59,0,0,0-2.58-2.59l-115.17-.29a2.59,2.59,0,0,0-2.59,2.58l0,9.3A2.59,2.59,0,0,0,961,747.28Z"/><path class="cls-23" d="M1048.64,748.72h33.67a.71.71,0,0,1,.71.71v2.36a.71.71,0,0,1-.71.71h-33.67a.71.71,0,0,1-.71-.71v-2.36a.72.72,0,0,1,.72-.72Z" transform="translate(312.23 1814.24) rotate(-89.86)"/><path class="cls-23" d="M966.18,767.21l.08-33.67a.71.71,0,0,0-.71-.71h-2.36a.72.72,0,0,0-.72.71l-.08,33.67a.71.71,0,0,0,.71.71h2.37A.71.71,0,0,0,966.18,767.21Z"/><path class="cls-23" d="M961,767.91l115.18.28a2.59,2.59,0,0,0,2.59-2.58l0-9.3a2.6,2.6,0,0,0-2.58-2.59L961,753.44a2.59,2.59,0,0,0-2.59,2.58l0,9.3A2.59,2.59,0,0,0,961,767.91Z"/><path class="cls-24" d="M1075,737.07a1.34,1.34,0,1,0-1.34,1.34A1.34,1.34,0,0,0,1075,737.07Z"/><path class="cls-24" d="M1074.94,743.72a1.34,1.34,0,1,0-1.34,1.33A1.34,1.34,0,0,0,1074.94,743.72Z"/><path class="cls-24" d="M1074.91,757.63a1.34,1.34,0,1,0-1.35,1.34A1.36,1.36,0,0,0,1074.91,757.63Z"/><path class="cls-24" d="M1074.89,764.28a1.34,1.34,0,1,0-1.34,1.33A1.34,1.34,0,0,0,1074.89,764.28Z"/><path class="cls-24" d="M965.7,736.8a1.34,1.34,0,1,0-1.34,1.34A1.34,1.34,0,0,0,965.7,736.8Z"/><path class="cls-24" d="M965.68,743.45a1.34,1.34,0,1,0-1.34,1.33A1.33,1.33,0,0,0,965.68,743.45Z"/><path class="cls-24" d="M965.65,757.36a1.34,1.34,0,1,0-1.34,1.34A1.34,1.34,0,0,0,965.65,757.36Z"/><path class="cls-24" d="M965.63,764a1.34,1.34,0,1,0-1.34,1.33A1.33,1.33,0,0,0,965.63,764Z"/><path class="cls-12" d="M1108.14,749.14s-27,12.35-54.11,15.64l-.87-4.78s36-23.94,44.89-22.93S1108.14,749.14,1108.14,749.14Z"/><path class="cls-12" d="M1053.16,760s-3.48-.52-4.2-1a13.61,13.61,0,0,0-5.09-2.68c-2.92-.81-4.85-1.95-4.35-1s4.55,4.06,3.72,4.23-9-1.5-9.36-.71,6.71,5.76,9.12,6,11,0,11,0Z"/><path class="cls-34" d="M1438.13,779.07s-8.59,2.64-7.14,13.86c.82,6.39,4.89,25.9,5.17,30.44s2.7,24.25,4.49,27.25,6.81-.42,6.37-4.42,3.24-19.43,2.32-26.15-.17-18.57-1.35-26.77S1441.48,777.85,1438.13,779.07Z"/><path class="cls-34" d="M1412.42,845.45l19.3,107.14,6.68.43s5.25-46.65.75-62.76,7.77-36.47,4.32-50.44S1412.42,845.45,1412.42,845.45Z"/><path class="cls-12" d="M1434.62,786.26l-16.85-2.74a38,38,0,0,1-1-9.82c0-4.13.32-7.59.32-7.59l13.6-1.31,6-.58C1433.36,770.54,1434.62,786.26,1434.62,786.26Z"/><path class="cls-34" d="M1435.12,767.54s-9,7.68-18.4,6.16c0-4.13.32-7.59.32-7.59l13.6-1.31Z"/><path class="cls-12" d="M1425.26,871.84c-3.41,9.49-6.47,19.16-4.94,27.08a51.89,51.89,0,0,1,.87,7.24,68.76,68.76,0,0,1,0,6.89c-.75,18.67-7.86,37.71-9,40.55l-.14.37-5.92-.63-3.56-109.14s28-14.19,29.54.12C1433,851.72,1428.92,861.68,1425.26,871.84Z"/><path class="cls-29" d="M1441.41,878.21s-1.72.25-4.29.53c-4.81.53-12.57,1.15-17.36.41-2.29-.35-3.57-4.12-4.17-9.19-1.34-11.23.66-28.81,2.47-29.59,2.64-1.13,26-.18,26-.18S1449.13,852.79,1441.41,878.21Z"/><path class="cls-28" d="M1437.5,878.74c-4.81.53-12.57,1.15-17.36.41-2.29-.35-3.57-4.12-4.17-9.19L1428.76,849l9.6-3.77A75.12,75.12,0,0,1,1437.5,878.74Z"/><path class="cls-29" d="M1401.81,840.43s-3.26,22.34-2.51,39.92a67.9,67.9,0,0,0,23.09,0s19.34-28.12,17.7-37.16S1406.7,837.54,1401.81,840.43Z"/><path class="cls-12" d="M1412.75,763.4s15.71,12.46,23.31,2.56,14.76-15,5-23.34-14.58-6.11-17.93-3.42S1408.86,759.91,1412.75,763.4Z"/><path class="cls-10" d="M1452.26,746.34a3.45,3.45,0,0,0-1.87,0v0c1.27-2.34.32-6,.32-6,.31,2-1.48,4.34-1.48,4.34-.11-7.39-18.38-12-20.07-12.43s-1.48-3.28-1.48-3.28c-3.49.7-7.19,5.16-7.08,9.5s3.7,12.66,6,12.78,1.27,2-.32,4.57.48,9.59,3.33,12c2.3,2,3.5.33,4.85-.4a4,4,0,0,1,1.06-.41c5.33-1.19,10.88-6.45,13.63-13.17a18.1,18.1,0,0,0,1.25-6.69A9.71,9.71,0,0,1,1452.26,746.34Z"/><path class="cls-34" d="M1421.23,913.05c-.75,18.67-7.86,37.71-9,40.55l-4.41-.26c.56-.75,9.23-39.73,13.37-40.29Z"/><path class="cls-28" d="M1439.31,960.42h-3.74c-1.25-.18-2.17-.5-3.45-.65a3.74,3.74,0,0,0-3,.65l0,0h-15.85c-.4-.5,0-1.67.35-2.53a2.23,2.23,0,0,1,1.49-1.2c1.68-.43,5-.81,8-3.24,1.7-1.37,8.24-5,8.24-5h0c.14,0,.82.18,3.8,2.4,1.53,1.15,4.15-1.61,4.15-1.61a3.44,3.44,0,0,1,.86,1,3.09,3.09,0,0,1,.34,2.15c-.24,1.26.53,3.61,1.14,5.19.37,1,.68,1.65.68,1.65S1442.52,960.06,1439.31,960.42Z"/><path class="cls-28" d="M1440.18,950.28a12.7,12.7,0,0,1-4,1.79c-1.68.19-4.83-3.61-4.83-3.61h0c.14,0,.82.18,3.8,2.4,1.53,1.15,4.15-1.61,4.15-1.61A3.44,3.44,0,0,1,1440.18,950.28Z"/><path class="cls-28" d="M1439.31,960.42h-3.74c-1.25-.18-2.17-.5-3.45-.65a3.74,3.74,0,0,0-3,.65l0,0h-15.85c-.4-.5,0-1.67.35-2.53.49-.38.62,1.64.89,2s12.93.11,13.66-.36a8.49,8.49,0,0,1,6-.64c2.66.56,6.59-.88,7.56-1.27.37,1,.68,1.65.68,1.65S1442.52,960.06,1439.31,960.42Z"/><path class="cls-29" d="M1413.81,960.42h-3.73c-1.25-.18-2.18-.5-3.46-.65a3.75,3.75,0,0,0-3,.65l0,0h-15.85c-.4-.5,0-1.67.36-2.53a2.19,2.19,0,0,1,1.48-1.2c1.68-.43,5-.81,8-3.24,1.71-1.37,8.24-5,8.24-5h0c.14,0,.82.18,3.8,2.4,1.53,1.15,4.15-1.61,4.15-1.61a3.28,3.28,0,0,1,.86,1,3.09,3.09,0,0,1,.34,2.15c-.23,1.26.53,3.61,1.14,5.19.37,1,.68,1.65.68,1.65S1417,960.06,1413.81,960.42Z"/><path class="cls-29" d="M1414.68,950.28a12.7,12.7,0,0,1-4,1.79c-1.68.19-4.83-3.61-4.83-3.61h0c.14,0,.82.18,3.8,2.4,1.53,1.15,4.15-1.61,4.15-1.61A3.28,3.28,0,0,1,1414.68,950.28Z"/><path class="cls-29" d="M1413.81,960.42h-3.73c-1.25-.18-2.18-.5-3.46-.65a3.75,3.75,0,0,0-3,.65l0,0h-15.85c-.4-.5,0-1.67.36-2.53.48-.38.61,1.64.88,2s12.93.11,13.66-.36a8.49,8.49,0,0,1,6-.64c2.67.56,6.59-.88,7.56-1.27.37,1,.68,1.65.68,1.65S1417,960.06,1413.81,960.42Z"/><path class="cls-31" d="M1444.49,841.43s-11.84,4.85-30.22,1.72a106.17,106.17,0,0,1-12.46-2.72l4.13-42.54.72-20s7-2.66,10.06-2.85c0,0,12.64,1.81,17.63.49,0,0,6,2.54,8.38,5.84S1448.88,815.83,1444.49,841.43Z"/><path class="cls-31" d="M1437.08,777.29s9,1.85,10.91,16a6,6,0,0,0-5.51,2.21C1439.84,798.38,1437.08,777.29,1437.08,777.29Z"/><path class="cls-12" d="M1410.11,793.31c-1.17-.32-20.38,21.13-26,20.14S1365,799.4,1365,799.4l2-3.91s15.24,5,16.13,3.93,18.83-18.27,20.46-17.86S1410.11,793.31,1410.11,793.31Z"/><path class="cls-31" d="M1394.15,788.93a40.61,40.61,0,0,0,16.9,14.13s12.58-27.92,5.67-28C1416.72,775,1403.57,775.24,1394.15,788.93Z"/><path class="cls-12" d="M1365,799.4s-6.83.82-7.93,0-5-6.09-3.65-6.47,5.38,1.93,6.57,1.32,8.11,1.62,8.11,1.62Z"/><path class="cls-12" d="M1364.92,795.7a7.3,7.3,0,0,0-2-1.93c-.82-.32-2.05-1.73-2.28-1.51a4,4,0,0,0,1.14,3C1362.6,795.82,1364.92,795.7,1364.92,795.7Z"/><path class="cls-30" d="M1358.93,785.72s1.18-4,6.06-2.91,4.72,11.36-3.15,13.05C1352.72,797.83,1348.71,785.56,1358.93,785.72Z"/><path class="cls-30" d="M1354.41,783.28s3.89,1,4.88,2.75a8.57,8.57,0,0,0-4.15-2S1354.37,783.73,1354.41,783.28Z"/><path class="cls-26" d="M1477.72,500.61s126.63,250.92,30.39,459.76h97.5s11.4-228-96.24-449.63Z"/><path class="cls-26" d="M1521.87,622.83s-73.16,2.9-121-62.66l-6.2,2.55s43.13,71.78,135.93,78.37Z"/><path class="cls-26" d="M1451.66,609c2.53-44.69-17.33-78.56-17.49-78.86l-3,1.54c.16.3,15.38,30.55,12.91,74.27Z"/><path class="cls-26" d="M1589.59,614.08A102.93,102.93,0,0,0,1634.76,586c-.81-2-1.64-4.07-2.5-6.08-10.31,10.53-24.68,18.68-41.83,24C1588.45,604.45,1589.06,614.24,1589.59,614.08Z"/><path class="cls-26" d="M1557.59,698.76c27.14-27.13,38.25-77.26,35.34-123.94a233.84,233.84,0,0,0-12.65-62.76l-6.3,2.41a230.88,230.88,0,0,1,12.23,60.95c1.22,19.88-.46,38.35-5,54.91-5.65,20.57-15.76,38.26-30.07,52.56Z"/><path class="cls-5" d="M1096.51,387.76c0,42.18,13.6,97.56,83.92,100.19,82.46,3.08,70.34,77.23,143.38,93.7,28.5,6.42,59,6.25,87,1.57q4.48-.75,8.87-1.66a230,230,0,0,0,23.38-6.07q3.15-1,6.18-2.06c20.15-7.1,37-16.59,48-27.29a55.45,55.45,0,0,0,8.26-10,40.55,40.55,0,0,1,10.6-11.31c14.33-10.41,35.51-12.28,58.52-10.57,2.22.17,4.45.37,6.71.59,47.45,4.77,100.47,22.31,116.68,10.53-36.07-48.69-73.6-83.58-111.45-107.15-106.17-66.14-214.83-43.16-300.89,14.52C1252.47,454.94,1178.5,449.88,1096.51,387.76Z"/><path class="cls-5" d="M1692.33,629.35s-16.29,3.35-38.63-8.11-19.54-36.19-28.71-49,8-45.47,43.51-34.3S1755.29,611.43,1692.33,629.35Z"/><path class="cls-35" d="M774.4,344.1,1045.23,342q-16.12-16.69-32.25-36.56c-22-5.53-51.73-6.83-82.37,10.08,0,0-65.15-8.38-113.41,7.25C785,333.17,774.4,344.1,774.4,344.1Z"/><path class="cls-35" d="M339.52,298.43l419.69-2.94s-28.77-36.32-97.57-32.28c0,0-99.89-60.52-206.41-8.07a705.07,705.07,0,0,0-84.79-3.35A320.4,320.4,0,0,0,339.52,298.43Z"/><path class="cls-35" d="M662.46,383.29a22,22,0,1,0-22,22A22.05,22.05,0,0,0,662.46,383.29Z"/><path class="cls-35" d="M957.06,419.1S944.19,404,913.4,405.67c0,0-44.69-25.19-92.35-3.36,0,0-50.67-5.41-88.19,4.68-25,6.73-33.28,13.79-33.28,13.79Z"/><path class="cls-30" d="M1307.1,489.12s6.61-2.7,10.33,5-10.12,18.4-20.77,9.7C1284.33,493.72,1296.43,475.31,1307.1,489.12Z"/><path class="cls-28" d="M1305.54,480.49s2.84,6.24,1.52,9.44c0,0,.29-4.65-1.71-7.7C1305.35,482.23,1304.9,480.92,1305.54,480.49Z"/><path class="cls-30" d="M1594.17,464.72s5.32-3.93,10.41,2.11-4.89,18.83-16.43,13.45C1574.78,474.05,1581.43,454.76,1594.17,464.72Z"/><path class="cls-28" d="M1590.8,457.33s4,4.95,3.52,8.12c0,0-.81-4.24-3.3-6.51C1591,458.94,1590.32,457.86,1590.8,457.33Z"/><path class="cls-30" d="M1368.62,537.63s7.3-5.4,14.3,2.9-6.71,25.86-22.56,18.48C1342,550.45,1351.13,524,1368.62,537.63Z"/><path class="cls-28" d="M1364,527.48s5.45,6.81,4.83,11.16c0,0-1.1-5.82-4.52-8.95C1364.3,529.69,1363.33,528.21,1364,527.48Z"/><path class="cls-30" d="M1356.27,947.12s5.11-1.42,7.2,4.57-9.08,12.72-16.19,5.37C1339,948.55,1349.57,936,1356.27,947.12Z"/><path class="cls-28" d="M1355.86,940.61s1.55,4.85.31,7.1c0,0,.61-3.41-.61-5.83C1355.56,941.88,1355.35,940.87,1355.86,940.61Z"/><path class="cls-30" d="M1632.12,947.4s.83-5.25,7.15-4.65,7.81,13.53-1.83,17C1626.27,963.67,1619.22,948.87,1632.12,947.4Z"/><path class="cls-28" d="M1626,945.06s5.07.61,6.6,2.68c0,0-2.85-2-5.56-1.88C1627.06,945.86,1626.05,945.64,1626,945.06Z"/><path class="cls-36" d="M1605.85,946.51s5-1.88,7.59,3.91-7.89,13.49-15.64,6.81C1588.82,949.5,1598.17,936,1605.85,946.51Z"/><path class="cls-28" d="M1604.85,940.06s2,4.7,1,7.05c0,0,.3-3.45-1.13-5.75C1604.67,941.36,1604.37,940.37,1604.85,940.06Z"/><path class="cls-30" d="M1387.74,480.35s4.28-3.17,8.39,1.71-3.94,15.18-13.25,10.84C1372.1,487.88,1377.47,472.32,1387.74,480.35Z"/><path class="cls-28" d="M1385,474.39s3.2,4,2.83,6.55c0,0-.65-3.41-2.65-5.25C1385.2,475.69,1384.63,474.82,1385,474.39Z"/><path class="cls-30" d="M1419.39,413.47s5.31-3.93,10.41,2.12-4.89,18.82-16.43,13.45C1400,422.81,1406.65,403.52,1419.39,413.47Z"/><path class="cls-28" d="M1416,406.09s4,5,3.51,8.12c0,0-.8-4.24-3.29-6.51C1416.24,407.7,1415.54,406.62,1416,406.09Z"/><path class="cls-30" d="M1485.53,468s5.09-2.45,8.4,3.44-7.11,15-15.94,8.67C1467.75,472.71,1476.43,457.58,1485.53,468Z"/><path class="cls-28" d="M1483.88,461.24s2.54,4.79,1.66,7.38c0,0,0-3.69-1.73-6C1483.81,462.63,1483.39,461.61,1483.88,461.24Z"/><path class="cls-30" d="M1501.44,403.56s5.09-2.44,8.4,3.45-7.12,15-15.95,8.66C1483.66,408.3,1492.34,393.16,1501.44,403.56Z"/><path class="cls-28" d="M1499.79,396.82s2.54,4.8,1.65,7.39c0,0,0-3.69-1.72-6C1499.72,398.21,1499.3,397.19,1499.79,396.82Z"/><path class="cls-30" d="M1544,943s.83-5.24,7.15-4.65,7.81,13.54-1.83,17C1538.15,959.24,1531.1,944.44,1544,943Z"/><path class="cls-28" d="M1537.91,940.64s5.06.6,6.59,2.67c0,0-2.85-2-5.56-1.87C1538.94,941.44,1537.93,941.22,1537.91,940.64Z"/><path class="cls-30" d="M1527.77,942.73s4.9-2.05,7.73,3.63-7.4,13.76-15.39,7.37C1510.86,946.32,1519.73,932.53,1527.77,942.73Z"/><path class="cls-28" d="M1526.55,936.32s2.15,4.62,1.2,7c0,0,.18-3.46-1.33-5.71C1526.42,937.62,1526.07,936.64,1526.55,936.32Z"/><path class="cls-36" d="M1511.91,928.63s4.89-2.06,7.72,3.63-7.4,13.76-15.38,7.37C1495,932.22,1503.86,918.43,1511.91,928.63Z"/><path class="cls-28" d="M1510.68,922.22s2.16,4.62,1.2,7c0,0,.18-3.46-1.33-5.71C1510.55,923.52,1510.21,922.54,1510.68,922.22Z"/><path class="cls-30" d="M1523.73,914.69s4.9-2.05,7.72,3.63-7.4,13.77-15.38,7.37C1506.82,918.28,1515.69,904.49,1523.73,914.69Z"/><path class="cls-28" d="M1522.51,908.28s2.15,4.63,1.19,7c0,0,.18-3.46-1.33-5.71C1522.37,909.58,1522,908.61,1522.51,908.28Z"/><path class="cls-36" d="M1488.58,924.05s1.07-5.2,7.36-4.32,7.18,13.88-2.6,16.85C1482,940,1475.63,924.93,1488.58,924.05Z"/><path class="cls-28" d="M1482.6,921.44s5,.83,6.47,3c0,0-2.76-2.1-5.47-2.13C1483.6,922.28,1482.6,922,1482.6,921.44Z"/><path class="cls-30" d="M1462.57,937.66s1.07-5.2,7.36-4.32,7.18,13.88-2.6,16.86C1456,953.65,1449.62,938.54,1462.57,937.66Z"/><path class="cls-28" d="M1456.59,935.05s5,.84,6.46,3c0,0-2.75-2.1-5.46-2.12C1457.59,935.9,1456.59,935.63,1456.59,935.05Z"/><path class="cls-36" d="M1486.39,938.94s4.71-2.46,8,3-6.2,14.35-14.7,8.66C1469.85,944,1477.51,929.47,1486.39,938.94Z"/><path class="cls-28" d="M1484.21,932.66s2.54,4.42,1.8,6.88c0,0-.12-3.46-1.82-5.57C1484.19,934,1483.77,933,1484.21,932.66Z"/><path class="cls-37" d="M1537.68,930s4.9-2.05,7.72,3.63S1538,947.37,1530,941C1520.77,933.57,1529.64,919.78,1537.68,930Z"/><path class="cls-28" d="M1536.45,923.57s2.16,4.62,1.2,7c0,0,.18-3.46-1.33-5.71C1536.32,924.87,1536,923.9,1536.45,923.57Z"/><path class="cls-30" d="M1507.14,943.64s4.9-2,7.72,3.63-7.4,13.77-15.38,7.37C1490.23,947.23,1499.1,933.44,1507.14,943.64Z"/><path class="cls-28" d="M1505.91,937.23s2.16,4.62,1.2,7c0,0,.18-3.46-1.33-5.71C1505.78,938.53,1505.44,937.56,1505.91,937.23Z"/><path class="cls-23" d="M1454.13,939.59l115.18.29a2.59,2.59,0,0,0,2.59-2.58l0-9.3a2.58,2.58,0,0,0-2.57-2.59l-115.18-.28a2.58,2.58,0,0,0-2.59,2.57l0,9.3A2.58,2.58,0,0,0,1454.13,939.59Z"/><path class="cls-23" d="M1541.74,941h33.67a.72.72,0,0,1,.72.72v2.36a.71.71,0,0,1-.71.71h-33.67a.71.71,0,0,1-.71-.71v-2.36A.71.71,0,0,1,1541.74,941Z" transform="translate(611.8 2499.17) rotate(-89.86)"/><path class="cls-23" d="M1440.6,940.78h33.67a.71.71,0,0,1,.71.71v2.36a.72.72,0,0,1-.72.72H1440.6a.71.71,0,0,1-.71-.71V941.5a.72.72,0,0,1,.72-.72Z" transform="translate(511.17 2397.79) rotate(-89.86)"/><path class="cls-23" d="M1454.08,960.22l115.18.28a2.58,2.58,0,0,0,2.59-2.58l0-9.29a2.59,2.59,0,0,0-2.58-2.6l-115.17-.28a2.59,2.59,0,0,0-2.59,2.58l0,9.3A2.59,2.59,0,0,0,1454.08,960.22Z"/><path class="cls-24" d="M1568.06,929.38a1.34,1.34,0,1,0-1.34,1.34A1.34,1.34,0,0,0,1568.06,929.38Z"/><path class="cls-24" d="M1568,936a1.34,1.34,0,1,0-1.34,1.33A1.33,1.33,0,0,0,1568,936Z"/><path class="cls-24" d="M1568,949.94a1.34,1.34,0,1,0-1.34,1.34A1.34,1.34,0,0,0,1568,949.94Z"/><path class="cls-24" d="M1568,956.59a1.34,1.34,0,1,0-1.34,1.33A1.33,1.33,0,0,0,1568,956.59Z"/><path class="cls-24" d="M1458.8,929.11a1.34,1.34,0,1,0-1.34,1.34A1.34,1.34,0,0,0,1458.8,929.11Z"/><path class="cls-24" d="M1458.79,935.76a1.34,1.34,0,1,0-1.35,1.34A1.36,1.36,0,0,0,1458.79,935.76Z"/><path class="cls-24" d="M1458.75,949.67a1.33,1.33,0,0,0-1.33-1.34,1.36,1.36,0,0,0-1.35,1.34,1.34,1.34,0,1,0,2.68,0Z"/><path class="cls-24" d="M1458.73,956.32a1.34,1.34,0,1,0-1.34,1.33A1.33,1.33,0,0,0,1458.73,956.32Z"/><path class="cls-30" d="M1485.36,952.5s.5-3.14,4.28-2.79,4.68,8.11-1.09,10.15C1481.86,962.24,1477.64,953.38,1485.36,952.5Z"/><path class="cls-28" d="M1481.71,951.1s3,.36,4,1.6a6.56,6.56,0,0,0-3.33-1.12S1481.73,951.45,1481.71,951.1Z"/><path class="cls-30" d="M408.29,923.91a2.65,2.65,0,1,0-2.65,2.65A2.64,2.64,0,0,0,408.29,923.91Z"/><path class="cls-30" d="M361.91,936.72a2.66,2.66,0,1,0-2.65,2.65A2.65,2.65,0,0,0,361.91,936.72Z"/><path class="cls-30" d="M338.16,897.62a2.65,2.65,0,1,0-2.65,2.65A2.65,2.65,0,0,0,338.16,897.62Z"/><path class="cls-30" d="M329.62,908.84a2.65,2.65,0,1,0-2.65,2.65A2.65,2.65,0,0,0,329.62,908.84Z"/><circle class="cls-30" cx="309.89" cy="931.42" r="2.65"/><path class="cls-30" d="M309.89,868.67a2.66,2.66,0,1,0-2.66,2.65A2.66,2.66,0,0,0,309.89,868.67Z"/><path class="cls-30" d="M279.73,897.62a2.65,2.65,0,1,0-2.65,2.65A2.65,2.65,0,0,0,279.73,897.62Z"/><path class="cls-30" d="M274.43,837.76a2.65,2.65,0,1,0-2.65,2.65A2.65,2.65,0,0,0,274.43,837.76Z"/><path class="cls-30" d="M287.69,884.59a2.66,2.66,0,1,0-2.66,2.65A2.66,2.66,0,0,0,287.69,884.59Z"/><path class="cls-30" d="M329.62,824.28a2.65,2.65,0,1,0-2.65,2.65A2.65,2.65,0,0,0,329.62,824.28Z"/><path class="cls-30" d="M285,801.72a2.65,2.65,0,1,0-2.65,2.65A2.65,2.65,0,0,0,285,801.72Z"/><path class="cls-30" d="M285,813.46a2.65,2.65,0,1,0-2.65,2.65A2.65,2.65,0,0,0,285,813.46Z"/><path class="cls-38" d="M864.6,960.5l1.09-.28c-.44-1.94-1.53-41.11,10.76-64l-1-.53C863,918.88,864.18,958.89,864.6,960.5Z"/><path class="cls-23" d="M878.56,875.29s3.86,8.11,1.51,11.75S875.77,880.3,878.56,875.29Z"/><path class="cls-23" d="M881,909.52s-3.87-8.11-1.51-11.75S883.75,904.51,881,909.52Z"/><path class="cls-23" d="M870.81,877.77s7.17,5.42,6.75,9.73S870.64,883.5,870.81,877.77Z"/><path class="cls-23" d="M888.71,907s-7.17-5.42-6.75-9.73S888.88,901.31,888.71,907Z"/><path class="cls-23" d="M865.14,883.6s8.85,1.58,10.44,5.61S867.59,888.79,865.14,883.6Z"/><path class="cls-23" d="M894.38,901.56S885.53,900,884,896,891.93,896.38,894.38,901.56Z"/><path class="cls-23" d="M863.31,897.83s7.09-5.53,11.15-4S868.8,899.47,863.31,897.83Z"/><path class="cls-23" d="M896.88,891s-7.93,4.22-11.67,2S891.75,888.41,896.88,891Z"/><path class="cls-23" d="M867.22,904s4.41-7.83,8.73-8S872.92,903.4,867.22,904Z"/><path class="cls-23" d="M893.82,882.33s-4.41,7.83-8.74,8S888.12,882.93,893.82,882.33Z"/><path class="cls-23" d="M873,908.62s.58-9,4.41-11S877.89,905.61,873,908.62Z"/><path class="cls-23" d="M887.6,877.56s-.58,9-4.4,11S882.73,880.58,887.6,877.56Z"/><path class="cls-23" d="M862.85,892s8.4-3.21,11.84-.57S867.63,895.22,862.85,892Z"/><circle class="cls-39" cx="879.76" cy="892.58" r="6.26"/><path class="cls-38" d="M866.75,924.43s5.44-5.53,13-5.91,9.82,0,9.82,0-4.62,4.88-10.13,5.91S866.75,924.43,866.75,924.43Z"/><path class="cls-38" d="M867.88,919.06c-1-.83-1.67-7.58-7.49-9.27a54.53,54.53,0,0,0-9.94-2s5,8.77,8.71,10.08A28.79,28.79,0,0,0,867.88,919.06Z"/><path class="cls-38" d="M835.19,960.5l1.28-.33c-.51-2.29-1.79-48.38,12.67-75.26l-1.17-.62C833.32,911.52,834.69,958.61,835.19,960.5Z"/><path class="cls-23" d="M851.62,860.22s4.55,9.55,1.77,13.83S848.34,866.12,851.62,860.22Z"/><path class="cls-23" d="M854.45,900.5s-4.55-9.54-1.78-13.82S857.73,894.61,854.45,900.5Z"/><path class="cls-23" d="M842.5,863.14s8.44,6.38,8,11.45S842.3,869.88,842.5,863.14Z"/><path class="cls-23" d="M863.57,897.59s-8.44-6.38-8-11.46S863.77,890.85,863.57,897.59Z"/><path class="cls-23" d="M835.83,870s10.41,1.86,12.28,6.61S838.72,876.1,835.83,870Z"/><path class="cls-23" d="M870.24,891.14s-10.41-1.85-12.28-6.6S867.35,885,870.24,891.14Z"/><path class="cls-23" d="M833.67,886.75s8.35-6.51,13.12-4.72S840.14,888.68,833.67,886.75Z"/><path class="cls-23" d="M873.18,878.67s-9.34,5-13.73,2.4S867.14,875.66,873.18,878.67Z"/><path class="cls-23" d="M838.27,894s5.19-9.22,10.28-9.41S845,893.3,838.27,894Z"/><path class="cls-23" d="M869.58,868.5s-5.19,9.22-10.28,9.42S862.87,869.21,869.58,868.5Z"/><path class="cls-23" d="M845.1,899.45s.68-10.56,5.19-12.94S850.84,895.9,845.1,899.45Z"/><path class="cls-23" d="M862.26,862.89s-.68,10.56-5.18,12.94S856.53,866.44,862.26,862.89Z"/><path class="cls-23" d="M833.14,879.93s9.88-3.77,13.92-.66S838.75,883.67,833.14,879.93Z"/><path class="cls-39" d="M860.4,880.57a7.37,7.37,0,1,0-7.36,7.37A7.37,7.37,0,0,0,860.4,880.57Z"/><path class="cls-38" d="M835.66,936.64s6.41-6.51,15.24-6.95,11.55,0,11.55,0-5.43,5.74-11.91,6.95S835.66,936.64,835.66,936.64Z"/><path class="cls-38" d="M837,930.32c-1.12-1-2-8.92-8.81-10.91A65.67,65.67,0,0,0,816.47,917s5.94,10.33,10.26,11.87A34,34,0,0,0,837,930.32Z"/><path class="cls-38" d="M870.67,960.5l.77-.2c-.31-1.37-1.08-29,7.6-45.15l-.7-.38C869.54,931.11,870.37,959.37,870.67,960.5Z"/><path class="cls-23" d="M880.52,900.33s2.74,5.73,1.07,8.3S878.56,903.87,880.52,900.33Z"/><path class="cls-23" d="M882.23,924.5s-2.73-5.73-1.07-8.29S884.19,921,882.23,924.5Z"/><path class="cls-23" d="M875.05,902.08s5.07,3.83,4.77,6.87S874.94,906.13,875.05,902.08Z"/><path class="cls-23" d="M887.7,922.75s-5.07-3.83-4.77-6.87S887.81,918.71,887.7,922.75Z"/><path class="cls-23" d="M871.05,906.2s6.25,1.12,7.37,4S872.78,909.86,871.05,906.2Z"/><path class="cls-23" d="M891.7,918.88s-6.25-1.11-7.37-4S890,915.23,891.7,918.88Z"/><path class="cls-23" d="M869.76,916.25s5-3.9,7.87-2.83S873.64,917.41,869.76,916.25Z"/><path class="cls-23" d="M893.46,911.4s-5.6,3-8.24,1.44S889.84,909.59,893.46,911.4Z"/><path class="cls-23" d="M872.52,920.61s3.11-5.53,6.17-5.65S876.54,920.18,872.52,920.61Z"/><path class="cls-23" d="M891.3,905.3s-3.11,5.53-6.17,5.65S887.28,905.73,891.3,905.3Z"/><path class="cls-23" d="M876.61,923.87s.41-6.34,3.12-7.76S880.06,921.74,876.61,923.87Z"/><path class="cls-23" d="M886.91,901.94s-.41,6.33-3.11,7.76S883.47,904.06,886.91,901.94Z"/><path class="cls-23" d="M869.44,912.16s5.93-2.26,8.35-.4S872.81,914.4,869.44,912.16Z"/><path class="cls-39" d="M885.79,912.54a4.42,4.42,0,1,0-4.41,4.42A4.4,4.4,0,0,0,885.79,912.54Z"/><path class="cls-38" d="M871,946.19A15.35,15.35,0,0,1,880.1,942a41.41,41.41,0,0,1,6.93,0s-3.26,3.45-7.15,4.18A32.7,32.7,0,0,1,871,946.19Z"/><path class="cls-38" d="M871.75,942.39c-.67-.58-1.18-5.35-5.29-6.54a39,39,0,0,0-7-1.42s3.56,6.19,6.15,7.12A20.33,20.33,0,0,0,871.75,942.39Z"/><path class="cls-38" d="M913.45,960.5l1.29-.33c-.52-2.29-1.8-48.38,12.66-75.26l-1.16-.62C911.58,911.52,913,958.61,913.45,960.5Z"/><path class="cls-23" d="M929.88,860.22s4.55,9.55,1.78,13.83S926.6,866.12,929.88,860.22Z"/><path class="cls-23" d="M932.72,900.5s-4.55-9.54-1.78-13.82S936,894.61,932.72,900.5Z"/><path class="cls-23" d="M920.77,863.14s8.43,6.38,7.94,11.45S920.57,869.88,920.77,863.14Z"/><path class="cls-23" d="M941.84,897.59s-8.44-6.38-8-11.46S942,890.85,941.84,897.59Z"/><path class="cls-23" d="M914.1,870s10.41,1.86,12.28,6.61S917,876.1,914.1,870Z"/><path class="cls-23" d="M948.51,891.14s-10.42-1.85-12.28-6.6S945.62,885,948.51,891.14Z"/><path class="cls-23" d="M911.94,886.75s8.34-6.51,13.12-4.72S918.4,888.68,911.94,886.75Z"/><path class="cls-23" d="M951.45,878.67s-9.34,5-13.74,2.4S945.41,875.66,951.45,878.67Z"/><path class="cls-23" d="M916.54,894s5.19-9.22,10.28-9.41S923.25,893.3,916.54,894Z"/><path class="cls-23" d="M947.84,868.5s-5.18,9.22-10.28,9.42S941.13,869.21,947.84,868.5Z"/><path class="cls-23" d="M923.37,899.45s.68-10.56,5.18-12.94S929.1,895.9,923.37,899.45Z"/><path class="cls-23" d="M940.53,862.89s-.68,10.56-5.19,12.94S934.79,866.44,940.53,862.89Z"/><path class="cls-23" d="M911.4,879.93s9.89-3.77,13.93-.66S917,883.67,911.4,879.93Z"/><circle class="cls-39" cx="931.3" cy="880.57" r="7.36" transform="translate(-238.64 1404) rotate(-67.5)"/><path class="cls-38" d="M916,918.05s6.41-6.51,15.24-6.95,11.55,0,11.55,0-5.43,5.74-11.92,6.95S916,918.05,916,918.05Z"/><path class="cls-38" d="M917.32,911.73c-1.12-1-2-8.92-8.81-10.91a65.67,65.67,0,0,0-11.71-2.37s5.94,10.33,10.26,11.87A34,34,0,0,0,917.32,911.73Z"/><path class="cls-38" d="M889.75,960.5l1.29-.35c-.52-2.48-1.8-52.35,12.66-81.43l-1.17-.68C887.88,907.51,889.26,958.45,889.75,960.5Z"/><path class="cls-23" d="M906.18,852s4.55,10.33,1.78,15S902.9,858.39,906.18,852Z"/><path class="cls-23" d="M909,895.59s-4.55-10.33-1.78-15S912.3,889.21,909,895.59Z"/><path class="cls-23" d="M897.07,855.16s8.43,6.9,7.94,12.39S896.87,862.46,897.07,855.16Z"/><path class="cls-23" d="M918.14,892.43s-8.44-6.9-7.95-12.39S918.33,885.14,918.14,892.43Z"/><path class="cls-23" d="M890.4,862.59s10.41,2,12.27,7.14S893.28,869.19,890.4,862.59Z"/><path class="cls-23" d="M924.8,885.46s-10.41-2-12.27-7.14S921.92,878.86,924.8,885.46Z"/><path class="cls-23" d="M888.24,880.7s8.34-7,13.12-5.1S894.7,882.79,888.24,880.7Z"/><path class="cls-23" d="M927.75,872s-9.34,5.38-13.74,2.59S921.71,868.71,927.75,872Z"/><path class="cls-23" d="M892.84,888.57s5.19-10,10.28-10.19S899.55,887.8,892.84,888.57Z"/><path class="cls-23" d="M924.14,861s-5.19,10-10.28,10.18S917.43,861.74,924.14,861Z"/><path class="cls-23" d="M899.67,894.45s.68-11.42,5.18-14S905.4,890.61,899.67,894.45Z"/><path class="cls-23" d="M916.83,854.9s-.68,11.42-5.19,14S911.09,858.74,916.83,854.9Z"/><path class="cls-23" d="M887.7,873.34s9.88-4.09,13.93-.73S893.32,877.38,887.7,873.34Z"/><path class="cls-39" d="M915,874c0-4.4-3.29-8-7.36-8s-7.36,3.57-7.36,8,3.29,8,7.36,8S915,878.43,915,874Z"/><path class="cls-38" d="M890.23,934.69s6.4-7.05,15.24-7.53,11.55,0,11.55,0-5.44,6.22-11.92,7.53S890.23,934.69,890.23,934.69Z"/><path class="cls-38" d="M891.55,927.85c-1.12-1.06-2-9.65-8.8-11.8A60.85,60.85,0,0,0,871,913.48s5.93,11.17,10.25,12.84S891.55,927.85,891.55,927.85Z"/><path class="cls-38" d="M920.6,960.5l.9-.23c-.36-1.62-1.26-34.16,9-53.14l-.83-.45C919.28,925.91,920.25,959.16,920.6,960.5Z"/><path class="cls-23" d="M932.2,889.69s3.21,6.74,1.25,9.76S929.88,893.85,932.2,889.69Z"/><path class="cls-23" d="M934.2,918.14s-3.21-6.75-1.26-9.77S936.52,914,934.2,918.14Z"/><path class="cls-23" d="M925.76,891.75s6,4.51,5.61,8.09S925.62,896.51,925.76,891.75Z"/><path class="cls-23" d="M940.64,916.08s-6-4.51-5.61-8.09S940.78,911.32,940.64,916.08Z"/><path class="cls-23" d="M921.05,896.6s7.35,1.31,8.67,4.66S923.09,900.91,921.05,896.6Z"/><path class="cls-23" d="M945.35,911.53s-7.36-1.31-8.67-4.66S943.31,907.22,945.35,911.53Z"/><path class="cls-23" d="M919.53,908.42s5.89-4.59,9.26-3.33S924.09,909.78,919.53,908.42Z"/><path class="cls-23" d="M947.42,902.72s-6.59,3.51-9.69,1.69S943.16,900.59,947.42,902.72Z"/><path class="cls-23" d="M922.78,913.55s3.66-6.51,7.25-6.64S927.51,913.05,922.78,913.55Z"/><path class="cls-23" d="M944.88,895.54s-3.66,6.51-7.26,6.65S940.14,896,944.88,895.54Z"/><path class="cls-23" d="M927.6,917.39s.48-7.45,3.66-9.14S931.65,914.89,927.6,917.39Z"/><path class="cls-23" d="M939.72,891.58s-.49,7.45-3.67,9.14S935.66,894.08,939.72,891.58Z"/><path class="cls-23" d="M919.15,903.61s7-2.66,9.83-.47S923.11,906.25,919.15,903.61Z"/><path class="cls-39" d="M938.4,904.06a5.2,5.2,0,1,0-5.2,5.2A5.2,5.2,0,0,0,938.4,904.06Z"/><path class="cls-38" d="M920.93,943.66s4.52-4.61,10.76-4.92a48.16,48.16,0,0,1,8.16,0s-3.84,4.06-8.42,4.92A38.83,38.83,0,0,1,920.93,943.66Z"/><path class="cls-38" d="M921.87,939.19c-.79-.69-1.39-6.3-6.22-7.7a46,46,0,0,0-8.27-1.67s4.19,7.28,7.24,8.38A24.11,24.11,0,0,0,921.87,939.19Z"/><path class="cls-38" d="M953.75,960.5l.65-.16c-.26-1.17-.91-24.6,6.44-38.27l-.59-.32C952.8,935.6,953.5,959.54,953.75,960.5Z"/><path class="cls-23" d="M962.1,909.52s2.32,4.85.91,7S960.43,912.52,962.1,909.52Z"/><path class="cls-23" d="M963.54,930s-2.31-4.85-.9-7S965.21,927,963.54,930Z"/><path class="cls-23" d="M957.47,911s4.29,3.25,4,5.83S957.37,914.43,957.47,911Z"/><path class="cls-23" d="M968.18,928.52s-4.29-3.25-4-5.83S968.28,925.09,968.18,928.52Z"/><path class="cls-23" d="M954.08,914.49s5.29,1,6.24,3.36S955.54,917.59,954.08,914.49Z"/><path class="cls-23" d="M971.57,925.24s-5.29-.94-6.24-3.36S970.1,922.14,971.57,925.24Z"/><path class="cls-23" d="M953,923s4.24-3.3,6.67-2.39S956.27,924,953,923Z"/><path class="cls-23" d="M973.06,918.9s-4.74,2.53-7,1.22S970,917.37,973.06,918.9Z"/><path class="cls-23" d="M955.32,926.7s2.63-4.69,5.22-4.79S958.73,926.34,955.32,926.7Z"/><path class="cls-23" d="M971.23,913.73s-2.63,4.69-5.22,4.79S967.82,914.09,971.23,913.73Z"/><path class="cls-23" d="M958.79,929.46s.35-5.36,2.64-6.58S961.71,927.66,958.79,929.46Z"/><path class="cls-23" d="M967.51,910.88s-.34,5.37-2.63,6.58S964.6,912.68,967.51,910.88Z"/><path class="cls-23" d="M952.71,919.54s5-1.92,7.08-.34S955.56,921.44,952.71,919.54Z"/><path class="cls-39" d="M966.57,919.87a3.75,3.75,0,1,0-3.75,3.74A3.75,3.75,0,0,0,966.57,919.87Z"/><path class="cls-38" d="M955,938.92a13,13,0,0,1,7.75-3.54,35.11,35.11,0,0,1,5.87,0,13.15,13.15,0,0,1-6.06,3.54A27.6,27.6,0,0,1,955,938.92Z"/><path class="cls-38" d="M955.71,935.71c-.57-.5-1-4.54-4.47-5.55a32.82,32.82,0,0,0-6-1.2s3,5.25,5.22,6A17.23,17.23,0,0,0,955.71,935.71Z"/><path class="cls-38" d="M936.15,960.5l.77-.19c-.31-1.37-1.07-28.95,7.58-45l-.7-.38C935,931.2,935.86,959.37,936.15,960.5Z"/><path class="cls-23" d="M946,900.5s2.73,5.72,1.07,8.28S944,904,946,900.5Z"/><path class="cls-23" d="M947.68,924.61s-2.72-5.72-1.06-8.28S949.64,921.08,947.68,924.61Z"/><path class="cls-23" d="M940.53,902.25s5.05,3.82,4.75,6.85S940.41,906.28,940.53,902.25Z"/><path class="cls-23" d="M953.13,922.86s-5-3.82-4.75-6.85S953.25,918.83,953.13,922.86Z"/><path class="cls-23" d="M936.54,906.36s6.23,1.11,7.34,3.95S938.26,910,936.54,906.36Z"/><path class="cls-23" d="M957.13,919s-6.24-1.11-7.35-3.94S955.4,915.36,957.13,919Z"/><path class="cls-23" d="M935.25,916.37s5-3.89,7.85-2.82S939.11,917.53,935.25,916.37Z"/><path class="cls-23" d="M958.88,911.54s-5.58,3-8.21,1.44S955.27,909.74,958.88,911.54Z"/><path class="cls-23" d="M938,920.72s3.1-5.51,6.15-5.63S942,920.3,938,920.72Z"/><path class="cls-23" d="M956.73,905.46s-3.1,5.51-6.15,5.63S952.71,905.89,956.73,905.46Z"/><path class="cls-23" d="M942.08,924s.41-6.31,3.11-7.74S945.52,921.85,942.08,924Z"/><path class="cls-23" d="M952.35,902.1s-.4,6.32-3.1,7.74S948.92,904.23,952.35,902.1Z"/><path class="cls-23" d="M934.93,912.3s5.91-2.26,8.33-.4S938.29,914.54,934.93,912.3Z"/><path class="cls-39" d="M951.24,912.68a4.41,4.41,0,1,0-4.41,4.41A4.41,4.41,0,0,0,951.24,912.68Z"/><path class="cls-38" d="M936.44,946.23a15.31,15.31,0,0,1,9.12-4.17,41.21,41.21,0,0,1,6.91,0s-3.26,3.44-7.13,4.17A32.92,32.92,0,0,1,936.44,946.23Z"/><path class="cls-38" d="M937.23,942.44c-.67-.58-1.17-5.33-5.27-6.52a38.86,38.86,0,0,0-7-1.42s3.55,6.18,6.13,7.1A20.19,20.19,0,0,0,937.23,942.44Z"/><path class="cls-38" d="M957.38,960.5l.46-.12c-.18-.82-.64-17.36,4.55-27l-.42-.23C956.71,942.92,957.2,959.82,957.38,960.5Z"/><path class="cls-23" d="M963.28,924.5s1.63,3.43.64,5S962.1,926.62,963.28,924.5Z"/><path class="cls-23" d="M964.3,939s-1.64-3.42-.64-5S965.47,936.85,964.3,939Z"/><path class="cls-23" d="M960,925.55s3,2.29,2.85,4.11S959.94,928,960,925.55Z"/><path class="cls-23" d="M967.57,937.92s-3-2.29-2.85-4.11S967.64,935.5,967.57,937.92Z"/><path class="cls-23" d="M957.61,928s3.74.66,4.41,2.36S958.65,930.2,957.61,928Z"/><path class="cls-23" d="M970,935.6s-3.73-.66-4.4-2.37S968.93,933.41,970,935.6Z"/><path class="cls-23" d="M956.84,934s3-2.33,4.71-1.69S959.16,934.72,956.84,934Z"/><path class="cls-23" d="M971,931.13s-3.35,1.78-4.93.86S968.85,930,971,931.13Z"/><path class="cls-23" d="M958.49,936.63s1.86-3.31,3.69-3.38S960.9,936.38,958.49,936.63Z"/><path class="cls-23" d="M969.73,927.48s-1.87,3.3-3.69,3.38S967.32,927.73,969.73,927.48Z"/><path class="cls-23" d="M960.94,938.58s.24-3.78,1.86-4.64S963,937.31,960.94,938.58Z"/><path class="cls-23" d="M967.1,925.46s-.24,3.79-1.86,4.65S965,926.74,967.1,925.46Z"/><path class="cls-23" d="M956.64,931.58s3.55-1.36,5-.24S958.66,932.92,956.64,931.58Z"/><path class="cls-39" d="M966.43,931.81a2.65,2.65,0,1,0-2.64,2.64A2.64,2.64,0,0,0,966.43,931.81Z"/><path class="cls-38" d="M957.55,951.94a9.18,9.18,0,0,1,5.47-2.5,24.16,24.16,0,0,1,4.15,0,9.31,9.31,0,0,1-4.28,2.5A19.84,19.84,0,0,1,957.55,951.94Z"/><path class="cls-38" d="M958,949.67c-.4-.35-.71-3.2-3.17-3.92a23.45,23.45,0,0,0-4.2-.85s2.13,3.71,3.68,4.26A12.19,12.19,0,0,0,958,949.67Z"/><path class="cls-38" d="M983,960.5l.77-.19c-.31-1.37-1.08-28.95,7.58-45l-.7-.38C981.86,931.2,982.69,959.37,983,960.5Z"/><path class="cls-23" d="M992.81,900.5s2.72,5.72,1.06,8.28S990.85,904,992.81,900.5Z"/><path class="cls-23" d="M994.51,924.61s-2.73-5.72-1.07-8.28S996.47,921.08,994.51,924.61Z"/><path class="cls-23" d="M987.36,902.25s5,3.82,4.75,6.85S987.24,906.28,987.36,902.25Z"/><path class="cls-23" d="M1000,922.86s-5.05-3.82-4.75-6.85S1000.08,918.83,1000,922.86Z"/><path class="cls-23" d="M983.36,906.36s6.24,1.11,7.35,3.95S985.09,910,983.36,906.36Z"/><path class="cls-23" d="M1004,919s-6.23-1.11-7.34-3.94S1002.23,915.36,1004,919Z"/><path class="cls-23" d="M982.07,916.37s5-3.89,7.85-2.82S985.94,917.53,982.07,916.37Z"/><path class="cls-23" d="M1005.71,911.54s-5.58,3-8.22,1.44S1002.1,909.74,1005.71,911.54Z"/><path class="cls-23" d="M984.83,920.72s3.1-5.51,6.15-5.63S988.84,920.3,984.83,920.72Z"/><path class="cls-23" d="M1003.56,905.46s-3.11,5.51-6.16,5.63S999.54,905.89,1003.56,905.46Z"/><path class="cls-23" d="M988.91,924s.41-6.31,3.1-7.74S992.34,921.85,988.91,924Z"/><path class="cls-23" d="M999.18,902.1s-.41,6.32-3.1,7.74S995.75,904.23,999.18,902.1Z"/><path class="cls-23" d="M981.75,912.3s5.92-2.26,8.33-.4S985.11,914.54,981.75,912.3Z"/><path class="cls-39" d="M998.06,912.68a4.41,4.41,0,1,0-4.4,4.41A4.4,4.4,0,0,0,998.06,912.68Z"/><path class="cls-38" d="M984.5,935.11a15.31,15.31,0,0,1,9.12-4.17,41.21,41.21,0,0,1,6.91,0s-3.25,3.44-7.13,4.17A32.92,32.92,0,0,1,984.5,935.11Z"/><path class="cls-38" d="M985.29,931.32c-.67-.58-1.17-5.33-5.27-6.52a38.86,38.86,0,0,0-7-1.42s3.55,6.18,6.13,7.1A20.19,20.19,0,0,0,985.29,931.32Z"/><path class="cls-38" d="M968.8,960.5l.77-.21c-.31-1.48-1.08-31.32,7.58-48.72l-.7-.4C967.68,928.8,968.51,959.28,968.8,960.5Z"/><path class="cls-23" d="M978.63,895.59s2.72,6.18,1.06,8.95S976.67,899.41,978.63,895.59Z"/><path class="cls-23" d="M980.33,921.67s-2.73-6.19-1.07-8.95S982.29,917.85,980.33,921.67Z"/><path class="cls-23" d="M973.18,897.48s5,4.13,4.75,7.41S973.06,901.84,973.18,897.48Z"/><path class="cls-23" d="M985.78,919.78s-5-4.13-4.75-7.42S985.9,915.41,985.78,919.78Z"/><path class="cls-23" d="M969.18,901.92s6.24,1.2,7.35,4.28S970.91,905.87,969.18,901.92Z"/><path class="cls-23" d="M989.77,915.61s-6.23-1.21-7.34-4.28S988.05,911.66,989.77,915.61Z"/><path class="cls-23" d="M967.89,912.76s5-4.21,7.85-3S971.76,914,967.89,912.76Z"/><path class="cls-23" d="M991.53,907.53s-5.58,3.22-8.22,1.55S987.92,905.58,991.53,907.53Z"/><path class="cls-23" d="M970.65,917.46s3.1-6,6.15-6.09S974.66,917,970.65,917.46Z"/><path class="cls-23" d="M989.38,901s-3.11,6-6.16,6.09S985.36,901.41,989.38,901Z"/><path class="cls-23" d="M974.73,921s.41-6.83,3.1-8.37S978.16,918.69,974.73,921Z"/><path class="cls-23" d="M985,897.32s-.41,6.83-3.1,8.38S981.57,899.62,985,897.32Z"/><path class="cls-23" d="M967.57,908.35s5.92-2.44,8.33-.43S970.93,910.77,967.57,908.35Z"/><ellipse class="cls-39" cx="979.48" cy="908.76" rx="4.41" ry="4.77"/><path class="cls-38" d="M969.08,945.06s3.84-4.22,9.12-4.51a38.21,38.21,0,0,1,6.91,0s-3.25,3.72-7.13,4.51A30.05,30.05,0,0,1,969.08,945.06Z"/><path class="cls-38" d="M969.88,941c-.67-.63-1.18-5.77-5.27-7.05a36.23,36.23,0,0,0-7-1.54s3.55,6.68,6.14,7.68A19,19,0,0,0,969.88,941Z"/><path class="cls-38" d="M987.25,960.5l.55-.14c-.22-1-.76-20.44,5.35-31.79l-.5-.27C986.46,939.81,987.05,959.7,987.25,960.5Z"/><path class="cls-23" d="M994.19,918.14s1.93,4,.76,5.84S992.81,920.63,994.19,918.14Z"/><path class="cls-23" d="M995.39,935.16s-1.92-4-.75-5.85S996.78,932.66,995.39,935.16Z"/><path class="cls-23" d="M990.34,919.37s3.57,2.69,3.36,4.84S990.26,922.22,990.34,919.37Z"/><path class="cls-23" d="M999.24,933.92s-3.56-2.69-3.35-4.84S999.33,931.07,999.24,933.92Z"/><path class="cls-23" d="M987.53,922.27s4.4.78,5.18,2.79S988.74,924.85,987.53,922.27Z"/><path class="cls-23" d="M1002.06,931.2s-4.4-.78-5.18-2.79S1000.84,928.62,1002.06,931.2Z"/><path class="cls-23" d="M986.61,929.34s3.53-2.74,5.55-2S989.34,930.16,986.61,929.34Z"/><path class="cls-23" d="M1003.3,925.93s-3.94,2.1-5.8,1S1000.75,924.66,1003.3,925.93Z"/><path class="cls-23" d="M988.56,932.41s2.19-3.89,4.34-4S991.39,932.11,988.56,932.41Z"/><path class="cls-23" d="M1001.78,921.63s-2.19,3.9-4.34,4S999,921.94,1001.78,921.63Z"/><path class="cls-23" d="M991.44,934.71s.29-4.46,2.19-5.47S993.87,933.21,991.44,934.71Z"/><path class="cls-23" d="M998.69,919.27s-.28,4.46-2.19,5.46S996.27,920.76,998.69,919.27Z"/><path class="cls-23" d="M986.39,926.47s4.17-1.6,5.88-.29S988.76,928.05,986.39,926.47Z"/><circle class="cls-39" cx="994.79" cy="926.74" r="3.11"/><path class="cls-38" d="M987.45,950.42a10.83,10.83,0,0,1,6.44-2.94,29.6,29.6,0,0,1,4.88,0,10.86,10.86,0,0,1-5,2.94A22.78,22.78,0,0,1,987.45,950.42Z"/><path class="cls-38" d="M988,947.75c-.47-.41-.82-3.77-3.72-4.61a27.2,27.2,0,0,0-4.94-1s2.5,4.36,4.33,5A14.42,14.42,0,0,0,988,947.75Z"/><path class="cls-26" d="M528.5,915.07s11.77-6.5,27,1.25.63,45-11.34,46.45-19.21-4.51-23.58-4.37-14.71.76-22.24-3.61-16.33-40.75,3.4-47C514.4,903.76,528.5,915.07,528.5,915.07Z"/><path class="cls-40" d="M526.08,901.85s4.29,12,3.41,14-3.59.7-4.33-.72-.69-9.53-1-10.88S525.63,900.56,526.08,901.85Z"/><path class="cls-41" d="M516.3,960.93l7.45,1.25a13.54,13.54,0,0,0,15.54-11.1l3.35-20a13.54,13.54,0,0,0-11.1-15.54l-7.44-1.25a13.54,13.54,0,0,0-15.54,11.1l-3.35,20A13.54,13.54,0,0,0,516.3,960.93Z"/><path class="cls-30" d="M472.65,943s.84-5.24,7.16-4.65,7.8,13.54-1.84,17C466.8,959.24,459.75,944.44,472.65,943Z"/><path class="cls-28" d="M466.56,940.64s5.06.6,6.59,2.67c0,0-2.85-2-5.55-1.87C467.6,941.44,466.59,941.22,466.56,940.64Z"/><path class="cls-30" d="M456.43,942.73s4.9-2.05,7.72,3.63-7.4,13.76-15.38,7.37C439.52,946.32,448.39,932.53,456.43,942.73Z"/><path class="cls-28" d="M455.21,936.32s2.15,4.62,1.19,7c0,0,.18-3.46-1.33-5.71C455.07,937.62,454.73,936.64,455.21,936.32Z"/><path class="cls-36" d="M440.56,928.63s4.9-2.06,7.72,3.63-7.4,13.76-15.38,7.37C423.65,932.22,432.52,918.43,440.56,928.63Z"/><path class="cls-28" d="M439.34,922.22s2.15,4.62,1.2,7c0,0,.17-3.46-1.34-5.71C439.2,923.52,438.86,922.54,439.34,922.22Z"/><path class="cls-30" d="M452.39,914.69s4.89-2.05,7.72,3.63-7.4,13.77-15.38,7.37C435.47,918.28,444.34,904.49,452.39,914.69Z"/><path class="cls-28" d="M451.16,908.28s2.15,4.63,1.2,7c0,0,.18-3.46-1.33-5.71C451,909.58,450.69,908.61,451.16,908.28Z"/><path class="cls-36" d="M417.24,924.05s1.07-5.2,7.36-4.32,7.18,13.88-2.61,16.85C410.65,940,404.28,924.93,417.24,924.05Z"/><path class="cls-28" d="M411.26,921.44s5,.83,6.46,3c0,0-2.76-2.1-5.46-2.13C412.26,922.28,411.26,922,411.26,921.44Z"/><path class="cls-30" d="M391.23,937.66s1.07-5.2,7.36-4.32,7.18,13.88-2.61,16.86C384.64,953.65,378.27,938.54,391.23,937.66Z"/><path class="cls-28" d="M385.25,935.05s5,.84,6.46,3c0,0-2.76-2.1-5.46-2.12C386.25,935.9,385.25,935.63,385.25,935.05Z"/><path class="cls-36" d="M415.05,938.94s4.7-2.46,8,3-6.19,14.35-14.69,8.66C398.51,944,406.16,929.47,415.05,938.94Z"/><path class="cls-28" d="M412.87,932.66s2.54,4.42,1.79,6.88c0,0-.12-3.46-1.81-5.57C412.85,934,412.42,933,412.87,932.66Z"/><path class="cls-37" d="M466.33,930s4.9-2.05,7.73,3.63-7.41,13.76-15.39,7.37C449.42,933.57,458.29,919.78,466.33,930Z"/><path class="cls-28" d="M465.11,923.57s2.15,4.62,1.2,7c0,0,.18-3.46-1.33-5.71C465,924.87,464.63,923.9,465.11,923.57Z"/><path class="cls-30" d="M435.79,943.64s4.9-2,7.73,3.63-7.4,13.77-15.39,7.37C418.88,947.23,427.75,933.44,435.79,943.64Z"/><path class="cls-28" d="M434.57,937.23s2.15,4.62,1.2,7c0,0,.18-3.46-1.33-5.71C434.44,938.53,434.09,937.56,434.57,937.23Z"/><path class="cls-23" d="M382.79,939.59l115.17.29a2.6,2.6,0,0,0,2.6-2.58l0-9.3a2.59,2.59,0,0,0-2.58-2.59l-115.17-.28a2.59,2.59,0,0,0-2.6,2.57l0,9.3A2.59,2.59,0,0,0,382.79,939.59Z"/><path class="cls-23" d="M470.39,941h33.67a.71.71,0,0,1,.71.71v2.36a.72.72,0,0,1-.72.72H470.39a.71.71,0,0,1-.71-.71v-2.36a.72.72,0,0,1,.72-.72Z" transform="translate(-456.9 1427.83) rotate(-89.86)"/><path class="cls-23" d="M387.94,959.52l.08-33.67a.71.71,0,0,0-.71-.71H385a.71.71,0,0,0-.72.71l-.08,33.67a.71.71,0,0,0,.71.71h2.36A.71.71,0,0,0,387.94,959.52Z"/><path class="cls-23" d="M382.74,960.22l115.17.28a2.59,2.59,0,0,0,2.6-2.58l0-9.29A2.6,2.6,0,0,0,498,946l-115.17-.28a2.6,2.6,0,0,0-2.6,2.58l0,9.3A2.59,2.59,0,0,0,382.74,960.22Z"/><path class="cls-24" d="M496.71,929.38a1.33,1.33,0,0,0-1.33-1.34,1.34,1.34,0,1,0,1.33,1.34Z"/><path class="cls-24" d="M496.7,936a1.34,1.34,0,1,0-1.34,1.33A1.33,1.33,0,0,0,496.7,936Z"/><path class="cls-24" d="M496.66,949.94a1.33,1.33,0,0,0-1.33-1.34,1.34,1.34,0,1,0,1.33,1.34Z"/><path class="cls-24" d="M496.65,956.59a1.34,1.34,0,0,0-1.34-1.34,1.33,1.33,0,0,0-1.34,1.33,1.34,1.34,0,0,0,2.68,0Z"/><path class="cls-24" d="M387.46,929.11a1.34,1.34,0,1,0-1.34,1.34A1.35,1.35,0,0,0,387.46,929.11Z"/><path class="cls-24" d="M387.44,935.76a1.34,1.34,0,0,0-2.68,0,1.36,1.36,0,0,0,1.34,1.35A1.34,1.34,0,0,0,387.44,935.76Z"/><path class="cls-24" d="M387.41,949.67a1.34,1.34,0,1,0-1.34,1.34A1.34,1.34,0,0,0,387.41,949.67Z"/><path class="cls-24" d="M387.39,956.32a1.34,1.34,0,1,0-1.34,1.33A1.34,1.34,0,0,0,387.39,956.32Z"/></g></svg>