<svg id="Calque_1" data-name="Calque 1" xmlns="http://www.w3.org/2000/svg" xmlns:xlink="http://www.w3.org/1999/xlink" viewBox="0 0 1920 960"><defs><style>.cls-1{fill:none;}.cls-2{clip-path:url(#clip-path);}.cls-3{clip-path:url(#clip-path-2);}.cls-4{fill:#d8e9ff;}.cls-5{fill:#f6fbff;}.cls-6{fill:#73b471;}.cls-7{fill:#5e9f5c;}.cls-8{fill:#fddbba;}.cls-9{fill:#fff2e7;}.cls-10{fill:#f89b31;}.cls-11{fill:#f4cbaa;}.cls-12{fill:#f28018;}.cls-13{fill:#f4bb6b;}.cls-14{fill:#ffcd76;}.cls-15{fill:#ffddc3;}.cls-16{fill:#d44b40;}.cls-17{fill:#ffe5d4;}.cls-18{fill:#080435;}.cls-19{fill:#1e3865;}.cls-20{fill:#2a3967;}.cls-21{fill:#32478f;}.cls-22{fill:#ffae73;}.cls-23{fill:#f9924f;}.cls-24{fill:#25468f;}.cls-25{fill:#ffe1b5;}.cls-26{fill:#ffa166;}.cls-27{fill:#e9ac55;}.cls-28{fill:#f99352;}.cls-29{fill:#ffbf65;}.cls-30{fill:#fc7600;}.cls-31{fill:#ff912b;}.cls-32{fill:#fff1e7;}.cls-33{fill:#9bd399;}</style><clipPath id="clip-path"><rect class="cls-1" y="-1.39" width="1920" height="960" transform="translate(1920 957.22) rotate(-180)"/></clipPath><clipPath id="clip-path-2"><path class="cls-1" d="M1712.09,928.54a321.62,321.62,0,0,1-4.32,32.46.44.44,0,0,1,0,.1l-.15.83a.15.15,0,0,0,0,.07L1329,961.27,346.69,959.4S216.37,861.78,173.9,707.87c0-.12-.08-.25-.11-.38a356.92,356.92,0,0,1-12.45-117.13c0-.41,0-.83.08-1.24,2.28-35.16,10-72.13,24.82-110.58a453.73,453.73,0,0,1,27-57.37q3.71-6.65,7.76-13C308.77,270.72,517.6,238.82,582.26,268.29c87.86,40,204.41-68.15,456.31-142.42,115.19-34,318.94-5.14,429.41,101.52.12.12.24.23.36.36,70.74,68.51,103,169.06,48.82,305.6-.05.14-.11.29-.17.43l-.09.24c-52.76,132.37,53.94,160.55,129.59,228.7,23,20.59,41.75,44.21,53.23,72.61C1711.91,865.51,1714.51,896.65,1712.09,928.54Z"/></clipPath></defs><g class="cls-2"><g class="cls-3"><path class="cls-4" d="M1712.09,928.54a321.62,321.62,0,0,1-4.32,32.46.44.44,0,0,1,0,.1l-.15.83a.15.15,0,0,0,0,.07L1329,961.27,346.69,959.4S216.37,861.78,173.9,707.87c0-.12-.08-.25-.11-.38a356.92,356.92,0,0,1-12.45-117.13c0-.41,0-.83.08-1.24,2.28-35.16,10-72.13,24.82-110.58a453.73,453.73,0,0,1,27-57.37q3.71-6.65,7.76-13C308.77,270.72,517.6,238.82,582.26,268.29c87.86,40,204.41-68.15,456.31-142.42,115.19-34,318.94-5.14,429.41,101.52.12.12.24.23.36.36,70.74,68.51,103,169.06,48.82,305.6-.05.14-.11.29-.17.43l-.09.24c-52.76,132.37,53.94,160.55,129.59,228.7,23,20.59,41.75,44.21,53.23,72.61C1711.91,865.51,1714.51,896.65,1712.09,928.54Z"/><path class="cls-5" d="M1172.86,307.28s-13.12-31.58-44.49-28.08c0,0-45.56-52.63-94.13-7,0,0-51.64-11.31-89.88,9.78-25.49,14.06-33.91,28.82-33.91,28.82Z"/><path class="cls-5" d="M575.2,410.82s-12.28-29.56-41.65-26.27c0,0-42.63-49.27-88.1-6.57,0,0-48.32-10.58-84.11,9.16-23.87,13.16-31.75,27-31.75,27Z"/><path class="cls-5" d="M1268.2,210.66s-10-24.17-34-21.48c0,0-34.86-40.28-72-5.37,0,0-39.52-8.65-68.78,7.49-19.51,10.76-25.95,22-25.95,22Z"/><path class="cls-6" d="M47.13,588.33s654.1-6.32,841.78,0,913.35,0,913.35,0V896.87H47.78Z"/><path class="cls-7" d="M1802.7,742.31l-.13,31.61-.09,20.33,0,8.93-.14,32.38v4.32l.41,125H47.13V815.45c35.28.81,71.06.87,106.63.35q9-.13,18-.31c5.09-.09,10.15-.21,15.22-.33l12.37-.32q5.92-.17,11.83-.35c2.64-.07,5.27-.16,7.91-.25,53.05-1.74,104.63-4.53,152.29-7.78,103-7,187.75-16.11,229.55-21.13,14.28-1.71,23.56-3,26.84-3.46,372.44-58.08,857.69-50.71,1069-43.84,6.74.21,13.19.44,19.35.65l15.5.56,11.84.45,11.31.45,6.72.27C1788,741.52,1802.7,742.31,1802.7,742.31Z"/><path class="cls-6" d="M586,795.64s-4-47.54,8.91-39.51S586,795.64,586,795.64Z"/><path class="cls-6" d="M595.5,793.22s13.76-28.15,19.69-25.89S595.5,793.22,595.5,793.22Z"/><path class="cls-6" d="M580.48,796.71c-.24-.41-10.82-36.82-23.79-30.91S580.48,796.71,580.48,796.71Z"/><path class="cls-6" d="M1722.8,746.48s18.91-46.15,27.43-36.07S1722.8,746.48,1722.8,746.48Z"/><path class="cls-6" d="M1733.08,745.94s26.62-24.31,31.19-21S1733.08,745.94,1733.08,745.94Z"/><path class="cls-6" d="M1717.07,746.48c0-.44,7.29-37.17-7.91-33.94S1717.07,746.48,1717.07,746.48Z"/><rect class="cls-8" x="549.58" y="476.27" width="127.79" height="179.18"/><rect class="cls-9" x="450.31" y="476.27" width="99.27" height="179.19"/><polygon class="cls-10" points="517.1 401.83 558.97 488.04 686.17 488.04 619.85 402.15 517.1 401.83"/><polygon class="cls-8" points="512.08 401.83 553.95 488.04 681.15 488.04 614.83 402.15 512.08 401.83"/><path class="cls-11" d="M597.79,444.93h35a0,0,0,0,1,0,0v42.29a15.9,15.9,0,0,1-15.9,15.9h-2.67a16.43,16.43,0,0,1-16.43-16.43V444.93A0,0,0,0,1,597.79,444.93Z" transform="translate(1230.59 948.06) rotate(180)"/><polygon class="cls-10" points="436.48 492.82 551.94 492.82 620.19 401.83 581.77 401.84 506.71 401.85 436.48 492.82"/><polygon class="cls-12" points="436.48 492.82 457.63 492.82 581.77 401.84 506.71 401.85 436.48 492.82"/><polygon class="cls-10" points="628.7 512.11 658.51 573.49 749.07 573.49 701.86 512.34 628.7 512.11"/><polygon class="cls-8" points="625.99 512.11 655.79 573.49 746.36 573.49 699.14 512.34 625.99 512.11"/><polygon class="cls-8" points="655.99 573.49 655.99 655.28 746.36 655.46 746.36 573.49 655.99 573.49"/><rect class="cls-9" x="579.47" y="573.48" width="76.52" height="81.8"/><polygon class="cls-10" points="571.06 577.11 653.27 577.11 701.86 512.34 677.37 512.34 621.07 512.35 571.06 577.11"/><path class="cls-11" d="M682.82,587.11v68.35h38.07V587.74a19.33,19.33,0,0,0-19.35-19.35,18.72,18.72,0,0,0-18.72,18.72Z"/><path class="cls-11" d="M706.13,546.41a4.28,4.28,0,1,0-4.27,4.27A4.27,4.27,0,0,0,706.13,546.41Z"/><polygon class="cls-12" points="571.06 577.11 586.66 577.11 677.37 512.34 621.07 512.35 571.06 577.11"/><path class="cls-13" d="M467.9,613.49s-42.43-3.72-54,0-17.3,21-15.65,33.65,5.49,23.35,12.91,23.07,59.87,0,59.87,0Z"/><path class="cls-13" d="M459.23,612.84s-9-1.67-15.09-2.29c0,0,4.81,1,5.41,1.49,0,0-13.05-2-17.81-1.49s-11.28,1.28-11.28,1.28l-7.26-.48s6,.73,5.72.82-5.9.78-7.69,1.93c0,0-5.53,1.73-6.72,2.79,0,0,4.44-2.25,6.18-2.11,0,0-10.07,7-10.09,13.63s43.27-10,43.27-10Z"/><path class="cls-14" d="M461.83,613.15s16.89-1.28,27.6,12.31,2.06,45.07-11.95,45.19-31.25-2-35-20.31S446.59,613.61,461.83,613.15Z"/><path class="cls-14" d="M496.42,640.28s-6.05-7-6.69-8.88l-.91,1.92Z"/><path class="cls-14" d="M492.05,630s-.76-5-3-6.82c0,0,2,3.34,1.48,6.13S492.05,630,492.05,630Z"/><path class="cls-14" d="M489.09,665.27c-.11.27,3.25-9.13,2.15-10.92h-.64S490.17,662.66,489.09,665.27Z"/><path class="cls-14" d="M491.79,653.05s2.52-.83,3.94,0c0,0-2.33-.66-3.75.73S491.79,653.05,491.79,653.05Z"/><path class="cls-13" d="M468.51,670.18a24.16,24.16,0,0,0,12.55-3.1c4.32-2.64,7.13-6.9,8.38-12.65,2.11-9.8,1.07-17.84-3.09-23.89-3.9-5.66-10.48-9.35-19-10.66a15,15,0,0,0-14.45,5.39c-5.32,6.38-6.85,17.16-3.72,26.21,2.22,6.39,8.12,10.34,15.81,10.57h.66c7.74,0,14.72-4,17.11-9.78s2.32-11.73-.35-16.33-7.84-7.71-14.43-8.56c-6-.77-9.19,2-10.84,4.48-3.18,4.75-3.17,12.48-1,16.21s7.74,6.37,12.68,6.2a8.35,8.35,0,0,0,7.66-4.65c1.77-3.69,1.65-7.49-.32-10.45a7.81,7.81,0,0,0-6.53-3.7c-2.74.15-3.9,2.44-4.07,4.34-.15,1.69.43,3.56,1.81,3.88,2.57.6,3.48-.8,3.52-.86s1.39-2.29-.34-2.62c-2-.38-1.46,1.16-1.46,1.16s.49,2.11-1.56,1.63c-.85-.19-1.4-1.57-1.27-3.12.15-1.71,1.13-3.58,3.41-3.7a7,7,0,0,1,5.9,3.39c1.83,2.74,1.93,6.29.27,9.75a7.65,7.65,0,0,1-7,4.24c-4.7.16-10.1-2.45-12-5.84-1.79-3.14-2.28-10.55,1-15.47,2.2-3.3,5.71-4.74,10.16-4.17,6.36.82,11.31,3.74,13.91,8.22s2.67,10,.31,15.7-9.39,9.55-17.1,9.33c-7.38-.21-13.05-4-15.16-10.09-3.05-8.83-1.58-19.33,3.59-25.53a14.34,14.34,0,0,1,13.8-5.15c8.36,1.29,14.77,4.87,18.55,10.37,4.06,5.89,5.06,13.74,3,23.34-1.2,5.56-3.91,9.66-8.06,12.19-8.37,5.13-21.57,2-21.68,2l1.49.8A34.71,34.71,0,0,0,468.51,670.18Z"/><path class="cls-13" d="M360,680.6l69.56-.43,26.49-.07s-.89-.83-2.52-2.2-4-3.29-7-5.47c-8.4-8.48-14.24-10-16.7-10.29l-.15-.07a30.64,30.64,0,0,1,9.45,1.95c-9.74-4.9-16.8-6-18.9-6.23l-.21-.08a33.31,33.31,0,0,1,7.91,1.24,87.31,87.31,0,0,0-21-5.21c-2.07-.45-4.18-.81-6.3-1.07l-.62-.07c-1.22-.14-2.43-.26-3.64-.36a177.54,177.54,0,0,0-36.37.94Z"/><path class="cls-14" d="M360,680.6l69.6-.18c0-.08,0-.17,0-.25-2.13-11.39-15-17.53-15-17.53,13.6,2.12,19.71,10.81,19.8,10.94-3.6-9.05-18.29-13.46-18.29-13.46,7.55,1,16.12,5.35,16.39,5.48-6.91-5.23-19.1-9.55-31.8-12.93-1.36-.36-2.73-.71-4.09-1-11.09-2.77-28.51-6.09-36.47-7.4Z"/><path class="cls-13" d="M360,673.52s25.2-4.84,36.52-16c-.25.18-8.31,6-17.16,6.53,0,0,14.77-4.89,17-11.78a4.77,4.77,0,0,0,.17-.62h0c1-5-24.39-10.53-36.54-11.84Z"/><polygon class="cls-10" points="814.62 859.58 817.69 882.09 819.35 882.09 819.35 860.07 814.62 859.58"/><path class="cls-10" d="M818.1,882.4c-.54-.14,7.72,2.81,14.29,1.29,0,0-12-1.87-13.5-4.41Z"/><path class="cls-10" d="M813.16,883.6c-.29,0,3.94-2.32,4.39-3.94l1.65,2S818.31,884.17,813.16,883.6Z"/><polygon class="cls-10" points="790.26 859.44 785.51 881.66 787.07 882.22 794.53 861.51 790.26 859.44"/><path class="cls-10" d="M786.48,882.4c-.54-.14,7.72,2.81,14.3,1.29,0,0-12-1.87-13.51-4.41Z"/><path class="cls-10" d="M781.55,883.6c-.3,0,3.93-2.32,4.38-3.94l1.65,2S786.69,884.17,781.55,883.6Z"/><path class="cls-15" d="M808.38,832.44s0,35.6,10,35.6c4.92,0,18.11-26.64,13.63-35.6S811.62,824.73,808.38,832.44Z"/><path class="cls-15" d="M792,829.46s-10.58,34-1,37c4.7,1.46,25.2-20,23.59-29.94S797.33,823.05,792,829.46Z"/><path class="cls-16" d="M847.89,734.36s2-10.78,8.8-13.27,10.62,0,10.62,0,4.81-1.66,7.47-.17,2.65,5.31,2.65,5.31,5.15.83,5.48,4.15-8.73,11.62-20,9.46S847.89,734.36,847.89,734.36Z"/><path class="cls-17" d="M757.69,820.05c4.33,12.19,13.64,23.52,31.31,30.57,8.7,3.48,49,6.37,69.12-17.64a32.64,32.64,0,0,0,4.35-6.74c11.88-24.43-7.06-60-4.35-66,3-6.62,9.6-7.72,8.31-17.28s-13-11-13-11-7.36-1.1-16.19,7.72-6.9,29.2-10.46,37.31c-2.41,5.47-16.9,11.63-31.42,9.7a37.27,37.27,0,0,1-6.67-1.49c-9-2.9-29.14-13.28-31.52-4.14q-.3,1.14-.57,2.31C754.08,794,753.24,807.51,757.69,820.05Z"/><path class="cls-10" d="M866.24,740.85s8.77,2.58,10.51,6.75c0,0-10.44,4.14-12.92,1.13S864.2,741,866.24,740.85Z"/><path class="cls-16" d="M868.15,749.78s3.21,5.24,0,8.85-10,1.5-9.18-3.11a10.57,10.57,0,0,1,4.86-6.79Z"/><path class="cls-17" d="M738.8,806.63c3.42,5.78,9.78,13,18.89,13.42A21.24,21.24,0,0,0,767.5,818a72.56,72.56,0,0,0,10-5.64,153.48,153.48,0,0,0,20.1-16.26s-.82-3.77-2.28-9.46c-4.7-18.37-16.1-56.85-28.67-54.69-16.47,2.84-6.25,21-18.47,26.13a14.64,14.64,0,0,0-3.59,2.07l-.41.36,0,0a8.37,8.37,0,0,0-1.94,2.52h0c-2.68,5.42,1.49,12.57.85,18C742.21,788.46,734.26,799,738.8,806.63Z"/><path class="cls-18" d="M855.45,738.63a1.81,1.81,0,1,1,.85,2.41A1.81,1.81,0,0,1,855.45,738.63Z"/><path class="cls-16" d="M744.58,760.14l-.41.36.06,0A.92.92,0,0,0,744.58,760.14Z"/><path class="cls-15" d="M738.8,806.63c3.42,5.78,9.78,13,18.89,13.42,4.33,12.19,13.64,23.52,31.31,30.57,8.7,3.48,49,6.37,69.12-17.64a32.64,32.64,0,0,0,4.35-6.74h0s-24.16,14.71-54.09,6.22c-17.68-5-25.53-13.32-30.89-20.1-3.72-4.7-6.23-8.67-10-10.3-6.64-2.89-7.45-11.5-11-18.74a19.4,19.4,0,0,0-5.72-7.34c-7-5.25-9.4-9.89-8.62-12.92-2.68,5.42,1.49,12.57.85,18C742.21,788.46,734.26,799,738.8,806.63Z"/><polygon class="cls-10" points="647.87 691.96 648.5 696.61 648.85 696.61 648.85 692.06 647.87 691.96"/><path class="cls-10" d="M648.59,696.67a6,6,0,0,0,3,.27s-2.48-.39-2.8-.91Z"/><path class="cls-10" d="M647.57,696.92c-.06,0,.81-.48.91-.81l.34.41S648.63,697,647.57,696.92Z"/><polygon class="cls-10" points="642.83 691.93 641.85 696.52 642.17 696.64 643.72 692.36 642.83 691.93"/><path class="cls-10" d="M642.05,696.67a6,6,0,0,0,3,.27s-2.48-.39-2.79-.91Z"/><path class="cls-10" d="M641,696.92c-.06,0,.81-.48.91-.81l.34.41S642.1,697,641,696.92Z"/><path class="cls-15" d="M646.58,686.34s0,7.37,2.07,7.36c1,0,3.75-5.5,2.82-7.36S647.25,684.75,646.58,686.34Z"/><path class="cls-15" d="M643.18,685.73s-2.18,7-.21,7.64c1,.3,5.22-4.15,4.88-6.19S644.3,684.4,643.18,685.73Z"/><path class="cls-16" d="M654.75,666.06s.41-2.23,1.82-2.74a2.54,2.54,0,0,1,2.2,0,2.34,2.34,0,0,1,1.54,0,1.36,1.36,0,0,1,.55,1.1s1.06.17,1.13.86-1.8,2.4-4.14,2A6.88,6.88,0,0,1,654.75,666.06Z"/><path class="cls-17" d="M636.1,683.78a10.56,10.56,0,0,0,6.47,6.32c1.8.72,10.14,1.32,14.3-3.65a6.88,6.88,0,0,0,.9-1.39c2.45-5-1.46-12.41-.9-13.65s2-1.6,1.71-3.57-2.69-2.29-2.69-2.29-1.53-.22-3.35,1.6-1.43,6-2.16,7.72c-.5,1.13-3.5,2.4-6.5,2a7.43,7.43,0,0,1-1.38-.31c-1.86-.6-6-2.74-6.52-.85l-.12.47A13.84,13.84,0,0,0,636.1,683.78Z"/><path class="cls-10" d="M658.54,667.4s1.82.54,2.18,1.4c0,0-2.16.86-2.67.23A1.1,1.1,0,0,1,658.54,667.4Z"/><path class="cls-16" d="M658.94,669.25s.66,1.09,0,1.83-2.08.31-1.9-.64a2.21,2.21,0,0,1,1-1.41Z"/><path class="cls-17" d="M632.19,681a5.11,5.11,0,0,0,3.91,2.77,4.43,4.43,0,0,0,2-.42,15.24,15.24,0,0,0,2.06-1.17,31.26,31.26,0,0,0,4.16-3.36s-.17-.78-.47-2c-1-3.8-3.33-11.76-5.93-11.31-3.41.59-1.29,4.35-3.82,5.4a3.36,3.36,0,0,0-.74.43l-.09.08h0a1.73,1.73,0,0,0-.4.52h0c-.56,1.12.31,2.59.17,3.72C632.9,677.25,631.25,679.42,632.19,681Z"/><path class="cls-18" d="M656.31,666.94a.38.38,0,0,1,.5-.17.37.37,0,0,1,.18.5.38.38,0,0,1-.5.17A.37.37,0,0,1,656.31,666.94Z"/><path class="cls-16" d="M633.39,671.39l-.09.08h0A.19.19,0,0,0,633.39,671.39Z"/><path class="cls-15" d="M632.19,681a5.11,5.11,0,0,0,3.91,2.77,10.56,10.56,0,0,0,6.47,6.32c1.8.72,10.14,1.32,14.3-3.65a6.88,6.88,0,0,0,.9-1.39h0a15.16,15.16,0,0,1-11.19,1.28,11.35,11.35,0,0,1-6.39-4.15c-.77-1-1.28-1.79-2.06-2.13-1.38-.6-1.54-2.38-2.27-3.88a4,4,0,0,0-1.18-1.51c-1.44-1.09-1.94-2-1.78-2.67-.56,1.12.31,2.59.17,3.72C632.9,677.25,631.25,679.42,632.19,681Z"/><polygon class="cls-10" points="679.57 706.96 678.93 711.62 678.59 711.62 678.59 707.06 679.57 706.96"/><path class="cls-10" d="M678.85,711.68a6.3,6.3,0,0,1-3,.27s2.48-.39,2.79-.91Z"/><path class="cls-10" d="M679.87,711.93c.06,0-.82-.48-.91-.82l-.34.42S678.8,712.05,679.87,711.93Z"/><polygon class="cls-10" points="684.6 706.93 685.59 711.53 685.26 711.64 683.72 707.36 684.6 706.93"/><path class="cls-10" d="M685.38,711.68a6.22,6.22,0,0,1-3,.27s2.48-.39,2.79-.91Z"/><path class="cls-10" d="M686.41,711.93c.06,0-.82-.48-.91-.82l-.34.42S685.34,712.05,686.41,711.93Z"/><path class="cls-15" d="M680.86,701.35s0,7.36-2.07,7.36c-1,0-3.75-5.51-2.82-7.36S680.19,699.75,680.86,701.35Z"/><path class="cls-15" d="M684.25,700.73s2.19,7,.21,7.65c-1,.3-5.21-4.15-4.87-6.19S683.14,699.41,684.25,700.73Z"/><path class="cls-16" d="M672.69,681.07s-.42-2.23-1.82-2.75a2.58,2.58,0,0,0-2.2,0,2.36,2.36,0,0,0-1.54,0,1.36,1.36,0,0,0-.55,1.1s-1.07.17-1.13.86,1.8,2.4,4.14,2A6.82,6.82,0,0,0,672.69,681.07Z"/><path class="cls-17" d="M691.34,698.79a10.58,10.58,0,0,1-6.48,6.32c-1.8.72-10.13,1.32-14.29-3.65a7.17,7.17,0,0,1-.9-1.39c-2.45-5.05,1.46-12.41.9-13.66s-2-1.59-1.72-3.57,2.7-2.28,2.7-2.28,1.52-.23,3.35,1.6,1.43,6,2.16,7.71c.5,1.13,3.5,2.41,6.5,2a7.61,7.61,0,0,0,1.38-.31c1.85-.6,6-2.75,6.52-.86,0,.16.08.32.11.48A13.74,13.74,0,0,1,691.34,698.79Z"/><path class="cls-10" d="M668.89,682.41s-1.81.54-2.17,1.4c0,0,2.16.85,2.67.23A1.1,1.1,0,0,0,668.89,682.41Z"/><path class="cls-16" d="M668.5,684.26s-.67,1.08,0,1.83,2.08.31,1.9-.65a2.17,2.17,0,0,0-1-1.4Z"/><path class="cls-17" d="M695.24,696a5.1,5.1,0,0,1-3.9,2.78,4.3,4.3,0,0,1-2-.43,15.88,15.88,0,0,1-2.07-1.16,32.1,32.1,0,0,1-4.15-3.37s.17-.78.47-2c1-3.8,3.33-11.76,5.93-11.31,3.4.59,1.29,4.34,3.82,5.4a3,3,0,0,1,.74.43l.08.07h0a1.62,1.62,0,0,1,.4.52h0c.55,1.12-.31,2.6-.18,3.73C694.54,692.25,696.18,694.43,695.24,696Z"/><path class="cls-18" d="M671.12,682a.37.37,0,1,0-.67.32.37.37,0,0,0,.5.18A.38.38,0,0,0,671.12,682Z"/><path class="cls-16" d="M694.05,686.4l.08.07h0Z"/><path class="cls-15" d="M695.24,696a5.1,5.1,0,0,1-3.9,2.78,10.58,10.58,0,0,1-6.48,6.32c-1.8.72-10.13,1.32-14.29-3.65a7.17,7.17,0,0,1-.9-1.39h0a15.16,15.16,0,0,0,11.19,1.28,11.33,11.33,0,0,0,6.38-4.15c.77-1,1.29-1.8,2.07-2.13,1.37-.6,1.54-2.38,2.26-3.88a4,4,0,0,1,1.19-1.52c1.44-1.08,1.94-2,1.78-2.67.55,1.12-.31,2.6-.18,3.73C694.54,692.25,696.18,694.43,695.24,696Z"/><path class="cls-19" d="M1297.06,673.56c-1.78,11.34-1.44,23.67,6.29,32.9,17.34,20.73,52.15,18.23,59.66,15.23,32.11-12.82,32.26-41.94,27.52-60.09-2.06-7.88-19.47,1.07-27.22,3.58-14.19,4.6-30.48-1.64-32.87-7.09-1-2.4-1.55-6.05-2-10.1v0c-.66-5.31-1.34-11.33-3.3-16.2h0a17.42,17.42,0,0,0-3.67-5.86c-7.62-7.61-14-6.66-14-6.66s-10.16,1.27-11.27,9.52,4.6,9.2,7.17,14.92C1304.77,646.83,1299.27,659.43,1297.06,673.56Z"/><path class="cls-16" d="M1312.18,621.34s-1.72-9.31-7.6-11.45-9.16,0-9.16,0-4.16-1.44-6.45-.15-2.29,4.59-2.29,4.59-4.44.71-4.73,3.58,7.53,10,17.3,8.16S1312.18,621.34,1312.18,621.34Z"/><path class="cls-17" d="M1297.06,673.56a11.94,11.94,0,0,0,7.18-.85c5-2.1,5.83,3.71,12.13,3.07s4-5.66,10.34-7.35,3.73-10.34,3.73-10.34-1-8.79-1.59-11.68c-.72-3.72-1.95-10.89-3.31-14.59a17.51,17.51,0,0,0-4.34-7.15c-7.61-7.62-13.75-5.45-13.75-5.45s-10.16,1.27-11.27,9.52,4.6,9.2,7.17,14.92C1304.77,646.83,1299.27,659.43,1297.06,673.56Z"/><path class="cls-10" d="M1296.34,627s-7.57,2.22-9.08,5.82c0,0,9,3.58,11.16,1S1298.1,627.08,1296.34,627Z"/><path class="cls-16" d="M1294.69,634.65s-2.77,4.53,0,7.64,8.68,1.29,7.92-2.68a9.12,9.12,0,0,0-4.19-5.87Z"/><path class="cls-19" d="M1355.6,674.63s13.48,13.26,26,18.9,20.85-3.19,24.77-9.8a8.62,8.62,0,0,0,1.06-2.9c0-.09,0-.18,0-.28a14,14,0,0,0-.37-5.12c-1.13-4.81-4-9.81-4.41-13.77-.73-6.37,6.13-15.44-4.41-19.85s-1.72-20.1-15.93-22.56c-3.44-.59-6.78,2.34-9.86,7.12C1362.78,641.38,1355.6,674.63,1355.6,674.63Z"/><polygon class="cls-10" points="1340.89 729.42 1338.25 748.86 1336.81 748.86 1336.81 729.85 1340.89 729.42"/><path class="cls-10" d="M1337.89,749.12c.47-.12-6.66,2.43-12.34,1.12,0,0,10.35-1.62,11.66-3.81Z"/><path class="cls-10" d="M1342.15,750.16c.25,0-3.39-2-3.79-3.4l-1.42,1.73S1337.71,750.65,1342.15,750.16Z"/><polygon class="cls-10" points="1361.92 729.31 1366.02 748.49 1364.67 748.97 1358.23 731.1 1361.92 729.31"/><path class="cls-10" d="M1365.18,749.12c.47-.12-6.66,2.43-12.34,1.12,0,0,10.36-1.62,11.66-3.81Z"/><path class="cls-10" d="M1369.44,750.16c.26,0-3.39-2-3.78-3.4l-1.43,1.73S1365,750.65,1369.44,750.16Z"/><path class="cls-19" d="M1346.28,706s0,30.73-8.65,30.73c-4.25,0-15.63-23-11.76-30.73S1343.49,699.34,1346.28,706Z"/><path class="cls-19" d="M1360.46,703.43s9.13,29.34.88,31.9c-4.06,1.27-21.76-17.31-20.37-25.84S1355.82,697.9,1360.46,703.43Z"/><path class="cls-19" d="M1307.21,626.27a1.56,1.56,0,1,0-.73,2.09A1.56,1.56,0,0,0,1307.21,626.27Z"/><path class="cls-16" d="M1325.08,696.3s16.48,10.83,33.94,8.73,10.53-6.15,10.53-6.15,6-1.12,5.64-6c0,0,4-4,1.43-8.08s-2.11,5.9-9.18,11.11C1361.05,700.64,1348.89,703.94,1325.08,696.3Z"/><path class="cls-17" d="M1372.46,626.37h0s12.48-6.27,12.46,8.31,5.55,10,6.76,18.95c1,7.51,12.74,13.49,15.39,21.79-1.13-4.81-4-9.81-4.41-13.77-.73-6.37,6.13-15.44-4.41-19.85s-1.72-20.1-15.93-22.56C1378.88,618.66,1375.54,621.59,1372.46,626.37Z"/><g id="man"><path class="cls-20" d="M455.92,759.17s-4.42,4.09-3.56,7,4.85,4.85,5.39,8.41,2.7,5.5,4.64,5.5h9.25s1.43-2.5-2-3.26-4.75-4.93-4.54-8.82a68.79,68.79,0,0,0-.32-9l-7.33-1.73Z"/><path class="cls-20" d="M510.14,770.33s-1.08,8.63.87,9.6,25.11.64,25.11.64,0-2.91-4-3.55-11-3-12.18-8.3S510.14,770.33,510.14,770.33Z"/><path class="cls-21" d="M531.11,638.65s-1.31,16.34-2.85,36c-2.09,26.68-4.61,59.46-4.86,65.67-.43,10.78-2.16,28-2.16,28s-4.09,4.1-12.28,2.37c0,0-7.31-24.62-9.39-50.67,0-.43-.07-.86-.1-1.29-1.94-26.52-5-82.36-5-82.36Z"/><path class="cls-20" d="M531.11,638.65s-1.31,16.34-2.85,36L499.57,720c0-.43-.07-.86-.1-1.29-1.94-26.52-5-82.36-5-82.36Z"/><path class="cls-21" d="M525.13,640.59s-23.61,59.18-39.13,87-20.38,35.57-20.38,35.57-8.89-3.55-9.7-6c0,0,5.94-53.69,16.33-66.78C478.13,683,485,660.8,485.35,653s2.1-23.13,2.1-23.13Z"/><path class="cls-22" d="M571.46,632.4s8.33,4,9.45,5,3.89,6.06,3.68,6.44-.63.5-1.39,0-2.87-2.71-3-2.3,5.66,7.15,4.64,8.58-6.76,1-10-1.33-6.56-10.91-7.05-11.38C563.61,633.43,571.46,632.4,571.46,632.4Z"/><path class="cls-12" d="M571.83,636.68c2.32-2,2.38-2.52,2.38-2.52s-14.78-25.55-16.06-28S549,565.34,549,565.34l-27.38-7.94s19.28,49.85,22.65,56C549.8,623.59,568,638.58,568,638.58A8.52,8.52,0,0,0,571.83,636.68Z"/><path class="cls-22" d="M535.53,547.42s9.63,16.94,19,19.16c0,0-.39-5.7-2.68-9.59.94-1.11,1.76-2.13,2.48-3a54.89,54.89,0,0,0,3.49-4.89l-3.19-8.59-2.17-5.83a27.9,27.9,0,0,1-3.39,4.88A23,23,0,0,1,535.53,547.42Z"/><path class="cls-23" d="M549.11,539.52S548,548,554.37,554a54.89,54.89,0,0,0,3.49-4.89l-3.19-8.59A18.14,18.14,0,0,0,549.11,539.52Z"/><path class="cls-22" d="M560.4,550.31S546,544.7,549.64,535.79s4.22-15.63,13.57-12.43,9.73,7.33,9.24,10.6S564.24,551.54,560.4,550.31Z"/><path class="cls-10" d="M486.06,634.39c5.8,8.34,49.21,19.49,48.69,13.72a63.23,63.23,0,0,1,0-11.39c.11-1.24.26-2.56.46-3.94a90.78,90.78,0,0,1,9.57-28.66c.43-.84.89-1.7,1.36-2.56a87.75,87.75,0,0,0,6-13.52c3-8.69,4.22-17,2.7-22.45a.19.19,0,0,0,0-.07c-9.07-4.2-12.59-20.47-12.59-20.47s-30.95,5.56-48.3,46.82c0,0-1.66,4.53-3.56,10.68-2.31,7.46-5,17.29-5.44,24.3C484.74,630.19,485,632.88,486.06,634.39Z"/><path class="cls-24" d="M547.58,519.24c-.1-.2-.4-.41-1.11-.63a3,3,0,0,1,1.45-.05c.4-1,1.38-2.67,3.23-2.68a2.26,2.26,0,0,0-1.45,1.33c2.52-1.6,7.2-2.06,18.88,1.83,15.4,5.13,7.71,14.06,5.38,14.78s-6.63-3.88-10.5-4.51-6,4.76-7.42,5.2-.64-.78-2.18-2-2.43,1.66-2.4,3.68-3,3.95-3,3.95l-1.76-3.24c-1.77-3.23-1.29-15,.4-17.09C547.28,519.62,547.42,519.43,547.58,519.24Z"/><path class="cls-13" d="M545.6,521.36s1.78-14.32,12.14-13.52,14.75,6.14,15.43,14.09Z"/><path class="cls-14" d="M535,526.52c-.1,3.09,4.26,6,11,7.75-.11-.64-.19-1.34-.25-2.08-.06-1.23.06-6.63.06-6.63,2.78-1.64,8-2.64,14-2.45,5.55.17,10.41,1.34,13.2,3,1.63.94,2.56,2,2.52,3.19a8.44,8.44,0,0,1-3,4.47,10.72,10.72,0,0,1-.49,1.82c8-1.22,12.86-4,13-7.44.11-3.25-4.73-6.24-12-8-.61-.15-1.23-.29-1.88-.42-.47-.1-.94-.18-1.43-.27a65.44,65.44,0,0,0-9.35-.94,62.53,62.53,0,0,0-12.72.82l-.45.08c-.4.07-.79.16-1.17.24C539.42,521,535.1,523.52,535,526.52Z"/><path class="cls-12" d="M485,626.85c37.36-11.26,43.3-55.8,43.3-55.8S507,587.31,490.4,602.55C488.09,610,485.42,619.84,485,626.85Z"/><path class="cls-16" d="M448.35,694.43l30.34,3.26a7.07,7.07,0,0,0,7.75-6.25l3.75-34.94-5.41-.58a16.9,16.9,0,0,0-33.53-3.6l-5.4-.58-3.75,34.94A7.06,7.06,0,0,0,448.35,694.43Zm35.09-38.66-30.85-3.31a15.55,15.55,0,0,1,30.85,3.31Z"/><path class="cls-22" d="M474.72,628.32s.84,7.06.64,8.22-1.55,4.58-1.88,4.6-1.35.06-1.33-.65.49-1.37.19-1.25S472,642,470.62,642s-5.32-1.57-5.16-4.67,4.39-8.77,4.49-9.28C470.8,623.65,474.72,628.32,474.72,628.32Z"/><path class="cls-10" d="M472.48,629.51c3,1.36,4.07,0,4.07,0s17.26-28.82,19.08-31.14,33.68-16,33.68-16,13-5,13.48-12.83c.45-6.83-3.43-11-7.68-13.57A14.35,14.35,0,0,0,519,557c-10.46,8.12-31.18,24.45-34.51,28.88-7.43,9.86-15.65,40.75-15.65,40.75A10.34,10.34,0,0,0,472.48,629.51Z"/><path class="cls-25" d="M599.34,671.66a1.24,1.24,0,1,0-1.24,1.24A1.24,1.24,0,0,0,599.34,671.66Z"/><path class="cls-25" d="M574.21,649.7a1.24,1.24,0,0,0-2.48,0,1.24,1.24,0,0,0,2.48,0Z"/><path class="cls-25" d="M577,679.77a1.24,1.24,0,1,0-1.24,1.24A1.24,1.24,0,0,0,577,679.77Z"/><path class="cls-25" d="M604.9,726.2a1.24,1.24,0,1,0-1.24,1.24A1.24,1.24,0,0,0,604.9,726.2Z"/><path class="cls-25" d="M582.59,703.88a1.24,1.24,0,0,0-2.48,0,1.24,1.24,0,0,0,2.48,0Z"/><path class="cls-25" d="M574.21,655.77a1.24,1.24,0,0,0-2.48,0,1.24,1.24,0,0,0,2.48,0Z"/></g><path class="cls-10" d="M643.65,757.91s6.45,15.2,5.45,18.49-8.75,3.87-8.75,3.87h13.19a22.26,22.26,0,0,0-1.14-6c-1-2.58-2.3-18.35-2.3-18.35Z"/><path class="cls-10" d="M636.24,760.06s-5.7,16.88-8.6,18.06a55,55,0,0,1-7.75,2.15H631.4s-1.61-2.38-.56-3.53,10.42-15.34,10.42-15.34Z"/><path class="cls-17" d="M593.92,706.38c-.35,1.47,3.42,1.76,6.4,2.15a23.07,23.07,0,0,1,2.54.49,13.54,13.54,0,0,0,5.48.25c2.49,6.11,1.42,21.9,3.27,35.93,1.23,9,9,13.78,18.43,15.84l0,.05a1.7,1.7,0,0,1,.29,0,14.08,14.08,0,0,0,1.42.25c.83.24,1.61.54,1.56,1a32.61,32.61,0,0,0,.39,4.69l3.18,1s4.64-5.72,5.72-5.72c.05,0,.05,0,.05-.05h.88l-.15.05s2.45,3.27,3.33,3.37A25.29,25.29,0,0,0,651,765s2.34-3,2.59-3.56l.83-.15c9.19-1.61,14-9.58,16.42-16h.05a43.89,43.89,0,0,0,2.25-8.71c-4.94,2.6-11.39,0-11.39,0-24.73-9.87-42.43,3-43.6-10.51a65.81,65.81,0,0,0-5.67-22,6.28,6.28,0,0,0-2.35-4.79,4.8,4.8,0,0,0-5.53.78,9.92,9.92,0,0,1-1.9,1.32C599.39,703.25,594.26,704.77,593.92,706.38Z"/><path class="cls-10" d="M601.5,704.13c-1.17.52-1.24,2.92-1.16,4.42-3-.41-6.77-.72-6.44-2.19s5.48-3.1,8.78-4.92A2.47,2.47,0,0,1,601.5,704.13Z"/><path class="cls-15" d="M608.34,709.27c2.49,6.11,1.42,21.9,3.27,35.93,1.23,9,9,13.78,18.43,15.84l0,.05a1.7,1.7,0,0,1,.29,0,14.08,14.08,0,0,0,1.42.25c.83.24,1.61.54,1.56,1a32.61,32.61,0,0,0,.39,4.69l3.18,1s4.64-5.72,5.72-5.72c.05,0,.05,0,.05-.05h.88l-.15.05s2.45,3.27,3.33,3.37A25.29,25.29,0,0,0,651,765s2.34-3,2.59-3.56l.83-.15c9.19-1.61,14-9.58,16.42-16,0,0-7.33,8.06-21.07,6s-28-3-31.38-5.38S611.76,707.6,608.34,709.27Z"/><path class="cls-10" d="M569,765.4s-4.29,10.11-3.63,12.3,5.82,2.57,5.82,2.57h-8.77a14.64,14.64,0,0,1,.76-4c.67-1.72,1.53-12.21,1.53-12.21Z"/><path class="cls-10" d="M574,766.83s3.79,11.23,5.72,12a35.66,35.66,0,0,0,5.15,1.43h-7.66s1.07-1.58.37-2.35-6.92-10.2-6.92-10.2Z"/><path class="cls-17" d="M602.11,731.13c.23,1-2.27,1.17-4.26,1.43a14.93,14.93,0,0,0-1.69.33,8.9,8.9,0,0,1-3.64.16c-1.66,4.06-.94,14.57-2.18,23.9-.81,6-6,9.16-12.25,10.53l0,0a1,1,0,0,0-.2,0,7.4,7.4,0,0,1-.94.17c-.55.16-1.07.36-1,.65a21.72,21.72,0,0,1-.26,3.12l-2.11.68s-3.09-3.8-3.81-3.8c0,0,0,0,0,0h-.58l.09,0s-1.62,2.18-2.21,2.24a16.5,16.5,0,0,1-2.86-.45,28.8,28.8,0,0,1-1.72-2.38l-.55-.09c-6.12-1.08-9.34-6.38-10.93-10.67h0a29.31,29.31,0,0,1-1.5-5.79c3.29,1.73,7.58,0,7.58,0,16.45-6.56,28.22,2,29-7a43.72,43.72,0,0,1,3.77-14.59,4.19,4.19,0,0,1,1.56-3.19A3.18,3.18,0,0,1,595,727a6.85,6.85,0,0,0,1.26.88C598.47,729.05,601.88,730.06,602.11,731.13Z"/><path class="cls-10" d="M597.07,729.63c.77.35.82,2,.77,2.94,2-.27,4.5-.48,4.28-1.45s-3.64-2.06-5.83-3.28A1.62,1.62,0,0,0,597.07,729.63Z"/><path class="cls-15" d="M592.52,733.05c-1.66,4.06-.94,14.57-2.18,23.9-.81,6-6,9.16-12.25,10.53l0,0a1,1,0,0,0-.2,0,7.4,7.4,0,0,1-.94.17c-.55.16-1.07.36-1,.65a21.72,21.72,0,0,1-.26,3.12l-2.11.68s-3.09-3.8-3.81-3.8c0,0,0,0,0,0h-.58l.09,0s-1.62,2.18-2.21,2.24a16.5,16.5,0,0,1-2.86-.45,28.8,28.8,0,0,1-1.72-2.38l-.55-.09c-6.12-1.08-9.34-6.38-10.93-10.67,0,0,4.88,5.37,14,4s18.63-2,20.88-3.58S590.25,731.94,592.52,733.05Z"/><polygon class="cls-10" points="468.38 898.89 471.37 920.86 472.99 920.86 472.99 899.37 468.38 898.89"/><path class="cls-10" d="M471.77,921.16c-.52-.14,7.54,2.75,14,1.27,0,0-11.71-1.84-13.19-4.31Z"/><path class="cls-10" d="M467,922.33c-.29,0,3.83-2.26,4.28-3.84l1.61,2S472,922.89,467,922.33Z"/><polygon class="cls-10" points="444.6 898.75 439.96 920.44 441.48 920.99 448.77 900.78 444.6 898.75"/><path class="cls-10" d="M440.91,921.16c-.53-.14,7.53,2.75,13.95,1.27,0,0-11.7-1.84-13.18-4.31Z"/><path class="cls-10" d="M436.09,922.33c-.29,0,3.84-2.26,4.29-3.84l1.6,2S441.11,922.89,436.09,922.33Z"/><path class="cls-15" d="M462.29,872.4s0,34.75,9.77,34.75c4.81,0,17.68-26,13.31-34.75S465.44,864.87,462.29,872.4Z"/><path class="cls-15" d="M446.25,869.49s-10.33,33.18-1,36.08c4.59,1.43,24.6-19.57,23-29.23S451.5,863.23,446.25,869.49Z"/><path class="cls-17" d="M510.83,872.92a40.79,40.79,0,0,1-8.87,8.74,48.87,48.87,0,0,1-9.7,5.47c-19.27,8.25-42.69,5.49-48.89,3-13.65-5.45-18.25-16.38-18.41-29a70.18,70.18,0,0,1,1-12.25c2.95-17.9,11.37-36.69,14.09-47.08,0,0,34.47,21.35,42.09,26.52,6.95,4.72,14.4,9.34,20.46,14.2h0c4.67,3.74,8.52,7.63,10.66,11.82C516.14,859.91,516,866,510.83,872.92Z"/><path class="cls-17" d="M455.82,828.68S445,847.1,433,856.9c-.31.26-.62.51-.94.74a20.51,20.51,0,0,1-7.06,3.51c-9,2.37-17.1-3-21.92-7.73-6.21-6.09-1.36-18-2.42-25.17s-11.2-15.09-1-23-4-22.47,10.83-29.29c7.76-3.58,19.85,11.08,29.6,25.84C448.92,815.21,455.82,828.68,455.82,828.68Z"/><path class="cls-17" d="M537.5,902.52a15.39,15.39,0,0,1-6.09.66c-10.24-.88-34.55-13.61-39.15-16l-.76-.41,2.58-10.25,8.55-33.93h0c.18.21,4.69,5.21,10.66,11.82,10.12,11.19,24.48,27,29.13,31.63C548.42,892,545,900.09,537.5,902.52Z"/><path class="cls-16" d="M533.12,875.37s7.28-7.85,14.19-6.33,8.75,5.56,8.75,5.56,4.84,1.15,6.24,3.77-.59,5.76-.59,5.76,3.8,3.38,2.34,6.29-13.27,5-21.47-2.7S533.12,875.37,533.12,875.37Z"/><path class="cls-10" d="M543.44,898s4.22,7.87,2.52,11.93c0,0-10-4.41-9.64-8.21S541.93,896.68,543.44,898Z"/><path class="cls-16" d="M539.83,905.14s-1.45,5.82-6.15,6.06-7.93-6-4.14-8.51a10.34,10.34,0,0,1,8.06-1.28Z"/><path class="cls-18" d="M534.28,887.82a1.77,1.77,0,1,1,.83,2.36A1.76,1.76,0,0,1,534.28,887.82Z"/><path class="cls-15" d="M539.82,897.81l-2.32,4.71a15.39,15.39,0,0,1-6.09.66c-10.24-.88-34.55-13.61-39.15-16-19.27,8.25-42.69,5.49-48.89,3-13.65-5.45-18.25-16.38-18.41-29-9,2.37-17.1-3-21.92-7.73-6.21-6.09-1.36-18-2.42-25.17s-11.2-15.09-1-23c-5.71,12.57,13.2,25.06,26.34,43.63q1.8,2.54,3.42,5.22a22.45,22.45,0,0,0,2.61,3.52c13.28,14.74,44.24,11,62.06,18.83a25.64,25.64,0,0,1,7.09,4.48c.26.24.52.48.79.71C518,895.79,539.82,897.81,539.82,897.81Z"/><polygon class="cls-10" points="1240.76 876.05 1237.7 898.47 1236.05 898.47 1236.05 876.54 1240.76 876.05"/><path class="cls-10" d="M1237.29,898.78c.54-.14-7.69,2.8-14.24,1.29,0,0,12-1.87,13.45-4.39Z"/><path class="cls-10" d="M1242.2,900c.3,0-3.91-2.32-4.37-3.93l-1.64,2S1237.08,900.54,1242.2,900Z"/><polygon class="cls-10" points="1265.02 875.91 1269.75 898.05 1268.2 898.61 1260.76 877.98 1265.02 875.91"/><path class="cls-10" d="M1268.78,898.78c.54-.14-7.69,2.8-14.24,1.29,0,0,12-1.87,13.46-4.39Z"/><path class="cls-10" d="M1273.7,900c.29,0-3.92-2.32-4.37-3.93l-1.64,2S1268.57,900.54,1273.7,900Z"/><path class="cls-15" d="M1247,849s0,35.46-10,35.46c-4.9,0-18-26.53-13.58-35.46S1243.75,841.33,1247,849Z"/><path class="cls-15" d="M1263.34,846.05s10.53,33.86,1,36.82c-4.68,1.45-25.1-20-23.49-29.83S1258,839.66,1263.34,846.05Z"/><path class="cls-17" d="M1197.43,849.55a41.78,41.78,0,0,0,9,8.92,49.87,49.87,0,0,0,9.9,5.58c19.67,8.42,43.56,5.61,49.89,3.07,13.93-5.55,18.63-16.71,18.79-29.58a72.26,72.26,0,0,0-1-12.51c-3-18.26-11.6-37.43-14.38-48,0,0-35.17,21.79-43,27.07-7.1,4.81-14.7,9.53-20.88,14.48h0c-4.77,3.82-8.69,7.79-10.88,12.06C1192,836.27,1192.16,842.46,1197.43,849.55Z"/><path class="cls-17" d="M1253.57,804.4s11.07,18.81,23.32,28.81l1,.75a21,21,0,0,0,7.21,3.58c9.17,2.42,17.45-3.07,22.36-7.89,6.35-6.21,1.4-18.36,2.48-25.69s11.43-15.39,1-23.45,4.07-22.92-11.05-29.88c-7.93-3.65-20.26,11.31-30.21,26.36C1260.61,790.66,1253.57,804.4,1253.57,804.4Z"/><path class="cls-17" d="M1170.21,879.75a15.67,15.67,0,0,0,6.22.68c10.45-.9,35.26-13.89,40-16.38l.78-.42-2.64-10.45-8.72-34.64h0c-.18.21-4.78,5.32-10.88,12.06-10.33,11.42-25,27.52-29.72,32.27C1159.07,869,1162.58,877.28,1170.21,879.75Z"/><path class="cls-16" d="M1174.69,852.05s-7.44-8-14.49-6.46-8.92,5.67-8.92,5.67-4.94,1.18-6.37,3.85.6,5.88.6,5.88-3.88,3.45-2.38,6.42,13.54,5.1,21.9-2.76S1174.69,852.05,1174.69,852.05Z"/><path class="cls-10" d="M1164.16,875.14s-4.31,8-2.58,12.17c0,0,10.24-4.5,9.84-8.38S1165.7,873.8,1164.16,875.14Z"/><path class="cls-16" d="M1167.84,882.42s1.48,6,6.28,6.2,8.09-6.09,4.22-8.69a10.57,10.57,0,0,0-8.22-1.31Z"/><path class="cls-18" d="M1173.51,864.76a1.8,1.8,0,1,0-.85,2.4A1.81,1.81,0,0,0,1173.51,864.76Z"/><path class="cls-15" d="M1167.85,875l2.36,4.8a15.67,15.67,0,0,0,6.22.68c10.45-.9,35.26-13.89,40-16.38,19.67,8.42,43.56,5.61,49.89,3.07,13.93-5.55,18.63-16.71,18.79-29.58,9.17,2.42,17.45-3.07,22.36-7.89,6.35-6.21,1.4-18.36,2.48-25.69s11.43-15.39,1-23.45c5.82,12.83-13.48,25.57-26.88,44.52-1.22,1.73-2.39,3.51-3.49,5.34a23.9,23.9,0,0,1-2.67,3.59c-13.55,15-45.14,11.2-63.33,19.22a26.24,26.24,0,0,0-7.23,4.56l-.81.73C1190.14,872.88,1167.85,875,1167.85,875Z"/><polygon class="cls-10" points="557.25 695.58 557.81 699.69 558.12 699.69 558.12 695.66 557.25 695.58"/><path class="cls-10" d="M557.89,699.74a5.35,5.35,0,0,0,2.61.24s-2.19-.34-2.47-.81Z"/><path class="cls-10" d="M557,700c-.06,0,.71-.42.8-.72l.3.37S557.93,700.07,557,700Z"/><polygon class="cls-10" points="552.8 695.55 551.93 699.61 552.22 699.71 553.58 695.93 552.8 695.55"/><path class="cls-10" d="M552.11,699.74a5.35,5.35,0,0,0,2.61.24s-2.19-.34-2.46-.81Z"/><path class="cls-10" d="M551.21,700c-.05,0,.72-.42.8-.72l.3.37S552.15,700.07,551.21,700Z"/><path class="cls-15" d="M556.11,690.62s0,6.5,1.83,6.5c.9,0,3.31-4.86,2.49-6.5S556.7,689.21,556.11,690.62Z"/><path class="cls-15" d="M553.11,690.07s-1.93,6.21-.18,6.76c.86.26,4.6-3.67,4.31-5.47S554.09,688.9,553.11,690.07Z"/><path class="cls-17" d="M565.2,690.72a7.76,7.76,0,0,1-1.66,1.63,9.31,9.31,0,0,1-1.82,1,14.82,14.82,0,0,1-9.15.57c-2.55-1-3.41-3.07-3.44-5.43a12.94,12.94,0,0,1,.19-2.29c.55-3.35,2.13-6.87,2.64-8.81,0,0,6.45,4,7.87,5s2.7,1.75,3.83,2.66h0a7.28,7.28,0,0,1,2,2.21A3.1,3.1,0,0,1,565.2,690.72Z"/><path class="cls-17" d="M554.9,682.44a23.84,23.84,0,0,1-4.27,5.28l-.18.14a3.85,3.85,0,0,1-1.32.65,4.43,4.43,0,0,1-4.1-1.44c-1.17-1.14-.26-3.37-.46-4.72s-2.09-2.82-.18-4.3-.75-4.2,2-5.48c1.45-.67,3.71,2.08,5.54,4.84C553.61,679.91,554.9,682.44,554.9,682.44Z"/><path class="cls-17" d="M570.19,696.25a2.82,2.82,0,0,1-1.14.13c-1.92-.17-6.47-2.55-7.33-3l-.14-.07.48-1.92,1.6-6.35h0l2,2.21c1.89,2.1,4.58,5,5.45,5.92A1.82,1.82,0,0,1,570.19,696.25Z"/><path class="cls-16" d="M569.37,691.17s1.36-1.46,2.66-1.18a2.23,2.23,0,0,1,1.63,1s.91.21,1.17.71a1.19,1.19,0,0,1-.11,1.07s.71.64.44,1.18-2.49.94-4-.51A6.07,6.07,0,0,1,569.37,691.17Z"/><path class="cls-10" d="M571.3,695.41s.79,1.47.47,2.23c0,0-1.88-.83-1.8-1.54A1,1,0,0,1,571.3,695.41Z"/><path class="cls-16" d="M570.62,696.74s-.27,1.09-1.15,1.14-1.48-1.12-.77-1.59a1.93,1.93,0,0,1,1.51-.24Z"/><path class="cls-18" d="M569.59,693.5a.33.33,0,1,1,.59.29.33.33,0,1,1-.59-.29Z"/><path class="cls-15" d="M570.62,695.37l-.43.88a2.82,2.82,0,0,1-1.14.13c-1.92-.17-6.47-2.55-7.33-3a14.82,14.82,0,0,1-9.15.57c-2.55-1-3.41-3.07-3.44-5.43a4.43,4.43,0,0,1-4.1-1.44c-1.17-1.14-.26-3.37-.46-4.72s-2.09-2.82-.18-4.3c-1.07,2.36,2.47,4.69,4.93,8.17.22.32.44.64.64,1a4.51,4.51,0,0,0,.49.66c2.48,2.75,8.28,2,11.61,3.52a4.71,4.71,0,0,1,1.33.84l.15.13A13.93,13.93,0,0,0,570.62,695.37Z"/><path class="cls-26" d="M927.67,542.41l10.74,2s29.41-45.33,30.25-59.16c.82-13.2,27.31-71-3.71-107a58,58,0,0,0-4.56-4.76l-.18-.17s-.06.09-.15.26c-.63,1-3.1,5.5-6,15.35-4.52,15.38-10.11,43.95-11.43,93.28C942.64,482.17,935.42,524.41,927.67,542.41Z"/><path class="cls-26" d="M927.67,542.41s-11.52,13-11.87,18.26,4.2,11.89,9.32,13,1.92-7,2.69-10.26,4.11-8.21,3.91-6.73-2.25,7.28-1.61,8.2,2.28,1.08,2.9-2,5.79-6.72,4.78-10S937.6,547,939,542.5s3.73-9.81,3.73-9.81l-8.3-1.77Z"/><path class="cls-20" d="M1005.39,307.78s.26,5.48-3,6.56,3.39,12.9,2.86,20.89-4.06,11.2-4.06,11.2,1.7-4.4.75-7.11c0,0,.15,5.65-4,8.5s-3,5.32-3,5.32-9.33-2.79-9.6-9.79a18.17,18.17,0,0,0-.07,4.47s-8.06-6.05-8.44-13,6.34-12.85,9.4-13,9.9-6.12,9.72-8.39S1005.39,307.78,1005.39,307.78Z"/><path class="cls-27" d="M979.61,268.61c5.43-8.24,27-3.63,48.14,10.3s33.91,31.92,28.48,40.16-27,3.63-48.14-10.3S974.18,276.85,979.61,268.61Z"/><path class="cls-24" d="M933.07,876.88l11.41,4.25s49.56-68.74,55.66-129.22c1.09-10.79.73-21.26-1.63-30.92,0,0,.49-2.76,1.33-7.65l1.43-8.18c1.61-9.24,3.83-21.87,6.36-36.25,5.83-33.1,13.39-75.41,19.26-106.52l-3.08-1-33.26-10.74-6.88-21.83-24.77-6.52s-5.53,10.82-10.48,62c-.91,6.7-1.74,14.1-2.36,22.12A438,438,0,0,0,948.41,696c1.14,8.89,2.57,18.06,4.35,27.49,1.31,6.91,1.5,16.33,1,27.15C951.22,800.05,933.07,876.88,933.07,876.88Z"/><path class="cls-19" d="M946.06,606.4l53.78,106.94,1.43-8.18c1.61-9.24,3.83-21.87,6.36-36.25,5.83-33.1,13.39-75.41,19.26-106.52l-3.08-1-33.26-10.74-6.88-21.83L954.08,520s-.71,13.1-5.66,64.24C947.51,591,946.68,598.38,946.06,606.4Z"/><path class="cls-24" d="M959.22,525c-1.64-2,11.74.36,11.74.36,20.87,5.54,76.6-15.48,76.6-15.48s20.21,17.76,17.56,60.35c-1.29,20.78-3.66,109.1-6.13,135.24-.89,9.47-1.68,16.21-2,18.9v0a3.74,3.74,0,0,0,.6,2.31,122.62,122.62,0,0,1,9.12,19.18C1091,810.52,1063,890.1,1063,890.1l-7.26-2.92s-15.93-88.57-28.87-127.7c-2.2-6.64-4.3-11.85-6.23-15-5.63-9.08-10.85-23.92-15.59-41.57-9-33.36-16.17-76.76-21-110.27C983.4,592.7,976.5,545.72,959.22,525Z"/><path class="cls-20" d="M991.52,269.55l38,57.71s4.35-8.52,9.18-5.47c7.53,4.76,23.72-11.53,20.34-34.54q-.33-2.26-.78-4.29c-7.59-10.94-16-23.11-22.06-31.67C1018.77,240.74,991.52,269.55,991.52,269.55Z"/><path class="cls-22" d="M974.81,386.13A65,65,0,0,0,996,398.76c33.59,12.73,50.86-14.77,58.59-34.21a30.13,30.13,0,0,0-11.26-5.21c-2.46-.64-5.07-1.19-7.24-1.6-3.49-3.51-7.63-16.5-6.34-35.63l-1.69.22-28.34,3.76s.07,8.86-.44,17.15c-.4,6.49-1.16,12.64-2.58,14-2.19.17-3.52.3-3.52.3v0A178.21,178.21,0,0,0,974.81,386.13Z"/><path class="cls-10" d="M959.13,405.84c0,.76.11,1.52.2,2.3,2.74,21.4,6.7,90.48,6.7,90.48-6.69,13.16,92.77,43.66,97.06,31.1,6.44-9.82,0-28.63-5.55-43.05-1.37-3.52-1.67-7.27-2.88-10a31.37,31.37,0,0,1-1.85-5.38,31.83,31.83,0,0,1-.32-14.14,316.65,316.65,0,0,1,9.14-33.41c1.46-4.56,2.78-8.58,3.79-11.95-1.43-2-2.85-3.86-4.16-5.62a51,51,0,0,1-4.83-7.53c-1.24-2.55-1.77-4.92-1.18-7.21a34.25,34.25,0,0,1,1.78-5.16c.35-.81.72-1.59,1.1-2.38a74.24,74.24,0,0,1,10.21-15c-8-6.63-25-9.59-25-9.59l-.74,2.4c-1.84,6-6.75,21.25-9.58,23.54-3.53,2.84-52.24,4.77-53-.86s12.64-26.1,13.14-26.88l0,0-1.54.1c-2.51.2-4.77.63-6.83.72-13.27.56-15.64,4.16-15.64,4.16C976.17,371,958.05,385.59,959.13,405.84Z"/><path class="cls-28" d="M999.71,326.09s.08,8.85-.43,17.16c15.69.55,24.89-13.21,28.78-20.92Z"/><path class="cls-22" d="M994,333.62s37,3,38.52-20.12,7.29-38.25-16.29-41.12S987.46,278,985.09,285.6,984.39,332.25,994,333.62Z"/><path class="cls-20" d="M987,272.83c6.17-6.58,10.4-4.78,12.69-2.54,21-9.84,33,7.45,33,7.45a44.22,44.22,0,0,0,12.77,27s-7,3.74-22.34-1.25c-4.68-1.53-8.72-5.18-12.07-9.51a86.66,86.66,0,0,0,13.73,19.12c-18.06-9.78-23.88-36.13-24.45-38.92-2.39,1.89-7.13,6-8.77,10.26-2.22,5.76-3.82,17.82-7.33,17.18C984.22,301.6,977.75,282.7,987,272.83Z"/><path class="cls-19" d="M1020.76,896h57.47s1.37-8.76-1.63-15.41c-2.87-6.37-7.38-9.27-6.3-17-3.65,3.76-9.6,8-17.91,6.86-1,1.65-6.57,10.48-10,12.92C1038.66,886.12,1021.91,885.16,1020.76,896Z"/><path class="cls-19" d="M897.36,896h57.47s2.15-9.17-1.62-15.41c-3.34-5.52-2.06-8.66.41-13.23a22.28,22.28,0,0,1-9.68,1.83,20.4,20.4,0,0,1-8.55-3C932.92,869,922.33,881,919,883.42,915.26,886.12,898.52,885.16,897.36,896Z"/><path class="cls-29" d="M1059.87,298.61s17.22-34.28-6.84-47.83-41.68-8.23-54.91,8.34Z"/><path class="cls-14" d="M982.26,292.08a32.86,32.86,0,0,1,.56-11.24c-1.71-3.59-2-6.71-.63-8.94,1.62-2.59,5.29-3.64,10.28-3.31,8.57.55,21,5.15,33.56,13,16.3,10.17,27.66,22.62,28.73,30.63a6.63,6.63,0,0,1-.79,4.49c-1,1.68-3,2.71-5.53,3.14-3.49,2.76-7.11,3.62-9.7,2s-4.93,0-6.65,1.84c21.08,8.68,38.56,10,43.55,2,4.48-7.19-2.28-20.15-16.12-33.69a165.36,165.36,0,0,0-27.77-21.46,172,172,0,0,0-25.62-13.25c-20.92-8.57-38.24-9.85-43.2-1.91C958.11,263.09,966.27,277.48,982.26,292.08Z"/><path class="cls-12" d="M1018.91,478.75a170.4,170.4,0,0,0,39.34,7.36c-1.37-3.52-2.38-6.71-3.59-9.43a31.37,31.37,0,0,1-1.85-5.38,31.83,31.83,0,0,1-.32-14.14c2.55-12.46,9.34-33.73,12.35-43.1-8-17.92-16.34-8.15-16.34-8.15s-24.29,10.89-34.63,31S1006.55,474.79,1018.91,478.75Z"/><path class="cls-24" d="M1049.91,360.71s-23.13,14.78-29,45.94l-7-2.22s2.71-22.24,29.46-45.09Z"/><path class="cls-24" d="M968.22,407.44l7.32.49a74.37,74.37,0,0,1,16.1-50.3q-3.76.3-6.83.71C965.63,386.09,968.22,407.44,968.22,407.44Z"/><path class="cls-24" d="M1020.16,423.94l4.94-20.63s1-5.85-9.25-6.43-46.73-2.5-46.73-2.5a11.37,11.37,0,0,0-5,9.15c-.07,6.16-5,41.36-5,41.36l-5.11,77.43,111.19,47.91s7.62-39.14-.91-66.41c-5-15.91-11.4-32.52-11.4-32.52S1013.25,453.34,1020.16,423.94Z"/><path class="cls-30" d="M1021.15,403.94a3.07,3.07,0,1,0-3.85,2A3.07,3.07,0,0,0,1021.15,403.94Z"/><path class="cls-31" d="M1020.63,403.77a3.07,3.07,0,1,0-3.86,2A3.08,3.08,0,0,0,1020.63,403.77Z"/><path class="cls-24" d="M1019.6,402.84a.45.45,0,1,0-.44.44A.43.43,0,0,0,1019.6,402.84Z"/><path class="cls-24" d="M1016.69,402.84a.45.45,0,0,0-.89,0,.45.45,0,1,0,.89,0Z"/><path class="cls-30" d="M976,400a3.07,3.07,0,1,0-3.86,2A3.07,3.07,0,0,0,976,400Z"/><path class="cls-31" d="M975.42,399.87a3.07,3.07,0,1,0-3.86,2A3.07,3.07,0,0,0,975.42,399.87Z"/><path class="cls-24" d="M974.4,398.93a.46.46,0,0,0-.45-.44.45.45,0,1,0,.45.44Z"/><path class="cls-24" d="M971.48,398.94a.45.45,0,1,0-.44.45A.45.45,0,0,0,971.48,398.94Z"/><path class="cls-20" d="M1054.76,312.18s.26,5.48-3,6.55,3.38,12.91,2.86,20.9-4.06,11.2-4.06,11.2,1.7-4.4.75-7.12c0,0,.15,5.66-4,8.51s-3,5.32-3,5.32-9.34-2.8-9.6-9.79a18.17,18.17,0,0,0-.07,4.47s-8.06-6.05-8.45-13,6.35-12.85,9.41-13,9.9-6.12,9.72-8.39S1054.76,312.18,1054.76,312.18Z"/><path class="cls-22" d="M1054.72,495.83s-11.08,7-12.71,6.93c-3.8-.14-11.31-8.45-17.55-4.61s-12.37,10.24-10.21,12.8,9.5-.46,13,.05,12.2,4.83,18.33,2.8c5.89-1.95,18.61-10,18.61-10Z"/><path class="cls-22" d="M1068.34,368.93s41.26,48.72,54.91,76.17c0,0-16.42,35.74-69.63,64.78a18.59,18.59,0,0,1-6-3.1c-5.63-4,.61-7,1.85-7.76,13.5-8.75,37.09-46.42,37.77-49.69s-29.57-32.58-38.76-43.42S1054.05,363.35,1068.34,368.93Z"/><path class="cls-32" d="M1005.4,320.72s-5.52,3.34-9.45,2.95-6-5.07-6-5.07A32.55,32.55,0,0,1,1005.4,320.72Z"/><path class="cls-10" d="M1068.34,368.93l18.53,18.1s-4.23,26.74-32.28,30.23c0,0-23-18.43-9.26-37.63S1068.34,368.93,1068.34,368.93Z"/><path class="cls-10" d="M969.17,362.5s-14.28,6.6-18.89,29.66c0,0,.27,7.32,11.27,11.09,0,0,14.46-38.94,12.4-40.75S969.17,362.5,969.17,362.5Z"/><path class="cls-22" d="M1042,502.76a5.88,5.88,0,0,0-3-3.75c-2.38-1.06-4.6-3.38-4.79-2.7a3.07,3.07,0,0,0,.89,3.16C1036.34,500.84,1038.44,503.13,1042,502.76Z"/><path class="cls-33" d="M603.28,862.06s-32.94-64.29-37.42-47.6S603.28,862.06,603.28,862.06Z"/><path class="cls-33" d="M593.62,863.42S560.89,833,557.77,838.83,593.62,863.42,593.62,863.42Z"/><path class="cls-33" d="M608.57,860.86c-.12-.66-19.21-53.45-4.1-51.86S608.57,860.86,608.57,860.86Z"/><polygon class="cls-10" points="1163.65 789.86 1166.43 810.31 1167.94 810.31 1167.94 790.31 1163.65 789.86"/><path class="cls-10" d="M1166.81,810.59c-.49-.13,7,2.55,13,1.17,0,0-10.89-1.7-12.26-4Z"/><path class="cls-10" d="M1162.32,811.68c-.26,0,3.58-2.11,4-3.58l1.5,1.83S1167,812.19,1162.32,811.68Z"/><polygon class="cls-10" points="1141.52 789.74 1137.2 809.92 1138.62 810.43 1145.4 791.62 1141.52 789.74"/><path class="cls-10" d="M1138.09,810.59c-.49-.13,7,2.55,13,1.17,0,0-10.89-1.7-12.26-4Z"/><path class="cls-10" d="M1133.6,811.68c-.26,0,3.58-2.11,4-3.58l1.5,1.83S1138.28,812.19,1133.6,811.68Z"/><path class="cls-15" d="M1158,765.21s0,32.34,9.1,32.34c4.47,0,16.45-24.2,12.38-32.34S1160.92,758.2,1158,765.21Z"/><path class="cls-15" d="M1143.05,762.5s-9.6,30.88-.92,33.58c4.28,1.33,22.9-18.22,21.43-27.2S1147.94,756.68,1143.05,762.5Z"/><path class="cls-16" d="M1193.87,676.13s1.81-9.8,8-12.06,9.64,0,9.64,0,4.37-1.51,6.79-.15,2.41,4.82,2.41,4.82,4.67.76,5,3.77-7.92,10.55-18.21,8.59S1193.87,676.13,1193.87,676.13Z"/><path class="cls-17" d="M1111.94,754c3.93,11.07,12.39,21.36,28.44,27.77,7.9,3.15,44.52,5.78,62.78-16a29.41,29.41,0,0,0,3.95-6.12c10.79-22.19-6.41-54.5-3.95-60,2.69-6,8.72-7,7.54-15.69s-11.85-10-11.85-10-6.68-1-14.7,7-6.27,26.53-9.5,33.9c-2.19,5-15.35,10.55-28.54,8.8a33.26,33.26,0,0,1-6.06-1.35c-8.15-2.64-26.47-12.07-28.63-3.76-.18.69-.36,1.39-.52,2.1C1108.66,730.31,1107.89,742.56,1111.94,754Z"/><path class="cls-10" d="M1210.53,682s8,2.35,9.55,6.13c0,0-9.48,3.76-11.74,1S1208.68,682.17,1210.53,682Z"/><path class="cls-16" d="M1212.27,690.13s2.91,4.76,0,8-9.13,1.36-8.34-2.82a9.61,9.61,0,0,1,4.41-6.18Z"/><path class="cls-17" d="M1094.78,741.77c3.11,5.25,8.88,11.82,17.16,12.19a19.4,19.4,0,0,0,8.91-1.87,65.1,65.1,0,0,0,9.07-5.13,138.89,138.89,0,0,0,18.26-14.77s-.75-3.42-2.07-8.59c-4.27-16.69-14.63-51.64-26-49.67-15,2.58-5.67,19.09-16.77,23.73a13.21,13.21,0,0,0-3.26,1.88l-.38.33,0,0a7.73,7.73,0,0,0-1.75,2.29h0c-2.44,4.92,1.35,11.41.77,16.37C1097.88,725.26,1090.65,734.81,1094.78,741.77Z"/><path class="cls-18" d="M1200.73,680a1.65,1.65,0,1,1,.78,2.19A1.63,1.63,0,0,1,1200.73,680Z"/><path class="cls-16" d="M1100,699.54l-.38.33.06,0A.83.83,0,0,0,1100,699.54Z"/><path class="cls-15" d="M1094.78,741.77c3.11,5.25,8.88,11.82,17.16,12.19,3.93,11.07,12.39,21.36,28.44,27.77,7.9,3.15,44.52,5.78,62.78-16a29.41,29.41,0,0,0,3.95-6.12h0s-21.95,13.36-49.13,5.65c-16.06-4.57-23.19-12.1-28.06-18.26-3.38-4.26-5.65-7.87-9.07-9.35-6-2.63-6.77-10.45-9.95-17a17.71,17.71,0,0,0-5.19-6.67c-6.34-4.77-8.54-9-7.83-11.73-2.44,4.92,1.35,11.41.77,16.37C1097.88,725.26,1090.65,734.81,1094.78,741.77Z"/></g></g></svg>