<svg id="Calque_1" data-name="Calque 1" xmlns="http://www.w3.org/2000/svg" xmlns:xlink="http://www.w3.org/1999/xlink" viewBox="0 0 1920 960"><defs><style>.cls-1{fill:none;}.cls-2{clip-path:url(#clip-path);}.cls-3{fill:#d8e9ff;}.cls-4{opacity:0.3;fill:url(#Dégradé_sans_nom_3);}.cls-5{fill:#f6fbff;}.cls-6{fill:#c1e3ec;}.cls-7{fill:#5e9f5c;}.cls-8{fill:#73b471;}.cls-9{fill:#8cd388;}.cls-10{fill:#184655;}.cls-11{fill:#3c8f7c;}.cls-12{fill:#355389;}.cls-13{fill:#13375b;}.cls-14{fill:#f7a491;}.cls-15,.cls-17{fill:#f47458;}.cls-15{opacity:0.5;}.cls-16{fill:#b75742;}.cls-18{fill:#f8a492;}.cls-19{fill:#f4cbaa;}.cls-20{fill:#fddbba;}.cls-21{fill:#466eb6;}.cls-22{fill:#ffcd76;}.cls-23{fill:#c5ddf9;}.cls-24{fill:#eab054;}.cls-25{fill:#f7cc7f;}.cls-26{fill:#a34b3d;}.cls-27{fill:#bc4d26;}.cls-28{fill:#a7c7ff;}.cls-29{fill:#f48c7f;}.cls-30{fill:#50bfa5;}.cls-31{fill:#fae0b2;}.cls-32{fill:#7f1ca0;}.cls-33{fill:#f89b31;}.cls-34{fill:#f28018;}.cls-35{fill:#1f5c66;}.cls-36{fill:#96d9c9;}</style><clipPath id="clip-path"><rect class="cls-1" x="-0.24" width="1920" height="960"/></clipPath><linearGradient id="Dégradé_sans_nom_3" x1="939.57" y1="140.47" x2="939.57" y2="995.66" gradientTransform="matrix(-1, 0, 0, 1, 1919.52, 0)" gradientUnits="userSpaceOnUse"><stop offset="0" stop-color="#c7dbff"/><stop offset="1" stop-color="#8990ec"/></linearGradient></defs><g class="cls-2"><path class="cls-3" d="M1683.2,1018.08H141.08C13.26,936.63,79,691.52,185.8,641.84c114.92-53.49-67.57-238.46,109.47-298.5,115.58-39.2,272.24,4.59,348.76-79.8,89.91-99.15,239.26-219.84,517.42-126.06,214.53,72.34,98,211.78,449.06,253.77,180.52,21.58,145.64,206.29,128.81,244.46-14.66,33.24-111.65,86,23.14,158.59C1960.12,900.78,1687.85,1016.12,1683.2,1018.08Z"/><polygon class="cls-4" points="235.81 1015.36 235.81 803.58 308.12 803.58 308.12 647.36 377.69 647.36 377.69 716.92 435.25 716.92 435.25 694.52 435.25 556.63 529.51 556.63 529.51 703.19 557.71 704.13 557.71 556.36 590.6 556.36 590.6 493.39 610.34 493.39 610.34 451.09 687.41 451.09 687.41 493.39 707.15 493.39 707.15 556.36 740.04 556.36 740.04 636.41 755.22 637.35 759.78 400.19 861.29 400.19 861.29 526.36 897 527.3 897 330.11 909.22 330.11 909.22 288.49 1016.37 288.49 1016.37 330.11 1028.59 330.11 1028.59 595.84 1051.14 595.84 1051.14 512.98 1069.94 512.98 1069.94 472.46 1097.2 472.46 1097.2 354.2 1136.67 354.2 1136.67 472.46 1163.93 472.46 1163.93 512.98 1182.72 512.98 1182.72 653.16 1195.88 653.16 1206.22 653.03 1206.22 490.61 1484.42 493.27 1484.42 859 1507.92 859 1507.92 811.06 1592.51 811.06 1592.51 903.17 1616.95 903.17 1616.95 869.34 1670.52 869.34 1670.52 927.61 1670.52 937.95 1724.09 937.95 1724.09 1015.36 235.81 1015.36"/><path class="cls-5" d="M599.65,373.09A16.9,16.9,0,0,1,616.12,360a17.23,17.23,0,0,1,4.27.54,24.9,24.9,0,0,1,29.94-13.23,30.68,30.68,0,0,1,55.11,5.36,21.05,21.05,0,0,1,31.28,18.39c0,.69,0,1.37-.1,2Z"/><path class="cls-5" d="M1194.43,431.67a16.9,16.9,0,0,1,16.47-13.11,16.66,16.66,0,0,1,4.27.55,24.91,24.91,0,0,1,29.95-13.23,30.67,30.67,0,0,1,55.1,5.36,21,21,0,0,1,31.28,18.39c0,.69,0,1.37-.1,2Z"/><path class="cls-5" d="M400.39,506a8.53,8.53,0,0,0-8.3-6.61,8.39,8.39,0,0,0-2.15.28,12.56,12.56,0,0,0-11.37-7.24,12.43,12.43,0,0,0-3.73.57,15.47,15.47,0,0,0-27.78,2.7,10.61,10.61,0,0,0-15.77,9.27c0,.35,0,.69,0,1Z"/><path class="cls-5" d="M455.51,450.75a11.49,11.49,0,0,1,14.09-8.53,16.89,16.89,0,0,1,15.31-9.75,17.06,17.06,0,0,1,5,.76,20.84,20.84,0,0,1,37.43,3.64,14.3,14.3,0,0,1,21.24,12.5c0,.46,0,.93-.06,1.38Z"/><path class="cls-5" d="M1048,252.88a11.49,11.49,0,0,1,14.09-8.54,16.92,16.92,0,0,1,15.31-9.74,16.64,16.64,0,0,1,5,.76,20.84,20.84,0,0,1,37.43,3.64,14.3,14.3,0,0,1,21.25,12.49,12.81,12.81,0,0,1-.07,1.39Z"/><rect class="cls-6" x="1154.6" y="829.63" width="200.72" height="13.76" transform="translate(2509.92 1673.02) rotate(-180)"/><path class="cls-7" d="M1412,989.43a37.67,37.67,0,0,1-.53-6.31c0-23.94,22.43-43.34,50.11-43.34s50.1,19.4,50.1,43.34a37.67,37.67,0,0,1-.53,6.31Z"/><path class="cls-8" d="M1355.3,978.78a74.55,74.55,0,0,1-.53-8.91c0-33.75,22.44-61.12,50.11-61.12s50.1,27.37,50.1,61.12a76.71,76.71,0,0,1-.52,8.91Z"/><path class="cls-7" d="M1453.84,1016.24a59.62,59.62,0,0,0,.67-8.91c0-33.76-28.44-61.12-63.52-61.12s-63.52,27.36-63.52,61.12a59.62,59.62,0,0,0,.67,8.91Z"/><path class="cls-8" d="M1405.07,946.21c17.53,0,33.19,8.68,43.53,22.29a72.2,72.2,0,0,1,16.66-1.92c31.12,0,56.36,19.4,56.36,43.34a33.18,33.18,0,0,1-.6,6.32H1349.3a67.11,67.11,0,0,1-.6-8.91C1348.7,973.57,1373.94,946.21,1405.07,946.21Z"/><path class="cls-7" d="M1622.28,887.5c14.74-23,17.5-50.88,17.21-70.16a179.6,179.6,0,0,0-4.22-36.77l1.07-.38a181.78,181.78,0,0,1,4.25,37c.3,19.47-2.49,47.58-17.42,70.92Z"/><path class="cls-7" d="M1631.64,776.74a15.74,15.74,0,0,0,5.48,11.15,18.28,18.28,0,0,0,3.67-12.56,15.76,15.76,0,0,0-5.48-11.15A18.28,18.28,0,0,0,1631.64,776.74Z"/><path class="cls-7" d="M1641.61,787.67a18.17,18.17,0,0,0-2.48,12.82,16.59,16.59,0,0,0,10-7.69,18.17,18.17,0,0,0,2.47-12.82A16.54,16.54,0,0,0,1641.61,787.67Z"/><path class="cls-7" d="M1647.26,800.54a17.74,17.74,0,0,0-7.53,10.55,14.57,14.57,0,0,0,11.9-2.11,17.8,17.8,0,0,0,7.54-10.55A14.58,14.58,0,0,0,1647.26,800.54Z"/><path class="cls-7" d="M1645.52,818.47a13,13,0,0,0-5.51,9.24,10.37,10.37,0,0,0,9.89-.81,13,13,0,0,0,5.5-9.24A10.33,10.33,0,0,0,1645.52,818.47Z"/><path class="cls-7" d="M1632.8,797.23a12.54,12.54,0,0,0-10.64-.62,13.38,13.38,0,0,0,6.66,8.64,12.51,12.51,0,0,0,10.64.61A13.35,13.35,0,0,0,1632.8,797.23Z"/><path class="cls-7" d="M1633.19,809.61a12.55,12.55,0,0,0-10.64-.62,13.35,13.35,0,0,0,6.66,8.64,12.54,12.54,0,0,0,10.64.61A13.41,13.41,0,0,0,1633.19,809.61Z"/><path class="cls-7" d="M1643.29,838.16a6.69,6.69,0,0,0-4.26,3.26,5.54,5.54,0,0,0,4.89,1.13,6.72,6.72,0,0,0,4.26-3.26A5.54,5.54,0,0,0,1643.29,838.16Z"/><path class="cls-7" d="M1628.36,903.78c33.75-8.07,59.5-33,75.15-52.57a224.07,224.07,0,0,0,26.19-40.93l1.37.71a226.1,226.1,0,0,1-26.36,41.22c-15.8,19.72-41.82,44.94-76,53.11Z"/><path class="cls-7" d="M1729.24,802.79a22.33,22.33,0,0,0-3.75,16.66,20.46,20.46,0,0,0,14-8.81,22.26,22.26,0,0,0,3.75-16.66A20.48,20.48,0,0,0,1729.24,802.79Z"/><path class="cls-7" d="M1730.14,823.78a20.68,20.68,0,0,0-13.06,10.28,20.45,20.45,0,0,0,16.37,2.48,20.68,20.68,0,0,0,13.07-10.28A20.43,20.43,0,0,0,1730.14,823.78Z"/><path class="cls-7" d="M1725.14,842.32a20.2,20.2,0,0,0-16.23,2.9,21.52,21.52,0,0,0,13.62,9.94,20.21,20.21,0,0,0,16.23-2.91A21.56,21.56,0,0,0,1725.14,842.32Z"/><path class="cls-7" d="M1711.69,859.18a20.2,20.2,0,0,0-16.23,2.91,21.56,21.56,0,0,0,13.62,9.93,20.2,20.2,0,0,0,16.23-2.9A21.57,21.57,0,0,0,1711.69,859.18Z"/><path class="cls-7" d="M1715.71,831.15a21.88,21.88,0,0,0-4.81-15,19.13,19.13,0,0,0-6.31,13.67,21.93,21.93,0,0,0,4.81,15A19.17,19.17,0,0,0,1715.71,831.15Z"/><path class="cls-7" d="M1701.69,848.6a22,22,0,0,0-4.58-15.12,19,19,0,0,0-6.52,13.55,21.92,21.92,0,0,0,4.58,15.12A19.07,19.07,0,0,0,1701.69,848.6Z"/><path class="cls-7" d="M1690.09,875.82a8.28,8.28,0,0,0-6.95-1.05,9,9,0,0,0,3.94,6.07,8.28,8.28,0,0,0,7,1A9,9,0,0,0,1690.09,875.82Z"/><path class="cls-7" d="M1539,951.46l-1.45-.1c2.1-38.61-12.08-74.94-24.34-98.62a256.87,256.87,0,0,0-27.43-42.62l1.07-1.1a257.88,257.88,0,0,1,27.62,42.88C1526.83,875.78,1541.13,912.43,1539,951.46Z"/><path class="cls-7" d="M1479.45,807.91c3.33,5.61,8.11,9.1,13,10.05a28.22,28.22,0,0,0-3.7-18c-3.33-5.62-8.12-9.1-13-10.06A28.11,28.11,0,0,0,1479.45,807.91Z"/><path class="cls-7" d="M1497.27,814.63a27.69,27.69,0,0,0,5.18,17.55c3.69-3.74,6.14-9.59,6.38-16.37a27.63,27.63,0,0,0-5.19-17.55C1500,802,1497.51,807.85,1497.27,814.63Z"/><path class="cls-7" d="M1511.49,826.7a27.68,27.68,0,0,0-1.83,18.19c4.75-1.22,9.16-5,11.9-10.74a27.56,27.56,0,0,0,1.83-18.19C1518.65,817.18,1514.24,820.92,1511.49,826.7Z"/><path class="cls-7" d="M1521.26,856.36a11.55,11.55,0,0,0-1.28,7.55,7.74,7.74,0,0,0,5.29-4.08,11.54,11.54,0,0,0,1.29-7.56A7.8,7.8,0,0,0,1521.26,856.36Z"/><path class="cls-7" d="M1525.48,867a11.59,11.59,0,0,0-1.28,7.56,7.8,7.8,0,0,0,5.29-4.08,11.59,11.59,0,0,0,1.28-7.56A7.82,7.82,0,0,0,1525.48,867Z"/><path class="cls-7" d="M1493.42,832.47a15.31,15.31,0,0,0-12.19,6.5A16.3,16.3,0,0,0,1494,845.1a15.29,15.29,0,0,0,12.18-6.5A16.29,16.29,0,0,0,1493.42,832.47Z"/><path class="cls-7" d="M1501.5,847.52a15.31,15.31,0,0,0-12.19,6.5,16.31,16.31,0,0,0,12.73,6.13,15.25,15.25,0,0,0,12.18-6.5A16.31,16.31,0,0,0,1501.5,847.52Z"/><path class="cls-7" d="M1514.87,868a10,10,0,0,0-7.93,4.23,10.61,10.61,0,0,0,8.29,4,9.94,9.94,0,0,0,7.93-4.23A10.61,10.61,0,0,0,1514.87,868Z"/><path class="cls-7" d="M1664.88,1014.76c0-6.42-38.81,1.16-42-7.6s33.24-9.26,33.24-21.1-18.59-3.54-29.48-3.54,21.51-5.07,21.51-9.26-11.37-2-11.37-6.45,59.72-7.81,52.73-18.7-39.09,3.17-47.91-2.47,47.1-11.78,48.48-20.17-41.2,7.19-47.23,1.16,67.34-27.71,64.27-43.63-55.61,20.4-68.75,16.48,66.23-59.82,47.79-81.61-53.66,72.11-65.67,68.76,15-59.33,2.77-69.07-47.51,78.81-49.73,97-6.7-39.11-26-45.81-.56,35.49-3.91,48.35-19-33-40.1-29.62,38.14,45.27,32.28,57.56-51.62-41-66-26.71,55.1,54.12,51.3,65-45.46-7.78-57.45,4.22,44.75,19.61,52.28,19.61,36.28,9.46,8.19,7.6S1664.88,1021.19,1664.88,1014.76Z"/><path class="cls-8" d="M1554.25,1022.19s-46.74,2.5-60.35-6.06-2.87-15.24-2.87-15.24-43.22-.94-43.11-11.18,10.58-9.65,10.58-9.65-21.81-14.83-17.74-24.07c6.25-14.2,41.78,10.53,41.78,10.53s-11.65-13.84-2.23-17.07C1506.14,940.58,1554.25,1022.19,1554.25,1022.19Z"/><path class="cls-9" d="M1440.76,956c-4.07,9.24,17.74,24.07,17.74,24.07s-15.74-.21-13.19,9.75,42.14,13.27,42.14,13.27-13.82,2.7-.22,11.27,67,7.84,67,7.84Z"/><path class="cls-10" d="M1745.58,614.4c-.07-2.53-3.56-4.5-5.41-2.25s-1.77.72-3.56,5.55a156.74,156.74,0,0,1-21.56,39c-16.9,22.48-33.63,33.81-52.63,45,7.83-17.63,13.07-36.46,13.74-55.45.24-6.92.11-14.1-2.85-20.45-.83-1.77-4-1.41-4.32.57-1.6,9.8.75,17.19-2.42,34.73C1659,703,1629,747.39,1600.15,778.48c5.54-52.63,8.23-112.43-1.68-165.5-1.63-8.71-4.21-17-6.62-25.49-.56-2-3.41-1.15-3,.84.49,2.83,5.22,39.35,5.5,41.87,4.58,40.42,3.67,85.2.1,126A252.55,252.55,0,0,1,1550,653.31c-2.08-11-2.63-22.27-5.54-33-.4-1.48-2.85-1.64-3.15,0-3,16.11,3,44.62,7.35,60.11A247.35,247.35,0,0,0,1590.91,765c.75,1-31,246.57-30.17,249.68,1.44,5.25,10.58,8.93,12-.38.58-3.79,18-153.12,25.92-222.29,3-1.64,4.89-4.56,12.54-13.17,17.73-19.92,35.25-44.7,47-68.08,7-.4,57.78-25.09,83-81.32.72-1.62,4-9.24,4.46-10.93C1746,617.09,1745.63,615.83,1745.58,614.4Z"/><path class="cls-7" d="M1582.58,534.77q.87-11.34.88-23.16c0-87.72-37.23-158.83-83.16-158.83s-83.15,71.11-83.15,158.83q0,11.8.87,23.16Z"/><path class="cls-8" d="M1676.7,495.73q.87-16,.88-32.65c0-123.71-37.23-224-83.16-224s-83.16,100.29-83.16,224q0,16.64.88,32.65Z"/><path class="cls-8" d="M1646.25,633q-.87-11.34-.88-23.15c0-87.72,37.23-158.84,83.16-158.84s83.16,71.12,83.16,158.84q0,11.79-.88,23.15Z"/><path class="cls-7" d="M1513.16,633q-1.1-16-1.11-32.65c0-123.71,47.19-224,105.42-224s105.42,100.29,105.42,224q0,16.63-1.12,32.65Z"/><path class="cls-8" d="M1594.1,376.34c-29.1,0-55.09,31.82-72.25,81.71a59.1,59.1,0,0,0-27.64-7.05c-51.66,0-93.54,71.12-93.54,158.84q0,11.79,1,23.15h285q1-16,1-32.65C1687.65,476.63,1645.77,376.34,1594.1,376.34Z"/><path class="cls-7" d="M1735.72,979.23a86.73,86.73,0,0,1-.44-8.75c0-33.15,18.85-60,42.11-60s42.12,26.88,42.12,60a86.73,86.73,0,0,1-.44,8.75Z"/><path class="cls-8" d="M1688.06,964.47c-.29-4-.45-8.14-.45-12.34,0-46.74,18.86-84.64,42.12-84.64s42.12,37.9,42.12,84.64c0,4.2-.16,8.32-.45,12.34Z"/><path class="cls-8" d="M1703.48,1016.35a86.78,86.78,0,0,0,.44-8.76c0-33.14-18.85-60-42.11-60s-42.12,26.88-42.12,60a83.93,83.93,0,0,0,.45,8.76Z"/><path class="cls-7" d="M1770.88,1016.35c.37-4,.57-8.15.57-12.34,0-46.75-23.91-84.65-53.39-84.65s-53.39,37.9-53.39,84.65q0,6.29.56,12.34Z"/><path class="cls-8" d="M1729.89,919.36c14.74,0,27.9,12,36.59,30.88a38.33,38.33,0,0,1,14-2.67c26.17,0,47.38,26.88,47.38,60a78.7,78.7,0,0,1-.5,8.76H1683c-.32-4-.5-8.15-.5-12.34C1682.51,957.26,1703.72,919.36,1729.89,919.36Z"/><path class="cls-7" d="M191.78,831.77c-19-30.55-22.56-67.45-22.19-93A245.38,245.38,0,0,1,175,690l-1.37-.5a247.34,247.34,0,0,0-5.48,49.09c-.38,25.83,3.21,63.1,22.45,94Z"/><path class="cls-7" d="M179.71,684.92a21.13,21.13,0,0,1-7.07,14.79,24.73,24.73,0,0,1-4.73-16.65A21.09,21.09,0,0,1,175,668.28,24.69,24.69,0,0,1,179.71,684.92Z"/><path class="cls-7" d="M166.85,699.42a24.65,24.65,0,0,1,3.2,17,21.43,21.43,0,0,1-13-10.2,24.7,24.7,0,0,1-3.19-17A21.42,21.42,0,0,1,166.85,699.42Z"/><path class="cls-7" d="M159.57,716.49a23.51,23.51,0,0,1,9.71,14,18.36,18.36,0,0,1-15.35-2.8,23.55,23.55,0,0,1-9.71-14A18.35,18.35,0,0,1,159.57,716.49Z"/><path class="cls-7" d="M161.82,740.25a17.3,17.3,0,0,1,7.09,12.25,13,13,0,0,1-12.74-1.07,17.3,17.3,0,0,1-7.1-12.25A13,13,0,0,1,161.82,740.25Z"/><path class="cls-7" d="M178.21,712.1a15.71,15.71,0,0,1,13.71-.82,17.6,17.6,0,0,1-8.58,11.44,15.74,15.74,0,0,1-13.72.82A17.65,17.65,0,0,1,178.21,712.1Z"/><path class="cls-7" d="M177.71,728.51a15.77,15.77,0,0,1,13.72-.82,17.69,17.69,0,0,1-8.59,11.45,15.74,15.74,0,0,1-13.71.81A17.63,17.63,0,0,1,177.71,728.51Z"/><path class="cls-9" d="M179,981.25C136.86,966,107.4,929.5,90.1,901.61a298.13,298.13,0,0,1-27.77-57.56l-1.86.74a300.31,300.31,0,0,0,28,58c17.46,28.17,47.24,65,89.88,80.47Z"/><path class="cls-9" d="M64,834.24a30.2,30.2,0,0,1,2.45,22.48,26.35,26.35,0,0,1-16.74-13.55,30.3,30.3,0,0,1-2.45-22.48A26.28,26.28,0,0,1,64,834.24Z"/><path class="cls-9" d="M59.85,861.78a26.77,26.77,0,0,1,15.29,15.35,25.75,25.75,0,0,1-21.34,1,26.83,26.83,0,0,1-15.29-15.35A25.71,25.71,0,0,1,59.85,861.78Z"/><path class="cls-9" d="M63.64,886.91A25.43,25.43,0,0,1,84,893a27.83,27.83,0,0,1-18.87,11.22,25.4,25.4,0,0,1-20.38-6.06A27.79,27.79,0,0,1,63.64,886.91Z"/><path class="cls-9" d="M78.49,911a25.43,25.43,0,0,1,20.39,6.06A27.8,27.8,0,0,1,80,928.27a25.41,25.41,0,0,1-20.39-6.06A27.79,27.79,0,0,1,78.49,911Z"/><path class="cls-9" d="M77.3,873.49a29.58,29.58,0,0,1,8.29-19.15c4.17,4.52,6.58,11.29,6.16,18.89a29.6,29.6,0,0,1-8.29,19.15C79.29,887.85,76.87,881.09,77.3,873.49Z"/><path class="cls-9" d="M92.81,898.41a29.68,29.68,0,0,1,8-19.3c4.23,4.45,6.75,11.16,6.44,18.77a29.73,29.73,0,0,1-8,19.3C95,912.73,92.5,906,92.81,898.41Z"/><path class="cls-9" d="M103.82,935.89a10.43,10.43,0,0,1,9.05-.42,12,12,0,0,1-5.91,7.45,10.46,10.46,0,0,1-9.06.43A12,12,0,0,1,103.82,935.89Z"/><path class="cls-7" d="M270,944.18s32.75-68.87,21.8-84.24c-15.13-21.24-33.94,43.93-34.86,38.2-8.66-54.09-6.85-122.32-47.38-132.66-23-5.87,1.53,51-1.33,65.6s-41.19-37.63-64.79-65.29-38.05-12.4-24.37,21.15c13.23,32.45,61.15,70.47,50.42,73.72s-70.88-41.94-79.95-25.28c-11.11,20.42,81.56,56.47,72.26,60.54s-53.44-15-53.44,1.22,61,20.33,59.41,27.37c-2.57,11.39-40.89-17.77-43.88-2-3.06,16.17,52,17.39,50.09,30-1.1,7.26-15-.34-17.48,9.65-5.72,22.77,81.07,54.69,81.07,54.69Z"/><path class="cls-8" d="M237.59,1016.36s-33.72-53.82-50.23-64.16c-17.59-11-4.64,21.26-4.64,21.26s-35.56-43.91-45.82-35.31-1.28,19-1.28,19-32.45-10.27-38.53,1.6c-9.35,18.24,44.09,34.48,44.09,34.48s-23.05-.66-19,11.84C128.2,1023.88,237.59,1016.36,237.59,1016.36Z"/><path class="cls-9" d="M97.09,958.7c6.08-11.87,38.53-1.6,38.53-1.6s-9-10.35,1.28-19,38.86,18.23,38.86,18.23-2.65-21.75,18.89-2.24c15.39,13.93,42.94,62.22,42.94,62.22Z"/><path class="cls-9" d="M339.2,956.69c13.18,6.15,9.62,21.43,9.62,21.43s35.73-27.8,49.08-11.58,6.34,48-9.33,53.21-151.91,1.55-151.91,1.55S327.35,951.16,339.2,956.69Z"/><path class="cls-8" d="M236.66,1021.16s59.54-12.22,72.53-24.12,7.24-16.54,7.24-16.54,22.88-18,22.53-29.8-15.27-5.79-15.27-5.79S349,912.48,343,906.32c-11.16-11.49-40.37,22.21-40.37,22.21s8.67-16-.48-18.57c-13.79-3.84-23.94,35.7-23.94,35.7s2.58-15.62-6.93-13.55C254.18,935.83,236.66,1021.16,236.66,1021.16Z"/><path class="cls-8" d="M438,818.89l5.88-14.18c4.55-10.44,16.2-15.42,26-11.13h0c24.75,10.8,35.51,40.88,24,67.17L485.59,880a24.12,24.12,0,0,0,2.56,24.22,21.32,21.32,0,0,1,2.12,21.33l-4.43,10.13a40.28,40.28,0,0,1-25.16,22.45,24.45,24.45,0,0,0-15.19,13.73l-6.26,14.35c-6.93,15.86-24.65,23.44-39.58,16.92l-8.52-3.72c-14.94-6.52-21.43-24.66-14.5-40.53h0c11.2-19,10.3-33.12,6.33-42.72a57.49,57.49,0,0,1,.55-44.83l.88-2a57,57,0,0,1,34.85-31.54C426,835.59,433.05,830.33,438,818.89Z"/><path class="cls-9" d="M328.34,1022.69c12-15.57,77.87-99,120.82-112.9,47.4-15.35,2.72,45.6,2.72,45.6s84.1-91.95,115-83.66c28.29,7.6,0,64.59,0,64.59s31.86-31.56,70.5-31.56c37.6,0-26.27,111.94-29.72,117.93Z"/><path class="cls-7" d="M581.77,842.21A553.91,553.91,0,0,0,508,1018.81l-2.36-.63a557.78,557.78,0,0,1,73.49-175.11c8-12.46,16.58-27.24,31.51-32.1.28-.09.39.35.12.45C597.13,816.56,589.23,830.56,581.77,842.21Z"/><path class="cls-7" d="M516.28,1021A692.09,692.09,0,0,1,656.86,878.6c.55-.42,1.3.55.74,1a691.9,691.9,0,0,0-138.4,142.25Z"/><path class="cls-11" d="M584.91,808.93c.88,1.3,4.27,4.7,5.26,9.15a18.73,18.73,0,0,1,.17,9.34,20.2,20.2,0,0,0,5.22-9c1.69-5.39.51-12.85-1.59-15.33-3.62-5.59-10-6.15-11.19-3.44S583.13,806,584.91,808.93Z"/><path class="cls-7" d="M593.13,856.83c-1.28-.91-4.61-4.36-9-5.44a18.79,18.79,0,0,0-9.33-.35,20.36,20.36,0,0,1,9.14-5c5.41-1.58,12.85-.25,15.29,1.9,5.52,3.73,6,10.08,3.22,11.25S596.05,858.67,593.13,856.83Z"/><path class="cls-7" d="M580.72,877.83c-1.28-.91-4.6-4.37-9-5.45a18.79,18.79,0,0,0-9.33-.35,20.3,20.3,0,0,1,9.13-5c5.42-1.58,12.86-.26,15.29,1.89,5.52,3.74,6,10.08,3.23,11.26S583.65,879.66,580.72,877.83Z"/><path class="cls-7" d="M625,926.52c-1.28-.91-4.61-4.36-9-5.45a19,19,0,0,0-9.33-.35,20.33,20.33,0,0,1,9.13-5c5.42-1.58,12.86-.25,15.29,1.9,5.52,3.73,6,10.07,3.22,11.25S627.89,928.36,625,926.52Z"/><path class="cls-7" d="M647.58,906.6c-1.29-.91-4.61-4.36-9.05-5.44a18.79,18.79,0,0,0-9.33-.35,20.3,20.3,0,0,1,9.14-5c5.41-1.59,12.85-.26,15.28,1.89,5.52,3.74,6,10.08,3.23,11.26S650.5,908.44,647.58,906.6Z"/><path class="cls-11" d="M567.55,832.69c1.08,1.14,5,4,6.64,8.2a18.85,18.85,0,0,1,1.64,9.2,20.3,20.3,0,0,0,3.73-9.75c.82-5.58-1.52-12.77-4-14.88-4.47-5-10.81-4.51-11.6-1.64S565.33,830.05,567.55,832.69Z"/><path class="cls-7" d="M549.31,856.5c1.54.81,6.9,2.29,9.6,6.3,3.05,3.57,3.44,9.68,3.24,9.56-.29.26,3.82-5.9,3.64-12.48.38-6.58-3.53-13.6-7-14.9-6.38-3.6-14.54-.39-15.21,3.16S546.11,854.5,549.31,856.5Z"/><path class="cls-7" d="M530.11,892.55c1.65.55,7.19,1.1,10.52,4.6,3.61,3,5,9,4.8,8.88-.24.31,2.78-6.45,1.5-12.91-.74-6.55-5.77-12.81-9.38-13.51-6.9-2.48-14.4,2.06-14.46,5.66S526.63,891.13,530.11,892.55Z"/><path class="cls-7" d="M586.92,917.67c1.21.75,5.48,2.26,7.45,5.68a13.26,13.26,0,0,1,2.09,7.95c-.25.2,3.44-4.57,3.68-9.94.68-5.33-2.1-11.26-4.83-12.51-5-3.3-11.8-1.14-12.55,1.7S584.44,915.87,586.92,917.67Z"/><path class="cls-11" d="M609.61,802.05c0,.93.66,3.71-.26,6.26a11.2,11.2,0,0,1-2.87,4.74,12.12,12.12,0,0,0,5.48-2.88c2.55-2.17,4.32-6.29,4.06-8.19,0-4-3-6.25-4.53-5.27S609.66,800,609.61,802.05Z"/><path class="cls-7" d="M663.86,886.32c-.72-.6-2.54-2.78-5.12-3.62a11.13,11.13,0,0,0-5.5-.61,12,12,0,0,1,5.62-2.59c3.28-.7,7.62.42,9,1.79,3.11,2.45,3.09,6.23,1.42,6.8S665.51,887.53,663.86,886.32Z"/><path class="cls-7" d="M655.55,870.86c.1.93,1,3.64.25,6.26a11.16,11.16,0,0,1-2.47,5,11.93,11.93,0,0,0,5.22-3.31c2.37-2.37,3.8-6.62,3.37-8.5-.37-3.93-3.54-6-4.94-4.88S655.42,868.82,655.55,870.86Z"/><path class="cls-7" d="M618.14,959.86c.23,1.44,1.73,5.62.8,9.75a17.4,17.4,0,0,1-3.54,7.89,18.91,18.91,0,0,0,7.94-5.52c3.54-3.84,5.5-10.56,4.71-13.47-.83-6.11-5.92-9.09-8-7.3S617.82,956.68,618.14,959.86Z"/><path class="cls-7" d="M648.14,961.91c-.12.85,0,3.48-1.28,5.66a10.28,10.28,0,0,1-3.41,3.83,11.14,11.14,0,0,0,5.48-1.7c2.68-1.55,5-5,5.06-6.79.62-3.61-1.73-6.2-3.24-5.56S648.53,960.05,648.14,961.91Z"/><polygon class="cls-12" points="1115.76 1015.85 1121.5 1015.85 1109.87 906.79 1104.12 906.79 1115.76 1015.85"/><polygon class="cls-12" points="1050.89 1015.85 1045.15 1015.85 1056.79 906.79 1062.53 906.79 1050.89 1015.85"/><rect class="cls-13" x="1381.83" y="874.8" width="14.45" height="29.24"/><polygon class="cls-10" points="1428.81 881.59 1126.48 879.64 1125.34 823.47 1442.42 822.19 1428.81 881.59"/><rect class="cls-10" x="1048.97" y="898.98" width="349.4" height="15.62"/><rect class="cls-12" x="1372.67" y="898.98" width="63.16" height="15.62"/><polygon class="cls-12" points="1442.42 822.19 1428.81 881.59 1417.22 881.51 1430.67 822.19 1442.42 822.19"/><polygon class="cls-12" points="1436.68 1015.85 1442.42 1015.85 1430.79 906.79 1425.04 906.79 1436.68 1015.85"/><polygon class="cls-12" points="1371.81 1015.85 1366.07 1015.85 1377.71 906.79 1383.45 906.79 1371.81 1015.85"/><path class="cls-14" d="M1037.36,960.53s-6.84,12-7.94,16.38a17,17,0,0,0-.33,2.26c-.27,2.63-5.57,8.63-5.57,8.63L995,974.93c-1.55-.7-.07-1.21,1.6-1.54,2.74-.53,4.85-.74,12.82-.82.52,0,2.52-.25,3.24-.33a21.48,21.48,0,0,0,5.72-1.66c3.09-1.3,8.43-12.16,8.43-12.16Z"/><path class="cls-13" d="M1144.3,734.11c3.76-7.6,13-11.92,21.51-11.93,26.9,0,30.32,34.57,47.44,47.91,5.13,4,10.86,7.28,15.75,11.56a23.29,23.29,0,0,1-1.29,8.32,34.65,34.65,0,0,1-4.16,7.8l-7.24-4.2,3.14,9.16C1213,809.45,1204.39,814.4,1196,819c-11.71,6.28-24.17,9-36.86,9.54-4.72-9.54-8.06-20.13-11.69-30-4.35-11.82-8-24.13-8.54-36.75A56.17,56.17,0,0,1,1144.3,734.11Z"/><path class="cls-14" d="M1095.35,895.94c1.94-.31,6.67-3.69,8.33-4,1.3-.24,4.09-.66,5.28-.84,1.46-5.45,8.88-35.17,9.71-43.87.9-9.44,7.57-50.26,7.57-50.26l17.28,3.14s-7.18,31.4-9.16,46.63c-1.71,13.08-16.06,42.48-17.88,45.59a1.7,1.7,0,0,1,0,.22c-.28,4.62-2.5,3.08-2.5,3.08l-3.61.92s-12.79,1.23-13.62,1.54S1093.4,896.25,1095.35,895.94Z"/><path class="cls-9" d="M1139.57,775.37c-12.22,4.14-17.43,35.08-17.43,35.08s19.17,5.35,24.08,2.55c0,0,5.57-24.7,7.57-23.84Z"/><path class="cls-9" d="M1152.89,773h0a4.92,4.92,0,0,1-1.24-.25c-2.26-.41-8.22,1-12.08,2.61-4.7,2-7.53,19.45-7.1,38.44.18,2.9,2.36,47.63,2.59,47.77,5.6,3.6,39,5.36,41.28,2.29s4.11-56.08,5.24-57.94l2.22-32.43C1179.88,772.33,1158.89,773,1152.89,773Z"/><path class="cls-14" d="M1166.58,761.07s-2.18,11.25-1.74,15.69-1.66,18.74-11,18.78-1.79-18.18-.9-22.53S1154,755.2,1154,755.2Z"/><path class="cls-15" d="M1153.79,762c.14-3.69.19-6.76.19-6.76l12.6,5.87s-.45,2.3-.9,5.23C1160.17,767.41,1156.18,765.37,1153.79,762Z"/><path class="cls-14" d="M1171.18,730a15.61,15.61,0,0,1,6.63,8.53c1.77,5.84-.25,20.9-12.78,24.53s-18-8.29-15.39-17.61S1157.84,724.34,1171.18,730Z"/><path class="cls-14" d="M1148.07,741.85c.25,2.51,1.63,4.42,3.09,4.28s2.44-2.29,2.19-4.8-1.62-4.41-3.08-4.27S1147.83,739.35,1148.07,741.85Z"/><path class="cls-13" d="M1169.71,729.26s2.27,16.8,7.7,19.83,3.16,10.49,3.16,10.49,4.93-17.31.63-22.87S1169.71,729.26,1169.71,729.26Z"/><path class="cls-14" d="M1174.2,751.5c-1.47,2.19-1.47,4.77,0,5.77s3.87,0,5.35-2.16,1.46-4.77,0-5.77S1175.67,749.31,1174.2,751.5Z"/><path class="cls-14" d="M1235.05,896.77c-.14-.41-.49-.43-.85-.45a89.1,89.1,0,0,1-10.43-1.11,7.73,7.73,0,0,1-1.66-.48,4.36,4.36,0,0,0-2.89-.2,5.81,5.81,0,0,1-1.61.12c-1.76-.06-6.72-1.93-9.28-2.46a1.53,1.53,0,0,1-1.17-1.16c-2.21-10.1-6.94-32.75-7.41-40.17-.61-9.48-5.79-52.3-5.79-52.3l-17.62,4.32s6.2,31.69,7.7,47c1.17,11.83,12.15,37.2,15.62,44.5,1.63,5.41,5.67,5.68,6.61,5.83a2.15,2.15,0,0,1,1.36.78,9.42,9.42,0,0,0,2.14,2,5.11,5.11,0,0,1,1.46,1.54c.71,1.11,1.34,2.26,2,3.42.41.77.86,1,1.51.86a1.37,1.37,0,0,0,1.06-1.51,6.88,6.88,0,0,0-.94-3.48,1.88,1.88,0,0,1,.22-2.49,7.89,7.89,0,0,1,1.36-1.41,2.28,2.28,0,0,1,1.81-.6,28.62,28.62,0,0,0,3.78.83l1,.25.57.14c.09,0,1.94.29,2.58.31s1.34.08,2,.13a11.22,11.22,0,0,0,2-.24,2.48,2.48,0,0,0,1.66-.6c.19-.16.38-.35.29-.64a.65.65,0,0,0-.55-.45,22.64,22.64,0,0,1-2.55-.51c.64,0,2.66,0,3.3,0a3,3,0,0,0,2.25-.9C1234.92,897.42,1235.2,897.18,1235.05,896.77Z"/><path class="cls-9" d="M1183.32,773.39c8.63-1.57,16.43,37.06,16.43,37.06s-19.17,5.35-24.07,2.55c0,0-5.58-24.7-7.57-23.84Z"/><path class="cls-16" d="M1134.6,858.4v7.05l-66.28,13.94-16.45,49.42,9.17-6.26-2.12,76.09,13.94.1s24.16-63.85,16.24-96l73.35,1.12s33.25-12.84,16.09-51.55Z"/><path class="cls-17" d="M1134.6,865.45s-68.75.46-73.64,4.22-41.52,97.21-41.52,97.21l16,6s31.8-53,33.48-56.8,14-31.43,18.69-34.25S1134.6,865.45,1134.6,865.45Z"/><path class="cls-18" d="M1262.84,837.92c6.05-2.3,56.84-21.59,58.82-23.07,1.79-1.33,28.69-33.63,28.69-33.63l-18.53-7.3L1308.1,804.4c-1.76,1-34.82,18.63-34.82,18.63s-6,3.4-9.63,5.18c-1-.09-2-.19-2.78-.29a23.91,23.91,0,0,1-4.49-1.38,27.12,27.12,0,0,0-5.78-1.51c-1,0-3,.09-4.17.15s-2.61.09-3.24.2a6,6,0,0,1-1.85-.28,1,1,0,0,0-1.11,1.57,4.4,4.4,0,0,0,2.45,1.31c2.13.61,5.65.29,5.54.62s-5.55,2.83-6.15,3.15-6.91,3.28-8,4.26-.61,1.8.21,1.82,9.73-3.4,9.73-3.4,1.15-.43.92.19-8.42,3.75-9.55,4.44-1.57,1.7-.39,2.14c1.43.53,10-3.35,10-3.35s1.07-.46,1.1,0-7,3.05-7.51,3.59a1,1,0,0,0,.67,1.73c1.36.21,8.94-3.32,8.94-3.32s.65-.11.52.25-6,3-6.35,3.73a.69.69,0,0,0,.24,1c1.08.93,6.39-2.38,9.27-3.14S1262.65,838,1262.84,837.92Z"/><path class="cls-12" d="M1332.06,759.72s-4.56.86-12.31,14.2c-7.23,12.46-13.64,26.42-13.64,26.42l13,13.68s9.54-29.32,10.35-30.26S1332.06,759.72,1332.06,759.72Z"/><path class="cls-19" d="M1325.33,871.67l-56.84.25s-25.68-.68-29.74,8.29-4.33,115.29-4.33,115.29,13.44.75,14.14,0l16.94-59.32a48.67,48.67,0,0,0,1.66-17.81l-1.48-15.86,23.46,1.21s26.59-.43,35.35-9.34S1325.33,871.67,1325.33,871.67Z"/><path class="cls-20" d="M1363.87,865.34l-61.12,3.79s-26.31,2.15-30.37,11.12,1.36,115.25,1.36,115.25,15.46.67,15.43,0,7.29-43.75,10.79-60.16a57.84,57.84,0,0,0,1.15-15.86l-1.58-17.27s64.85-.61,67.67-3.47C1376,889.83,1363.87,865.34,1363.87,865.34Z"/><path class="cls-21" d="M1332.06,759.72c8.86-.77,24.73,1.24,24.73,1.24s10.12.48,13.15,1.86c4.46,2,13.13,4.37,9.65,25-2.49,14.8-8.07,63.3-11.55,88.16l-61.93-6.87C1318.94,820,1323.68,760.45,1332.06,759.72Z"/><path class="cls-14" d="M1352.33,741.7l5.71,19.37s-9.7,11.16-16.43,10.08c-5.65-.91-3-9.07-3-9.07s1.38-11-.29-16.39S1352.33,741.7,1352.33,741.7Z"/><path class="cls-17" d="M1350,748.47a35.78,35.78,0,0,1-10.9,5.13,28.54,28.54,0,0,0-.82-7.91c-.77-2.49,2.16-3.53,5.54-3.93,4.46-.23,8.49-.06,8.49-.06l1.1,3.73A15.28,15.28,0,0,1,1350,748.47Z"/><path class="cls-14" d="M1353.66,711.43c.45-.19,5.11,23.48-.52,30.43s-17.28,9.85-21.83,4.95c-5-5.43-6.39-31.11,2.59-38.46S1353.66,711.43,1353.66,711.43Z"/><path class="cls-13" d="M1336.69,695.35a26.08,26.08,0,0,1,14.19,7c3.32.19,7.92,1.74,13,9.19,6.28,9.16,2.73,20-3.58,25.57s-5.84,11.56-5.84,11.56l-1.24-3a17.41,17.41,0,0,1-1.28-7.23,14.36,14.36,0,0,1,.8-4.45c1.38-3.55-3.78-5.53-5.36-8.32-1.22-2.14-1.59-7.21-3.53-10.76l-2.21-2.66s-4.93-3.4-9.46-2.07S1327.25,694,1336.69,695.35Z"/><path class="cls-14" d="M1348,729.9c.13,2.92,1.59,5.22,3.26,5.14s2.91-2.5,2.78-5.42-1.6-5.22-3.26-5.14S1347.85,727,1348,729.9Z"/><path class="cls-14" d="M1386.84,800.34l-16.63,5.16s3.14,14.5,3.18,16.23c0,0-28.32,15.14-40.18,19.9l.33,10.37c2.32-.86,4.18-1.75,5.33-2.12,2.27-.73,38.49-11.85,38.49-11.85s14.28-5.08,14.75-7.83S1386.84,800.34,1386.84,800.34Z"/><path class="cls-12" d="M1391.65,810s-8-32.49-12.31-40.83-13.67-9.39-19.72-3.74,11.33,49,11.33,49Z"/><path class="cls-22" d="M1087.66,808.61l0,.31c-.07.66-.14,1.31-.2,2l-.06.54,17.93,5.29,12.85-1.34.58-3.13-1-.22-1,.62-1-.55-1,.61-1-.58-1,.59-1-.6-1,.56-1-.61-1,.54-1-.64-1,.52-.95-.66-1,.49-.93-.68-1,.46-.9-.7-1.07.43-.88-.73-1.08.4-.86-.76-1.09.36-.83-.79-1.1.32-.8-.83-1.12.27-.76-.86-1.13.21-.7-.9-1.14.15-.65-.95-1-.19C1087.73,807.88,1087.69,808.25,1087.66,808.61Z"/><path class="cls-13" d="M1087.44,811.17c-.22-.1-.6,12.51-1.46,15.75s-3,14.84-3,14.84l31.09,4.91s.81-16.68,1.77-21.79,2.55-9.41,2.33-9.51S1094.69,814.41,1087.44,811.17Z"/><path class="cls-23" d="M1113.21,831c-.72,3.78-6.83,5.79-13.66,4.5s-11.79-5.4-11.08-9.18,6.83-5.79,13.66-4.49S1113.92,827.26,1113.21,831Z"/><path class="cls-24" d="M1152.06,833.12a8.93,8.93,0,0,1-5.78-2.4c-1.15-1.09-4.12-3.05-6.75-2.42-4.79,1.14-5.89,6.46-2.52,10.77,3,3.79,14.5,9.19,19.12,1.24C1159.36,834.75,1155.73,833.28,1152.06,833.12Z"/><path class="cls-17" d="M1137.46,835.35a7.64,7.64,0,0,0,2.85-1.42,12,12,0,0,0,2.67-2.2c.21-.24-.11-.51-.35-.37-1,.53-1.92,1.2-2.85,1.82a11.92,11.92,0,0,0-2.55,1.73.27.27,0,0,0,.23.44Z"/><path class="cls-17" d="M1139.64,837.68c1.64.24,4.65-2.52,5.79-3.76.27-.29-.19-.81-.5-.52a20.6,20.6,0,0,1-2.78,2.12c-.82.53-2.11,1-2.66,1.77a.24.24,0,0,0,.15.39Z"/><path class="cls-17" d="M1144,839.34a5.85,5.85,0,0,0,1.41-1.48c.48-.59,1-1.11,1.51-1.7a.59.59,0,0,0-.8-.86c-1.07.81-2.52,2.31-2.68,3.7a.36.36,0,0,0,.56.34Z"/><path class="cls-17" d="M1147.25,840.26a4.6,4.6,0,0,0,1.26-2.67c0-.68-1.47,0-1.77,2.44a.29.29,0,0,0,.51.23Z"/><path class="cls-17" d="M1149.64,838.25c-.68,2,.51,2.06.69,1.57a2.65,2.65,0,0,0-.06-1.55.34.34,0,0,0-.63,0Z"/><path class="cls-24" d="M1149.74,841.39s1.45,6.75,11.08,8c8.88,1.13,11.41-8,7.22-9.91s-9-2.78-11.27-4.57C1152.66,831.59,1148.2,837.9,1149.74,841.39Z"/><path class="cls-25" d="M1164.3,834.19a6.46,6.46,0,0,0-1.3,2.57,7.12,7.12,0,0,0,1.43,6.3c3.6,4.47,14.81,5.65,14.71-.45s-6.48-3.24-8.81-5.64c-1-1.08-1.41-2.59-2.73-3.35A2.94,2.94,0,0,0,1164.3,834.19Z"/><path class="cls-17" d="M1166.78,836.41a5.94,5.94,0,0,0-1.52,1.52c-.38.53-.88,1.12-.74,1.81a.35.35,0,0,0,.43.24c.58-.24.79-.81,1.11-1.32s.8-1.19,1.15-1.82c.15-.27-.16-.62-.43-.43Z"/><path class="cls-17" d="M1168.08,837.89c-.61.68-2,2.76-2.08,3.72,0,.33.43.46.64.25a5.75,5.75,0,0,0,1-1.69c.32-.63.68-1.24,1-1.9.13-.3-.25-.66-.5-.38Z"/><path class="cls-17" d="M1170.21,839a17.34,17.34,0,0,0-1.44,3.9c0,.29.42.49.61.25a11.15,11.15,0,0,0,1.4-3.92c.08-.33-.41-.55-.57-.23Z"/><path class="cls-17" d="M1172.16,840a4.58,4.58,0,0,0-.52,1.39c-.31,1.13-.53,1.72-.09,1.93a.51.51,0,0,0,.77-.32,11.29,11.29,0,0,0,.5-2.83.36.36,0,0,0-.66-.17Z"/><path class="cls-17" d="M1174.41,841c-.64.62-1,1.77-.42,2a.48.48,0,0,0,.6,0c.41-.37,0-.94.32-1.61a.32.32,0,0,0-.5-.38Z"/><path class="cls-25" d="M1159.1,833.76c-1.5-2.11-4.37-1.86-7.71-.86-2.88.87-8.73,1.84-10.27,2.09s-7.48.46-10.48.26c-3.48-.23-6.34.17-7.32,2.55s-1.59,8.18,17.22,6.68l3.26-.37C1162.47,841.38,1160.59,835.86,1159.1,833.76Z"/><path class="cls-17" d="M1163.42,832.48c-1.45-1-2.69-1-7.67,1.5a32.69,32.69,0,0,1-4.59,1.74,52,52,0,0,1-19.17,2.17,32.16,32.16,0,0,1-4.86-.68c-5.39-1.27-6.62-1.05-7.81.26s-1.08,5.53,5.18,6.24,17.77,1.83,17.9,1.58a9.47,9.47,0,0,0,0-1.41,8.4,8.4,0,0,0,.29,1.38c.18.22,11.16-3.46,17.1-5.54S1164.87,833.5,1163.42,832.48Z"/><path class="cls-25" d="M1159.77,839.72c-1.49-2.1-4.37-1.86-7.7-.85-2.89.86-8.74,1.83-10.28,2.08-1.56.1-7.48.47-10.48.26-3.48-.23-6.33.17-7.32,2.56s-1.58,8.18,17.23,6.68l3.25-.37C1163.14,847.34,1161.26,841.83,1159.77,839.72Z"/><path class="cls-26" d="M1148.53,842a5.21,5.21,0,0,1-4.33-1.59,8.48,8.48,0,0,1-.56-.69l-.25-.31a4.18,4.18,0,0,0-2.4-1.54,2.47,2.47,0,0,0-2.28.7,4.77,4.77,0,0,0-.41.8,5.22,5.22,0,0,1-4.7,3.72c-3,.24-4.26-3.06-4.68-4.15,0-.1-.08-.19-.1-.25a1.56,1.56,0,0,0-1.89-.43,6.87,6.87,0,0,0-2.47,2.23,1.2,1.2,0,0,1-1.87-1.52,8.86,8.86,0,0,1,3.45-3c1.73-.69,4.13-.24,5,1.7a3.27,3.27,0,0,1,.14.34c.5,1.27,1.2,2.72,2.25,2.63,1.75-.14,2.18-1.14,2.69-2.29a5.37,5.37,0,0,1,.78-1.39,4.87,4.87,0,0,1,4.55-1.51,6.58,6.58,0,0,1,3.83,2.39l.29.37c.14.18.28.36.41.5a2.71,2.71,0,0,0,4.45-.72,6.79,6.79,0,0,0,.39-1.27,6.19,6.19,0,0,1,1.06-2.56c1.43-1.81,4.1-1.85,5.88-1a1.21,1.21,0,1,1-1.07,2.16,2.52,2.52,0,0,0-2.92.29,4.31,4.31,0,0,0-.61,1.63,8.51,8.51,0,0,1-.54,1.72,5.18,5.18,0,0,1-3.83,2.92Z"/><polygon class="cls-12" points="1268.37 1014.17 1278.92 1014.17 1257.55 864.65 1247.01 864.65 1268.37 1014.17"/><polygon class="cls-12" points="1149.29 1014.17 1138.74 1014.17 1160.11 864.65 1170.65 864.65 1149.29 1014.17"/><polygon class="cls-12" points="950.96 1014.17 961.51 1014.17 940.14 864.65 929.6 864.65 950.96 1014.17"/><polygon class="cls-12" points="831.88 1014.17 821.33 1014.17 842.7 864.65 853.24 864.65 831.88 1014.17"/><path class="cls-24" d="M877.17,824.44s.39,9.29,12.91,13.1c11.53,3.5,16.95-8,11.83-11.53s-11.37-5.74-13.93-8.63C883.27,812.08,875.91,819.46,877.17,824.44Z"/><path class="cls-25" d="M898.13,818.18a8.86,8.86,0,0,0-2.31,3.11,9.64,9.64,0,0,0,.48,8.7c3.77,6.76,18.39,10.87,19.63,2.74s-7.87-5.77-10.41-9.49c-1.14-1.67-1.3-3.76-2.87-5.06A4,4,0,0,0,898.13,818.18Z"/><path class="cls-25" d="M880.07,817.79a12,12,0,0,1-7.77-3.23c-1.56-1.47-5.56-4.12-9.11-3.27-6.44,1.55-7.93,8.71-3.38,14.52,4,5.1,19.53,12.38,25.75,1.67C889.92,820,885,818,880.07,817.79Z"/><path class="cls-17" d="M860.41,820.79c1.39-.17,2.69-1.18,3.84-1.91a16.23,16.23,0,0,0,3.59-3c.28-.32-.15-.68-.47-.51-1.33.73-2.59,1.62-3.84,2.46a16,16,0,0,0-3.44,2.33.37.37,0,0,0,.32.59Z"/><path class="cls-17" d="M863.34,823.94c2.21.31,6.27-3.41,7.8-5.07.37-.4-.25-1.09-.66-.71a27.31,27.31,0,0,1-3.75,2.86c-1.11.72-2.85,1.3-3.59,2.39a.33.33,0,0,0,.2.53Z"/><path class="cls-17" d="M869.17,826.17a7.7,7.7,0,0,0,1.91-2c.65-.8,1.39-1.5,2-2.3a.8.8,0,0,0-1.09-1.16c-1.44,1.1-3.39,3.12-3.61,5a.48.48,0,0,0,.75.46Z"/><path class="cls-17" d="M873.59,827.41a6.2,6.2,0,0,0,1.71-3.59c0-.92-2,0-2.39,3.28a.39.39,0,0,0,.68.31Z"/><path class="cls-17" d="M876.81,824.7c-.91,2.72.7,2.78.94,2.12a3.55,3.55,0,0,0-.08-2.09.47.47,0,0,0-.86,0Z"/><path class="cls-17" d="M900.92,821.68a8,8,0,0,0-2.35,1.68c-.63.63-1.43,1.29-1.39,2.24a.46.46,0,0,0,.51.42c.83-.19,1.23-.9,1.77-1.5s1.33-1.4,1.95-2.17c.25-.31-.08-.85-.49-.67Z"/><path class="cls-17" d="M902.31,824c-.95.76-3.29,3.2-3.59,4.45-.11.45.45.72.79.49a7.69,7.69,0,0,0,1.65-2c.58-.78,1.19-1.51,1.73-2.31.25-.37-.17-.94-.58-.61Z"/><path class="cls-17" d="M904.9,825.87c-.6.84-2.57,3.74-2.79,4.85-.08.38.44.75.75.47,1.29-1.19,2.06-3.31,2.74-4.89.18-.41-.42-.82-.7-.43Z"/><path class="cls-17" d="M907.25,827.71a6.38,6.38,0,0,0-1,1.73c-.67,1.43-1.09,2.18-.55,2.55a.71.71,0,0,0,1.1-.25,15.35,15.35,0,0,0,1.3-3.65.48.48,0,0,0-.84-.38Z"/><path class="cls-27" d="M893.1,851.42h-22a23,23,0,0,1-22.94-22.95h67.87A23,23,0,0,1,893.1,851.42Z"/><path class="cls-17" d="M893.1,851.42h-22a23,23,0,0,1-22.94-22.95h67.87A23,23,0,0,1,893.1,851.42Z"/><path class="cls-16" d="M857,828.47h-8.78a23,23,0,0,0,22.94,22.95h8.78A23,23,0,0,1,857,828.47Z"/><path class="cls-17" d="M1193.37,831.87h36.16a0,0,0,0,1,0,0v3.66a8.56,8.56,0,0,1-8.56,8.56h-19a8.56,8.56,0,0,1-8.56-8.56v-3.66a0,0,0,0,1,0,0Z"/><path class="cls-16" d="M1198,831.87h-4.67a12.22,12.22,0,0,0,12.22,12.22h4.68A12.23,12.23,0,0,1,1198,831.87Z"/><path class="cls-27" d="M1217.3,851.69h-11.71a12.22,12.22,0,0,1-12.22-12.22h36.16A12.23,12.23,0,0,1,1217.3,851.69Z"/><path class="cls-28" d="M1217.3,851.69h-11.71a12.22,12.22,0,0,1-12.22-12.22h36.16A12.23,12.23,0,0,1,1217.3,851.69Z"/><path class="cls-21" d="M1198,839.47h-4.67a12.22,12.22,0,0,0,12.22,12.22h4.68A12.23,12.23,0,0,1,1198,839.47Z"/><path class="cls-29" d="M1080.4,838.39c.29,5,6.86,9.69,13.48,9.69s12.92-5,12.92-9.94c0-7.17-3.71-7.16-8.43-6.77-.9.08-1.84.16-2.79.22-.56,0-1.13,0-1.7,0s-1.19,0-1.78-.07-1.44-.13-2.15-.2C1084.64,830.79,1079.92,830.15,1080.4,838.39Z"/><path class="cls-30" d="M1097.28,824.44h0v0Z"/><path class="cls-30" d="M1087.39,828.28a.9.9,0,0,1,1.3,0c-.91,0-.5,1.08.26,1.84.47.46,3.85.31,5,.06l.23,0c-.86-2.55.22-8.33,3.59-7.32l-.57,1.59a.7.7,0,0,0-.36-.12c-1.42-.15-2.64,3.85-2.26,5.83,2.05,0,5.63,1.06,6,.42.5-.82-.72-1-.72-1l-1.08.29s1-1.53,2.09-1.16a1.64,1.64,0,0,1,.91,2.61c-.32.32-3.51.33-5.06.32a7.22,7.22,0,0,1,3.14,2.45c1,1.57-1.08,3.8-1.08,3.8s1.12-2.2-.09-3.41a22.6,22.6,0,0,0-3.7-2.62l-.12,5.5a4.35,4.35,0,0,1-1.2-3.17,7,7,0,0,1,.35-2.51l-1.11.1a12,12,0,0,0-2.52,1.07c-1.26.76.64,2.82.64,2.82a2.9,2.9,0,0,1-1.49-1.28c-1-1.86.12-2.34,1-2.74-.71-.09-1.38-.05-2.38-.23C1086.55,831.07,1086.74,828.93,1087.39,828.28Z"/><rect class="cls-21" x="1151.97" y="850.84" width="117.29" height="13.82" transform="translate(2421.23 1715.49) rotate(-180)"/><rect class="cls-12" x="834.05" y="850.84" width="320.65" height="13.82" transform="translate(1988.74 1715.49) rotate(-180)"/><path class="cls-11" d="M1029.62,844.13s-7.7-19.42-7.36-22.72,3.33-5,5.07-1.18,2.36,7.94,3.68,6.45-3.33-17.15,1.94-18.17,1.88,20,4,19.58,3.19-23,8.81-21.15-3.68,22.8-1.52,22.8,5.62-19.89,11.87-16.83-7.88,18.37-5.63,20.92,11.25-16.2,17-10.85-14.21,16.19-13.47,17,17.08-12.63,20.69-7.52-12.66,7.77-11.66,9.44,9.33-1.1,8.81,2.2-18.18,3.23-18.18,3.23Z"/><path class="cls-11" d="M996.71,835.76c1.7-.73,2.45-2,1.11-3.29-1.69-1.73-5.28-1.37-6.79.76a5.06,5.06,0,0,0,.12,5.47,5.76,5.76,0,0,0,2.1,2,6.28,6.28,0,0,0,2.74.84l-.22.93a8.3,8.3,0,0,1-5.24-3.47s-2.15-3.4-.24-6.24c2-3,7.24-3.24,9.13-.3,1.16,1.8-.06,3.71-2.08,4.61Z"/><path class="cls-21" d="M1000.2,841.89s12.36-.94,13.55-1.33.88-2.92,5.5-3.79,7.42.55,8,2.8-2.72,4.1-3.91,2.58-1.54-3.26-4.22-2.94a8.82,8.82,0,0,0-4.71,2.46Z"/><path class="cls-25" d="M1043,838.8s-1.47,8.7-13.32,7.4c-12.1-1.32-16,2.65-26.27,2.18-8.28-.38-19-11.28-14.89-24.75S1041,805.56,1043,838.8Z"/><path class="cls-17" d="M1042.94,838.22a4.37,4.37,0,0,1-.25,2c-.88,2.35-3.88,7.54-13.11,6.53-12.09-1.32-15.94,2.22-26.21,1.69-8.27-.44-19.13-10.38-15.14-22.48S1039.75,809.16,1042.94,838.22Z"/><path class="cls-31" d="M988.23,825.92c4.17-11,46.5-15.4,53.78,8.24a29.15,29.15,0,0,1,.93,4.06c-.65-8.58-5.5-15.46-14.85-19.3-13.76-5.57-31.24-2.24-37.52,3.53A7.77,7.77,0,0,0,988.23,825.92Z"/><path class="cls-29" d="M998.09,843.77s-7.63-3.62-7.92-10,5.49-11.73,10.41-12.8-1,1.36-3,9.35S1002.12,843.92,998.09,843.77Z"/><path class="cls-29" d="M1037.3,838.51a3.64,3.64,0,0,0,3.61-4.14c-.28-1.75-1.38-4-4.33-6.49-7.13-6.06-28.42-11.13-30.24-6.66s9.49,5.65,11.06,12.16C1018.61,838.42,1031.53,838.66,1037.3,838.51Z"/><path class="cls-29" d="M1036.67,841.11a1.75,1.75,0,0,1,1.12,2.78c-1,1.25-2.77,2.45-6.11,2.09a91.78,91.78,0,0,0-19.56.5c-5.86.68-10.5.76-10.29-1.12s11.23-4.78,13.55-6.37S1031.27,840,1036.67,841.11Z"/><path class="cls-10" d="M1075.77,839.28s0,7.11-8.2,8.89-21.67-2.16-23-3.63a4.48,4.48,0,0,1-.93-3.95c.15-1.23.54-.51,5.71-2s5.81-.22,10.82-2.55S1075.56,834.48,1075.77,839.28Z"/><path class="cls-30" d="M1046.45,843a4.24,4.24,0,0,1-2.53-1.79h0c-.69-1.11-.53-2.55,4.65-4.07s6.22-1,11.23-3.29,15.84.52,16,5.32a2.66,2.66,0,0,1-.12.73c-1.36,2.13-3.82,4.24-8.22,5.09C1061.43,846.17,1052.76,844.73,1046.45,843Z"/><path class="cls-31" d="M1074,840.85a2.56,2.56,0,0,0,.19-3.34c-2.36-3.16-10.2-4.85-14-3.07a26.3,26.3,0,0,1-7,2.26c-2.08.43-10.47,1.82-8.59,4.64,1,1.52,4.51,1.69,6.35,2.08s3.64.7,5.49.93a26,26,0,0,0,6,.4C1063.8,844.59,1070.21,845.1,1074,840.85Z"/><path class="cls-17" d="M1059.41,835.5c-3.72.5-6.38,2.58-6,4.64s3.79,3.32,7.5,2.82,6.38-2.58,6-4.64S1063.12,835,1059.41,835.5Z"/><path class="cls-11" d="M1005.21,832.89c1.7-.72,2.45-2,1.12-3.28-1.69-1.73-5.28-1.37-6.79.75a5.06,5.06,0,0,0,.11,5.48,5.92,5.92,0,0,0,2.1,2,6.13,6.13,0,0,0,2.74.83l-.21.93a8,8,0,0,1-1.56-.46,7.61,7.61,0,0,1-3.69-3s-2.15-3.39-.23-6.23c2-3,7.23-3.25,9.12-.3,1.17,1.8-.06,3.7-2.08,4.61Z"/><path class="cls-13" d="M1040.57,838.57c0-4.3-4.87-7.79-10.87-7.79-4.37,0-8.14,1.84-9.87,4.51-9,.36-15.89,2.69-15.89,5.51,0,1.32,1.4,2.25,2.51,2.82a23.39,23.39,0,0,0,6.7,2,77.9,77.9,0,0,0,8.62,1,60.26,60.26,0,0,0,8.39.09,16.15,16.15,0,0,0,6.36-1.69,6.92,6.92,0,0,0,4-6.46Z"/><path class="cls-21" d="M1008.71,839s12.36-.95,13.54-1.33.89-2.92,5.5-3.8,7.42.56,8,2.81-2.72,4.09-3.91,2.58-1.54-3.26-4.21-2.94a8.79,8.79,0,0,0-4.72,2.46Z"/><path class="cls-11" d="M1009.74,838.54l-1.3.62,1,.86-1.43.43,1.38.89.05,0-1.55.81,1.25,1-1.54.65.2.94c-4.24-.52-5.06-3.59-5.06-3.59a3.77,3.77,0,0,1,0-1.1c.4-3.84,7.09-3.71,7.09-3.71l-1,.61.67.2-.82.62Z"/><path class="cls-16" d="M1067,839.72c.23,4,5.44,7.69,10.69,7.69s10.25-3.93,10.25-7.89c0-5.68-2.94-5.67-6.69-5.36l-2.21.17c-.45,0-.9,0-1.35,0s-.94,0-1.41-.06-1.14-.1-1.71-.16C1070.34,833.7,1066.6,833.19,1067,839.72Z"/><path class="cls-11" d="M1080.37,828.66h0v0Z"/><path class="cls-11" d="M1072.53,831.71a.71.71,0,0,1,1,0c-.73,0-.4.85.2,1.45.37.37,3.06.25,4,.05l.18,0c-.68-2,.18-6.61,2.85-5.81l-.45,1.27a.59.59,0,0,0-.29-.1c-1.12-.12-2.09,3.06-1.79,4.62,1.62,0,4.47.84,4.77.34s-.57-.8-.57-.8l-.86.23s.82-1.22,1.66-.92a1.3,1.3,0,0,1,.73,2.06c-.26.26-2.79.27-4,.26a5.76,5.76,0,0,1,2.49,1.94c.79,1.25-.86,3-.86,3s.89-1.74-.07-2.7a17.63,17.63,0,0,0-2.93-2.08l-.09,4.36a3.41,3.41,0,0,1-1-2.51,5.48,5.48,0,0,1,.28-2l-.88.07a9.54,9.54,0,0,0-2,.85c-1,.61.51,2.24.51,2.24a2.32,2.32,0,0,1-1.18-1c-.8-1.47.09-1.86.82-2.18-.57-.06-1.1,0-1.89-.17C1071.86,833.91,1072,832.22,1072.53,831.71Z"/><path class="cls-30" d="M927.89,789.57V757.31h8v32.26h0a5.94,5.94,0,0,1,5.92,5.95v55.55H922V795.52a5.94,5.94,0,0,1,5.92-5.95Z"/><path class="cls-11" d="M927.89,789.57V757.31H932v32.26a5.94,5.94,0,0,0-5.92,5.95v55.55H922V795.52A5.94,5.94,0,0,1,927.89,789.57Z"/><rect class="cls-16" x="927.89" y="757.31" width="8.04" height="15.65" transform="translate(1863.82 1530.28) rotate(-180)"/><rect class="cls-16" x="921.97" y="814.82" width="19.88" height="28.27" transform="translate(1863.82 1657.91) rotate(-180)"/><path class="cls-30" d="M987.33,851.05h120.44a7.38,7.38,0,0,0,7.38-7.38H980A7.39,7.39,0,0,0,987.33,851.05Z"/><path class="cls-28" d="M1121.94,850.84h52.34c1.77,0,3.21-2.18,3.21-4.87h-58.76C1118.73,848.66,1120.17,850.84,1121.94,850.84Z"/><path class="cls-25" d="M951.45,814.8c-1.23,0-2.26,1.38-2.28,3.14s.94,3.2,2.17,3.22,2.26-1.39,2.29-3.15S952.68,814.82,951.45,814.8Zm0,.9c.67,0,1.2.35,1.19.75s-.55.73-1.21.72-1.19-.35-1.18-.76S950.77,815.69,951.43,815.7Zm-.07,4.26c-.93,0-1.68-.53-1.67-1.16s.78-1.12,1.71-1.11,1.68.54,1.67,1.17S952.3,820,951.36,820Z"/><path class="cls-32" d="M946.29,821.75a7.62,7.62,0,0,0-.77,3.21l-.38,23.28a2.56,2.56,0,0,0,2.53,2.59l13.31.22a2.57,2.57,0,0,0,2.62-2.51l.38-23.28a7.66,7.66,0,0,0-.66-3.23Z"/><path class="cls-32" d="M946.29,821.75a7.62,7.62,0,0,0-.77,3.21l-.38,23.28a2.56,2.56,0,0,0,2.53,2.59l13.31.22a2.57,2.57,0,0,0,2.62-2.51l.38-23.28a7.66,7.66,0,0,0-.66-3.23Z"/><path class="cls-17" d="M964,825.26l-.38,23.28a2.57,2.57,0,0,1-2.62,2.51l-13.31-.22a2.56,2.56,0,0,1-2.53-2.59l.38-23.28a7.62,7.62,0,0,1,.77-3.21l17,.28A7.66,7.66,0,0,1,964,825.26Z"/><path class="cls-29" d="M948.67,848.3l.38-23.28a7.62,7.62,0,0,1,.77-3.21l-3.53-.06a7.62,7.62,0,0,0-.77,3.21l-.38,23.28a2.56,2.56,0,0,0,2.53,2.59l3.53.06A2.57,2.57,0,0,1,948.67,848.3Z"/><path class="cls-16" d="M964,825.26l-.38,23.28a2.57,2.57,0,0,1-2.62,2.51l-5.44-.09a2.58,2.58,0,0,0,2.64-2.5l.38-23.29a7.66,7.66,0,0,0-.66-3.23l5.42.09A7.66,7.66,0,0,1,964,825.26Z"/><path class="cls-10" d="M963.32,822l-17-.28h0a1.37,1.37,0,0,1,1.39-1.33l14.31.24a1.35,1.35,0,0,1,1.34,1.37Z"/><rect class="cls-10" x="952.97" y="836.01" width="2.89" height="18.46" transform="translate(93.61 1785.64) rotate(-89.06)"/><path class="cls-22" d="M1309.66,821.1c-1.22.16-2,1.7-1.8,3.45s1.4,3,2.62,2.86,2-1.7,1.8-3.44S1310.88,821,1309.66,821.1Zm.12.9c.65-.09,1.23.17,1.28.57s-.44.8-1.09.89-1.23-.18-1.29-.58S1309.12,822.08,1309.78,822Zm.55,4.23c-.93.12-1.74-.29-1.83-.91s.61-1.22,1.53-1.34,1.74.28,1.82.9S1311.25,826.11,1310.33,826.23Z"/><path class="cls-32" d="M1305.56,828.73a7.8,7.8,0,0,0-.29,3.29l3,23.09a2.56,2.56,0,0,0,2.88,2.19l13.2-1.72a2.56,2.56,0,0,0,2.23-2.85l-3-23.09a7.92,7.92,0,0,0-1.12-3.11Z"/><path class="cls-32" d="M1305.56,828.73a7.8,7.8,0,0,0-.29,3.29l3,23.09a2.56,2.56,0,0,0,2.88,2.19l13.2-1.72a2.56,2.56,0,0,0,2.23-2.85l-3-23.09a7.92,7.92,0,0,0-1.12-3.11Z"/><path class="cls-8" d="M1323.58,829.64l3,23.09a2.57,2.57,0,0,1-2.22,2.86l-13.21,1.71a2.57,2.57,0,0,1-2.88-2.19l-3-23.09a7.81,7.81,0,0,1,.29-3.29l16.9-2.19A7.82,7.82,0,0,1,1323.58,829.64Z"/><path class="cls-9" d="M1311.77,854.65l-3-23.09a7.75,7.75,0,0,1,.29-3.28l-3.5.45a7.8,7.8,0,0,0-.29,3.29l3,23.09a2.56,2.56,0,0,0,2.88,2.19l3.5-.45A2.57,2.57,0,0,1,1311.77,854.65Z"/><path class="cls-7" d="M1323.58,829.64l3,23.09a2.57,2.57,0,0,1-2.22,2.86l-5.4.7a2.58,2.58,0,0,0,2.25-2.86l-3-23.09a7.94,7.94,0,0,0-1.13-3.11l5.38-.69A7.82,7.82,0,0,1,1323.58,829.64Z"/><path class="cls-22" d="M1322.46,826.53l-16.9,2.2h0a1.35,1.35,0,0,1,1.17-1.51l14.2-1.85a1.37,1.37,0,0,1,1.53,1.16Z"/><rect class="cls-7" x="1307.79" y="849.35" width="18.46" height="2.89" transform="translate(-98.67 176.83) rotate(-7.4)"/><path class="cls-13" d="M495.55,1016.16a2.35,2.35,0,0,0,2.3-1.88l35.28-173.13a2.35,2.35,0,0,0-4.61-.94l-35.28,173.13a2.35,2.35,0,0,0,1.84,2.78A2.42,2.42,0,0,0,495.55,1016.16Z"/><path class="cls-13" d="M622.09,1016.16a2.32,2.32,0,0,0,2.3-2.86L584.48,835a2.35,2.35,0,0,0-4.59,1l39.91,178.36A2.34,2.34,0,0,0,622.09,1016.16Z"/><path class="cls-33" d="M629.82,779.13a73.18,73.18,0,0,1-146.35,0Z"/><path class="cls-34" d="M495.48,779.13c5.58,34.88,34.14,57,70.59,57,17.39,0,35-1.51,47.56-11.63a73.17,73.17,0,0,1-130.16-45.35Z"/><path class="cls-16" d="M483.46,778.58H633a0,0,0,0,1,0,0v5.27a0,0,0,0,1,0,0H486a2.57,2.57,0,0,1-2.57-2.57v-2.7A0,0,0,0,1,483.46,778.58Z" transform="translate(1116.47 1562.43) rotate(-180)"/><path class="cls-10" d="M476.46,779.36A7.16,7.16,0,1,0,482,770.9,7.16,7.16,0,0,0,476.46,779.36Z"/><path class="cls-13" d="M478.9,778.85a4.67,4.67,0,1,0,3.62-5.51A4.66,4.66,0,0,0,478.9,778.85Z"/><rect class="cls-13" x="513.18" y="918.21" width="88.95" height="9.04" transform="translate(1115.32 1845.46) rotate(-180)"/><rect class="cls-29" x="547.21" y="763.22" width="66.42" height="9.06" rx="3.17" transform="translate(1160.85 1535.5) rotate(-180)"/><rect class="cls-17" x="547.21" y="763.22" width="49.41" height="9.06" rx="3.17" transform="translate(1143.83 1535.5) rotate(-180)"/><rect class="cls-17" x="502.06" y="763.22" width="38.34" height="8.8" rx="3.08" transform="translate(1042.46 1535.25) rotate(-180)"/><rect class="cls-10" x="493.19" y="771.93" width="128.13" height="6.65" rx="2.33" transform="translate(1114.51 1550.51) rotate(-180)"/><path class="cls-22" d="M398.26,637.26a44.8,44.8,0,0,1-5.25-1,24.72,24.72,0,0,0-6-1c-3.15.15-8.35,1.54-10.61,5.29-2.82,4.66-9.91,2.76-4.42,23.05,6.22,23,18.64,17.78,18.87,17.32s8.51-17.24,8.51-17.24,5.67,7.78,5.61,7.47S419.49,639.9,398.26,637.26Z"/><path class="cls-14" d="M496,676.05c-.72-1.57-7.36,3-8.8,2.06s6-8.21,5.27-9.52c-1.35-2.4-8.65,7.51-9.34,6.45s6.33-11.66,3.88-12.29-6.14,11.75-7.39,10.93,4.46-11.19,2.11-13.35c-1.25-1.15-7.52,19-9.7,19.78s-4.52-8-6.57-7.72,6.49,16.31,6,17.55-8.6,28.74-13.44,36.51c-2.83-1.4-19.31-7.42-21.94-8.79-1.15,6-4.78,10.55-6.25,16.43C439,738.25,464.07,746,466.75,745c8.17-2.88,12.69-42.27,14.1-49.61s4.89-8.75,6.92-12.59S496.67,677.62,496,676.05Z"/><path class="cls-12" d="M443.69,743.6s-35.4-10.29-44.19-17.72S389,701.3,397.38,695.5s52.78,24.29,52.78,24.29Z"/><path class="cls-12" d="M416.74,808.52,426.88,813,448.2,916.72l-.86,77.76-17.1.41s-7.95-68-7.95-73.3-36.83-92.26-36.83-92.26Z"/><path class="cls-21" d="M408.91,814.23s-7.46,79.93-7.46,93.4-6.06,88.88-6.06,88.88l-17.14-.1s-1.23-23-3.07-56.8c-.29-5.3.37-16,0-21.46-2.67-39.43-7.94-76.55-5.42-91.27.41-2.37,1.17-8.56,2.65-10.12C383.63,804.93,408.91,814.23,408.91,814.23Z"/><path class="cls-21" d="M380.69,694.7s-11.82,1.68-14.94,4c-3.5,2.62-7.39,8.48-7.39,8.48s14.52,69.91,14.54,81.67c0,9.1-3.14,31.44-3.14,31.44s43.87,2.83,60.49-3.86c0,0-5.25-26.57-5.25-33.55s-6.28-70.43-7.7-74.86c-1.3-4-3.67-11.25-11.69-13S380.69,694.7,380.69,694.7Z"/><path class="cls-14" d="M383.92,675.88,381,695.4s10.69,23.25,17.07,21.23c5.36-1.69,2.06-22.26,2.06-22.26-.08-.51-3-11.72-2-16.57C399.19,672.32,383.92,675.88,383.92,675.88Z"/><path class="cls-17" d="M398.08,677.8c.87-5.52-14.16-1.92-14.16-1.92l-.24,1.62-.45,3s5.1,12.09,16.1,10.41C398.88,687.92,397.72,680.07,398.08,677.8Z"/><path class="cls-10" d="M423.7,789.33h0a2.81,2.81,0,0,0,2.88-2.18l15-67.85c-.06,0-.56,0-.61-.07L421.2,785.76A2.78,2.78,0,0,0,423.7,789.33Z"/><path class="cls-10" d="M440.72,703.32s-2.38,16.09.47,16.41,6.56-17.05,6.56-17.05-4.33,13.13-5.9,13S440.72,703.32,440.72,703.32Z"/><path class="cls-29" d="M430.7,695.75a4.92,4.92,0,0,0-2.12,7.74,5.54,5.54,0,0,0,4.26,1.83c6.57.21,15,2.37,19.1,7.19s11.81-1,6.13-7.37C453,699.46,440.54,692,430.7,695.75Z"/><path class="cls-20" d="M444,877.45l-43.73,8.61a13.7,13.7,0,0,1-16.17-12.36l-5.79-67.82,49-5.55Z"/><path class="cls-20" d="M370.73,803.69l-1.18,4.74L389,810.76s2.53-6.38.94-6.2l-11.68,1.32Z"/><path class="cls-14" d="M436,770.87c-.35-.26-.32-.46-.32-.46.45-.6.28-2.77-.46-3.22s-4.45-.66-4.8-.86a3.76,3.76,0,0,0-1.48-.69c-.54,0-4.44-1.55-5.2-1.61s-3.23,1.23-4.74,1.58-3.77,2-4.43,2.4c-.49.3-10.7-.22-13.33-.32-2.86-.11-5.07-.37-5.07-.37s-16.8-2.47-34.3-3.76L365,749.15l-16.5-1.91c-1.12,8.18-4.06,20.86-4.19,24.72-.26,7.6,25.63,6.82,48.55,5.76h0l7.06-.36c3-.05,7.91.26,10.19.39h0c1.43.21,3.39.51,3.64.63a24.34,24.34,0,0,0,3.24.72,8.8,8.8,0,0,1,1.52.73c.39.2,5.64.38,6.49.43a12.48,12.48,0,0,0,2.73-.44l3.51,0c2.58,0,1.72-2.64,1.72-2.64,1.21,0,1.82-.48,2-1.18a5.47,5.47,0,0,0,0-1.62c.05-.13.42-.21.42-.21.78,0,1.31-.89,1.38-1.46A2.59,2.59,0,0,0,436,770.87Z"/><path class="cls-12" d="M367.93,697.61s-6.92,1.62-14.07,9.81c-6.51,7.44-10.6,49.13-10.6,49.13l22.45,3.7,1.8-20.17,6-9.22Z"/><path class="cls-14" d="M389.05,645.65a11.32,11.32,0,0,1,15.06,8.61,84.7,84.7,0,0,1,1.25,10.86c.47,9.9-4.35,19.69-8.84,19.82s-17.07-5.93-17.94-20C378.05,656.28,382.13,648.27,389.05,645.65Z"/><path class="cls-14" d="M381.92,666c.07,2.19-1.33,4-3.11,4s-3.28-1.68-3.34-3.86,1.32-4,3.11-4S381.85,663.79,381.92,666Z"/><path class="cls-22" d="M378.58,662.11s5.5.23,6.75-3.53,6.72-12.45,16.17-11.24-9.27-5.74-10-5.6l-9.2,1.82s-5.44,6.71-5.55,7.35-.69,7.46-.69,7.46Z"/><path class="cls-18" d="M1333.21,841.63a39.52,39.52,0,0,0-6.45-5.32,9.24,9.24,0,0,0-3.94-1.14s-3-.16-3.29.57a1.59,1.59,0,0,0,.81,1.79c.55.25,1.77.16,2.31.41a4.65,4.65,0,0,1,1.27,2.75c0,.7-9-.07-9-.07s-2.57-.34-3.42-.53-2.84-.79-2.84-.79-3.07-.75-3.24.24c-.1.59,2.45,2,5.12,3,2.87,1.05,5.89,1.61,5.87,1.93,0,.73-5,.43-5,.43a15.44,15.44,0,0,0-3.37-.65c-1.34-.67-3.79-1.08-3.91.14a21.62,21.62,0,0,0,3.15,1.77s2.2.59,3.24.94c1.82.62,4.64.66,5.9,1,1,.26.64.52.69.64a23.9,23.9,0,0,1-3.36-.19,18.68,18.68,0,0,1-3.26-.2,22.52,22.52,0,0,0-3.46-.43c-2.55-.15-2.18,1.53.18,2.07l2.88.64c3.87.83,7.54.74,7.6,1.17s-6.64.32-6.64.32-3.64.92-.15,1.72a28.67,28.67,0,0,0,7.44.74c1-.11,4.49.57,7.79-.35,2.44-.68,5.9-1.75,7.56-2.27Z"/><path class="cls-7" d="M1324.15,834l.89,6.82a23.18,23.18,0,0,1-5.46.08l-.44-3.37.33-2.79,1.21-1.59Z"/><path class="cls-10" d="M307.68,856.61s-2,13.52.51,19.45,21.71,64.1,22,68.84,6.63,57.18,6.63,57.18l13.33-.38L353,943.41l-6-73.26-5.86-18.52Z"/><path class="cls-35" d="M304.65,857.32s-3.11,15-1.84,26.4,1.36,51.82,1.36,51.82l-4.83,64.71,11.46.25S330,933.33,329.74,935s4.56-45.53,4.56-45.53L312.49,855.9Z"/><path class="cls-14" d="M394,850.49c.38-1.12-5-2-5.33-3.09s6.81-1.27,7.06-2.26c.45-1.82-7.79-.32-7.64-1.17s8.59-2.82,7.66-4.27-8.52,2.95-8.76,2,7.43-3.45,7.28-5.62c-.08-1.16-12.59,5.88-14.05,5.26s1.52-6.09.35-6.89-4.58,10.34-5.38,10.74S357,853,351,854.6c-.75-2-6.63-12.91-7.29-14.82-3.37,2.44-8.22.51-11.7,2.73,2.58,6.33,10,25.22,11.8,26,5.4,2.39,29.57-12.5,33.69-15.48s6.51-2,9.31-3S393.66,851.6,394,850.49Z"/><path class="cls-34" d="M349.12,847.09l-16.48,2.55s-1.46-13.55-1.8-20c-.41-7.86-.26-18,.7-17.86,2.7.48,6.36,1.76,8.65,4.59C348.1,826.12,349.12,847.09,349.12,847.09Z"/><path class="cls-33" d="M339.36,827.84c.47,2.38,12.09,62.41,12.09,62.41-29.41,16.13-51.06,8.45-51.06,8.45s1.12-44.44-.39-50.61c-1-4.08-4.61-30.94-2-31.85a81.14,81.14,0,0,1,12.73-3.53c3.64-.57,17.83-1.53,20.41-.8A32.34,32.34,0,0,1,339.36,827.84Z"/><path class="cls-22" d="M315.68,762.92s10.9-4.77,13.81,4.69c0,0,9.49-.25,7.14,9.39,0,0,9.13,5.47,2.22,17.3,0,0,1.78,11.75-11.79,11.48,0,0-2.33,4-8.43,2.54s-7.54-3.16-7.54-3.16-11.18,2.39-13.76-7.73c0,0-7.38-2.35-1.62-11.62,0,0-5.63-13,6.2-15.9C301.91,769.91,304.2,757.22,315.68,762.92Z"/><path class="cls-14" d="M307.48,791.52c.68,2.44-.11,4.79-1.76,5.25s-3.54-1.15-4.21-3.59.11-4.79,1.76-5.25S306.81,789.08,307.48,791.52Z"/><path class="cls-14" d="M336.21,787.78c-.07,2.53-1.51,4.55-3.23,4.5s-3-2.13-3-4.66,1.51-4.55,3.22-4.51S336.27,785.25,336.21,787.78Z"/><path class="cls-14" d="M323.77,803.29c0,.18,1,6.65,1.54,10.07a2.7,2.7,0,0,1-1.75,3c-3.23,1.2-9.54,2.74-13.51-1.43a1.76,1.76,0,0,1-.48-1.43l1.65-15.14Z"/><path class="cls-29" d="M324.3,806.91c-3.43,1.43-7.61,1.15-12.08-1.94a16.73,16.73,0,0,1-1.59-1.23l.59-5.42,12.55,5C323.77,803.38,324,804.94,324.3,806.91Z"/><path class="cls-14" d="M317,770.71a15.1,15.1,0,0,0-8.67,5.79c-3.41,4.8-6.16,19.2,4.21,26.36s19-2.1,19.46-11.43S329.2,769.9,317,770.71Z"/><path class="cls-22" d="M327.52,772.74s-5.73-.54-9.08,1.25S307.21,788.81,305,788.12s-3.17-8.88-2.3-10.49a61.36,61.36,0,0,1,5.23-7.26,52.06,52.06,0,0,1,6.14-2.3c.9-.13,8,.21,8,.21Z"/><path class="cls-14" d="M331.94,882.76c1-.61-2.6-4.74-2.11-5.79s6,3.4,6.86,2.8c1.52-1.11-5.77-5.24-5.11-5.8s8.4,3.34,8.62,1.63-8.44-3.2-8-4.11,7.93,2.11,9.2.35c.68-.94-13.43-3.55-14.16-5s5.07-3.7,4.69-5.07-10.14,5-11,4.8-19-5.63-24.65-8.27c.71-2,3.18-14.16,3.9-16.05-4.15-.29-6.64-4.89-10.73-5.41-2.07,6.51-8.46,25.79-7.61,27.53,2.61,5.28,30.71,9.35,35.79,9.71s6.31,2.6,9.07,3.66S330.94,883.37,331.94,882.76Z"/><path class="cls-34" d="M284,848.46l19,9.18s3-13.94,5.21-22.56c1.91-7.41-7.55-20.59-10.7-18.79C290.48,820.33,284,848.46,284,848.46Z"/><polygon class="cls-29" points="847.23 746.6 844.14 746.58 844.49 749.55 847.23 746.6"/><path class="cls-14" d="M769.39,738.61a210.74,210.74,0,0,1,3.44-27.34c4.55,7.94,7.54,16.58,8.35,18.45.41.93,8.77,22.79,8.77,22.79s41.69-1.1,41.73-1.14L831,761.48c-1.66-.08-55.42,7.39-58.2,6.52C770.34,767.24,768.73,751,769.39,738.61Z"/><path class="cls-14" d="M830.56,751.86l.41,9.62c1.71.07,3.37.06,5.73.26l3.17-13.33s.43-.67.52-.79h0s3.68-3.07,3.37-4.18c-.25-.93-2.78.22-3.55.7-2.32,1.44-7.63,6.42-8.53,7.23Z"/><path class="cls-7" d="M762.54,695l13.09,50.84c4.84-2,8.86-4.81,13.69-6.81C777.68,706.15,762.54,695,762.54,695Z"/><path class="cls-22" d="M773.25,667.35c1.62-7.38,3.21-14.81-1.07-22.92a20.83,20.83,0,0,0-16.38-11.16c-19.64-2.33-15.44,16-42.88,20-8.53,1.24-16.45,2.42-23.57,6.66-12.86,7.66-17.71,20-9.19,40,20.88,49,70.84,6.42,78.46-2.25S772.2,672.1,773.25,667.35Z"/><path class="cls-19" d="M775.44,792.3s4.1,23.26,1.41,38.51S761.21,987.4,761.21,987.4l-14.38.81s-3-59-2.47-67.25,4.81-22,4.81-22l-1.44-47.67,18.15-62.63Z"/><path class="cls-20" d="M733.18,787.41s-11.32,17-14,31.08,2,57.34-3.21,75.78c-2.8,10-13.44,25.4-15.06,38.31s-8,46.7-8,46.7l14.37,2.84,33.4-84.41,26.2-76.29,6.71-39.29Z"/><path class="cls-9" d="M742.34,690.64s-9.91,1.13-15.84,7.58,9.58,58.31,10.66,66.52-8.83,27.36-8.83,27.36,37,6.85,47.11.2c0,0,1.08-59,0-64.9s-10.07-29.72-12.22-32.06S742.34,690.64,742.34,690.64Z"/><path class="cls-14" d="M747.33,670.65s-.07.44-.21,1.19c-.67,3.6-3.25,15.53-5,18.81-2.11,4,7.19,16.61,16.14,15.07,2.66-.46-2.26-11.62-2-12.8.45-2.26,1.07-5.35,1.69-8.51.36-1.79.72-3.6,1-5.3l1.74-8.79Z"/><path class="cls-17" d="M747.12,671.84c.14-.75.21-1.19.21-1.19l13.41-.33L759,679.11c-.33,1.69-.69,3.49-1,5.27a12.59,12.59,0,0,1-6.4-3.21,16.73,16.73,0,0,1-4.85-7.19C746.87,673.13,747,672.4,747.12,671.84Z"/><path class="cls-14" d="M755.4,638.79a15.83,15.83,0,0,0-9.43,5.87c-4,5.11-8.23,20.92,1.61,29.52s19.56-1.13,21-11.45S769.73,638.42,755.4,638.79Z"/><path class="cls-14" d="M771.45,660.18c-.62,2.49-2.25,4.17-3.64,3.76s-2-2.77-1.39-5.26,2.25-4.17,3.64-3.75S772.07,657.7,771.45,660.18Z"/><path class="cls-22" d="M757.06,638.55s-8.44,15-14.48,15.73-6.83,8.69-6.83,8.69,2.16-18.41,8.14-22S757.06,638.55,757.06,638.55Z"/><path class="cls-14" d="M744.56,657.86c.49,2.67-.5,5.12-2.21,5.47s-3.49-1.53-4-4.2.49-5.12,2.2-5.47S744.07,655.19,744.56,657.86Z"/><path class="cls-17" d="M843.18,733.86l0,.33.21,2,.06.56L825,742.29,811.79,741l-.61-3.22,1-.24,1,.64,1-.57,1,.61,1-.59,1,.59,1-.61,1,.57,1-.64,1,.55,1-.66,1.06.53,1-.68,1.08.5.95-.71,1.08.48.93-.74,1.1.45.91-.76,1.11.4.88-.79,1.13.37.85-.82,1.14.33.82-.86,1.15.28.77-.9,1.17.22.73-.93,1.17.14.67-1,1-.2C843.11,733.12,843.14,733.49,843.18,733.86Z"/><path class="cls-13" d="M843.42,736.5c.23-.1.67,12.89,1.58,16.22S848.18,768,848.18,768l-32,5.21s-.91-17.19-1.92-22.45-2.67-9.68-2.45-9.78S836,739.88,843.42,736.5Z"/><path class="cls-36" d="M817,757.09c.75,3.89,7.07,5.94,14.1,4.57s12.12-5.62,11.37-9.51-7.07-5.93-14.1-4.57S816.21,753.2,817,757.09Z"/><path class="cls-14" d="M840,756.47a2.3,2.3,0,0,0,1.45,2.7c2.06.74,5.62,1.58,6.93-.87,1.89-3.54.29-12.15-1.18-11.7s-7.83,6-7.15,7.46A3.39,3.39,0,0,1,840,756.47Z"/><path class="cls-25" d="M780.64,743.23c-1.21-.22-2.45,1-2.77,2.73s.4,3.3,1.61,3.53,2.46-1,2.78-2.72S781.85,743.46,780.64,743.23Zm-.16.89c.65.12,1.11.54,1,.94s-.66.63-1.31.51-1.12-.55-1.05-1S779.83,744,780.48,744.12Zm-.78,4.19c-.92-.17-1.57-.8-1.45-1.42s1-1,1.86-.81,1.57.81,1.46,1.42S780.62,748.48,779.7,748.31Z"/><path class="cls-32" d="M774.4,749.23a7.72,7.72,0,0,0-1.29,3l-4.23,22.89a2.56,2.56,0,0,0,2.07,3L784,780.56a2.55,2.55,0,0,0,3-2l4.23-22.89a7.5,7.5,0,0,0-.11-3.3Z"/><path class="cls-32" d="M774.4,749.23a7.72,7.72,0,0,0-1.29,3l-4.23,22.89a2.56,2.56,0,0,0,2.07,3L784,780.56a2.55,2.55,0,0,0,3-2l4.23-22.89a7.5,7.5,0,0,0-.11-3.3Z"/><path class="cls-17" d="M791.27,755.63,787,778.52a2.56,2.56,0,0,1-3,2L771,778.14a2.55,2.55,0,0,1-2.06-3l4.22-22.89a7.78,7.78,0,0,1,1.29-3l16.75,3.1A7.66,7.66,0,0,1,791.27,755.63Z"/><path class="cls-29" d="M772.36,775.81l4.22-22.89a7.93,7.93,0,0,1,1.29-3l-3.47-.64a7.72,7.72,0,0,0-1.29,3l-4.23,22.89a2.56,2.56,0,0,0,2.07,3l3.47.64A2.56,2.56,0,0,1,772.36,775.81Z"/><path class="cls-16" d="M791.27,755.63,787,778.52a2.56,2.56,0,0,1-3,2l-5.35-1a2.58,2.58,0,0,0,3-2l4.23-22.9a7.67,7.67,0,0,0-.12-3.3l5.33,1A7.66,7.66,0,0,1,791.27,755.63Z"/><path class="cls-10" d="M791.15,752.33l-16.76-3.1h0a1.36,1.36,0,0,1,1.59-1.07l14.08,2.6a1.34,1.34,0,0,1,1.09,1.57Z"/><rect class="cls-10" x="777.09" y="764.52" width="2.89" height="18.46" transform="translate(-123.77 1398.78) rotate(-79.53)"/><path class="cls-18" d="M764.12,763.7a33.35,33.35,0,0,1,4.62-5.11,7.88,7.88,0,0,1,3.08-1.41s2.48-.5,2.76.06a1.31,1.31,0,0,1-.44,1.55c-.42.27-1.42.35-1.84.62a3.86,3.86,0,0,0-.7,2.38c.08.56,7.34-1.17,7.34-1.17s2-.6,2.72-.85,2.23-1,2.23-1,2.42-1,2.68-.2c.15.46-1.76,1.94-3.82,3-2.22,1.2-4.61,2-4.56,2.29.13.59,4.13-.27,4.13-.27a12.91,12.91,0,0,1,2.67-.95c1-.7,3-1.34,3.22-.37a17.76,17.76,0,0,1-2.36,1.82s-1.73.76-2.53,1.17a48.06,48.06,0,0,1-4.71,1.52c-.82.35-.46.51-.48.61a23.16,23.16,0,0,0,2.72-.57,15.71,15.71,0,0,0,2.64-.57,20.22,20.22,0,0,1,2.77-.78c2.08-.44,2,1,.12,1.7l-2.28.87C781,769.25,778,769.63,778,770s5.47-.57,5.47-.57,3.09.3.33,1.37a24.48,24.48,0,0,1-6,1.53c-.81,0-3.61,1-6.42.68-2.07-.25-5-.68-6.45-.9Z"/><path class="cls-14" d="M715.21,737l14.23,2.11s-.79,12.12-.6,13.52c0,0,25,8.75,35.28,11.12l1,8.44c-2-.41-3.63-.9-4.62-1.06-1.94-.31-32.92-4.81-32.92-4.81s-12.29-2.34-13-4.51S715.21,737,715.21,737Z"/><path class="cls-7" d="M728.31,696.35s-4.74,2.25-8.92,12c-4,9.24-7.08,42-7.08,42L732.47,752,738,739.55a39.43,39.43,0,0,0-4.07-39.21C731.7,697.3,729.66,695.47,728.31,696.35Z"/><path class="cls-29" d="M772.35,756.55l-.13.56-.63,4.57s2.13-.84,2.34-1.32,1.63-3.12,1.57-3.18a8.75,8.75,0,0,0-.82-1,7.32,7.32,0,0,0-1.49-.14Z"/></g></svg>