<svg id="Calque_2" data-name="Calque 2" xmlns="http://www.w3.org/2000/svg" viewBox="0 0 163.99 129"><defs><style>.cls-1{fill:none;stroke:#fff;}.cls-2{fill:#fff;}</style></defs><g id="Groupe_59" data-name="Groupe 59"><path id="Tracé_647" data-name="Tracé 647" class="cls-1" d="M75.49,107.33l1.2,7.07,7.82,6L80,129l27.24-1.35,14.9-13,1.51-12.64,28.6-6.62L164,72l-5.57-6.47L158,59.16l-5.12-4.82,7.68-10.54L133.59,23.94,131,14h-2.71l-4.51,3.77-27.7-2.86-8.89,2-1,6.32,3.59,8.13-1,7.67L91,52.39l-7.08,29.2L85,96.49Z"/><path id="Tracé_648" data-name="Tracé 648" class="cls-1" d="M73.53,105.75l9-10.32L81.14,81.06,85.65,64.5l-5.5-6.85-8.28,2.56L66.3,58.86l-8.27-5L45.46,66.23l2,4-5,7.75-4.89.53,1.88,3.24-2.33,9.48v5l2,1.89,1.28,10.83,4.36,2.64,13.78-7.38,5.8,3.16Z"/><path id="Tracé_649" data-name="Tracé 649" class="cls-1" d="M34.62,89.94l2-7.9L34.24,76.7,41,75.8l3.61-5.87-2.11-4.29L56.3,52.24l-3.62-4.07-2.86-8.28L57,33l-7.45-8.13H39.66L28.15,19.49,20.4,20.77l-9.94-4.06L0,19.34,9.11,51.78l4.51,5.12-2.33,4.81L25.14,78.35,24.84,84Z"/><path id="Tracé_650" data-name="Tracé 650" class="cls-1" d="M12.19,14.68l8.36,3.39,7.67-1.36,12,5.8h11l8.35,9.26,5.57-2.86,9.18.22,9.49-5.9,1.05-6.51L82,12.58,54.26,5.5,46.59.68l-6.33,5.8L21,5.05l-.76-5-2.1,1.28Z"/><path id="Tracé_651" data-name="Tracé 651" class="cls-1" d="M67,55.92l5.5,1.28,8.43-2.56,5.28,7,2.09-8.31-.45-3.8L79.7,44.86l-1.35,5L68,48.4Z"/><path id="Tracé_652" data-name="Tracé 652" class="cls-1" d="M64.48,54.47l1.41-6.83-7.22-5.87L65,36.35v-5L59.91,34l-6.66,6.72,2,5.93,3.33,4.57Z"/><path id="Tracé_653" data-name="Tracé 653" class="cls-1" d="M67.64,31.39v4.68l5.47.34,1.81,6.1h5.87l6.43,3.61-1.35-7.73,1.35-7-2.65-5.87-8.86,5.87Z"/><path id="Tracé_654" data-name="Tracé 654" class="cls-1" d="M62.82,41.8l3.92-3.5,4.32.48L72.81,45h4l-.45,2.34L67.64,46Z"/><g id="Groupe_49" data-name="Groupe 49"><path id="Tracé_655" data-name="Tracé 655" class="cls-2" d="M58.38,81.72a2,2,0,0,1,.18-.84A2.24,2.24,0,0,1,59,80.2a2.33,2.33,0,0,1,.7-.45,2.3,2.3,0,0,1,.89-.16,2.2,2.2,0,0,1,.94.19,1.82,1.82,0,0,1,.71.55,2.45,2.45,0,0,1,.45.88,3.72,3.72,0,0,1,.16,1.19,6.1,6.1,0,0,1-.16,1.48A3.61,3.61,0,0,1,62.24,85a2,2,0,0,1-.75.66,2.11,2.11,0,0,1-1,.22,2.22,2.22,0,0,1-1.07-.25,2.37,2.37,0,0,1-.83-.71l.67-.73a1.47,1.47,0,0,0,1.25.7,1.08,1.08,0,0,0,.92-.46,2.23,2.23,0,0,0,.36-1.3,1.29,1.29,0,0,1-.51.5,1.76,1.76,0,0,1-.78.19,2.2,2.2,0,0,1-.84-.16,2.12,2.12,0,0,1-.68-.43,2,2,0,0,1-.61-1.46Zm2.24-1.16a1.12,1.12,0,0,0-.44.09,1.45,1.45,0,0,0-.36.25,1.36,1.36,0,0,0-.24.38,1.12,1.12,0,0,0-.09.44,1,1,0,0,0,.09.44,1.13,1.13,0,0,0,.24.36,1,1,0,0,0,.36.24,1.12,1.12,0,0,0,.88,0,1.08,1.08,0,0,0,.36-.24,1.13,1.13,0,0,0,.24-.36,1,1,0,0,0,.09-.44,1.12,1.12,0,0,0-.09-.44,1.2,1.2,0,0,0-.61-.62A1,1,0,0,0,60.62,80.56Z"/><path id="Tracé_656" data-name="Tracé 656" class="cls-2" d="M67.25,83.47v1h-3.5v-1H65V80.86a1.21,1.21,0,0,1-.24.21c-.12.07-.24.14-.37.2a2.86,2.86,0,0,1-.41.15,1.21,1.21,0,0,1-.38.06V80.41a1.26,1.26,0,0,0,.38-.1,3.75,3.75,0,0,0,.44-.24c.13-.08.25-.18.37-.27a.8.8,0,0,0,.2-.21h1.19v3.88Z"/></g><g id="Groupe_50" data-name="Groupe 50"><path id="Tracé_657" data-name="Tracé 657" class="cls-2" d="M122.53,62.7h-2.79V61.64h4.61l-3,6.14H120Z"/><path id="Tracé_658" data-name="Tracé 658" class="cls-2" d="M127.37,62.7h-2.79V61.64h4.61l-3,6.14h-1.31Z"/></g><g id="Groupe_51" data-name="Groupe 51"><path id="Tracé_659" data-name="Tracé 659" class="cls-2" d="M80.44,51a1.12,1.12,0,0,1,.09-.44,1,1,0,0,1,.25-.36,1.24,1.24,0,0,1,.37-.24,1.27,1.27,0,0,1,.47-.09,1.18,1.18,0,0,1,.5.1,1.1,1.1,0,0,1,.38.29,1.24,1.24,0,0,1,.24.47,2.3,2.3,0,0,1,.09.64,3.39,3.39,0,0,1-.09.78,1.76,1.76,0,0,1-.25.58,1,1,0,0,1-.4.35,1.18,1.18,0,0,1-.53.12,1.44,1.44,0,0,1-.57-.13,1.49,1.49,0,0,1-.44-.39l.36-.38a.9.9,0,0,0,.28.27.75.75,0,0,0,.38.1.56.56,0,0,0,.49-.25,1.1,1.1,0,0,0,.19-.68A.62.62,0,0,1,82,52a.83.83,0,0,1-.41.1,1.13,1.13,0,0,1-.81-.31,1.1,1.1,0,0,1-.32-.78Zm1.19-.61a.69.69,0,0,0-.24,0,.59.59,0,0,0-.19.13.86.86,0,0,0-.13.2A.69.69,0,0,0,81,51a.59.59,0,0,0,0,.23.64.64,0,0,0,.13.19.59.59,0,0,0,.19.13.64.64,0,0,0,.23,0,.6.6,0,0,0,.24,0,.5.5,0,0,0,.19-.13.64.64,0,0,0,.13-.19.59.59,0,0,0,0-.23.66.66,0,0,0-.37-.57.59.59,0,0,0-.23,0Z"/><path id="Tracé_660" data-name="Tracé 660" class="cls-2" d="M84.43,53.08v-.69H83.09v-.54l1.54-2h.42v2h.4v.55h-.4v.69Zm-.72-1.24h.79v-1Z"/></g><g id="Groupe_52" data-name="Groupe 52"><path id="Tracé_661" data-name="Tracé 661" class="cls-2" d="M77.78,35.36a1.13,1.13,0,0,1,.09-.45,1.16,1.16,0,0,1,.63-.6,1.26,1.26,0,0,1,.47-.08,1.09,1.09,0,0,1,.5.1,1,1,0,0,1,.38.29,1.4,1.4,0,0,1,.24.47,2.22,2.22,0,0,1,.08.63,2.63,2.63,0,0,1-.09.79,1.71,1.71,0,0,1-.25.57,1.09,1.09,0,0,1-.92.47,1.22,1.22,0,0,1-.57-.13A1.16,1.16,0,0,1,77.9,37l.35-.39a.77.77,0,0,0,.66.37.56.56,0,0,0,.49-.25,1,1,0,0,0,.19-.68.62.62,0,0,1-.27.26.83.83,0,0,1-.41.1,1.38,1.38,0,0,1-.45-.08,1.05,1.05,0,0,1-.68-1ZM79,34.74a.59.59,0,0,0-.23,0,.45.45,0,0,0-.19.14.6.6,0,0,0-.14.2.68.68,0,0,0,0,.46.91.91,0,0,0,.13.19.59.59,0,0,0,.19.13.64.64,0,0,0,.47,0,.62.62,0,0,0,.32-.32.55.55,0,0,0,0-.46.46.46,0,0,0-.13-.2.62.62,0,0,0-.19-.14.59.59,0,0,0-.23,0Z"/><path id="Tracé_662" data-name="Tracé 662" class="cls-2" d="M82.09,35.76a.78.78,0,0,1,.46.27.84.84,0,0,1,.17.55.78.78,0,0,1-.08.39.86.86,0,0,1-.24.3,1.06,1.06,0,0,1-.37.18,1.73,1.73,0,0,1-.5.07,1.48,1.48,0,0,1-.62-.11,1.22,1.22,0,0,1-.45-.33l.35-.44a.92.92,0,0,0,.28.24.88.88,0,0,0,.42.08.68.68,0,0,0,.42-.11.38.38,0,0,0,.15-.34.42.42,0,0,0-.17-.37A.9.9,0,0,0,81.4,36h-.13v-.45h.14a.69.69,0,0,0,.44-.13.42.42,0,0,0,.16-.32.31.31,0,0,0-.13-.28.52.52,0,0,0-.34-.09.74.74,0,0,0-.65.36l-.38-.43a.81.81,0,0,1,.18-.19,1.35,1.35,0,0,1,.26-.15l.31-.1.35,0a1.54,1.54,0,0,1,.43.06,1,1,0,0,1,.33.16.78.78,0,0,1,.22.26.64.64,0,0,1,.07.33.75.75,0,0,1,0,.26.51.51,0,0,1-.12.23.73.73,0,0,1-.18.17A.92.92,0,0,1,82.09,35.76Z"/></g><g id="Groupe_53" data-name="Groupe 53"><path id="Tracé_663" data-name="Tracé 663" class="cls-2" d="M67.37,41H65.89v-.56h2.45l-1.61,3.26H66Z"/><path id="Tracé_664" data-name="Tracé 664" class="cls-2" d="M69.58,41.63a1.26,1.26,0,0,1,.43.08.93.93,0,0,1,.56.54,1.17,1.17,0,0,1,0,.88.94.94,0,0,1-.25.35,1.11,1.11,0,0,1-.38.22,1.27,1.27,0,0,1-.48.08,1.43,1.43,0,0,1-.64-.15,1.06,1.06,0,0,1-.43-.41l.36-.37a.87.87,0,0,0,.32.28.8.8,0,0,0,.4.11.56.56,0,0,0,.41-.15.53.53,0,0,0,0-.75h0a.52.52,0,0,0-.4-.18.73.73,0,0,0-.29.07.63.63,0,0,0-.21.19h-.53s0-.07,0-.1,0-.14,0-.23,0-.2.06-.31,0-.24.07-.35c0-.29.12-.6.18-1h1.61V41H69.29l-.13.73a.44.44,0,0,1,.16-.1A.78.78,0,0,1,69.58,41.63Z"/></g><g id="Groupe_54" data-name="Groupe 54"><path id="Tracé_665" data-name="Tracé 665" class="cls-2" d="M59,48.51a1,1,0,0,1,.1-.44,1.11,1.11,0,0,1,.62-.6,1.27,1.27,0,0,1,.47-.09,1.18,1.18,0,0,1,.5.1,1.1,1.1,0,0,1,.38.29,1.35,1.35,0,0,1,.24.48,2.18,2.18,0,0,1,.09.63,3.39,3.39,0,0,1-.09.78,2,2,0,0,1-.25.58,1.12,1.12,0,0,1-.4.35,1.24,1.24,0,0,1-.53.12,1.26,1.26,0,0,1-.57-.14,1.23,1.23,0,0,1-.44-.38l.36-.38a.81.81,0,0,0,.28.27.75.75,0,0,0,.38.1.58.58,0,0,0,.49-.24,1.22,1.22,0,0,0,.19-.69.68.68,0,0,1-.27.26.86.86,0,0,1-.41.1,1.33,1.33,0,0,1-.45-.08,1.11,1.11,0,0,1-.36-.23,1.21,1.21,0,0,1-.24-.35A1.12,1.12,0,0,1,59,48.51Zm1.19-.61A.69.69,0,0,0,60,48a.8.8,0,0,0-.19.13.86.86,0,0,0-.13.2.69.69,0,0,0-.05.24.59.59,0,0,0,.05.23.64.64,0,0,0,.13.19.59.59,0,0,0,.19.13.59.59,0,0,0,.23,0,.6.6,0,0,0,.24,0,.5.5,0,0,0,.19-.13.61.61,0,0,0,.18-.43.59.59,0,0,0,0-.23.69.69,0,0,0-.13-.2.85.85,0,0,0-.19-.14.62.62,0,0,0-.23,0Z"/><path id="Tracé_666" data-name="Tracé 666" class="cls-2" d="M61.77,50a1.55,1.55,0,0,1,0-.37.82.82,0,0,1,.11-.31,1.13,1.13,0,0,1,.22-.27,2.71,2.71,0,0,1,.35-.24l.34-.18.24-.14a.57.57,0,0,0,.14-.13.17.17,0,0,0,0-.15.3.3,0,0,0-.11-.24.45.45,0,0,0-.31-.1.64.64,0,0,0-.2,0l-.18.08-.14.11-.13.13-.39-.45a.75.75,0,0,1,.17-.14,1.35,1.35,0,0,1,.26-.15l.33-.11a1.72,1.72,0,0,1,.39,0,1.52,1.52,0,0,1,.42.06,1,1,0,0,1,.31.16.69.69,0,0,1,.19.25.64.64,0,0,1,.06.31.45.45,0,0,1-.06.28.57.57,0,0,1-.15.23.78.78,0,0,1-.2.16l-.21.13-.18.11-.21.13c-.07,0-.13.1-.19.14l-.14.15H64V50Z"/></g><g id="Groupe_55" data-name="Groupe 55"><path id="Tracé_667" data-name="Tracé 667" class="cls-2" d="M26.59,43.68H23.8v-1h4.61l-3,6.13H24.06Z"/><path id="Tracé_668" data-name="Tracé 668" class="cls-2" d="M33.24,45.86a1.78,1.78,0,0,1-.18.78,2,2,0,0,1-.48.6,2.41,2.41,0,0,1-.71.37,2.74,2.74,0,0,1-1.73,0,2.29,2.29,0,0,1-.7-.39A2,2,0,0,1,29,46.6a1.88,1.88,0,0,1-.17-.77,1.33,1.33,0,0,1,.08-.49,1.74,1.74,0,0,1,.23-.4,1.91,1.91,0,0,1,.64-.55,1.6,1.6,0,0,1-.54-.46,1.2,1.2,0,0,1-.22-.69,1.45,1.45,0,0,1,.19-.73,1.62,1.62,0,0,1,.48-.53,2.65,2.65,0,0,1,.65-.33,2.57,2.57,0,0,1,.72-.11,2.45,2.45,0,0,1,.71.11,2.24,2.24,0,0,1,.66.32,2,2,0,0,1,.48.53,1.35,1.35,0,0,1,.19.73,1,1,0,0,1-.06.36,1.29,1.29,0,0,1-.17.33,1.6,1.6,0,0,1-.25.27,1.49,1.49,0,0,1-.31.2,2,2,0,0,1,.67.56,1.81,1.81,0,0,1,.22.41A1.42,1.42,0,0,1,33.24,45.86Zm-1.18-.07A.86.86,0,0,0,32,45.4a1,1,0,0,0-.24-.29,1.11,1.11,0,0,0-.34-.18,1.32,1.32,0,0,0-.39-.06,1.12,1.12,0,0,0-.4.07,1.06,1.06,0,0,0-.33.18,1.09,1.09,0,0,0-.23.29.85.85,0,0,0-.09.38.75.75,0,0,0,.1.38,1.09,1.09,0,0,0,.23.29,1.11,1.11,0,0,0,.34.18,1.07,1.07,0,0,0,.39.07,1.28,1.28,0,0,0,.39-.07,1,1,0,0,0,.34-.19,1,1,0,0,0,.24-.29.78.78,0,0,0,.09-.37Zm-1.91-2.51a.55.55,0,0,0,.07.31.93.93,0,0,0,.21.23.9.9,0,0,0,.28.13.88.88,0,0,0,.6,0,.79.79,0,0,0,.48-.37.48.48,0,0,0,.08-.31.58.58,0,0,0-.25-.51,1,1,0,0,0-.62-.19.92.92,0,0,0-.6.19.62.62,0,0,0-.26.52Z"/></g><g id="Groupe_56" data-name="Groupe 56"><path id="Tracé_669" data-name="Tracé 669" class="cls-2" d="M62.24,17.65a1.86,1.86,0,0,1,.17-.84,2.14,2.14,0,0,1,1.18-1.13,2.22,2.22,0,0,1,.88-.16,2.14,2.14,0,0,1,.94.19,1.82,1.82,0,0,1,.71.55,2.65,2.65,0,0,1,.46.88,4,4,0,0,1,.15,1.19,5.65,5.65,0,0,1-.16,1.48,3.09,3.09,0,0,1-.48,1.08,2,2,0,0,1-.75.66,2.21,2.21,0,0,1-1,.23,2.52,2.52,0,0,1-1.08-.25,2.28,2.28,0,0,1-.82-.72l.66-.73a1.45,1.45,0,0,0,1.25.69,1.08,1.08,0,0,0,.92-.46A2.18,2.18,0,0,0,65.65,19a1.21,1.21,0,0,1-.51.49,1.6,1.6,0,0,1-.77.19,2.45,2.45,0,0,1-.85-.15,2.14,2.14,0,0,1-.67-.43,2,2,0,0,1-.62-1.46Zm2.23-1.16a1,1,0,0,0-.43.09,1,1,0,0,0-.36.25,1.19,1.19,0,0,0-.25.38,1.12,1.12,0,0,0,0,.88,1.1,1.1,0,0,0,.6.6,1.12,1.12,0,0,0,.88,0,1.13,1.13,0,0,0,.36-.24,1.41,1.41,0,0,0,.24-.36,1.17,1.17,0,0,0-.24-1.25,1.45,1.45,0,0,0-.36-.25,1,1,0,0,0-.44-.1Z"/><path id="Tracé_670" data-name="Tracé 670" class="cls-2" d="M69.54,17.69a2.45,2.45,0,0,1,.8.14,1.91,1.91,0,0,1,1.2,1.83,2,2,0,0,1-.16.84,1.9,1.9,0,0,1-.47.65,2.3,2.3,0,0,1-.72.43,2.74,2.74,0,0,1-.9.15,2.5,2.5,0,0,1-1.2-.29,1.94,1.94,0,0,1-.81-.77L68,20a1.71,1.71,0,0,0,.6.53,1.53,1.53,0,0,0,.75.2,1.06,1.06,0,0,0,.76-.28.93.93,0,0,0,.3-.75.94.94,0,0,0-.9-1h-.08a1.13,1.13,0,0,0-.54.13,1.09,1.09,0,0,0-.39.35h-1a1.29,1.29,0,0,1,0-.19l.08-.43c0-.18.07-.37.11-.59s.09-.43.13-.66c.11-.53.22-1.12.35-1.77h3v1.05H69l-.25,1.37a.73.73,0,0,1,.3-.19A1.61,1.61,0,0,1,69.54,17.69Z"/></g></g></svg>