<svg xmlns="http://www.w3.org/2000/svg" xmlns:xlink="http://www.w3.org/1999/xlink" viewBox="0 0 2378.02 932.32"><defs><style>.cls-1{fill:none;}.cls-2{isolation:isolate;}.cls-3{clip-path:url(#clip-path);}.cls-4{fill:#d8e9ff;}.cls-17,.cls-5{opacity:0.5;}.cls-10,.cls-11,.cls-12,.cls-13,.cls-14,.cls-15,.cls-16,.cls-17,.cls-18,.cls-19,.cls-6,.cls-7,.cls-8,.cls-9{fill-rule:evenodd;}.cls-6{fill:url(#_103);}.cls-7{fill:url(#_103-2);}.cls-8{fill:url(#_103-3);}.cls-9{fill:url(#_103-4);}.cls-10{fill:url(#_111);}.cls-11{fill:url(#_103-5);}.cls-12{fill:url(#_103-6);}.cls-13{fill:url(#_103-7);}.cls-14{fill:url(#_103-8);}.cls-15{fill:url(#_103-9);}.cls-16,.cls-17,.cls-18,.cls-19{fill:#8990ec;}.cls-17,.cls-18,.cls-19{mix-blend-mode:multiply;}.cls-18{opacity:0.28;}.cls-19{opacity:0.2;}.cls-20{fill:#a7c7ff;}.cls-21{fill:#ffcd76;}.cls-22{fill:#ffbf65;}.cls-23{fill:#f6fbff;}.cls-24{fill:#73b471;}.cls-25{fill:#5e9f5c;}.cls-26{fill:#2c5ca8;}.cls-27{fill:#fff2e7;}.cls-28{fill:#f89b31;}.cls-29{fill:#fddbba;}.cls-30{fill:#f4cbaa;}.cls-31{fill:#f28018;}.cls-32{fill:#f4bb6b;}.cls-33{fill:#f2ac6d;}.cls-34{fill:#db9958;}.cls-35{fill:#ffc36c;}.cls-36{fill:#c45447;}.cls-37{fill:#2c3a64;}.cls-38{fill:#ec9649;}.cls-39{fill:#d85c53;}.cls-40{fill:#fdcd81;}.cls-41{fill:#bf8c4d;}</style><clipPath id="clip-path" transform="translate(177.04 -103.6)"><rect class="cls-1" x="0.99" width="1920" height="960" transform="translate(1921.97 960) rotate(-180)"/></clipPath><linearGradient id="_103" x1="999.25" y1="710.52" x2="999.25" y2="558.12" gradientTransform="matrix(-1, 0, 0, 1, 2099.01, -103.6)" gradientUnits="userSpaceOnUse"><stop offset="0" stop-color="#d6e5ff"/><stop offset="1" stop-color="#a6acf1"/></linearGradient><linearGradient id="_103-2" x1="918.98" y1="642.44" x2="918.98" y2="567.97" xlink:href="#_103"/><linearGradient id="_103-3" x1="849.46" y1="624.46" x2="849.46" y2="576.34" xlink:href="#_103"/><linearGradient id="_103-4" x1="1135.08" y1="739.32" x2="1135.08" y2="592.52" xlink:href="#_103"/><linearGradient id="_111" x1="1052.59" y1="743.91" x2="1052.59" y2="552.11" gradientTransform="matrix(-1, 0, 0, 1, 2099.01, -103.6)" gradientUnits="userSpaceOnUse"><stop offset="0" stop-color="#c7dbff"/><stop offset="1" stop-color="#8990ec"/></linearGradient><linearGradient id="_103-5" x1="706.83" y1="744.46" x2="706.83" y2="702.5" xlink:href="#_103"/><linearGradient id="_103-6" x1="744.61" y1="740.08" x2="744.61" y2="695.45" xlink:href="#_103"/><linearGradient id="_103-7" x1="1404" y1="740.08" x2="1404" y2="695.45" xlink:href="#_103"/><linearGradient id="_103-8" x1="1375.98" y1="739.32" x2="1375.98" y2="690.4" xlink:href="#_103"/><linearGradient id="_103-9" x1="1357.9" y1="737.41" x2="1357.9" y2="695.45" xlink:href="#_103"/></defs><g class="cls-2"><g id="Calque_1" data-name="Calque 1"><g class="cls-3"><path class="cls-4" d="M169.41,959c1.15,4.89,2.44,9.92,3.88,15s3,10.35,4.89,15.68c.86,2.58,1.87,5.18,2.73,7.76,3,8.2,6.47,16.68,10.64,25.46,1.3,2.87,2.59,5.89,4,8.77.36.9.78,1.81,1.21,2.7.26.54.54,1.07.81,1.61h171l50-.13H866.79l63.32-.08h.2l66.72-.07H1342.7l144.11-.15h260.6l.27-.7c0-.14.1-.3.17-.48.22-.55.5-1.31.86-2.27l.14-.28v-.15a.53.53,0,0,0,.14-.29,40.17,40.17,0,0,0,1.59-4c.29-.72.57-1.59,1-2.45v-.29l.15-.14c2-5.13,4.42-11.82,7.25-19.89q.38-1.11.78-2.22c2.11-6.1,4.44-12.94,6.92-20.46,5.9-18.27,12.66-40.56,19.27-65.73,2.59-9.92,5.18-20.28,7.63-31.07,1.44-6.22,2.89-12.71,4.28-19.26q.6-2.88,1.18-5.76c2.55-12.27,4.94-24.9,7.1-37.81,2.84-17,5.28-34.39,7.14-52.08q1.38-13,2.32-26.23c0-.23,0-.47.05-.7s0-.47,0-.7c.85-12.4,1.39-24.87,1.55-37.34q.18-15.06-.37-30.09c-.29-6.76-.72-13.52-1.15-20.29-1.15-14.38-2.88-28.76-5.33-42.71-1.58-9.49-3.59-19-5.89-28.19a319.62,319.62,0,0,0-23.3-64.57c-3.59-7.05-7.33-14-11.5-20.71-9.35-15.39-18.84-29.78-28.49-43.29h-.14c-5-7.19-10.07-13.95-15.1-20.43a534.58,534.58,0,0,0-57.24-63.57C1432.16,150,1160.91,363.56,993.07,215,829,69.88,521.91,67.72,384.57,201.62c-2.59,2.59-5.33,5.18-7.91,8a223.06,223.06,0,0,0-49.93,82.64c-8.12,24.24-12.3,50.8-11.85,79.66q.06,4.54.29,9.18A305,305,0,0,0,320,422q2.55,14,6.48,28.57a475.07,475.07,0,0,0,27,73.35l3.45,7.34c37.54,78.52,6.61,125.55-40.7,168.55-29.19,26.61-64.44,51.64-93.78,81.55-3.88,4-7.62,8-11.36,12.23-1.43,1.66-2.84,3.32-4.23,5q-5.88,7.1-11.3,14.55-2.73,3.87-5.29,7.87A176.94,176.94,0,0,0,177,845.83,160.14,160.14,0,0,0,164.93,891C162.54,911.23,163.69,933.72,169.41,959Z" transform="translate(177.04 -103.6)"/><g class="cls-5"><polygon class="cls-6" points="1115.79 603.36 1114.22 506.41 1107.59 482.78 1102.77 482.78 1099.76 454.52 1099.76 454.52 1095.64 482.62 1091.8 482.62 1083.73 506.14 1083.73 606.93 1115.79 603.36"/><polygon class="cls-7" points="1190.36 534.48 1190.36 498.62 1186.74 495.09 1181.36 464.37 1174.46 495.09 1170.64 498.62 1169.7 538.84 1190.36 534.48"/><polygon class="cls-8" points="1256.23 518.05 1256.23 494.88 1253.88 492.59 1250.41 472.74 1245.95 492.59 1243.48 494.88 1242.87 520.87 1256.23 518.05"/><polygon class="cls-9" points="1017.59 570.22 990.33 546.04 964.72 545.37 964.72 539.92 962.95 538.84 962.95 493.64 961.7 488.93 960.86 538.47 958.33 540.79 958.33 546.04 938.77 546.04 910.27 566.8 910.27 635.72 1007.49 635.72 1017.59 570.22"/><polygon class="cls-10" points="760.52 639.68 763.33 580.35 760.48 580.35 774.2 559.08 812.01 557.41 812.01 494.18 825.52 485.77 826.68 452.71 827.1 452.71 826.35 485.69 860.42 487.4 861.01 497.99 863.37 500.43 864.05 524.43 894.72 569.82 922.24 569.82 922.24 563.75 923.35 562.37 923.8 548.27 924.98 544.02 926.88 547.73 926.88 562.31 927.97 563.04 927.97 569.52 938.77 590.02 936.31 590.02 938.77 616.04 944.09 621.14 957.24 618.78 991.21 613.59 1005.05 607.85 1004.52 543.12 1021.86 512.7 1029.72 512.7 1030.91 496.08 1032.71 493.91 1032.71 449.87 1033.76 449.87 1033.76 493.36 1071.39 517.87 1075.28 517.48 1105.47 543.39 1101.86 543.12 1103.5 597.08 1106.39 598.47 1123.92 613.71 1127.57 606.03 1129.99 504.33 1147.89 494.9 1209.29 499.98 1209.46 508.68 1212.97 512.7 1221.6 512.7 1221.6 493.91 1223.79 488.93 1231.63 448.51 1238.59 489.49 1240.8 494.72 1240.39 508.31 1247.29 512.7 1259.88 512.7 1259.88 497.44 1262.16 493.36 1270.21 466.72 1276.18 492.28 1280 497.98 1280.68 517.76 1279.37 535.64 1303.37 553.22 1332.37 588.41 1326.94 588.41 1331.51 640.32 760.52 639.68"/><polygon class="cls-11" points="1381.42 640.86 1383.55 599.53 1402.27 598.9 1402.95 640.66 1381.42 640.86"/><polygon class="cls-12" points="1337.81 632.13 1339.24 599.22 1353.36 599.22 1353.36 607.85 1356.47 607.85 1356.47 592.73 1371 591.86 1371 636.49 1337.81 632.13"/><polygon class="cls-13" points="678.42 632.13 678.42 599.22 693.97 599.22 693.97 607.85 697.08 607.85 697.08 592.73 711.61 591.86 711.61 636.49 678.42 632.13"/><polygon class="cls-14" points="717.3 635.72 718.17 586.8 727.21 586.8 728.77 634.6 717.3 635.72"/><polygon class="cls-15" points="730.57 633.82 729.54 592.58 751.41 591.86 752.68 632.69 730.57 633.82"/></g><polygon class="cls-16" points="997.07 459.63 997.07 457.3 989.13 457.21 989.13 460.67 997.07 459.63"/><path class="cls-16" d="M760,739.76h29.28s3.64-11.29,13.43-17a24,24,0,0,1,13-3.27A24.48,24.48,0,0,1,832,726.19a35.88,35.88,0,0,1,8.91,13.57h31l-6.43-9.62h0l-21.92-32.77s-11.18-23.75-13.33-32.19c-6.19-24.29-10.63-99.69-10.63-99.69h-6.79s-6.22,74.8-12.14,99c-2.07,8.52-12.25,32.86-12.25,32.86l-14.67,21.94Zm46.16-42.71L811.79,665l6,.41L826,696.55Z" transform="translate(177.04 -103.6)"/><path class="cls-16" d="M781.09,739.76h8.18s6.72-20.82,26.45-20.29c18.69.52,25.16,20.29,25.16,20.29h8.17l-14.93-27.38-35.41,1Z" transform="translate(177.04 -103.6)"/><polygon class="cls-16" points="998.59 457.32 987.84 457.18 988.42 453.13 992.96 447.61 994.11 447.61 998.09 452.58 998.59 457.32"/><polygon class="cls-16" points="994.11 447.61 994.11 424.09 993.73 424.09 992.96 447.61 994.11 447.61"/><polygon class="cls-16" points="994.13 560.45 992.57 499.68 990.16 560.45 994.13 560.45"/><polygon class="cls-16" points="1001.76 592.75 995.12 566.95 989.84 566.95 984.28 593.42 983.2 593.46 988.84 561.36 994.83 561.77 1003.07 592.95 1001.76 592.75"/><polygon class="cls-16" points="1029.4 607.03 954.51 610.04 954.19 610.53 1029.97 607.88 1029.4 607.03"/><polygon class="cls-16" points="996.75 464.8 989.57 464.36 989.28 467.67 997.03 469.11 996.75 464.8"/><polygon class="cls-16" points="1023.56 595.49 1022.43 596.6 963.19 597.07 961.59 596.14 1023.56 595.49"/><path class="cls-16" d="M778.48,739.76s11.64-23.62,37.61-23.62,35.51,23.62,35.51,23.62h-2.55s-8.12-22.44-33.13-22.44-34.83,22.44-34.83,22.44Z" transform="translate(177.04 -103.6)"/><polygon class="cls-16" points="1046.17 634.15 1028.64 608.78 1013.25 609.37 1027.47 633.75 1046.17 634.15"/><polygon class="cls-16" points="973.11 611.28 955.52 611.28 939.73 636.16 955.52 636.16 973.11 611.28"/><path class="cls-16" d="M839.41,694.92s-7.46-16.43-9.95-26h-8.24l6.55,26.31Z" transform="translate(177.04 -103.6)"/><path class="cls-16" d="M809.73,668.67l-5.42,27.07-13.55.31s7.58-13.26,10.65-27.47Z" transform="translate(177.04 -103.6)"/><path class="cls-16" d="M827.84,664.32s-8.24-48.77-8.39-91.72l-3-.55s-.15,67.11,3.29,92Z" transform="translate(177.04 -103.6)"/><path class="cls-16" d="M811.37,664.05l4.45-92.12-2.66-.5s-4.52,61.94-10.52,91.57Z" transform="translate(177.04 -103.6)"/><polygon class="cls-16" points="997.03 469.11 997.39 474.38 988.68 474.38 989.28 467.67 997.03 469.11"/><polygon class="cls-16" points="997.39 474.38 988.68 474.38 988.62 475.06 997.47 475.58 997.39 474.38"/><polygon class="cls-16" points="1046.17 634.15 1028.64 608.78 1013.25 609.37 1013.93 610.53 1028.06 609.8 1044.68 633.79 1046.17 634.15"/><polygon class="cls-16" points="973.11 611.28 955.52 611.28 939.73 636.16 940.55 636.16 956.42 611.93 972.73 611.82 973.11 611.28"/><polygon class="cls-16" points="1011.16 608.78 1011.62 609.62 975.25 610.53 975.75 609.77 1011.16 608.78"/><path class="cls-16" d="M790.76,696.05h.82A234.63,234.63,0,0,0,802,667.57c4.18-14.75,11.2-89,11.2-89h-.55s-6.88,72.42-11.06,87.87A207.49,207.49,0,0,1,790.76,696.05Z" transform="translate(177.04 -103.6)"/><path class="cls-16" d="M839.93,696.05h-.83a236.59,236.59,0,0,1-10.38-28.48c-4.18-14.75-11.2-89-11.2-89h.56s6.87,72.42,11,87.87A208.23,208.23,0,0,0,839.93,696.05Z" transform="translate(177.04 -103.6)"/><path class="cls-16" d="M833.11,663.72l-.22,2.72-34.15-2.12v-1.8a165.68,165.68,0,0,0,16.63,1.38C822.56,664.06,833.11,663.72,833.11,663.72Z" transform="translate(177.04 -103.6)"/><path class="cls-16" d="M832.89,666.44s-1.13.34-1.58,2.44l-31.89-.31a8.52,8.52,0,0,0-.68-4.25Z" transform="translate(177.04 -103.6)"/><path class="cls-16" d="M846.51,699.09v-4.34a296.31,296.31,0,0,1-31,2.06c-16.79,0-31-.61-31-.61v3.54Z" transform="translate(177.04 -103.6)"/><polygon class="cls-16" points="1025.79 606.78 1020.16 598.11 1015.56 598.11 1020.22 606.78 1025.79 606.78"/><polygon class="cls-16" points="1017.59 606.78 1013.25 598.11 1008.65 598.11 1012.02 606.78 1017.59 606.78"/><polygon class="cls-16" points="1009.39 606.78 1005.77 598.11 1001.16 598.11 1003.82 606.78 1009.39 606.78"/><polygon class="cls-16" points="1001.19 606.78 998.38 598.11 993.77 598.11 995.62 606.78 1001.19 606.78"/><polygon class="cls-16" points="992.07 606.78 991.58 598.11 986.98 598.11 986.49 606.78 992.07 606.78"/><polygon class="cls-16" points="984.79 606.78 985.5 598.11 980.89 598.11 979.22 606.78 984.79 606.78"/><polygon class="cls-16" points="976.59 606.78 979.59 598.11 974.98 598.11 971.01 606.78 976.59 606.78"/><polygon class="cls-16" points="966.29 606.78 971.01 598.11 966.41 598.11 960.72 606.78 966.29 606.78"/><polygon class="cls-16" points="1015.85 598.65 1019.89 598.65 1025.1 606.78 1025.79 606.78 1020.16 598.11 1015.56 598.11 1015.85 598.65"/><polygon class="cls-16" points="971.01 598.11 970.75 598.61 966.51 598.98 961.14 606.78 960.72 606.78 966.41 598.11 971.01 598.11"/><polygon class="cls-16" points="979.5 598.38 975.25 598.65 971.5 606.78 971.01 606.78 974.98 598.11 979.59 598.11 979.5 598.38"/><polygon class="cls-16" points="985.5 598.11 985.46 598.54 980.81 598.54 980.89 598.11 985.5 598.11"/><polygon class="cls-16" points="991.58 598.11 991.61 598.54 986.95 598.54 986.98 598.11 991.58 598.11"/><polygon class="cls-16" points="1008.65 598.11 1013.25 598.11 1017.59 606.78 1016.97 606.78 1013.12 598.33 1008.73 598.33 1008.65 598.11"/><polygon class="cls-16" points="1005.77 598.11 1005.86 598.33 1001.23 598.33 1001.16 598.11 1005.77 598.11"/><polygon class="cls-16" points="998.38 598.11 998.45 598.33 993.86 598.54 993.77 598.11 998.38 598.11"/><polygon class="cls-17" points="1022.43 596.6 1023.18 597.73 961.18 600.07 963.19 597.07 1022.43 596.6"/><polygon class="cls-16" points="1004.34 547.5 994.11 534.65 1000.81 516.21 993.43 499.68 998.07 483.92 993.03 475.58 992.96 477.2 997.39 483.85 992.86 499.68 992.96 500.98 999.8 516.15 994.11 532.99 994.11 537.25 1004.28 548.67 995.07 558.93 996.78 559.4 1004.81 549.93 1004.34 547.5"/><polygon class="cls-16" points="988.49 558.93 981.38 547.58 990.15 535.6 990 533.72 985.48 515 992.15 499.93 988.62 487.23 992.86 475.58 992.72 475.3 988.5 486.64 988.33 488.36 991.32 500.28 984.57 514.74 989 535.3 980.19 547.76 988.27 560.13 988.47 559.37 988.49 558.93"/><polygon class="cls-16" points="998.26 565.28 1010.84 577.41 1004.81 591.59 1004.07 589.93 1009.94 577.41 998.84 567.59 998.26 565.28"/><polygon class="cls-16" points="986.77 565.07 973.93 577.41 981.35 592.14 981.96 590.47 974.71 577.41 986.77 566.45 986.77 565.07"/><polygon class="cls-16" points="1009.94 569.12 974.89 569.53 976.46 564.97 1008.35 565.28 1009.94 569.12"/><polygon class="cls-16" points="1009.94 569.12 1009.94 569.53 974.79 569.82 974.89 569.12 1009.94 569.12"/><polygon class="cls-18" points="1008.35 565.28 1009.01 567.11 976.24 565.62 976.46 564.97 1008.35 565.28"/><polygon class="cls-16" points="1013.93 610.53 1035.94 619.34 1027.47 633.75 1026.39 632.2 1034.09 620.17 1014.37 611.28 1013.93 610.53"/><polygon class="cls-16" points="973.11 611.28 949.06 621.47 955.52 636.16 956.42 634.55 950.63 622.14 972.22 612.55 973.11 611.28"/><path class="cls-19" d="M865.41,730.14,832,726.19a35.88,35.88,0,0,1,8.91,13.57h31l-6.43-9.62Z" transform="translate(177.04 -103.6)"/><path class="cls-19" d="M760,739.76h29.28s3.64-11.29,13.43-17l-29-3.43Z" transform="translate(177.04 -103.6)"/><path class="cls-16" d="M781.09,739.76h8.18s6.72-20.82,26.45-20.29c18.69.52,25.16,20.29,25.16,20.29h8.17s-8.49-22.44-33.13-22.44S781.09,739.76,781.09,739.76Z" transform="translate(177.04 -103.6)"/><polygon class="cls-17" points="1009.94 562.84 976.4 562.84 975.78 560.72 1009.94 562.84"/><path class="cls-16" d="M821.71,562.92l.9,6.15a54.63,54.63,0,0,0-6.79-.68,37,37,0,0,0-6.59.68l1-6.83Z" transform="translate(177.04 -103.6)"/><polygon class="cls-20" points="1131.91 401.67 1148.62 728.63 1131.91 728.63 1124.38 401.67 1131.91 401.67"/><polygon class="cls-20" points="1130.58 372.06 1126.33 392.19 1050.27 301.92 1130.58 372.06"/><polygon class="cls-20" points="1103.25 396.23 1123.77 394.7 1058.27 492.91 1103.25 396.23"/><polygon class="cls-20" points="1145.2 412.28 1133.29 395.51 1251.21 400.85 1145.2 412.28"/><circle class="cls-20" cx="951.59" cy="498.3" r="9.19" transform="translate(304.11 1083.16) rotate(-67.5)"/><path class="cls-21" d="M551,965.53h712.08l296.85-.19h536.83s.31-.54.91-1.62l1.77-3.12.29-.38V960s.3-.2.3-.4a45.4,45.4,0,0,0,3.25-5.51,36.17,36.17,0,0,1,2.08-3.35v-.4l.29-.19c4.07-7,9.12-16.19,14.94-27.25.53-1,1-2,1.59-3,2.9-8.36,6.1-17.72,9.49-28,8.08-25,17.34-55.55,26.4-90,3.55-13.6,7.09-27.78,10.45-42.56,2-8.53,3.95-17.42,5.85-26.39q.83-3.95,1.63-7.89c3.48-16.8,6.76-34.11,9.72-51.79,5.8-34.62,10.38-70.7,13-107.27-230.58,11.89-675.06,43.17-1009.39,117.84C717.52,789.13,600.93,806.14,401.09,825,289.25,835.62,416.86,905.78,551,965.53Z" transform="translate(177.04 -103.6)"/><path class="cls-22" d="M1004.64,786.05s610.26-167.33,802.64-184.19,8.09,22.54,8.09,22.54-522.26,137.39-644.44,194S1004.64,786.05,1004.64,786.05Z" transform="translate(177.04 -103.6)"/><path class="cls-23" d="M1498.6,500s-13.12-31.59-44.5-28.08c0,0-45.55-52.63-94.12-7,0,0-51.64-11.31-89.88,9.78-25.49,14.06-33.91,28.81-33.91,28.81Z" transform="translate(177.04 -103.6)"/><path class="cls-22" d="M1190.75,919.57s527.65-253.17,700-300.7,11.11,18.91,11.11,18.91S1449.29,849.21,1347.5,920.72,1190.75,919.57,1190.75,919.57Z" transform="translate(177.04 -103.6)"/><polygon class="cls-20" points="1559.97 462.88 1573.65 730.52 1559.97 730.52 1553.81 462.88 1559.97 462.88"/><polygon class="cls-20" points="1558.88 438.65 1555.4 455.13 1493.15 381.24 1558.88 438.65"/><polygon class="cls-20" points="1536.51 458.44 1553.3 457.18 1499.69 537.57 1536.51 458.44"/><polygon class="cls-20" points="1570.85 471.57 1561.1 457.84 1657.62 462.22 1570.85 471.57"/><path class="cls-20" d="M1387.77,560.78a7.53,7.53,0,1,0-7.53,7.52A7.53,7.53,0,0,0,1387.77,560.78Z" transform="translate(177.04 -103.6)"/><path class="cls-24" d="M-62.35,767.34q1.88,24.48,6.13,50.95c.07.4.13.79.21,1.2,1.52,9,3.22,18.28,5.11,27.53,1.78,9.67,4.14,19.88,6.69,30.1,1.19,5,2.57,10,3.74,14.91,4.14,15.75,8.87,32,14.58,48.87,1.78,5.52,3.55,11.33,5.52,16.86.5,1.72,1.07,3.46,1.66,5.18H2105.86l1.18-4.36.19-.55v-.27a1.22,1.22,0,0,0,.19-.56c.79-2.2,1.38-4.71,2.17-7.72.4-1.4.79-3.06,1.38-4.71v-.56l.2-.27c2.7-9.85,6.06-22.68,9.93-38.19,3.19-12.78,6.74-27.33,10.55-43.55,8.08-35.06,17.34-77.86,26.4-126.19,3.55-19,7.09-38.94,10.45-59.65,2-12,3.95-24.41,5.85-37-194.74,74-695.58,240.22-1053.26,147.25-64.27-16.7-135.19-31.65-209.6-45q-24.94-4.5-50.38-8.74c-192.93-32.28-403.87-54.66-580.63-70.08h0l-6.1-.52-6-.52-7.23-.63-14.93-1.26-1.93-.16-11.33-1q-20.83-1.74-40.85-3.34l-9-.71-9.83-.79-13.07-1-8-.62-14-1.08-6.82-.51-9.28-.71-.76-.05-14.94-1.12-4.69-.35-.21,0h-.12C61.54,645.47,25.74,643-4.89,640.84c-5.37,6.48-10.54,13.1-15.48,19.93q-3.75,5.29-7.24,10.78a240.37,240.37,0,0,0-18.16,34,221.85,221.85,0,0,0-9.33,25.89A218.14,218.14,0,0,0-62.35,767.34Z" transform="translate(177.04 -103.6)"/><path class="cls-25" d="M861.11,732.87c50.49,28.38,159.34,101,226.22,230.07.48.89.94,1.8,1.4,2.71l50.86-2.71,15.9-.84c-1.53-4.31-72.46-111.84-244-220.49Q886.55,737.11,861.11,732.87Z" transform="translate(177.04 -103.6)"/><path class="cls-25" d="M1048.85,962.28c-1.62-4.53-84.1-130-287.88-243.55l-16,12.55s156.74,68.88,240.84,234.37Z" transform="translate(177.04 -103.6)"/><path class="cls-25" d="M901.52,962.28c-1.61-4.53-84.1-130-287.88-243.55l-16,12.55s156.75,68.88,240.85,234.37Z" transform="translate(177.04 -103.6)"/><path class="cls-25" d="M101.4,648.42s285.53,29.06,463.83,212.74l112.5-32.24c-3.11-4.53-125.24-99.69-397.25-166.12h0c-65.19-5.68-125.75-10.43-179-14.38Z" transform="translate(177.04 -103.6)"/><path class="cls-25" d="M-45.77,705.55c128.26,31,333.58,101.93,487.12,257.39h98.3L611.88,942C607.3,935,411.54,771.16-27.61,671.55A240.37,240.37,0,0,0-45.77,705.55Z" transform="translate(177.04 -103.6)"/><path class="cls-25" d="M978.43,960l-1.46-.37c.59-2.62,2-55.26-14.46-85.95l1.33-.72C980.57,904.07,979,957.85,978.43,960Z" transform="translate(177.04 -103.6)"/><path class="cls-21" d="M959.67,845.49s-5.19,10.9-2,15.79S963.42,852.22,959.67,845.49Z" transform="translate(177.04 -103.6)"/><path class="cls-21" d="M956.43,891.49s5.2-10.9,2-15.79S952.69,884.76,956.43,891.49Z" transform="translate(177.04 -103.6)"/><path class="cls-21" d="M970.08,848.82s-9.63,7.28-9.07,13.08S970.31,856.52,970.08,848.82Z" transform="translate(177.04 -103.6)"/><path class="cls-21" d="M946,888.16s9.64-7.28,9.08-13.08S945.8,880.46,946,888.16Z" transform="translate(177.04 -103.6)"/><path class="cls-21" d="M977.7,856.66s-11.89,2.12-14,7.54S974.41,863.62,977.7,856.66Z" transform="translate(177.04 -103.6)"/><path class="cls-21" d="M938.4,880.8s11.9-2.12,14-7.54S941.7,873.84,938.4,880.8Z" transform="translate(177.04 -103.6)"/><path class="cls-21" d="M980.17,875.78s-9.53-7.43-15-5.39S972.78,878,980.17,875.78Z" transform="translate(177.04 -103.6)"/><path class="cls-21" d="M935.05,866.56s10.66,5.68,15.68,2.73S941.94,863.12,935.05,866.56Z" transform="translate(177.04 -103.6)"/><path class="cls-21" d="M974.91,884.08s-5.92-10.53-11.74-10.75S967.25,883.27,974.91,884.08Z" transform="translate(177.04 -103.6)"/><path class="cls-21" d="M939.16,854.94s5.93,10.53,11.74,10.76S946.82,855.76,939.16,854.94Z" transform="translate(177.04 -103.6)"/><path class="cls-21" d="M967.12,890.29s-.78-12.06-5.93-14.78S960.56,886.23,967.12,890.29Z" transform="translate(177.04 -103.6)"/><path class="cls-21" d="M947.51,848.54s.78,12.06,5.93,14.78S954.07,852.59,947.51,848.54Z" transform="translate(177.04 -103.6)"/><path class="cls-21" d="M980.78,868s-11.29-4.31-15.9-.76S974.37,872.27,980.78,868Z" transform="translate(177.04 -103.6)"/><path class="cls-26" d="M949.64,868.73a8.41,8.41,0,1,1,8.41,8.41A8.42,8.42,0,0,1,949.64,868.73Z" transform="translate(177.04 -103.6)"/><path class="cls-25" d="M975.54,911.53s-7.32-7.44-17.41-7.94-13.19,0-13.19,0,6.21,6.56,13.61,7.94S975.54,911.53,975.54,911.53Z" transform="translate(177.04 -103.6)"/><path class="cls-25" d="M974,904.31c1.27-1.11,2.23-10.18,10.05-12.45a74.2,74.2,0,0,1,13.37-2.71s-6.77,11.79-11.71,13.56S974,904.31,974,904.31Z" transform="translate(177.04 -103.6)"/><path class="cls-25" d="M1018,960l-1.73-.44c.7-3.08,2.42-65-17-101.15l1.57-.84C1020.48,894.18,1018.62,957.47,1018,960Z" transform="translate(177.04 -103.6)"/><path class="cls-21" d="M995.88,825.24s-6.12,12.83-2.39,18.58S1000.29,833.16,995.88,825.24Z" transform="translate(177.04 -103.6)"/><path class="cls-21" d="M992.07,879.38s6.11-12.84,2.39-18.59S987.66,871.45,992.07,879.38Z" transform="translate(177.04 -103.6)"/><path class="cls-21" d="M1008.13,829.15s-11.34,8.58-10.68,15.4S1008.4,838.22,1008.13,829.15Z" transform="translate(177.04 -103.6)"/><path class="cls-21" d="M979.82,875.46s11.34-8.58,10.68-15.4S979.55,866.39,979.82,875.46Z" transform="translate(177.04 -103.6)"/><path class="cls-21" d="M1017.1,838.38s-14,2.5-16.5,8.88S1013.22,846.58,1017.1,838.38Z" transform="translate(177.04 -103.6)"/><path class="cls-21" d="M970.85,866.79s14-2.49,16.5-8.87S974.73,858.6,970.85,866.79Z" transform="translate(177.04 -103.6)"/><path class="cls-21" d="M1020,860.88s-11.22-8.74-17.63-6.34S1011.31,863.48,1020,860.88Z" transform="translate(177.04 -103.6)"/><path class="cls-21" d="M966.9,850s12.55,6.69,18.46,3.22S975,846,966.9,850Z" transform="translate(177.04 -103.6)"/><path class="cls-21" d="M1013.82,870.65s-7-12.39-13.82-12.65S1004.8,869.69,1013.82,870.65Z" transform="translate(177.04 -103.6)"/><path class="cls-21" d="M971.74,836.36s7,12.39,13.82,12.66S980.76,837.32,971.74,836.36Z" transform="translate(177.04 -103.6)"/><path class="cls-21" d="M1004.64,878s-.92-14.19-7-17.39S996.93,873.19,1004.64,878Z" transform="translate(177.04 -103.6)"/><path class="cls-21" d="M981.57,828.83s.92,14.19,7,17.39S989.28,833.6,981.57,828.83Z" transform="translate(177.04 -103.6)"/><path class="cls-21" d="M1020.72,851.73s-13.28-5.07-18.72-.9S1013.17,856.76,1020.72,851.73Z" transform="translate(177.04 -103.6)"/><path class="cls-26" d="M984.08,852.59a9.9,9.9,0,1,1,9.9,9.89A9.9,9.9,0,0,1,984.08,852.59Z" transform="translate(177.04 -103.6)"/><path class="cls-25" d="M1017.32,928s-8.6-8.76-20.48-9.36-15.52,0-15.52,0,7.3,7.72,16,9.36S1017.32,928,1017.32,928Z" transform="translate(177.04 -103.6)"/><path class="cls-25" d="M1015.54,919.45c1.5-1.31,2.64-12,11.84-14.66a87.48,87.48,0,0,1,15.73-3.19s-8,13.88-13.78,16S1015.54,919.45,1015.54,919.45Z" transform="translate(177.04 -103.6)"/><path class="cls-25" d="M970.28,960l-1-.26c.42-1.85,1.45-39-10.21-60.69l.94-.51C971.79,920.51,970.67,958.48,970.28,960Z" transform="translate(177.04 -103.6)"/><path class="cls-21" d="M957,879.14s-3.67,7.7-1.44,11.15S959.67,883.9,957,879.14Z" transform="translate(177.04 -103.6)"/><path class="cls-21" d="M954.74,911.63s3.67-7.7,1.44-11.15S952.1,906.87,954.74,911.63Z" transform="translate(177.04 -103.6)"/><path class="cls-21" d="M964.38,881.5s-6.8,5.14-6.41,9.23S964.54,886.93,964.38,881.5Z" transform="translate(177.04 -103.6)"/><path class="cls-21" d="M947.39,909.28s6.8-5.15,6.41-9.24S947.23,903.84,947.39,909.28Z" transform="translate(177.04 -103.6)"/><path class="cls-21" d="M969.76,887s-8.4,1.5-9.9,5.33S967.43,892,969.76,887Z" transform="translate(177.04 -103.6)"/><path class="cls-21" d="M942,904.08s8.4-1.5,9.9-5.32S944.34,899.16,942,904.08Z" transform="translate(177.04 -103.6)"/><path class="cls-21" d="M971.5,900.53s-6.73-5.24-10.58-3.8S966.29,902.09,971.5,900.53Z" transform="translate(177.04 -103.6)"/><path class="cls-21" d="M939.64,894s7.53,4,11.07,1.93S944.51,891.59,939.64,894Z" transform="translate(177.04 -103.6)"/><path class="cls-21" d="M967.79,906.39s-4.18-7.43-8.29-7.59S962.38,905.82,967.79,906.39Z" transform="translate(177.04 -103.6)"/><path class="cls-21" d="M942.55,885.82s4.18,7.44,8.29,7.59S948,886.4,942.55,885.82Z" transform="translate(177.04 -103.6)"/><path class="cls-21" d="M962.28,910.78s-.55-8.52-4.18-10.44S957.66,907.92,962.28,910.78Z" transform="translate(177.04 -103.6)"/><path class="cls-21" d="M948.44,881.3s.55,8.51,4.19,10.43S953.07,884.16,948.44,881.3Z" transform="translate(177.04 -103.6)"/><path class="cls-21" d="M971.93,895s-8-3-11.23-.54S967.4,898.06,971.93,895Z" transform="translate(177.04 -103.6)"/><path class="cls-26" d="M950,895.56a5.94,5.94,0,1,1,5.94,5.93A5.94,5.94,0,0,1,950,895.56Z" transform="translate(177.04 -103.6)"/><path class="cls-25" d="M969.9,940.77s-5.17-5.25-12.3-5.61-9.31,0-9.31,0,4.38,4.63,9.61,5.61S969.9,940.77,969.9,940.77Z" transform="translate(177.04 -103.6)"/><path class="cls-25" d="M968.83,935.67c.9-.78,1.58-7.19,7.1-8.79a51.37,51.37,0,0,1,9.44-1.91s-4.79,8.32-8.27,9.57A27.63,27.63,0,0,1,968.83,935.67Z" transform="translate(177.04 -103.6)"/><path class="cls-25" d="M912.77,960l-1.72-.44c.69-3.08,2.41-65-17-101.15l1.56-.84C915.29,894.18,913.43,957.47,912.77,960Z" transform="translate(177.04 -103.6)"/><path class="cls-21" d="M890.69,825.24s-6.11,12.83-2.39,18.58S895.1,833.16,890.69,825.24Z" transform="translate(177.04 -103.6)"/><path class="cls-21" d="M886.88,879.38s6.12-12.84,2.39-18.59S882.47,871.45,886.88,879.38Z" transform="translate(177.04 -103.6)"/><path class="cls-21" d="M902.94,829.15s-11.33,8.58-10.67,15.4S903.21,838.22,902.94,829.15Z" transform="translate(177.04 -103.6)"/><path class="cls-21" d="M874.63,875.46s11.34-8.58,10.68-15.4S874.36,866.39,874.63,875.46Z" transform="translate(177.04 -103.6)"/><path class="cls-21" d="M911.91,838.38s-14,2.5-16.5,8.88S908,846.58,911.91,838.38Z" transform="translate(177.04 -103.6)"/><path class="cls-21" d="M865.66,866.79s14-2.49,16.51-8.87S869.54,858.6,865.66,866.79Z" transform="translate(177.04 -103.6)"/><path class="cls-21" d="M914.81,860.88s-11.21-8.74-17.63-6.34S906.12,863.48,914.81,860.88Z" transform="translate(177.04 -103.6)"/><path class="cls-21" d="M861.71,850s12.55,6.69,18.46,3.22S869.83,846,861.71,850Z" transform="translate(177.04 -103.6)"/><path class="cls-21" d="M908.63,870.65s-7-12.39-13.82-12.65S899.61,869.69,908.63,870.65Z" transform="translate(177.04 -103.6)"/><path class="cls-21" d="M866.55,836.36s7,12.39,13.82,12.66S875.57,837.32,866.55,836.36Z" transform="translate(177.04 -103.6)"/><path class="cls-21" d="M899.45,878s-.92-14.19-7-17.39S891.74,873.19,899.45,878Z" transform="translate(177.04 -103.6)"/><path class="cls-21" d="M876.38,828.83s.92,14.19,7,17.39S884.09,833.6,876.38,828.83Z" transform="translate(177.04 -103.6)"/><path class="cls-21" d="M915.53,851.73s-13.28-5.07-18.72-.9S908,856.76,915.53,851.73Z" transform="translate(177.04 -103.6)"/><circle class="cls-26" cx="1065.83" cy="748.99" r="9.9"/><path class="cls-25" d="M909.36,903s-8.6-8.76-20.48-9.35-15.53,0-15.53,0,7.31,7.72,16,9.35S909.36,903,909.36,903Z" transform="translate(177.04 -103.6)"/><path class="cls-25" d="M907.58,894.46c1.5-1.31,2.64-12,11.84-14.65a86.4,86.4,0,0,1,15.73-3.19s-8,13.87-13.78,16S907.58,894.46,907.58,894.46Z" transform="translate(177.04 -103.6)"/><path class="cls-25" d="M944.62,960l-1.72-.48c.69-3.33,2.41-70.35-17-109.43l1.57-.91C947.14,888.79,945.29,957.26,944.62,960Z" transform="translate(177.04 -103.6)"/><path class="cls-21" d="M922.55,814.2s-6.12,13.88-2.39,20.1S927,822.77,922.55,814.2Z" transform="translate(177.04 -103.6)"/><path class="cls-21" d="M918.73,872.77s6.12-13.88,2.39-20.1S914.33,864.2,918.73,872.77Z" transform="translate(177.04 -103.6)"/><path class="cls-21" d="M934.8,818.44s-11.34,9.27-10.68,16.65S935.06,828.24,934.8,818.44Z" transform="translate(177.04 -103.6)"/><path class="cls-21" d="M906.48,868.53s11.34-9.28,10.68-16.65S906.22,858.73,906.48,868.53Z" transform="translate(177.04 -103.6)"/><path class="cls-21" d="M943.76,828.42s-14,2.7-16.5,9.6S939.88,837.29,943.76,828.42Z" transform="translate(177.04 -103.6)"/><path class="cls-21" d="M897.52,859.16s14-2.7,16.5-9.6S901.39,850.29,897.52,859.16Z" transform="translate(177.04 -103.6)"/><path class="cls-21" d="M946.66,852.76s-11.21-9.45-17.63-6.86S938,855.57,946.66,852.76Z" transform="translate(177.04 -103.6)"/><path class="cls-21" d="M893.57,841s12.54,7.24,18.45,3.49S901.68,836.64,893.57,841Z" transform="translate(177.04 -103.6)"/><path class="cls-21" d="M940.48,863.33s-7-13.4-13.82-13.69S931.46,862.3,940.48,863.33Z" transform="translate(177.04 -103.6)"/><path class="cls-21" d="M898.41,826.24s7,13.4,13.81,13.69S907.42,827.27,898.41,826.24Z" transform="translate(177.04 -103.6)"/><path class="cls-21" d="M931.3,871.23s-.91-15.34-7-18.81S923.59,866.07,931.3,871.23Z" transform="translate(177.04 -103.6)"/><path class="cls-21" d="M908.24,818.08s.91,15.35,7,18.82S916,823.24,908.24,818.08Z" transform="translate(177.04 -103.6)"/><path class="cls-21" d="M947.38,842.86s-13.28-5.49-18.71-1S939.84,848.3,947.38,842.86Z" transform="translate(177.04 -103.6)"/><path class="cls-26" d="M910.74,843.79c0-5.91,4.43-10.71,9.9-10.71s9.9,4.8,9.9,10.71-4.44,10.71-9.9,10.71S910.74,849.7,910.74,843.79Z" transform="translate(177.04 -103.6)"/><path class="cls-25" d="M944,925.32s-8.61-9.48-20.48-10.12-15.53,0-15.53,0,7.31,8.35,16,10.12S944,925.32,944,925.32Z" transform="translate(177.04 -103.6)"/><path class="cls-25" d="M942.21,916.12c1.5-1.41,2.63-13,11.83-15.85a81.57,81.57,0,0,1,15.74-3.45s-8,15-13.79,17.26S942.21,916.12,942.21,916.12Z" transform="translate(177.04 -103.6)"/><path class="cls-25" d="M903.17,960,902,959.7c.49-2.17,1.71-45.92-12-71.42l1.11-.6C905,913.53,903.64,958.21,903.17,960Z" transform="translate(177.04 -103.6)"/><path class="cls-21" d="M887.58,864.84s-4.32,9.07-1.69,13.13S890.69,870.44,887.58,864.84Z" transform="translate(177.04 -103.6)"/><path class="cls-21" d="M884.89,903.07s4.32-9.06,1.69-13.12S881.78,897.48,884.89,903.07Z" transform="translate(177.04 -103.6)"/><path class="cls-21" d="M896.23,867.61s-8,6.06-7.54,10.87S896.42,874,896.23,867.61Z" transform="translate(177.04 -103.6)"/><path class="cls-21" d="M876.24,900.31s8-6.06,7.54-10.87S876.05,893.91,876.24,900.31Z" transform="translate(177.04 -103.6)"/><path class="cls-21" d="M902.56,874.13s-9.88,1.76-11.65,6.26S899.82,879.92,902.56,874.13Z" transform="translate(177.04 -103.6)"/><path class="cls-21" d="M869.91,894.19s9.88-1.76,11.65-6.27S872.65,888.4,869.91,894.19Z" transform="translate(177.04 -103.6)"/><path class="cls-21" d="M904.61,890s-7.92-6.18-12.45-4.48S898.48,891.85,904.61,890Z" transform="translate(177.04 -103.6)"/><path class="cls-21" d="M867.12,882.35s8.86,4.72,13,2.28S872.85,879.49,867.12,882.35Z" transform="translate(177.04 -103.6)"/><path class="cls-21" d="M900.24,896.91s-4.92-8.75-9.75-8.93S893.88,896.24,900.24,896.91Z" transform="translate(177.04 -103.6)"/><path class="cls-21" d="M870.54,872.7s4.92,8.75,9.75,8.94S876.9,873.38,870.54,872.7Z" transform="translate(177.04 -103.6)"/><path class="cls-21" d="M893.77,902.07s-.65-10-4.93-12.28S888.32,898.7,893.77,902.07Z" transform="translate(177.04 -103.6)"/><path class="cls-21" d="M877.48,867.38s.64,10,4.92,12.28S882.92,870.75,877.48,867.38Z" transform="translate(177.04 -103.6)"/><path class="cls-21" d="M905.12,883.55s-9.38-3.58-13.22-.63S899.79,887.1,905.12,883.55Z" transform="translate(177.04 -103.6)"/><path class="cls-26" d="M879.25,884.16a7,7,0,1,1,7,7A7,7,0,0,1,879.25,884.16Z" transform="translate(177.04 -103.6)"/><path class="cls-25" d="M902.72,937.37s-6.08-6.18-14.46-6.6-11,0-11,0,5.15,5.45,11.31,6.6S902.72,937.37,902.72,937.37Z" transform="translate(177.04 -103.6)"/><path class="cls-25" d="M901.47,931.37c1.06-.93,1.85-8.47,8.35-10.35a61.17,61.17,0,0,1,11.11-2.25s-5.63,9.8-9.73,11.26A32.26,32.26,0,0,1,901.47,931.37Z" transform="translate(177.04 -103.6)"/><path class="cls-25" d="M858.62,960l-.88-.22c.35-1.57,1.23-33.06-8.65-51.43l.79-.43C859.89,926.54,859,958.72,858.62,960Z" transform="translate(177.04 -103.6)"/><path class="cls-21" d="M847.39,891.49s-3.11,6.53-1.21,9.45S849.63,895.52,847.39,891.49Z" transform="translate(177.04 -103.6)"/><path class="cls-21" d="M845.45,919s3.11-6.53,1.22-9.45S843.21,915,845.45,919Z" transform="translate(177.04 -103.6)"/><path class="cls-21" d="M853.62,893.48s-5.76,4.36-5.43,7.83S853.75,898.09,853.62,893.48Z" transform="translate(177.04 -103.6)"/><path class="cls-21" d="M839.22,917s5.77-4.35,5.43-7.82S839.09,912.42,839.22,917Z" transform="translate(177.04 -103.6)"/><path class="cls-21" d="M858.18,898.18s-7.12,1.27-8.39,4.51S856.21,902.34,858.18,898.18Z" transform="translate(177.04 -103.6)"/><path class="cls-21" d="M834.67,912.62s7.11-1.27,8.39-4.51S836.64,908.45,834.67,912.62Z" transform="translate(177.04 -103.6)"/><path class="cls-21" d="M859.65,909.62s-5.7-4.45-9-3.23S855.23,910.94,859.65,909.62Z" transform="translate(177.04 -103.6)"/><path class="cls-21" d="M832.66,904.1s6.38,3.4,9.38,1.64S836.78,902,832.66,904.1Z" transform="translate(177.04 -103.6)"/><path class="cls-21" d="M856.51,914.58s-3.55-6.3-7-6.43S851.93,914.1,856.51,914.58Z" transform="translate(177.04 -103.6)"/><path class="cls-21" d="M835.12,897.15s3.54,6.3,7,6.43S839.7,897.64,835.12,897.15Z" transform="translate(177.04 -103.6)"/><path class="cls-21" d="M851.84,918.3s-.46-7.22-3.54-8.85S847.92,915.87,851.84,918.3Z" transform="translate(177.04 -103.6)"/><path class="cls-21" d="M840.12,893.32s.46,7.21,3.54,8.84S844,895.74,840.12,893.32Z" transform="translate(177.04 -103.6)"/><path class="cls-21" d="M860,905s-6.75-2.58-9.52-.46S856.18,907.52,860,905Z" transform="translate(177.04 -103.6)"/><circle class="cls-26" cx="1023.46" cy="801.8" r="5.03"/><path class="cls-25" d="M856.88,931s-4.37-4.45-10.41-4.76a46.48,46.48,0,0,0-7.89,0s3.71,3.93,8.14,4.76A37.22,37.22,0,0,0,856.88,931Z" transform="translate(177.04 -103.6)"/><path class="cls-25" d="M856,926.69c.76-.67,1.34-6.1,6-7.45a44,44,0,0,1,8-1.62s-4,7-7,8.11A23.5,23.5,0,0,1,856,926.69Z" transform="translate(177.04 -103.6)"/><path class="cls-25" d="M882.26,960l-1-.26c.42-1.84,1.45-38.91-10.18-60.52l.94-.5C883.77,920.63,882.66,958.49,882.26,960Z" transform="translate(177.04 -103.6)"/><path class="cls-21" d="M869.05,879.38s-3.66,7.67-1.43,11.11S871.69,884.12,869.05,879.38Z" transform="translate(177.04 -103.6)"/><path class="cls-21" d="M866.77,911.77s3.66-7.68,1.43-11.12S864.14,907,866.77,911.77Z" transform="translate(177.04 -103.6)"/><path class="cls-21" d="M876.38,881.72s-6.78,5.13-6.39,9.21S876.54,887.14,876.38,881.72Z" transform="translate(177.04 -103.6)"/><path class="cls-21" d="M859.44,909.42s6.79-5.13,6.39-9.21S859.29,904,859.44,909.42Z" transform="translate(177.04 -103.6)"/><path class="cls-21" d="M881.75,887.24s-8.38,1.5-9.88,5.31S879.43,892.15,881.75,887.24Z" transform="translate(177.04 -103.6)"/><path class="cls-21" d="M854.08,904.24s8.37-1.49,9.87-5.31S856.4,899.34,854.08,904.24Z" transform="translate(177.04 -103.6)"/><path class="cls-21" d="M883.48,900.7s-6.71-5.23-10.55-3.79S878.29,902.26,883.48,900.7Z" transform="translate(177.04 -103.6)"/><path class="cls-21" d="M851.72,894.21s7.5,4,11,1.93S856.57,891.79,851.72,894.21Z" transform="translate(177.04 -103.6)"/><path class="cls-21" d="M879.78,906.55s-4.17-7.41-8.26-7.57S874.39,906,879.78,906.55Z" transform="translate(177.04 -103.6)"/><path class="cls-21" d="M854.61,886s4.17,7.42,8.27,7.57S860,886.61,854.61,886Z" transform="translate(177.04 -103.6)"/><path class="cls-21" d="M874.29,910.92s-.54-8.49-4.17-10.41S869.68,908.07,874.29,910.92Z" transform="translate(177.04 -103.6)"/><path class="cls-21" d="M860.49,881.52s.55,8.49,4.17,10.41S865.11,884.38,860.49,881.52Z" transform="translate(177.04 -103.6)"/><path class="cls-21" d="M883.91,895.23s-7.94-3-11.19-.54S879.4,898.23,883.91,895.23Z" transform="translate(177.04 -103.6)"/><path class="cls-26" d="M862,895.74a5.92,5.92,0,1,1,5.92,5.92A5.92,5.92,0,0,1,862,895.74Z" transform="translate(177.04 -103.6)"/><path class="cls-25" d="M881.88,940.83s-5.15-5.24-12.25-5.6-9.29,0-9.29,0,4.37,4.62,9.58,5.6S881.88,940.83,881.88,940.83Z" transform="translate(177.04 -103.6)"/><path class="cls-25" d="M880.82,935.74c.9-.78,1.57-7.17,7.08-8.77a51.6,51.6,0,0,1,9.41-1.9s-4.77,8.3-8.24,9.54A27.49,27.49,0,0,1,880.82,935.74Z" transform="translate(177.04 -103.6)"/><path class="cls-25" d="M853.73,960l-.61-.16c.24-1.1.86-23.34-6.11-36.31l.56-.3C854.64,936.38,854,959.1,853.73,960Z" transform="translate(177.04 -103.6)"/><path class="cls-21" d="M845.81,911.63s-2.2,4.61-.86,6.67S847.39,914.47,845.81,911.63Z" transform="translate(177.04 -103.6)"/><path class="cls-21" d="M844.44,931.06s2.2-4.6.86-6.67S842.86,928.22,844.44,931.06Z" transform="translate(177.04 -103.6)"/><path class="cls-21" d="M850.21,913s-4.07,3.07-3.84,5.52S850.3,916.29,850.21,913Z" transform="translate(177.04 -103.6)"/><path class="cls-21" d="M840,929.66s4.07-3.08,3.84-5.53S840,926.4,840,929.66Z" transform="translate(177.04 -103.6)"/><path class="cls-21" d="M853.43,916.35s-5,.89-5.93,3.18S852,919.29,853.43,916.35Z" transform="translate(177.04 -103.6)"/><path class="cls-21" d="M836.82,926.55s5-.9,5.93-3.19S838.22,923.61,836.82,926.55Z" transform="translate(177.04 -103.6)"/><path class="cls-21" d="M854.47,924.43s-4-3.14-6.33-2.28S851.35,925.36,854.47,924.43Z" transform="translate(177.04 -103.6)"/><path class="cls-21" d="M835.41,920.53s4.5,2.4,6.62,1.16S838.32,919.08,835.41,920.53Z" transform="translate(177.04 -103.6)"/><path class="cls-21" d="M852.25,927.93s-2.51-4.45-5-4.54S849,927.59,852.25,927.93Z" transform="translate(177.04 -103.6)"/><path class="cls-21" d="M837.14,915.62s2.51,4.45,5,4.55S840.38,916,837.14,915.62Z" transform="translate(177.04 -103.6)"/><path class="cls-21" d="M849,930.55s-.33-5.09-2.5-6.24S846.19,928.84,849,930.55Z" transform="translate(177.04 -103.6)"/><path class="cls-21" d="M840.67,912.92s.33,5.09,2.51,6.24S843.44,914.63,840.67,912.92Z" transform="translate(177.04 -103.6)"/><path class="cls-21" d="M854.72,921.14s-4.76-1.82-6.71-.32S852,922.94,854.72,921.14Z" transform="translate(177.04 -103.6)"/><path class="cls-26" d="M841.57,921.45a3.56,3.56,0,1,1,3.55,3.55A3.55,3.55,0,0,1,841.57,921.45Z" transform="translate(177.04 -103.6)"/><path class="cls-25" d="M853.51,948.5a12.37,12.37,0,0,0-7.36-3.36,33.12,33.12,0,0,0-5.57,0,12.49,12.49,0,0,0,5.75,3.36A26.15,26.15,0,0,0,853.51,948.5Z" transform="translate(177.04 -103.6)"/><path class="cls-25" d="M852.87,945.45c.54-.47.94-4.3,4.25-5.26a31.52,31.52,0,0,1,5.64-1.15s-2.86,5-4.94,5.73A16.32,16.32,0,0,1,852.87,945.45Z" transform="translate(177.04 -103.6)"/><path class="cls-25" d="M819.33,960l-1-.26c.41-1.84,1.44-38.91-10.19-60.52l.94-.5C820.84,920.63,819.73,958.49,819.33,960Z" transform="translate(177.04 -103.6)"/><path class="cls-21" d="M806.12,879.38s-3.66,7.67-1.43,11.11S808.76,884.12,806.12,879.38Z" transform="translate(177.04 -103.6)"/><path class="cls-21" d="M803.84,911.77s3.66-7.68,1.43-11.12S801.2,907,803.84,911.77Z" transform="translate(177.04 -103.6)"/><path class="cls-21" d="M813.45,881.72s-6.78,5.13-6.39,9.21S813.61,887.14,813.45,881.72Z" transform="translate(177.04 -103.6)"/><path class="cls-21" d="M796.51,909.42s6.78-5.13,6.39-9.21S796.35,904,796.51,909.42Z" transform="translate(177.04 -103.6)"/><path class="cls-21" d="M818.81,887.24s-8.37,1.5-9.87,5.31S816.49,892.15,818.81,887.24Z" transform="translate(177.04 -103.6)"/><path class="cls-21" d="M791.15,904.24s8.37-1.49,9.87-5.31S793.47,899.34,791.15,904.24Z" transform="translate(177.04 -103.6)"/><path class="cls-21" d="M820.55,900.7s-6.71-5.23-10.55-3.79S815.35,902.26,820.55,900.7Z" transform="translate(177.04 -103.6)"/><path class="cls-21" d="M788.78,894.21s7.51,4,11,1.93S793.64,891.79,788.78,894.21Z" transform="translate(177.04 -103.6)"/><path class="cls-21" d="M816.85,906.55s-4.17-7.41-8.27-7.57S811.46,906,816.85,906.55Z" transform="translate(177.04 -103.6)"/><path class="cls-21" d="M791.68,886s4.17,7.42,8.26,7.57S797.07,886.61,791.68,886Z" transform="translate(177.04 -103.6)"/><path class="cls-21" d="M811.36,910.92s-.55-8.49-4.17-10.41S806.75,908.07,811.36,910.92Z" transform="translate(177.04 -103.6)"/><path class="cls-21" d="M797.56,881.52s.55,8.49,4.17,10.41S802.17,884.38,797.56,881.52Z" transform="translate(177.04 -103.6)"/><path class="cls-21" d="M821,895.23s-8-3-11.2-.54S816.46,898.23,821,895.23Z" transform="translate(177.04 -103.6)"/><path class="cls-26" d="M799.06,895.74a5.92,5.92,0,1,1,5.92,5.92A5.92,5.92,0,0,1,799.06,895.74Z" transform="translate(177.04 -103.6)"/><path class="cls-25" d="M817.29,925.88s-5.15-5.24-12.25-5.6-9.29,0-9.29,0,4.37,4.62,9.58,5.6S817.29,925.88,817.29,925.88Z" transform="translate(177.04 -103.6)"/><path class="cls-25" d="M816.22,920.79c.9-.78,1.58-7.17,7.09-8.77a52.5,52.5,0,0,1,9.41-1.9s-4.77,8.3-8.25,9.54A27.11,27.11,0,0,1,816.22,920.79Z" transform="translate(177.04 -103.6)"/><path class="cls-25" d="M838.39,960l-1-.28c.42-2,1.45-42.1-10.18-65.48l.94-.55C839.89,917.4,838.78,958.36,838.39,960Z" transform="translate(177.04 -103.6)"/><path class="cls-21" d="M825.18,872.77s-3.66,8.31-1.43,12S827.81,877.9,825.18,872.77Z" transform="translate(177.04 -103.6)"/><path class="cls-21" d="M822.9,907.82s3.66-8.31,1.43-12S820.26,902.69,822.9,907.82Z" transform="translate(177.04 -103.6)"/><path class="cls-21" d="M832.51,875.31s-6.79,5.55-6.39,10S832.67,881.17,832.51,875.31Z" transform="translate(177.04 -103.6)"/><path class="cls-21" d="M815.57,905.28s6.78-5.55,6.39-10S815.41,899.41,815.57,905.28Z" transform="translate(177.04 -103.6)"/><path class="cls-21" d="M837.87,881.28S829.5,882.9,828,887,835.55,886.59,837.87,881.28Z" transform="translate(177.04 -103.6)"/><path class="cls-21" d="M810.2,899.67s8.38-1.61,9.88-5.74S812.52,894.37,810.2,899.67Z" transform="translate(177.04 -103.6)"/><path class="cls-21" d="M839.61,895.85s-6.71-5.66-10.55-4.11S834.41,897.53,839.61,895.85Z" transform="translate(177.04 -103.6)"/><path class="cls-21" d="M807.84,888.82s7.5,4.33,11,2.09S812.69,886.2,807.84,888.82Z" transform="translate(177.04 -103.6)"/><path class="cls-21" d="M835.91,902.17s-4.17-8-8.27-8.19S830.51,901.55,835.91,902.17Z" transform="translate(177.04 -103.6)"/><path class="cls-21" d="M810.74,880s4.17,8,8.26,8.2S816.13,880.59,810.74,880Z" transform="translate(177.04 -103.6)"/><path class="cls-21" d="M830.42,906.9s-.55-9.19-4.17-11.26S825.8,903.81,830.42,906.9Z" transform="translate(177.04 -103.6)"/><path class="cls-21" d="M816.62,875.1s.54,9.18,4.17,11.25S821.23,878.18,816.62,875.1Z" transform="translate(177.04 -103.6)"/><path class="cls-21" d="M840,889.92s-7.95-3.28-11.2-.58S835.52,893.17,840,889.92Z" transform="translate(177.04 -103.6)"/><path class="cls-26" d="M818.12,890.48a5.94,5.94,0,1,1,5.92,6.4A6.18,6.18,0,0,1,818.12,890.48Z" transform="translate(177.04 -103.6)"/><path class="cls-25" d="M838,939.26s-5.15-5.67-12.26-6.06-9.29,0-9.29,0,4.37,5,9.59,6.06S838,939.26,838,939.26Z" transform="translate(177.04 -103.6)"/><path class="cls-25" d="M836.94,933.75c.9-.84,1.58-7.75,7.08-9.48a49.05,49.05,0,0,1,9.42-2.07s-4.78,9-8.25,10.33A25.24,25.24,0,0,1,836.94,933.75Z" transform="translate(177.04 -103.6)"/><path class="cls-25" d="M813.59,960l-.73-.18c.29-1.3,1-27.48-7.19-42.74l.66-.35C814.65,932.2,813.87,958.94,813.59,960Z" transform="translate(177.04 -103.6)"/><path class="cls-21" d="M804.26,903.07s-2.59,5.42-1,7.85S806.12,906.42,804.26,903.07Z" transform="translate(177.04 -103.6)"/><path class="cls-21" d="M802.65,926s2.58-5.43,1-7.85S800.79,922.6,802.65,926Z" transform="translate(177.04 -103.6)"/><path class="cls-21" d="M809.43,904.73s-4.79,3.62-4.51,6.5S809.55,908.56,809.43,904.73Z" transform="translate(177.04 -103.6)"/><path class="cls-21" d="M797.47,924.29s4.79-3.62,4.51-6.5S797.36,920.46,797.47,924.29Z" transform="translate(177.04 -103.6)"/><path class="cls-21" d="M813.22,908.63s-5.91,1-7,3.75S811.58,912.09,813.22,908.63Z" transform="translate(177.04 -103.6)"/><path class="cls-21" d="M793.68,920.63s5.92-1,7-3.75S795.32,917.17,793.68,920.63Z" transform="translate(177.04 -103.6)"/><path class="cls-21" d="M814.45,918.13s-4.74-3.69-7.45-2.68S810.78,919.23,814.45,918.13Z" transform="translate(177.04 -103.6)"/><path class="cls-21" d="M792,913.55s5.31,2.82,7.8,1.36S795.44,911.84,792,913.55Z" transform="translate(177.04 -103.6)"/><path class="cls-21" d="M811.84,922.26s-3-5.23-5.84-5.35S808,921.86,811.84,922.26Z" transform="translate(177.04 -103.6)"/><path class="cls-21" d="M794.06,907.77s3,5.24,5.84,5.35S797.87,908.18,794.06,907.77Z" transform="translate(177.04 -103.6)"/><path class="cls-21" d="M808,925.35s-.39-6-3-7.35S804.7,923.33,808,925.35Z" transform="translate(177.04 -103.6)"/><path class="cls-21" d="M798.21,904.59s.39,6,2.95,7.35S801.47,906.61,798.21,904.59Z" transform="translate(177.04 -103.6)"/><path class="cls-21" d="M814.75,914.27s-5.61-2.15-7.91-.38S811.56,916.39,814.75,914.27Z" transform="translate(177.04 -103.6)"/><path class="cls-26" d="M799.27,914.63a4.18,4.18,0,1,1,4.18,4.18A4.18,4.18,0,0,1,799.27,914.63Z" transform="translate(177.04 -103.6)"/><path class="cls-25" d="M813.32,946.47a14.57,14.57,0,0,0-8.66-4,38.47,38.47,0,0,0-6.55,0s3.08,3.27,6.76,4A31,31,0,0,0,813.32,946.47Z" transform="translate(177.04 -103.6)"/><path class="cls-25" d="M812.56,942.87c.64-.55,1.12-5.06,5-6.19a36.12,36.12,0,0,1,6.64-1.34s-3.37,5.86-5.82,6.74A19.52,19.52,0,0,1,812.56,942.87Z" transform="translate(177.04 -103.6)"/><path class="cls-27" d="M2017.58,565V964.38h88.1l.14-.4.1-.26c.29-.77.68-1.8,1.17-3.12l.2-.38V960a.71.71,0,0,0,.19-.4,53.85,53.85,0,0,0,2.17-5.51c.4-1,.79-2.18,1.38-3.35v-.4l.19-.19c2.71-7,6.06-16.19,9.94-27.25.34-1,.7-2,1.06-3,2.9-8.36,6.1-17.72,9.49-28q2.36-7.26,4.82-15.15c6.84-21.84,14.28-47.07,21.58-74.87,3.55-13.6,7.1-27.78,10.45-42.56,2-8.53,4-17.42,5.86-26.39q.82-3.95,1.63-7.89c3.48-16.8,6.76-34.11,9.71-51.79,3.9-23.23,7.24-47.1,9.78-71.34q1.89-17.83,3.18-35.93c0-.31.06-.63.07-.94Z" transform="translate(177.04 -103.6)"/><polygon class="cls-28" points="2267.03 295.47 2173.7 487.61 1890.13 487.61 2037.97 296.17 2267.03 295.47"/><polygon class="cls-29" points="1901.33 487.61 1909.76 476.69 2049.16 296.17 2278.22 295.47 2194.62 467.57 2194.62 860.76 1909.76 860.76 1909.76 487.61 1901.33 487.61"/><path class="cls-30" d="M2045.75,391.54h6A35.44,35.44,0,0,1,2087.15,427v94.27a0,0,0,0,1,0,0h-78a0,0,0,0,1,0,0V428.17a36.63,36.63,0,0,1,36.63-36.63Z"/><path class="cls-28" d="M1860.17,399.06l.64.85,5.52,7.36L1999.66,585l12.64,16.85h183.24q1.89-17.83,3.18-35.93c0-.31.06-.63.07-.94s.05-.65.07-1c1.17-17,1.9-34.06,2.12-51.14L2113.13,399.1H2075.9l-130.08,0Z" transform="translate(177.04 -103.6)"/><polygon class="cls-28" points="2018.25 541.27 1951.8 678.07 1749.92 678.07 1855.17 541.77 2018.25 541.27"/><polygon class="cls-29" points="1755.97 678.07 1861.22 541.77 2024.3 541.27 1957.85 678.07 1957.41 678.07 1957.41 860.38 1755.97 860.78 1755.97 678.07 1755.97 678.07"/><rect class="cls-27" x="1957.41" y="678.06" width="170.58" height="182.32"/><polygon class="cls-28" points="2146.73 686.15 1963.49 686.15 1855.17 541.77 1909.76 541.78 2035.27 541.8 2146.73 686.15"/><path class="cls-30" d="M1720.56,812V964.37H1635.7V813.43a43.13,43.13,0,0,1,43.13-43.13A41.75,41.75,0,0,1,1720.56,812Z" transform="translate(177.04 -103.6)"/><path class="cls-30" d="M1668.61,721.31a9.52,9.52,0,1,1,9.52,9.52A9.52,9.52,0,0,1,1668.61,721.31Z" transform="translate(177.04 -103.6)"/><polygon class="cls-31" points="2146.73 686.15 2111.95 686.15 1909.76 541.78 2035.27 541.8 2146.73 686.15"/><path class="cls-23" d="M790.64,224.48S778.36,194.93,749,198.21c0,0-42.63-49.26-88.09-6.57,0,0-48.33-10.58-84.12,9.16-23.87,13.16-31.75,27-31.75,27Z" transform="translate(177.04 -103.6)"/><path class="cls-23" d="M1593.94,403.4s-10-24.17-34-21.48c0,0-34.86-40.28-72-5.37,0,0-39.52-8.65-68.78,7.49-19.51,10.76-26,22-26,22Z" transform="translate(177.04 -103.6)"/><path class="cls-25" d="M-62.64,821.41a316.8,316.8,0,0,0,6.42,39.12c.07.28.13.56.21.85C13.24,886.47,84.64,919.76,148.2,963.72H320.07C295.16,947.7,173.75,880.48-62.64,821.41Z" transform="translate(177.04 -103.6)"/><path class="cls-32" d="M319.11,784.83s-131.88-11.56-167.73,0S97.6,850.17,102.72,889.44s17.07,72.55,40.12,71.7,186.09,0,186.09,0Z" transform="translate(177.04 -103.6)"/><path class="cls-32" d="M292.18,782.81s-27.91-5.19-46.91-7.11c0,0,14.94,3,16.79,4.62,0,0-40.55-6.12-55.34-4.62s-35.07,4-35.07,4l-22.55-1.51s18.78,2.28,17.78,2.57-18.35,2.41-23.9,6c0,0-17.21,5.41-20.91,8.68,0,0,13.8-7,19.21-6.55,0,0-31.28,21.7-31.36,42.36s134.5-31.12,134.5-31.12Z" transform="translate(177.04 -103.6)"/><path class="cls-21" d="M300.25,783.8s52.49-4,85.78,38.26,6.4,140.09-37.13,140.46-97.15-6.31-108.75-63.15S252.88,785.23,300.25,783.8Z" transform="translate(177.04 -103.6)"/><path class="cls-21" d="M407.74,868.1S389,846.47,387,840.5l-2.84,6Z" transform="translate(177.04 -103.6)"/><path class="cls-21" d="M394.19,836.08s-2.38-15.5-9.21-21.19c0,0,6.21,10.39,4.6,19.06S394.19,836.08,394.19,836.08Z" transform="translate(177.04 -103.6)"/><path class="cls-21" d="M385,945.78c-.34.83,10.1-28.39,6.69-33.93h-2S388.32,937.67,385,945.78Z" transform="translate(177.04 -103.6)"/><path class="cls-21" d="M393.37,907.79s7.83-2.56,12.24,0c0,0-7.25-2-11.67,2.28S393.37,907.79,393.37,907.79Z" transform="translate(177.04 -103.6)"/><path class="cls-32" d="M321,961c12.07,0,26.6-2,39-9.64,13.41-8.21,22.17-21.44,26-39.32,6.58-30.45,3.35-55.43-9.6-74.26-12.11-17.59-32.56-29.05-59.14-33.13-17.94-2.76-33.47,3-44.91,16.76-16.54,19.83-21.29,53.33-11.56,81.46,6.88,19.88,25.25,32.16,49.13,32.85l2,0c24.07,0,45.76-12.3,53.21-30.38,7.59-18.43,7.2-36.45-1.11-50.76-8.44-14.52-24.37-24-44.86-26.6-18.55-2.39-28.55,6.25-33.68,13.91-9.89,14.78-9.86,38.8-3.23,50.39,6.38,11.17,24.06,19.8,39.41,19.26,11.07-.4,19.53-5.52,23.81-14.43,5.5-11.46,5.14-23.3-1-32.48-4.94-7.39-12.91-11.9-20.31-11.5-8.49.47-12.12,7.56-12.64,13.5-.45,5.22,1.33,11,5.62,12,8,1.87,10.82-2.49,10.94-2.68,0,0,4.31-7.12-1.05-8.14-6.15-1.17-4.53,3.6-4.53,3.6s1.52,6.58-4.86,5.09c-2.63-.62-4.35-4.89-3.93-9.72.47-5.31,3.49-11.11,10.57-11.5,6.65-.37,13.85,3.77,18.36,10.53,5.69,8.52,6,19.56.84,30.31-5,10.43-14.68,12.93-21.91,13.19-14.61.5-31.41-7.62-37.43-18.15-5.58-9.77-7.08-32.79,3.16-48.09,6.85-10.25,17.77-14.73,31.57-13,19.8,2.55,35.16,11.61,43.24,25.53,8,13.7,8.3,31,1,48.83S334,934.26,310,933.57c-22.94-.66-40.56-12.39-47.12-31.37-9.5-27.45-4.91-60.07,11.16-79.34,7.62-9.14,21.24-19.32,42.9-16,26,4,45.9,15.12,57.66,32.21,12.6,18.3,15.71,42.71,9.27,72.54-3.74,17.28-12.16,30-25,37.92-26,15.92-67.05,6.28-67.41,6.19l4.64,2.5A108.43,108.43,0,0,0,321,961Z" transform="translate(177.04 -103.6)"/><path class="cls-32" d="M115.09,723.59s-177.34-15.55-225.55,0-72.31,87.86-65.42,140.65,22.95,97.57,53.94,96.42,250.22,0,250.22,0Z" transform="translate(177.04 -103.6)"/><path class="cls-32" d="M78.87,720.87s-37.53-7-63.07-9.57c0,0,20.09,4.11,22.57,6.22,0,0-54.52-8.23-74.41-6.22s-47.16,5.38-47.16,5.38l-30.32-2s25.25,3.06,23.91,3.44-24.68,3.25-32.14,8c0,0-23.14,7.26-28.12,11.67,0,0,18.56-9.38,25.83-8.8,0,0-42,29.16-42.17,57S14.65,744.11,14.65,744.11Z" transform="translate(177.04 -103.6)"/><path class="cls-21" d="M89.72,722.19s70.59-5.36,115.35,51.45S213.68,962,155.15,962.52,24.51,954,8.91,877.6,26,724.12,89.72,722.19Z" transform="translate(177.04 -103.6)"/><path class="cls-21" d="M234.26,835.55S209,806.47,206.33,798.44l-3.82,8Z" transform="translate(177.04 -103.6)"/><path class="cls-21" d="M216,792.5s-3.2-20.84-12.38-28.5c0,0,8.34,14,6.19,25.64S216,792.5,216,792.5Z" transform="translate(177.04 -103.6)"/><path class="cls-21" d="M203.66,940c-.46,1.12,13.58-38.16,9-45.63l-2.67,0S208.15,929.1,203.66,940Z" transform="translate(177.04 -103.6)"/><path class="cls-21" d="M214.94,888.92s10.52-3.44,16.45,0c0,0-9.74-2.73-15.68,3.06S214.94,888.92,214.94,888.92Z" transform="translate(177.04 -103.6)"/><path class="cls-32" d="M117.66,960.52c16.22,0,35.76-2.75,52.44-13,18-11,29.8-28.82,35-52.87,8.85-41,4.5-74.54-12.92-99.85-16.28-23.66-43.78-39.07-79.52-44.56-24.12-3.7-45,4.09-60.39,22.55C30,799.49,23.65,844.54,36.73,882.37c9.25,26.73,34,43.24,66.07,44.17l2.74,0c32.36,0,61.53-16.54,71.54-40.85,10.21-24.77,9.68-49-1.49-68.25-11.34-19.53-32.76-32.24-60.31-35.78-25-3.21-38.4,8.41-45.29,18.71-13.3,19.88-13.27,52.17-4.36,67.77,8.59,15,32.36,26.61,53,25.89,14.89-.53,26.26-7.43,32-19.41,7.39-15.41,6.91-31.33-1.33-43.67-6.64-9.93-17.36-16-27.31-15.46-11.42.62-16.29,10.16-17,18.14-.62,7,1.78,14.86,7.55,16.21,10.74,2.5,14.55-3.36,14.71-3.61,0,0,5.8-9.58-1.42-11-8.26-1.58-6.09,4.84-6.09,4.84-.11.17,2,8.84-6.53,6.84-3.53-.82-5.85-6.56-5.28-13.07.62-7.13,4.69-14.93,14.21-15.45,8.94-.51,18.62,5.07,24.69,14.15,7.65,11.45,8.06,26.31,1.12,40.75-6.73,14-19.73,17.39-29.46,17.74-19.64.67-42.22-10.24-50.32-24.41-7.51-13.13-9.53-44.08,4.24-64.66,9.22-13.78,23.9-19.81,42.46-17.42C141.52,788,162.17,800.23,173,819c10.7,18.42,11.17,41.74,1.31,65.65s-39.25,39.92-71.46,39C72,922.69,48.35,906.92,39.52,881.4c-12.76-36.9-6.59-80.77,15-106.68,10.24-12.29,28.56-26,57.67-21.52,34.92,5.36,61.73,20.34,77.54,43.32,16.94,24.61,21.13,57.43,12.46,97.54-5,23.24-16.34,40.39-33.65,51-35,21.41-90.16,8.45-90.64,8.32l6.24,3.38A146.88,146.88,0,0,0,117.66,960.52Z" transform="translate(177.04 -103.6)"/><path class="cls-33" d="M1420.64,889.84s21.06-11.63,48.27,2.24,1.13,80.42-20.29,83.06-34.34-8.07-42.16-7.82-26.3,1.35-39.76-6.45-29.21-72.87,6.08-84.07C1395.43,869.61,1420.64,889.84,1420.64,889.84Z" transform="translate(177.04 -103.6)"/><path class="cls-34" d="M1416.31,866.2s7.68,21.49,6.1,25.11-6.42,1.25-7.74-1.3-1.24-17-1.74-19.45S1415.51,863.89,1416.31,866.2Z" transform="translate(177.04 -103.6)"/><path class="cls-35" d="M1398.83,971.85l13.31,2.22a24.22,24.22,0,0,0,27.8-19.83l6-35.83a24.21,24.21,0,0,0-19.83-27.79l-13.32-2.22A24.21,24.21,0,0,0,1385,908.23l-6,35.83A24.22,24.22,0,0,0,1398.83,971.85Z" transform="translate(177.04 -103.6)"/><path class="cls-24" d="M1871.09,964h234.73l.1-.26c.29-.77.68-1.8,1.17-3.12l.2-.38V960a.71.71,0,0,0,.19-.4,53.85,53.85,0,0,0,2.17-5.51c.4-1,.79-2.18,1.38-3.35v-.4l.19-.19c2.71-7,6.06-16.19,9.94-27.25.34-1,.7-2,1.06-3,2.9-8.36,6.1-17.72,9.49-28q2.36-7.26,4.82-15.15c-23.19-6.46-53.52-10.91-80.52-2.14A102,102,0,0,0,2017.58,897c-18.58,16.91-26.26,33.62-47.9,27.12a77.56,77.56,0,0,0-18.74-2.88C1916.12,919.63,1868,934.33,1871.09,964Z" transform="translate(177.04 -103.6)"/><path class="cls-36" d="M1355.37,939s1-6.38,8.7-5.66,9.49,16.47-2.23,20.63C1348.25,958.82,1339.68,940.82,1355.37,939Z" transform="translate(177.04 -103.6)"/><path class="cls-37" d="M1348,936.19s6.16.74,8,3.25c0,0-3.46-2.4-6.75-2.28C1349.22,937.16,1348,936.89,1348,936.19Z" transform="translate(177.04 -103.6)"/><path class="cls-36" d="M1335.64,938.74s5.95-2.5,9.39,4.41-9,16.74-18.71,9C1315.07,943.1,1325.86,926.33,1335.64,938.74Z" transform="translate(177.04 -103.6)"/><path class="cls-37" d="M1334.15,930.94s2.62,5.62,1.45,8.53c0,0,.22-4.21-1.61-7C1334,932.52,1333.57,931.33,1334.15,930.94Z" transform="translate(177.04 -103.6)"/><path class="cls-38" d="M1316.34,921.58s6-2.5,9.39,4.42-9,16.74-18.71,9C1295.77,926,1306.56,909.18,1316.34,921.58Z" transform="translate(177.04 -103.6)"/><path class="cls-37" d="M1314.85,913.79s2.62,5.62,1.46,8.52c0,0,.21-4.21-1.62-6.94C1314.69,915.37,1314.27,914.18,1314.85,913.79Z" transform="translate(177.04 -103.6)"/><path class="cls-36" d="M1330.72,904.64s6-2.5,9.39,4.41-9,16.74-18.71,9C1310.15,909,1320.94,892.23,1330.72,904.64Z" transform="translate(177.04 -103.6)"/><path class="cls-37" d="M1329.23,896.84s2.62,5.62,1.46,8.53c0,0,.21-4.21-1.62-7C1329.07,898.42,1328.65,897.23,1329.23,896.84Z" transform="translate(177.04 -103.6)"/><path class="cls-38" d="M1288,916s1.3-6.33,9-5.26,8.73,16.88-3.17,20.5C1280,935.46,1272.21,917.09,1288,916Z" transform="translate(177.04 -103.6)"/><path class="cls-37" d="M1280.7,912.84s6.12,1,7.86,3.62c0,0-3.36-2.56-6.65-2.59C1281.91,913.87,1280.69,913.54,1280.7,912.84Z" transform="translate(177.04 -103.6)"/><path class="cls-36" d="M1256.34,932.57s1.3-6.32,8.94-5.25,8.74,16.88-3.16,20.5C1248.32,952,1240.58,933.64,1256.34,932.57Z" transform="translate(177.04 -103.6)"/><path class="cls-37" d="M1249.06,929.4s6.12,1,7.86,3.61c0,0-3.35-2.55-6.64-2.58C1250.28,930.43,1249.06,930.1,1249.06,929.4Z" transform="translate(177.04 -103.6)"/><path class="cls-38" d="M1285.31,934.13s5.72-3,9.73,3.6-7.53,17.44-17.87,10.53C1265.19,940.24,1274.5,922.61,1285.31,934.13Z" transform="translate(177.04 -103.6)"/><path class="cls-37" d="M1282.66,926.49s3.09,5.38,2.18,8.37c0,0-.15-4.21-2.21-6.78C1282.63,928.08,1282.11,926.93,1282.66,926.49Z" transform="translate(177.04 -103.6)"/><path class="cls-39" d="M1347.68,923.23s6-2.5,9.39,4.42-9,16.74-18.71,9C1327.11,927.6,1337.9,910.83,1347.68,923.23Z" transform="translate(177.04 -103.6)"/><path class="cls-37" d="M1346.19,915.43s2.62,5.63,1.46,8.53c0,0,.22-4.21-1.62-6.94C1346,917,1345.61,915.83,1346.19,915.43Z" transform="translate(177.04 -103.6)"/><path class="cls-36" d="M1310.54,939.84s6-2.49,9.39,4.42-9,16.74-18.71,9C1290,944.21,1300.76,927.44,1310.54,939.84Z" transform="translate(177.04 -103.6)"/><path class="cls-37" d="M1309.05,932.05s2.62,5.62,1.46,8.53c0,0,.21-4.21-1.62-7C1308.89,933.63,1308.47,932.44,1309.05,932.05Z" transform="translate(177.04 -103.6)"/><path class="cls-40" d="M1246.07,934.92l140.08.35a3.15,3.15,0,0,0,3.15-3.14l0-11.31a3.14,3.14,0,0,0-3.13-3.15l-140.08-.35a3.17,3.17,0,0,0-3.16,3.14l0,11.31A3.15,3.15,0,0,0,1246.07,934.92Z" transform="translate(177.04 -103.6)"/><rect class="cls-40" x="1351.75" y="936.67" width="42.68" height="4.61" rx="0.87" transform="translate(607.77 2206.15) rotate(-89.86)"/><path class="cls-40" d="M1252.34,959.15l.1-40.94a.87.87,0,0,0-.87-.87h-2.87a.89.89,0,0,0-.88.87l-.1,40.94a.87.87,0,0,0,.87.87h2.87A.88.88,0,0,0,1252.34,959.15Z" transform="translate(177.04 -103.6)"/><path class="cls-40" d="M1246,960l140.08.34a3.14,3.14,0,0,0,3.15-3.13l0-11.31a3.16,3.16,0,0,0-3.14-3.16l-140.08-.34a3.15,3.15,0,0,0-3.15,3.14l0,11.31A3.17,3.17,0,0,0,1246,960Z" transform="translate(177.04 -103.6)"/><path class="cls-41" d="M1384.63,922.5a1.63,1.63,0,1,0-1.63,1.63A1.62,1.62,0,0,0,1384.63,922.5Z" transform="translate(177.04 -103.6)"/><path class="cls-41" d="M1384.61,930.59a1.63,1.63,0,1,0-3.25,0,1.63,1.63,0,1,0,3.25,0Z" transform="translate(177.04 -103.6)"/><path class="cls-41" d="M1384.57,947.51a1.63,1.63,0,1,0-1.63,1.62A1.62,1.62,0,0,0,1384.57,947.51Z" transform="translate(177.04 -103.6)"/><path class="cls-41" d="M1384.55,955.59a1.63,1.63,0,1,0-1.63,1.63A1.62,1.62,0,0,0,1384.55,955.59Z" transform="translate(177.04 -103.6)"/><path class="cls-41" d="M1251.75,922.18a1.63,1.63,0,1,0-1.63,1.62A1.62,1.62,0,0,0,1251.75,922.18Z" transform="translate(177.04 -103.6)"/><path class="cls-41" d="M1251.73,930.26a1.63,1.63,0,1,0-1.63,1.62A1.63,1.63,0,0,0,1251.73,930.26Z" transform="translate(177.04 -103.6)"/><path class="cls-41" d="M1251.69,947.18a1.63,1.63,0,1,0-1.63,1.62A1.63,1.63,0,0,0,1251.69,947.18Z" transform="translate(177.04 -103.6)"/><path class="cls-41" d="M1251.67,955.26a1.63,1.63,0,1,0-1.63,1.63A1.64,1.64,0,0,0,1251.67,955.26Z" transform="translate(177.04 -103.6)"/></g></g></g></svg>