<svg id="Calque_1" data-name="Calque 1" xmlns="http://www.w3.org/2000/svg" xmlns:xlink="http://www.w3.org/1999/xlink" viewBox="0 0 1920 960"><defs><style>.cls-1{fill:none;}.cls-2{clip-path:url(#clip-path);}.cls-3{clip-path:url(#clip-path-2);}.cls-4{fill:#d8e9ff;}.cls-5{fill:#ffcd76;}.cls-6{fill:#ffbf65;}.cls-7{fill:#f6fbff;}.cls-8{fill:#73b471;}.cls-9{fill:#5e9f5c;}.cls-10{fill:#2c5ca8;}.cls-11{fill:#fff2e7;}.cls-12{fill:#f89b31;}.cls-13{fill:#fddbba;}.cls-14{fill:#f4cbaa;}.cls-15{fill:#f28018;}.cls-16{fill:#f4bb6b;}.cls-17{fill:#f2ac6d;}.cls-18{fill:#db9958;}.cls-19{fill:#ffc36c;}.cls-20{fill:#c45447;}.cls-21{fill:#2c3a64;}.cls-22{fill:#ec9649;}.cls-23{fill:#d85c53;}.cls-24{fill:#fdcd81;}.cls-25{fill:#bf8c4d;}.cls-26{fill:#d29f7e;}.cls-27{fill:#25468f;}.cls-28{fill:#ffe5d4;}</style><clipPath id="clip-path"><rect class="cls-1" x="-0.41" width="1920" height="960"/></clipPath><clipPath id="clip-path-2"><path class="cls-1" d="M1841.63,953.76c-1.22,5.23-2.6,10.6-4.14,16s-3.23,11.06-5.22,16.75c-.93,2.75-2,5.53-2.92,8.28-3.23,8.76-6.91,17.82-11.36,27.19-1.39,3.07-2.77,6.3-4.31,9.37-.38,1-.83,1.93-1.29,2.88-.28.58-.57,1.15-.86,1.72h-182.6l-53.44-.14H1097l-67.61-.08h-.21l-71.24-.08H588.79l-153.88-.15H156.64l-.29-.75-.18-.52c-.23-.59-.53-1.4-.92-2.42l-.15-.31v-.15a.57.57,0,0,1-.15-.31,40.52,40.52,0,0,1-1.69-4.29c-.31-.78-.62-1.7-1.08-2.62v-.31l-.15-.15c-2.11-5.48-4.72-12.62-7.74-21.24l-.83-2.37c-2.26-6.52-4.75-13.81-7.4-21.85-6.3-19.5-13.52-43.31-20.58-70.18-2.76-10.6-5.53-21.65-8.14-33.18-1.54-6.65-3.09-13.57-4.57-20.57q-.64-3.07-1.27-6.15c-2.71-13.1-5.27-26.59-7.57-40.37-3-18.11-5.64-36.72-7.62-55.61q-1.49-13.92-2.48-28c0-.25,0-.5,0-.74s0-.51-.06-.76c-.91-13.23-1.48-26.55-1.65-39.87-.13-10.71,0-21.43.39-32.12.31-7.22.77-14.45,1.23-21.67,1.23-15.35,3.07-30.71,5.68-45.61,1.69-10.13,3.84-20.27,6.3-30.1a342.4,342.4,0,0,1,24.87-68.95c3.84-7.52,7.84-14.89,12.29-22.11,10-16.44,20.12-31.8,30.41-46.23h.16c5.37-7.67,10.75-14.89,16.12-21.81a571.61,571.61,0,0,1,61.12-67.88C493.26,89.92,782.9,318,962.13,159.33c175.22-155,503.1-157.25,649.76-14.28,2.76,2.77,5.68,5.53,8.44,8.6,23.75,25.2,42.07,54.63,53.31,88.24,8.67,25.89,13.14,54.25,12.66,85.06q-.08,4.86-.31,9.8a328,328,0,0,1-5.13,43.63q-2.74,14.92-6.93,30.5a507.58,507.58,0,0,1-28.87,78.33l-3.69,7.83c-40.08,83.85-7.06,134.07,43.47,180,31.17,28.41,68.8,55.13,100.13,87.07,4.14,4.3,8.14,8.6,12.13,13.06,1.53,1.77,3,3.54,4.52,5.34q6.29,7.57,12.06,15.54,2.92,4.13,5.65,8.4A188.81,188.81,0,0,1,1833.49,833a173.55,173.55,0,0,1,7.27,20.18,171,171,0,0,1,5.66,28C1849,902.78,1847.74,926.8,1841.63,953.76Z"/></clipPath></defs><g class="cls-2"><g class="cls-3"><path class="cls-4" d="M1841.63,953.76c-1.22,5.23-2.6,10.6-4.14,16s-3.23,11.06-5.22,16.75c-.93,2.75-2,5.53-2.92,8.28-3.23,8.76-6.91,17.82-11.36,27.19-1.39,3.07-2.77,6.3-4.31,9.37-.38,1-.83,1.93-1.29,2.88-.28.58-.57,1.15-.86,1.72h-182.6l-53.44-.14H1097l-67.61-.08h-.21l-71.24-.08H588.79l-153.88-.15H156.64l-.29-.75-.18-.52c-.23-.59-.53-1.4-.92-2.42l-.15-.31v-.15a.57.57,0,0,1-.15-.31,40.52,40.52,0,0,1-1.69-4.29c-.31-.78-.62-1.7-1.08-2.62v-.31l-.15-.15c-2.11-5.48-4.72-12.62-7.74-21.24l-.83-2.37c-2.26-6.52-4.75-13.81-7.4-21.85-6.3-19.5-13.52-43.31-20.58-70.18-2.76-10.6-5.53-21.65-8.14-33.18-1.54-6.65-3.09-13.57-4.57-20.57q-.64-3.07-1.27-6.15c-2.71-13.1-5.27-26.59-7.57-40.37-3-18.11-5.64-36.72-7.62-55.61q-1.49-13.92-2.48-28c0-.25,0-.5,0-.74s0-.51-.06-.76c-.91-13.23-1.48-26.55-1.65-39.87-.13-10.71,0-21.43.39-32.12.31-7.22.77-14.45,1.23-21.67,1.23-15.35,3.07-30.71,5.68-45.61,1.69-10.13,3.84-20.27,6.3-30.1a342.4,342.4,0,0,1,24.87-68.95c3.84-7.52,7.84-14.89,12.29-22.11,10-16.44,20.12-31.8,30.41-46.23h.16c5.37-7.67,10.75-14.89,16.12-21.81a571.61,571.61,0,0,1,61.12-67.88C493.26,89.92,782.9,318,962.13,159.33c175.22-155,503.1-157.25,649.76-14.28,2.76,2.77,5.68,5.53,8.44,8.6,23.75,25.2,42.07,54.63,53.31,88.24,8.67,25.89,13.14,54.25,12.66,85.06q-.08,4.86-.31,9.8a328,328,0,0,1-5.13,43.63q-2.74,14.92-6.93,30.5a507.58,507.58,0,0,1-28.87,78.33l-3.69,7.83c-40.08,83.85-7.06,134.07,43.47,180,31.17,28.41,68.8,55.13,100.13,87.07,4.14,4.3,8.14,8.6,12.13,13.06,1.53,1.77,3,3.54,4.52,5.34q6.29,7.57,12.06,15.54,2.92,4.13,5.65,8.4A188.81,188.81,0,0,1,1833.49,833a173.55,173.55,0,0,1,7.27,20.18,171,171,0,0,1,5.66,28C1849,902.78,1847.74,926.8,1841.63,953.76Z"/><path class="cls-5" d="M1370.93,973.47H739.21l-263.35-.17H-.39l-.81-1.43c-.38-.68-.9-1.6-1.57-2.77l-.26-.34v-.17s-.25-.19-.25-.36a38.56,38.56,0,0,1-2.89-4.89,29.91,29.91,0,0,0-1.85-3V960l-.26-.18c-3.6-6.23-8.08-14.35-13.25-24.17l-1.41-2.7c-2.57-7.41-5.41-15.71-8.42-24.86-7.16-22.19-15.38-49.28-23.42-79.87-3.14-12.06-6.29-24.64-9.27-37.75-1.75-7.57-3.51-15.45-5.19-23.41-.49-2.33-1-4.67-1.44-7-3.09-14.91-6-30.26-8.62-46-5.15-30.71-9.22-62.72-11.5-95.16,204.56,10.54,598.87,38.29,895.47,104.54,418.52,93.47,521.95,108.56,699.24,125.33C1603.13,858.22,1489.92,920.47,1370.93,973.47Z"/><path class="cls-6" d="M968.47,814.25S427.08,665.8,256.41,650.85s-7.18,20-7.18,20S712.55,792.72,820.94,843,968.47,814.25,968.47,814.25Z"/><path class="cls-7" d="M619.67,591.19s11.64-28,39.48-24.91c0,0,40.41-46.69,83.5-6.22,0,0,45.81-10,79.73,8.68,22.62,12.47,30.09,25.56,30.09,25.56Z"/><path class="cls-6" d="M803.36,932.7s-468.1-224.6-621-266.76-9.85,16.77-9.85,16.77S574,870.28,664.3,933.72,803.36,932.7,803.36,932.7Z"/><path class="cls-8" d="M1988.11,797.65q-1.72,21.72-5.65,45.2c-.06.36-.12.7-.19,1.06-1.39,8-3,16.22-4.7,24.43-1.63,8.58-3.81,17.64-6.16,26.7-1.09,4.4-2.36,8.82-3.44,13.22-3.81,14-8.15,28.41-13.41,43.37-1.63,4.89-3.26,10-5.07,15-.46,1.53-1,3.07-1.53,4.6H-6.24c-.27-1-.63-2.24-1.08-3.88l-.18-.48v-.24a1.06,1.06,0,0,1-.18-.5c-.72-2-1.27-4.17-2-6.85-.37-1.23-.73-2.71-1.27-4.17v-.5l-.18-.24c-2.49-8.74-5.57-20.12-9.14-33.88-2.93-11.33-6.19-24.25-9.7-38.64-7.43-31.1-15.95-69.07-24.28-111.94-3.27-16.91-6.53-34.55-9.61-52.92-1.82-10.61-3.65-21.66-5.39-32.81,179.13,65.63,639.8,213.11,968.8,130.64,59.12-14.82,124.35-28.09,192.8-39.95q22.94-4,46.33-7.75c177.47-28.64,371.48-48.49,534.07-62.17h0l5.61-.47,5.5-.46,6.65-.55c4.61-.37,9.18-.76,13.73-1.12l1.78-.14,10.42-.84q19.15-1.56,37.58-3l8.24-.63,9-.7,12-.91,7.33-.54,12.92-1,6.27-.46,8.54-.62.69,0,13.75-1,4.31-.31.19,0h.11c36.67-2.62,69.6-4.84,97.77-6.72,4.94,5.75,9.69,11.62,14.24,17.67q3.45,4.71,6.66,9.57a211.49,211.49,0,0,1,16.7,30.16,191.34,191.34,0,0,1,8.58,23A187.59,187.59,0,0,1,1988.11,797.65Z"/><path class="cls-9" d="M1138.69,767.07c-46.43,25.18-146.56,89.64-208.08,204.11-.44.79-.86,1.59-1.29,2.4l-46.77-2.4-14.63-.75c1.41-3.82,66.65-99.21,224.44-195.61Q1115.3,770.83,1138.69,767.07Z"/><path class="cls-9" d="M966,970.59c1.49-4,77.36-115.34,264.8-216.06l14.75,11.12S1101.38,826.76,1024,973.58Z"/><path class="cls-9" d="M1101.52,970.59c1.49-4,77.36-115.34,264.8-216.06l14.75,11.12s-144.17,61.11-221.53,207.93Z"/><path class="cls-9" d="M1837.48,692.15s-262.63,25.78-426.64,188.73l-103.47-28.6c2.86-4,115.2-88.44,365.39-147.37h0c60-5,115.67-9.26,164.68-12.76Z"/><path class="cls-9" d="M1972.85,742.83c-118,27.47-306.83,90.43-448.06,228.35h-90.41l-66.44-18.55c4.21-6.28,184.28-151.59,588.21-240A211.49,211.49,0,0,1,1972.85,742.83Z"/><path class="cls-9" d="M1098,968.58l1.3-.34c-.52-2.32-1.82-49,12.84-76.25l-1.19-.63C1096.07,919,1097.46,966.66,1098,968.58Z"/><path class="cls-5" d="M1114.61,867s4.61,9.67,1.8,14S1111.28,873,1114.61,867Z"/><path class="cls-5" d="M1117.48,907.79s-4.61-9.67-1.8-14S1120.8,901.82,1117.48,907.79Z"/><path class="cls-5" d="M1105.37,869.93s8.55,6.47,8.05,11.61S1105.17,876.76,1105.37,869.93Z"/><path class="cls-5" d="M1126.72,904.84s-8.55-6.47-8-11.61S1126.92,898,1126.72,904.84Z"/><path class="cls-5" d="M1098.61,876.89s10.55,1.88,12.44,6.69S1101.54,883.07,1098.61,876.89Z"/><path class="cls-5" d="M1133.48,898.31s-10.56-1.88-12.45-6.69S1130.55,892.13,1133.48,898.31Z"/><path class="cls-5" d="M1096.43,893.85s8.45-6.59,13.29-4.78S1103,895.81,1096.43,893.85Z"/><path class="cls-5" d="M1136.45,885.67s-9.45,5-13.91,2.43S1130.34,882.62,1136.45,885.67Z"/><path class="cls-5" d="M1101.09,901.21s5.25-9.34,10.41-9.53S1107.88,900.49,1101.09,901.21Z"/><path class="cls-5" d="M1132.8,875.37s-5.25,9.34-10.41,9.54S1126,876.09,1132.8,875.37Z"/><path class="cls-5" d="M1108,906.72s.69-10.69,5.25-13.11S1113.82,903.13,1108,906.72Z"/><path class="cls-5" d="M1125.39,869.69s-.69,10.69-5.25,13.11S1119.58,873.28,1125.39,869.69Z"/><path class="cls-5" d="M1095.89,887s10-3.82,14.1-.68S1101.57,890.74,1095.89,887Z"/><path class="cls-10" d="M1123.5,887.6a7.46,7.46,0,1,0-7.46,7.46A7.46,7.46,0,0,0,1123.5,887.6Z"/><path class="cls-9" d="M1100.53,925.57s6.49-6.6,15.44-7.05,11.71,0,11.71,0-5.51,5.82-12.08,7.05S1100.53,925.57,1100.53,925.57Z"/><path class="cls-9" d="M1101.87,919.16c-1.13-1-2-9-8.92-11a65.59,65.59,0,0,0-11.86-2.41s6,10.46,10.39,12S1101.87,919.16,1101.87,919.16Z"/><path class="cls-9" d="M1062.9,968.58l1.53-.39c-.61-2.73-2.14-57.69,15.1-89.74l-1.39-.75C1060.67,910.18,1062.31,966.32,1062.9,968.58Z"/><path class="cls-5" d="M1082.48,849s5.43,11.39,2.13,16.49S1078.57,856,1082.48,849Z"/><path class="cls-5" d="M1085.87,897s-5.43-11.38-2.12-16.48S1089.78,890,1085.87,897Z"/><path class="cls-5" d="M1071.62,852.49s10.06,7.61,9.47,13.65S1071.38,860.53,1071.62,852.49Z"/><path class="cls-5" d="M1096.74,893.57s-10.06-7.61-9.48-13.66S1097,885.53,1096.74,893.57Z"/><path class="cls-5" d="M1063.66,860.68s12.42,2.21,14.64,7.87S1067.1,868,1063.66,860.68Z"/><path class="cls-5" d="M1104.69,885.88s-12.42-2.21-14.64-7.87S1101.25,878.61,1104.69,885.88Z"/><path class="cls-5" d="M1061.09,880.64s10-7.76,15.64-5.63S1068.8,882.94,1061.09,880.64Z"/><path class="cls-5" d="M1108.2,871s-11.13,5.93-16.38,2.86S1101,867.42,1108.2,871Z"/><path class="cls-5" d="M1066.58,889.3s6.18-11,12.25-11.22S1074.57,888.45,1066.58,889.3Z"/><path class="cls-5" d="M1103.9,858.88s-6.19,11-12.26,11.23S1095.9,859.73,1103.9,858.88Z"/><path class="cls-5" d="M1074.72,895.78s.81-12.58,6.18-15.43S1081.56,891.55,1074.72,895.78Z"/><path class="cls-5" d="M1095.18,852.2s-.81,12.58-6.19,15.43S1088.34,856.43,1095.18,852.2Z"/><path class="cls-5" d="M1060.45,872.52s11.78-4.5,16.61-.8S1067.15,877,1060.45,872.52Z"/><path class="cls-10" d="M1093,873.28a8.78,8.78,0,1,0-8.78,8.78A8.78,8.78,0,0,0,1093,873.28Z"/><path class="cls-9" d="M1063.46,940.13s7.64-7.77,18.17-8.3,13.78,0,13.78,0-6.48,6.85-14.21,8.3S1063.46,940.13,1063.46,940.13Z"/><path class="cls-9" d="M1065,932.59c-1.33-1.16-2.33-10.63-10.5-13a77.44,77.44,0,0,0-14-2.83s7.08,12.31,12.23,14.15S1065,932.59,1065,932.59Z"/><path class="cls-9" d="M1105.2,968.58l.92-.24c-.37-1.64-1.29-34.61,9.06-53.84l-.84-.45C1103.86,933.54,1104.85,967.22,1105.2,968.58Z"/><path class="cls-5" d="M1117,896.84s3.26,6.83,1.28,9.89S1114.61,901.05,1117,896.84Z"/><path class="cls-5" d="M1119,925.66s-3.25-6.84-1.27-9.9S1121.33,921.44,1119,925.66Z"/><path class="cls-5" d="M1110.43,898.92s6,4.57,5.69,8.2S1110.29,903.75,1110.43,898.92Z"/><path class="cls-5" d="M1125.5,923.57s-6-4.57-5.68-8.2S1125.64,918.74,1125.5,923.57Z"/><path class="cls-5" d="M1105.66,903.84s7.45,1.32,8.78,4.72S1107.72,908.2,1105.66,903.84Z"/><path class="cls-5" d="M1130.28,919s-7.45-1.33-8.79-4.72S1128.21,914.59,1130.28,919Z"/><path class="cls-5" d="M1104.12,915.81s6-4.65,9.38-3.37S1108.74,917.19,1104.12,915.81Z"/><path class="cls-5" d="M1132.38,910s-6.68,3.55-9.82,1.71S1128.06,907.88,1132.38,910Z"/><path class="cls-5" d="M1107.41,921s3.71-6.59,7.35-6.73S1112.21,920.5,1107.41,921Z"/><path class="cls-5" d="M1129.8,902.76s-3.71,6.6-7.35,6.74S1125,903.27,1129.8,902.76Z"/><path class="cls-5" d="M1112.29,924.9s.49-7.55,3.71-9.26S1116.4,922.36,1112.29,924.9Z"/><path class="cls-5" d="M1124.57,898.75s-.49,7.55-3.71,9.26S1120.46,901.29,1124.57,898.75Z"/><path class="cls-5" d="M1103.73,910.94s7.07-2.7,10-.48S1107.75,913.61,1103.73,910.94Z"/><path class="cls-10" d="M1123.24,911.4a5.27,5.27,0,1,0-5.27,5.26A5.27,5.27,0,0,0,1123.24,911.4Z"/><path class="cls-9" d="M1105.54,951.51s4.58-4.66,10.9-5a49.5,49.5,0,0,1,8.27,0s-3.89,4.11-8.53,5A38.94,38.94,0,0,1,1105.54,951.51Z"/><path class="cls-9" d="M1106.49,947c-.8-.7-1.41-6.38-6.3-7.81a46.22,46.22,0,0,0-8.38-1.69s4.25,7.38,7.34,8.49A24.63,24.63,0,0,0,1106.49,947Z"/><path class="cls-9" d="M1156.22,968.58l1.53-.39c-.62-2.73-2.14-57.69,15.1-89.74l-1.4-.75C1154,910.18,1155.63,966.32,1156.22,968.58Z"/><path class="cls-5" d="M1175.8,849s5.43,11.39,2.12,16.49S1171.89,856,1175.8,849Z"/><path class="cls-5" d="M1179.19,897s-5.43-11.38-2.13-16.48S1183.1,890,1179.19,897Z"/><path class="cls-5" d="M1164.93,852.49s10.06,7.61,9.48,13.65S1164.7,860.53,1164.93,852.49Z"/><path class="cls-5" d="M1190.05,893.57s-10.06-7.61-9.47-13.66S1190.29,885.53,1190.05,893.57Z"/><path class="cls-5" d="M1157,860.68s12.42,2.21,14.64,7.87S1160.42,868,1157,860.68Z"/><path class="cls-5" d="M1198,885.88s-12.42-2.21-14.64-7.87S1194.57,878.61,1198,885.88Z"/><path class="cls-5" d="M1154.41,880.64s9.95-7.76,15.64-5.63S1162.12,882.94,1154.41,880.64Z"/><path class="cls-5" d="M1201.51,871s-11.13,5.93-16.37,2.86S1194.32,867.42,1201.51,871Z"/><path class="cls-5" d="M1159.89,889.3s6.19-11,12.26-11.22S1167.89,888.45,1159.89,889.3Z"/><path class="cls-5" d="M1197.22,858.88s-6.19,11-12.26,11.23S1189.22,859.73,1197.22,858.88Z"/><path class="cls-5" d="M1168,895.78s.82-12.58,6.19-15.43S1174.87,891.55,1168,895.78Z"/><path class="cls-5" d="M1188.5,852.2s-.82,12.58-6.19,15.43S1181.66,856.43,1188.5,852.2Z"/><path class="cls-5" d="M1153.77,872.52s11.78-4.5,16.6-.8S1160.46,877,1153.77,872.52Z"/><circle class="cls-10" cx="1177.49" cy="873.28" r="8.78"/><path class="cls-9" d="M1159.24,918s7.64-7.77,18.17-8.3,13.77,0,13.77,0-6.48,6.85-14.21,8.3S1159.24,918,1159.24,918Z"/><path class="cls-9" d="M1160.82,910.43c-1.33-1.16-2.34-10.64-10.5-13a77,77,0,0,0-14-2.82s7.08,12.3,12.23,14.15S1160.82,910.43,1160.82,910.43Z"/><path class="cls-9" d="M1128,968.58l1.53-.43c-.62-2.95-2.14-62.41,15.1-97.08l-1.39-.81C1125.73,905.39,1127.37,966.13,1128,968.58Z"/><path class="cls-5" d="M1147.54,839.22s5.43,12.32,2.13,17.83S1143.63,846.82,1147.54,839.22Z"/><path class="cls-5" d="M1150.93,891.18s-5.43-12.32-2.12-17.83S1154.84,883.58,1150.93,891.18Z"/><path class="cls-5" d="M1136.68,843s10.06,8.23,9.47,14.77S1136.44,851.68,1136.68,843Z"/><path class="cls-5" d="M1161.8,887.42s-10.06-8.23-9.48-14.77S1162,878.72,1161.8,887.42Z"/><path class="cls-5" d="M1128.72,851.84s12.42,2.39,14.64,8.51S1132.16,859.7,1128.72,851.84Z"/><path class="cls-5" d="M1169.75,879.11s-12.42-2.4-14.64-8.52S1166.31,871.24,1169.75,879.11Z"/><path class="cls-5" d="M1126.15,873.43s9.95-8.39,15.64-6.08S1133.86,875.92,1126.15,873.43Z"/><path class="cls-5" d="M1173.26,863s-11.14,6.41-16.38,3.09S1166.06,859.13,1173.26,863Z"/><path class="cls-5" d="M1131.63,882.81s6.19-11.89,12.26-12.15S1139.63,881.89,1131.63,882.81Z"/><path class="cls-5" d="M1169,849.9s-6.19,11.89-12.26,12.14S1161,850.82,1169,849.9Z"/><path class="cls-5" d="M1139.78,889.82s.81-13.62,6.18-16.69S1146.62,885.24,1139.78,889.82Z"/><path class="cls-5" d="M1160.24,842.67s-.81,13.61-6.19,16.69S1153.4,847.24,1160.24,842.67Z"/><path class="cls-5" d="M1125.51,864.65s11.78-4.87,16.6-.87S1132.21,869.47,1125.51,864.65Z"/><path class="cls-10" d="M1158,865.47c0-5.24-3.94-9.5-8.78-9.5s-8.78,4.26-8.78,9.5,3.93,9.5,8.78,9.5S1158,870.72,1158,865.47Z"/><path class="cls-9" d="M1128.52,937.8s7.64-8.41,18.17-9,13.78,0,13.78,0-6.48,7.4-14.21,9S1128.52,937.8,1128.52,937.8Z"/><path class="cls-9" d="M1130.1,929.64c-1.33-1.25-2.33-11.5-10.5-14.07a71.93,71.93,0,0,0-14-3.05s7.08,13.31,12.23,15.31S1130.1,929.64,1130.1,929.64Z"/><path class="cls-9" d="M1164.73,968.58l1.08-.28c-.43-1.93-1.51-40.73,10.67-63.36l-1-.53C1163.16,927.34,1164.32,967,1164.73,968.58Z"/><path class="cls-5" d="M1178.56,884.15s3.84,8,1.5,11.64S1175.8,889.11,1178.56,884.15Z"/><path class="cls-5" d="M1181,918.07s-3.83-8-1.5-11.65S1183.71,913.1,1181,918.07Z"/><path class="cls-5" d="M1170.89,886.6s7.1,5.38,6.69,9.65S1170.72,892.28,1170.89,886.6Z"/><path class="cls-5" d="M1188.63,915.61s-7.11-5.37-6.69-9.64S1188.79,909.93,1188.63,915.61Z"/><path class="cls-5" d="M1165.27,892.39s8.77,1.56,10.34,5.55S1167.7,897.52,1165.27,892.39Z"/><path class="cls-5" d="M1194.24,910.18s-8.76-1.56-10.33-5.55S1191.81,905.05,1194.24,910.18Z"/><path class="cls-5" d="M1163.46,906.48s7-5.47,11-4S1168.9,908.11,1163.46,906.48Z"/><path class="cls-5" d="M1196.72,899.68s-7.86,4.19-11.56,2S1191.64,897.15,1196.72,899.68Z"/><path class="cls-5" d="M1167.33,912.6s4.37-7.76,8.65-7.93S1173,912,1167.33,912.6Z"/><path class="cls-5" d="M1193.68,891.12s-4.36,7.76-8.65,7.93S1188,891.72,1193.68,891.12Z"/><path class="cls-5" d="M1173.08,917.18s.57-8.89,4.37-10.9S1177.91,914.19,1173.08,917.18Z"/><path class="cls-5" d="M1187.53,886.4s-.58,8.89-4.37,10.89S1182.7,889.39,1187.53,886.4Z"/><path class="cls-5" d="M1163,900.75s8.32-3.18,11.72-.57S1167.73,903.89,1163,900.75Z"/><path class="cls-10" d="M1186,901.28a6.2,6.2,0,1,0-6.2,6.2A6.2,6.2,0,0,0,1186,901.28Z"/><path class="cls-9" d="M1165.13,948.49s5.39-5.49,12.83-5.86,9.73,0,9.73,0-4.58,4.84-10,5.86S1165.13,948.49,1165.13,948.49Z"/><path class="cls-9" d="M1166.25,943.17c-.94-.82-1.65-7.51-7.42-9.18a54.06,54.06,0,0,0-9.85-2s5,8.69,8.63,10A28.84,28.84,0,0,0,1166.25,943.17Z"/><path class="cls-9" d="M1204.26,968.58l.78-.2c-.31-1.39-1.09-29.33,7.68-45.62l-.71-.38C1203.13,938.89,1204,967.43,1204.26,968.58Z"/><path class="cls-5" d="M1214.22,907.79s2.76,5.79,1.08,8.38S1212.23,911.36,1214.22,907.79Z"/><path class="cls-5" d="M1215.94,932.21s-2.76-5.79-1.08-8.38S1217.93,928.64,1215.94,932.21Z"/><path class="cls-5" d="M1208.69,909.56s5.12,3.87,4.82,6.94S1208.57,913.65,1208.69,909.56Z"/><path class="cls-5" d="M1221.46,930.44s-5.11-3.87-4.81-6.94S1221.58,926.35,1221.46,930.44Z"/><path class="cls-5" d="M1204.65,913.72s6.31,1.13,7.44,4S1206.4,917.42,1204.65,913.72Z"/><path class="cls-5" d="M1225.51,926.53s-6.32-1.12-7.45-4S1223.76,922.84,1225.51,926.53Z"/><path class="cls-5" d="M1203.34,923.87s5.06-3.94,8-2.86S1207.26,925,1203.34,923.87Z"/><path class="cls-5" d="M1227.29,919s-5.66,3-8.32,1.46S1223.63,917.15,1227.29,919Z"/><path class="cls-5" d="M1206.13,928.28s3.14-5.59,6.23-5.71S1210.2,927.84,1206.13,928.28Z"/><path class="cls-5" d="M1225.11,912.81s-3.15,5.59-6.24,5.71S1221,913.24,1225.11,912.81Z"/><path class="cls-5" d="M1210.27,931.57s.41-6.4,3.14-7.84S1213.75,929.42,1210.27,931.57Z"/><path class="cls-5" d="M1220.67,909.41s-.41,6.4-3.14,7.84S1217.19,911.56,1220.67,909.41Z"/><path class="cls-5" d="M1203,919.74s6-2.29,8.44-.41S1206.42,922,1203,919.74Z"/><circle class="cls-10" cx="1215.08" cy="920.13" r="4.46"/><path class="cls-9" d="M1205.8,942.85a15.49,15.49,0,0,1,9.24-4.22,40.72,40.72,0,0,1,7,0s-3.3,3.48-7.23,4.22A33.29,33.29,0,0,1,1205.8,942.85Z"/><path class="cls-9" d="M1206.6,939c-.68-.59-1.19-5.4-5.34-6.61a39.34,39.34,0,0,0-7.09-1.43s3.59,6.25,6.21,7.19A20.51,20.51,0,0,0,1206.6,939Z"/><path class="cls-9" d="M1183.28,968.58l.92-.24c-.37-1.63-1.28-34.51,9-53.68l-.83-.45C1182,933.64,1182.93,967.23,1183.28,968.58Z"/><path class="cls-5" d="M1195,897s3.25,6.81,1.27,9.86S1192.66,901.25,1195,897Z"/><path class="cls-5" d="M1197,925.78s-3.24-6.81-1.27-9.86S1199.36,921.57,1197,925.78Z"/><path class="cls-5" d="M1188.5,899.12s6,4.55,5.67,8.17S1188.36,903.93,1188.5,899.12Z"/><path class="cls-5" d="M1203.53,923.7s-6-4.55-5.67-8.17S1203.67,918.89,1203.53,923.7Z"/><path class="cls-5" d="M1183.74,904s7.43,1.33,8.76,4.71S1185.8,908.37,1183.74,904Z"/><path class="cls-5" d="M1208.29,919.1s-7.43-1.32-8.76-4.71S1206.23,914.75,1208.29,919.1Z"/><path class="cls-5" d="M1182.2,916s6-4.64,9.36-3.36S1186.81,917.34,1182.2,916Z"/><path class="cls-5" d="M1210.38,910.2s-6.66,3.55-9.79,1.71S1206.08,908.05,1210.38,910.2Z"/><path class="cls-5" d="M1185.48,921.15s3.7-6.58,7.33-6.72S1190.27,920.64,1185.48,921.15Z"/><path class="cls-5" d="M1207.81,903s-3.7,6.57-7.33,6.71S1203,903.46,1207.81,903Z"/><path class="cls-5" d="M1190.35,925s.49-7.53,3.7-9.23S1194.44,922.49,1190.35,925Z"/><path class="cls-5" d="M1202.6,899s-.49,7.53-3.71,9.23S1198.5,901.48,1202.6,899Z"/><path class="cls-5" d="M1181.82,911.1s7-2.69,9.93-.47S1185.82,913.77,1181.82,911.1Z"/><path class="cls-10" d="M1201.26,911.56a5.25,5.25,0,1,0-5.25,5.25A5.25,5.25,0,0,0,1201.26,911.56Z"/><path class="cls-9" d="M1183.62,951.56s4.57-4.65,10.87-5a49.12,49.12,0,0,1,8.24,0s-3.88,4.1-8.5,5A39.18,39.18,0,0,1,1183.62,951.56Z"/><path class="cls-9" d="M1184.56,947.05c-.79-.7-1.39-6.36-6.28-7.78a45.86,45.86,0,0,0-8.35-1.69s4.23,7.36,7.32,8.46A24.09,24.09,0,0,0,1184.56,947.05Z"/><path class="cls-9" d="M1208.59,968.58l.55-.14c-.22-1-.77-20.71,5.42-32.22l-.5-.27C1207.79,947.61,1208.38,967.77,1208.59,968.58Z"/><path class="cls-5" d="M1215.62,925.66s2,4.08.76,5.91S1214.22,928.18,1215.62,925.66Z"/><path class="cls-5" d="M1216.84,942.9s-1.95-4.09-.77-5.92S1218.24,940.37,1216.84,942.9Z"/><path class="cls-5" d="M1211.72,926.9s3.61,2.73,3.4,4.91S1211.64,929.79,1211.72,926.9Z"/><path class="cls-5" d="M1220.74,941.65s-3.61-2.73-3.4-4.9S1220.82,938.76,1220.74,941.65Z"/><path class="cls-5" d="M1208.87,929.84s4.45.8,5.25,2.83S1210.1,932.45,1208.87,929.84Z"/><path class="cls-5" d="M1223.59,938.89s-4.45-.79-5.25-2.82S1222.36,936.28,1223.59,938.89Z"/><path class="cls-5" d="M1207.94,937s3.57-2.79,5.62-2S1210.71,937.84,1207.94,937Z"/><path class="cls-5" d="M1224.85,933.55s-4,2.13-5.88,1S1222.27,932.26,1224.85,933.55Z"/><path class="cls-5" d="M1209.91,940.12s2.22-4,4.4-4S1212.78,939.81,1209.91,940.12Z"/><path class="cls-5" d="M1223.31,929.2s-2.22,3.95-4.4,4S1220.44,929.5,1223.31,929.2Z"/><path class="cls-5" d="M1212.83,942.45s.29-4.52,2.22-5.54S1215.29,940.93,1212.83,942.45Z"/><path class="cls-5" d="M1220.18,926.8s-.29,4.52-2.22,5.54S1217.72,928.32,1220.18,926.8Z"/><path class="cls-5" d="M1207.71,934.09s4.23-1.61,6-.28S1210.12,935.69,1207.71,934.09Z"/><path class="cls-10" d="M1219.38,934.37a3.15,3.15,0,1,0-3.15,3.15A3.16,3.16,0,0,0,1219.38,934.37Z"/><path class="cls-9" d="M1208.79,958.37a10.94,10.94,0,0,1,6.53-3,28.78,28.78,0,0,1,4.94,0,11.09,11.09,0,0,1-5.1,3A23.36,23.36,0,0,1,1208.79,958.37Z"/><path class="cls-9" d="M1209.36,955.66c-.48-.42-.84-3.82-3.77-4.67a27.5,27.5,0,0,0-5-1s2.54,4.41,4.39,5.08A14.6,14.6,0,0,0,1209.36,955.66Z"/><path class="cls-9" d="M1239.11,968.58l.92-.24c-.37-1.63-1.28-34.51,9-53.68l-.83-.45C1237.78,933.64,1238.76,967.23,1239.11,968.58Z"/><path class="cls-5" d="M1250.83,897s3.25,6.81,1.27,9.86S1248.49,901.25,1250.83,897Z"/><path class="cls-5" d="M1252.86,925.78s-3.25-6.81-1.27-9.86S1255.2,921.57,1252.86,925.78Z"/><path class="cls-5" d="M1244.33,899.12s6,4.55,5.67,8.17S1244.19,903.93,1244.33,899.12Z"/><path class="cls-5" d="M1259.36,923.7s-6-4.55-5.67-8.17S1259.5,918.89,1259.36,923.7Z"/><path class="cls-5" d="M1239.57,904s7.43,1.33,8.76,4.71S1241.63,908.37,1239.57,904Z"/><path class="cls-5" d="M1264.12,919.1s-7.43-1.32-8.76-4.71S1262.06,914.75,1264.12,919.1Z"/><path class="cls-5" d="M1238,916s6-4.64,9.36-3.36S1242.64,917.34,1238,916Z"/><path class="cls-5" d="M1266.21,910.2s-6.65,3.55-9.79,1.71S1261.91,908.05,1266.21,910.2Z"/><path class="cls-5" d="M1241.31,921.15s3.7-6.58,7.34-6.72S1246.1,920.64,1241.31,921.15Z"/><path class="cls-5" d="M1263.64,903s-3.7,6.57-7.33,6.71S1258.86,903.46,1263.64,903Z"/><path class="cls-5" d="M1246.18,925s.49-7.53,3.7-9.23S1250.28,922.49,1246.18,925Z"/><path class="cls-5" d="M1258.43,899s-.49,7.53-3.7,9.23S1254.33,901.48,1258.43,899Z"/><path class="cls-5" d="M1237.65,911.1s7-2.69,9.93-.47S1241.66,913.77,1237.65,911.1Z"/><path class="cls-10" d="M1257.1,911.56a5.26,5.26,0,1,0-5.26,5.25A5.26,5.26,0,0,0,1257.1,911.56Z"/><path class="cls-9" d="M1240.92,938.3s4.57-4.65,10.87-5a49,49,0,0,1,8.24,0s-3.87,4.1-8.5,5A39.18,39.18,0,0,1,1240.92,938.3Z"/><path class="cls-9" d="M1241.87,933.79c-.8-.7-1.4-6.37-6.28-7.78a46,46,0,0,0-8.36-1.69s4.24,7.36,7.32,8.46A24.14,24.14,0,0,0,1241.87,933.79Z"/><path class="cls-9" d="M1222.21,968.58l.91-.26c-.37-1.76-1.28-37.34,9-58.08l-.84-.49C1220.87,930.77,1221.85,967.12,1222.21,968.58Z"/><path class="cls-5" d="M1233.92,891.18s3.25,7.37,1.27,10.67S1231.59,895.73,1233.92,891.18Z"/><path class="cls-5" d="M1236,922.27s-3.25-7.37-1.27-10.67S1238.29,917.72,1236,922.27Z"/><path class="cls-5" d="M1227.42,893.43s6,4.93,5.67,8.84S1227.28,898.64,1227.42,893.43Z"/><path class="cls-5" d="M1242.45,920s-6-4.92-5.67-8.84S1242.59,914.82,1242.45,920Z"/><path class="cls-5" d="M1222.66,898.73s7.43,1.44,8.76,5.1S1224.72,903.44,1222.66,898.73Z"/><path class="cls-5" d="M1247.21,915.05s-7.43-1.44-8.76-5.1S1245.15,910.34,1247.21,915.05Z"/><path class="cls-5" d="M1221.12,911.65s6-5,9.36-3.64S1225.74,913.14,1221.12,911.65Z"/><path class="cls-5" d="M1249.31,905.42s-6.66,3.84-9.8,1.85S1245,903.1,1249.31,905.42Z"/><path class="cls-5" d="M1224.41,917.26s3.7-7.11,7.33-7.26S1229.19,916.71,1224.41,917.26Z"/><path class="cls-5" d="M1246.74,897.57s-3.7,7.12-7.34,7.27S1242,898.12,1246.74,897.57Z"/><path class="cls-5" d="M1229.28,921.46s.48-8.15,3.7-10S1233.37,918.72,1229.28,921.46Z"/><path class="cls-5" d="M1241.52,893.24s-.49,8.15-3.7,10S1237.43,896,1241.52,893.24Z"/><path class="cls-5" d="M1220.74,906.4s7-2.92,9.94-.52S1224.75,909.28,1220.74,906.4Z"/><path class="cls-10" d="M1240.19,906.89a5.27,5.27,0,1,0-5.25,5.68A5.48,5.48,0,0,0,1240.19,906.89Z"/><path class="cls-9" d="M1222.54,950.16s4.57-5,10.88-5.37,8.24,0,8.24,0-3.88,4.44-8.51,5.37A35.88,35.88,0,0,1,1222.54,950.16Z"/><path class="cls-9" d="M1223.49,945.28c-.8-.75-1.4-6.88-6.28-8.41a42.69,42.69,0,0,0-8.35-1.83s4.23,8,7.31,9.16A22.57,22.57,0,0,0,1223.49,945.28Z"/><path class="cls-9" d="M1244.21,968.58l.65-.17c-.26-1.15-.91-24.37,6.37-37.91l-.58-.31C1243.27,943.91,1244,967.62,1244.21,968.58Z"/><path class="cls-5" d="M1252.48,918.07s2.3,4.8.9,7S1250.83,921,1252.48,918.07Z"/><path class="cls-5" d="M1253.91,938.36s-2.29-4.81-.89-7S1255.56,935.39,1253.91,938.36Z"/><path class="cls-5" d="M1247.89,919.53s4.25,3.22,4,5.77S1247.79,922.93,1247.89,919.53Z"/><path class="cls-5" d="M1258.5,936.89s-4.25-3.22-4-5.77S1258.6,933.49,1258.5,936.89Z"/><path class="cls-5" d="M1244.53,923s5.25.94,6.19,3.33S1246,926.06,1244.53,923Z"/><path class="cls-5" d="M1261.86,933.64s-5.24-.93-6.18-3.32S1260.41,930.57,1261.86,933.64Z"/><path class="cls-5" d="M1243.44,931.43s4.21-3.28,6.61-2.38S1246.7,932.4,1243.44,931.43Z"/><path class="cls-5" d="M1263.35,927.36s-4.71,2.5-6.92,1.21S1260.3,925.84,1263.35,927.36Z"/><path class="cls-5" d="M1245.76,935.09s2.61-4.65,5.18-4.75S1249.14,934.73,1245.76,935.09Z"/><path class="cls-5" d="M1261.53,922.24s-2.61,4.64-5.18,4.74S1258.15,922.6,1261.53,922.24Z"/><path class="cls-5" d="M1249.2,937.82s.34-5.31,2.61-6.51S1252.09,936,1249.2,937.82Z"/><path class="cls-5" d="M1257.85,919.41s-.35,5.32-2.62,6.52S1255,921.2,1257.85,919.41Z"/><path class="cls-5" d="M1243.18,928s5-1.9,7-.33S1246,929.88,1243.18,928Z"/><path class="cls-10" d="M1256.91,928.32a3.71,3.71,0,1,0-3.71,3.71A3.71,3.71,0,0,0,1256.91,928.32Z"/><path class="cls-9" d="M1244.45,956.56a12.84,12.84,0,0,1,7.67-3.5,33,33,0,0,1,5.82,0,13,13,0,0,1-6,3.5A27.51,27.51,0,0,1,1244.45,956.56Z"/><path class="cls-9" d="M1245.11,953.37c-.56-.49-1-4.49-4.43-5.49a32.53,32.53,0,0,0-5.9-1.19s3,5.2,5.17,6A17.27,17.27,0,0,0,1245.11,953.37Z"/><path class="cls-9" d="M1054,975.43l-1.3-.34c.52-2.32,1.82-49-12.83-76.25l1.18-.63C1055.85,925.8,1054.45,973.51,1054,975.43Z"/><path class="cls-5" d="M1037.31,873.83s-4.62,9.67-1.81,14S1040.63,879.8,1037.31,873.83Z"/><path class="cls-5" d="M1034.43,914.64s4.61-9.68,1.8-14S1031.11,908.67,1034.43,914.64Z"/><path class="cls-5" d="M1046.54,876.78s-8.55,6.46-8,11.6S1046.74,883.61,1046.54,876.78Z"/><path class="cls-5" d="M1025.19,911.68s8.55-6.46,8.06-11.6S1025,904.85,1025.19,911.68Z"/><path class="cls-5" d="M1053.3,883.74s-10.55,1.88-12.44,6.68S1050.38,889.92,1053.3,883.74Z"/><path class="cls-5" d="M1018.44,905.15s10.55-1.88,12.44-6.68S1021.36,899,1018.44,905.15Z"/><path class="cls-5" d="M1055.48,900.7s-8.45-6.59-13.29-4.78S1048.94,902.66,1055.48,900.7Z"/><path class="cls-5" d="M1015.46,892.52s9.46,5,13.91,2.43S1021.57,889.47,1015.46,892.52Z"/><path class="cls-5" d="M1050.82,908.06s-5.25-9.34-10.41-9.54S1044,907.34,1050.82,908.06Z"/><path class="cls-5" d="M1019.11,882.22s5.25,9.34,10.42,9.53S1025.91,882.94,1019.11,882.22Z"/><path class="cls-5" d="M1043.91,913.57s-.69-10.7-5.26-13.11S1038.09,910,1043.91,913.57Z"/><path class="cls-5" d="M1026.52,876.53s.69,10.7,5.25,13.11S1032.33,880.13,1026.52,876.53Z"/><path class="cls-5" d="M1056,893.8s-10-3.83-14.11-.68S1050.34,897.59,1056,893.8Z"/><path class="cls-10" d="M1028.41,894.45a7.46,7.46,0,1,1,7.46,7.46A7.46,7.46,0,0,1,1028.41,894.45Z"/><path class="cls-9" d="M1051.38,932.42s-6.49-6.6-15.44-7-11.7,0-11.7,0,5.5,5.82,12.07,7S1051.38,932.42,1051.38,932.42Z"/><path class="cls-9" d="M1050,926c1.13-1,2-9,8.92-11a66,66,0,0,1,11.86-2.4s-6,10.46-10.39,12S1050,926,1050,926Z"/><path class="cls-9" d="M1046.71,975.43l-.92-.24c.37-1.64,1.29-34.61-9.06-53.84l.84-.45C1048.05,940.38,1047.07,974.07,1046.71,975.43Z"/><path class="cls-5" d="M1035,903.68s-3.26,6.83-1.27,9.89S1037.31,907.9,1035,903.68Z"/><path class="cls-5" d="M1032.93,932.5s3.26-6.83,1.27-9.89S1030.58,928.29,1032.93,932.5Z"/><path class="cls-5" d="M1041.48,905.77s-6,4.56-5.68,8.19S1041.62,910.59,1041.48,905.77Z"/><path class="cls-5" d="M1026.41,930.42s6-4.57,5.68-8.2S1026.27,925.59,1026.41,930.42Z"/><path class="cls-5" d="M1046.25,910.68s-7.45,1.33-8.78,4.72S1044.19,915.05,1046.25,910.68Z"/><path class="cls-5" d="M1021.64,925.8s7.45-1.32,8.78-4.72S1023.7,921.44,1021.64,925.8Z"/><path class="cls-5" d="M1047.8,922.66s-6-4.65-9.39-3.38S1043.17,924,1047.8,922.66Z"/><path class="cls-5" d="M1019.53,916.88s6.68,3.56,9.83,1.72S1023.85,914.73,1019.53,916.88Z"/><path class="cls-5" d="M1044.51,927.86s-3.71-6.6-7.36-6.74S1039.71,927.35,1044.51,927.86Z"/><path class="cls-5" d="M1022.11,909.61s3.71,6.59,7.36,6.73S1026.91,910.12,1022.11,909.61Z"/><path class="cls-5" d="M1039.62,931.75s-.49-7.55-3.71-9.26S1035.52,929.21,1039.62,931.75Z"/><path class="cls-5" d="M1027.34,905.6s.49,7.55,3.71,9.25S1031.45,908.13,1027.34,905.6Z"/><path class="cls-5" d="M1048.18,917.79s-7.07-2.7-10-.48S1044.16,920.46,1048.18,917.79Z"/><path class="cls-10" d="M1028.68,918.24a5.27,5.27,0,1,1,5.27,5.27A5.26,5.26,0,0,1,1028.68,918.24Z"/><path class="cls-9" d="M1046.37,958.36s-4.58-4.66-10.9-5a47.79,47.79,0,0,0-8.26,0s3.89,4.11,8.52,5A38.94,38.94,0,0,0,1046.37,958.36Z"/><path class="cls-9" d="M1045.43,953.83c.8-.69,1.4-6.38,6.3-7.8a46.88,46.88,0,0,1,8.37-1.7s-4.24,7.39-7.34,8.5A24.42,24.42,0,0,1,1045.43,953.83Z"/><path class="cls-9" d="M995.7,975.43l-1.53-.4c.61-2.73,2.14-57.69-15.1-89.73l1.39-.75C997.93,917,996.28,973.17,995.7,975.43Z"/><path class="cls-5" d="M976.11,855.86s-5.43,11.38-2.12,16.48S980,862.89,976.11,855.86Z"/><path class="cls-5" d="M972.73,903.89s5.42-11.39,2.12-16.49S968.82,896.86,972.73,903.89Z"/><path class="cls-5" d="M987,859.34s-10.06,7.6-9.48,13.65S987.21,867.38,987,859.34Z"/><path class="cls-5" d="M961.86,900.41s10.06-7.6,9.47-13.65S961.62,892.37,961.86,900.41Z"/><path class="cls-5" d="M994.93,867.52s-12.42,2.22-14.64,7.87S991.49,874.8,994.93,867.52Z"/><path class="cls-5" d="M953.9,892.73s12.42-2.22,14.65-7.87S957.34,885.46,953.9,892.73Z"/><path class="cls-5" d="M997.5,887.48s-9.94-7.75-15.64-5.62S989.8,889.79,997.5,887.48Z"/><path class="cls-5" d="M950.4,877.86s11.13,5.93,16.37,2.85S957.6,874.27,950.4,877.86Z"/><path class="cls-5" d="M992,896.15s-6.19-11-12.26-11.23S984,895.3,992,896.15Z"/><path class="cls-5" d="M954.7,865.73s6.18,11,12.25,11.23S962.69,866.58,954.7,865.73Z"/><path class="cls-5" d="M983.88,902.63s-.81-12.59-6.19-15.43S977,898.4,983.88,902.63Z"/><path class="cls-5" d="M963.41,859.05s.82,12.58,6.19,15.42S970.26,863.28,963.41,859.05Z"/><path class="cls-5" d="M998.14,879.36s-11.78-4.5-16.6-.79S991.45,883.82,998.14,879.36Z"/><circle class="cls-10" cx="974.42" cy="880.13" r="8.78"/><path class="cls-9" d="M992.67,924.81S985,917,974.5,916.52s-13.77,0-13.77,0,6.48,6.85,14.21,8.29S992.67,924.81,992.67,924.81Z"/><path class="cls-9" d="M991.09,917.27c1.34-1.16,2.34-10.63,10.5-13a77.61,77.61,0,0,1,14-2.83s-7.07,12.31-12.23,14.16S991.09,917.27,991.09,917.27Z"/><path class="cls-9" d="M1024,975.43l-1.53-.43c.62-3,2.15-62.41-15.1-97.08l1.4-.81C1026.19,912.24,1024.54,973,1024,975.43Z"/><path class="cls-5" d="M1004.37,846.07s-5.43,12.31-2.12,17.83S1008.28,853.67,1004.37,846.07Z"/><path class="cls-5" d="M1001,898s5.43-12.32,2.13-17.84S997.07,890.42,1001,898Z"/><path class="cls-5" d="M1015.24,849.83s-10.06,8.23-9.48,14.77S1015.47,858.53,1015.24,849.83Z"/><path class="cls-5" d="M990.12,894.27s10.06-8.23,9.47-14.78S989.88,885.57,990.12,894.27Z"/><path class="cls-5" d="M1023.19,858.69s-12.42,2.39-14.64,8.51S1019.75,866.55,1023.19,858.69Z"/><path class="cls-5" d="M982.16,886s12.42-2.39,14.64-8.51S985.6,878.09,982.16,886Z"/><path class="cls-5" d="M1025.76,880.28s-10-8.39-15.64-6.09S1018.05,882.77,1025.76,880.28Z"/><path class="cls-5" d="M978.66,869.86s11.13,6.42,16.37,3.1S985.85,866,978.66,869.86Z"/><path class="cls-5" d="M1020.28,889.66s-6.19-11.9-12.26-12.15S1012.28,888.74,1020.28,889.66Z"/><path class="cls-5" d="M983,856.75s6.19,11.89,12.26,12.14S991,857.67,983,856.75Z"/><path class="cls-5" d="M1012.14,896.67s-.82-13.62-6.19-16.69S1005.3,892.09,1012.14,896.67Z"/><path class="cls-5" d="M991.67,849.51s.82,13.62,6.19,16.69S998.51,854.09,991.67,849.51Z"/><path class="cls-5" d="M1026.4,871.49s-11.78-4.86-16.6-.86S1019.71,876.32,1026.4,871.49Z"/><path class="cls-10" d="M993.9,872.32c0-5.25,3.93-9.5,8.78-9.5s8.78,4.25,8.78,9.5-3.94,9.5-8.78,9.5S993.9,877.56,993.9,872.32Z"/><path class="cls-9" d="M1023.39,944.65s-7.64-8.41-18.17-9-13.77,0-13.77,0,6.48,7.41,14.21,9S1023.39,944.65,1023.39,944.65Z"/><path class="cls-9" d="M1021.81,936.49c1.33-1.26,2.34-11.5,10.5-14.07a72.68,72.68,0,0,1,14-3.06s-7.08,13.32-12.23,15.32S1021.81,936.49,1021.81,936.49Z"/><path class="cls-9" d="M987.18,975.43l-1.08-.28c.43-1.93,1.51-40.74-10.66-63.36l1-.53C988.76,934.19,987.6,973.83,987.18,975.43Z"/><path class="cls-5" d="M973.35,891s-3.83,8-1.5,11.64S976.11,896,973.35,891Z"/><path class="cls-5" d="M971,924.91s3.83-8,1.5-11.64S968.2,920,971,924.91Z"/><path class="cls-5" d="M981,893.45s-7.1,5.37-6.69,9.65S981.19,899.13,981,893.45Z"/><path class="cls-5" d="M963.29,922.46s7.1-5.37,6.69-9.65S963.12,916.78,963.29,922.46Z"/><path class="cls-5" d="M986.64,899.23s-8.77,1.57-10.34,5.56S984.21,904.37,986.64,899.23Z"/><path class="cls-5" d="M957.67,917s8.77-1.56,10.34-5.56S960.1,911.9,957.67,917Z"/><path class="cls-5" d="M988.46,913.33s-7-5.48-11.05-4S983,915,988.46,913.33Z"/><path class="cls-5" d="M955.19,906.53s7.86,4.19,11.57,2S960.28,904,955.19,906.53Z"/><path class="cls-5" d="M984.58,919.45s-4.36-7.76-8.65-7.93S978.94,918.85,984.58,919.45Z"/><path class="cls-5" d="M958.23,898s4.36,7.76,8.65,7.93S963.88,898.57,958.23,898Z"/><path class="cls-5" d="M978.83,924s-.57-8.88-4.36-10.89S974,921,978.83,924Z"/><path class="cls-5" d="M964.38,893.25s.58,8.88,4.37,10.89S969.22,896.23,964.38,893.25Z"/><path class="cls-5" d="M988.91,907.59s-8.32-3.17-11.73-.56S984.18,910.74,988.91,907.59Z"/><path class="cls-10" d="M966,908.13a6.2,6.2,0,1,1,6.19,6.2A6.2,6.2,0,0,1,966,908.13Z"/><path class="cls-9" d="M986.78,955.34s-5.39-5.49-12.83-5.86-9.73,0-9.73,0,4.58,4.84,10,5.86S986.78,955.34,986.78,955.34Z"/><path class="cls-9" d="M985.67,950c.94-.82,1.64-7.5,7.41-9.18a54.65,54.65,0,0,1,9.86-2s-5,8.69-8.64,10A28.62,28.62,0,0,1,985.67,950Z"/><path class="cls-9" d="M947.65,975.43l-.78-.2c.32-1.39,1.09-29.33-7.67-45.62l.7-.38C948.79,945.73,948,974.28,947.65,975.43Z"/><path class="cls-5" d="M937.69,914.64s-2.75,5.79-1.07,8.38S939.68,918.21,937.69,914.64Z"/><path class="cls-5" d="M936,939.06s2.76-5.79,1.08-8.38S934,935.48,936,939.06Z"/><path class="cls-5" d="M943.22,916.41s-5.11,3.86-4.82,6.94S943.34,920.49,943.22,916.41Z"/><path class="cls-5" d="M930.45,937.29s5.11-3.87,4.82-6.94S930.33,933.2,930.45,937.29Z"/><path class="cls-5" d="M947.26,920.57s-6.31,1.12-7.44,4S945.51,924.27,947.26,920.57Z"/><path class="cls-5" d="M926.41,933.38s6.31-1.12,7.44-4S928.15,929.69,926.41,933.38Z"/><path class="cls-5" d="M948.57,930.72s-5.06-4-8-2.86S944.65,931.89,948.57,930.72Z"/><path class="cls-5" d="M924.62,925.82s5.66,3,8.33,1.45S928.28,924,924.62,925.82Z"/><path class="cls-5" d="M945.78,935.12s-3.14-5.59-6.23-5.7S941.72,934.69,945.78,935.12Z"/><path class="cls-5" d="M926.81,919.66s3.14,5.59,6.23,5.7S930.87,920.09,926.81,919.66Z"/><path class="cls-5" d="M941.64,938.42s-.41-6.4-3.14-7.85S938.17,936.27,941.64,938.42Z"/><path class="cls-5" d="M931.24,916.26s.41,6.4,3.14,7.84S934.72,918.41,931.24,916.26Z"/><path class="cls-5" d="M948.9,926.59s-6-2.29-8.45-.41S945.49,928.85,948.9,926.59Z"/><circle class="cls-10" cx="936.83" cy="926.98" r="4.46"/><path class="cls-9" d="M946.12,949.7a15.53,15.53,0,0,0-9.24-4.22,40.82,40.82,0,0,0-7,0s3.3,3.48,7.23,4.22A33.35,33.35,0,0,0,946.12,949.7Z"/><path class="cls-9" d="M945.31,945.86c.68-.59,1.19-5.4,5.34-6.61a40,40,0,0,1,7.1-1.44s-3.6,6.26-6.22,7.2A20.51,20.51,0,0,1,945.31,945.86Z"/><path class="cls-9" d="M968.63,975.43l-.91-.24c.36-1.63,1.28-34.51-9-53.69l.83-.44C970,940.48,969,974.07,968.63,975.43Z"/><path class="cls-5" d="M956.91,903.89s-3.24,6.81-1.27,9.86S959.25,908.09,956.91,903.89Z"/><path class="cls-5" d="M954.89,932.63s3.24-6.82,1.27-9.87S952.55,928.42,954.89,932.63Z"/><path class="cls-5" d="M963.41,906s-6,4.55-5.66,8.17S963.55,910.78,963.41,906Z"/><path class="cls-5" d="M948.39,930.55s6-4.56,5.66-8.17S948.25,925.74,948.39,930.55Z"/><path class="cls-5" d="M968.17,910.87s-7.43,1.32-8.76,4.71S966.11,915.22,968.17,910.87Z"/><path class="cls-5" d="M943.63,926s7.43-1.33,8.76-4.71S945.69,921.6,943.63,926Z"/><path class="cls-5" d="M969.71,922.81s-6-4.64-9.36-3.37S965.1,924.19,969.71,922.81Z"/><path class="cls-5" d="M941.53,917.05s6.66,3.55,9.8,1.71S945.84,914.9,941.53,917.05Z"/><path class="cls-5" d="M966.43,928s-3.7-6.58-7.33-6.72S961.65,927.49,966.43,928Z"/><path class="cls-5" d="M944.1,909.8s3.7,6.57,7.33,6.71S948.89,910.3,944.1,909.8Z"/><path class="cls-5" d="M961.56,931.87s-.49-7.53-3.7-9.23S957.47,929.34,961.56,931.87Z"/><path class="cls-5" d="M949.32,905.8s.48,7.53,3.7,9.23S953.41,908.33,949.32,905.8Z"/><path class="cls-5" d="M970.09,918s-7-2.69-9.93-.48S966.09,920.62,970.09,918Z"/><path class="cls-10" d="M950.65,918.41a5.25,5.25,0,1,1,5.25,5.25A5.25,5.25,0,0,1,950.65,918.41Z"/><path class="cls-9" d="M968.29,958.41s-4.57-4.65-10.87-5a49.12,49.12,0,0,0-8.24,0s3.88,4.1,8.5,5A39.16,39.16,0,0,0,968.29,958.41Z"/><path class="cls-9" d="M967.35,953.89c.8-.69,1.4-6.36,6.28-7.77a46.7,46.7,0,0,1,8.35-1.7s-4.23,7.37-7.31,8.47A24.37,24.37,0,0,1,967.35,953.89Z"/><path class="cls-9" d="M943.32,975.43l-.55-.14c.22-1,.77-20.71-5.42-32.22l.5-.27C944.12,954.46,943.53,974.62,943.32,975.43Z"/><path class="cls-5" d="M936.29,932.5s-1.95,4.09-.76,5.92S937.69,935,936.29,932.5Z"/><path class="cls-5" d="M935.08,949.75s1.94-4.09.76-5.92S933.67,947.22,935.08,949.75Z"/><path class="cls-5" d="M940.19,933.75s-3.61,2.73-3.4,4.9S940.28,936.64,940.19,933.75Z"/><path class="cls-5" d="M931.17,948.5s3.62-2.73,3.41-4.91S931.09,945.61,931.17,948.5Z"/><path class="cls-5" d="M943.05,936.69s-4.46.79-5.26,2.83S941.81,939.3,943.05,936.69Z"/><path class="cls-5" d="M928.32,945.74s4.46-.8,5.26-2.83S929.55,943.13,928.32,945.74Z"/><path class="cls-5" d="M944,943.86s-3.57-2.79-5.61-2S941.2,944.68,944,943.86Z"/><path class="cls-5" d="M927.06,940.4s4,2.13,5.88,1S929.64,939.11,927.06,940.4Z"/><path class="cls-5" d="M942,947s-2.22-4-4.4-4S939.13,946.66,942,947Z"/><path class="cls-5" d="M928.6,936.05s2.22,3.94,4.4,4S931.47,936.35,928.6,936.05Z"/><path class="cls-5" d="M939.08,949.29s-.29-4.52-2.22-5.54S936.62,947.77,939.08,949.29Z"/><path class="cls-5" d="M931.73,933.65s.29,4.51,2.22,5.54S934.19,935.17,931.73,933.65Z"/><path class="cls-5" d="M944.2,940.94s-4.23-1.62-6-.29S941.8,942.54,944.2,940.94Z"/><path class="cls-10" d="M932.53,941.21a3.15,3.15,0,1,1,3.15,3.16A3.15,3.15,0,0,1,932.53,941.21Z"/><path class="cls-9" d="M942.55,962.51c.48-.42.84-3.82,3.77-4.67a28.17,28.17,0,0,1,5-1s-2.54,4.42-4.39,5.08A14.41,14.41,0,0,1,942.55,962.51Z"/><path class="cls-9" d="M912.8,975.43l-.92-.24c.37-1.63,1.28-34.51-9-53.69l.83-.44C914.14,940.48,913.15,974.07,912.8,975.43Z"/><path class="cls-5" d="M901.08,903.89s-3.25,6.81-1.27,9.86S903.42,908.09,901.08,903.89Z"/><path class="cls-5" d="M899.06,932.63s3.24-6.82,1.27-9.87S896.72,928.42,899.06,932.63Z"/><path class="cls-5" d="M907.58,906s-6,4.55-5.66,8.17S907.72,910.78,907.58,906Z"/><path class="cls-5" d="M892.55,930.55s6-4.56,5.67-8.17S892.41,925.74,892.55,930.55Z"/><path class="cls-5" d="M912.34,910.87s-7.43,1.32-8.76,4.71S910.28,915.22,912.34,910.87Z"/><path class="cls-5" d="M887.8,926s7.42-1.33,8.75-4.71S889.85,921.6,887.8,926Z"/><path class="cls-5" d="M913.88,922.81s-6-4.64-9.36-3.37S909.27,924.19,913.88,922.81Z"/><path class="cls-5" d="M885.7,917.05s6.66,3.55,9.79,1.71S890,914.9,885.7,917.05Z"/><path class="cls-5" d="M910.6,928s-3.7-6.58-7.33-6.72S905.81,927.49,910.6,928Z"/><path class="cls-5" d="M888.27,909.8s3.7,6.57,7.33,6.71S893.05,910.3,888.27,909.8Z"/><path class="cls-5" d="M905.73,931.87s-.49-7.53-3.7-9.23S901.64,929.34,905.73,931.87Z"/><path class="cls-5" d="M893.49,905.8s.48,7.53,3.7,9.23S897.58,908.33,893.49,905.8Z"/><path class="cls-5" d="M914.26,918s-7-2.69-9.93-.48S910.26,920.62,914.26,918Z"/><path class="cls-10" d="M894.82,918.41a5.25,5.25,0,1,1,5.25,5.25A5.25,5.25,0,0,1,894.82,918.41Z"/><path class="cls-9" d="M911,945.14s-4.57-4.64-10.87-5a49.12,49.12,0,0,0-8.24,0s3.88,4.1,8.5,5A38.73,38.73,0,0,0,911,945.14Z"/><path class="cls-9" d="M910,940.63c.8-.69,1.4-6.36,6.29-7.78a47,47,0,0,1,8.35-1.69s-4.23,7.37-7.32,8.47A24.34,24.34,0,0,1,910,940.63Z"/><path class="cls-9" d="M929.71,975.43l-.92-.26c.37-1.77,1.28-37.34-9-58.08l.83-.49C931,937.62,930.06,974,929.71,975.43Z"/><path class="cls-5" d="M918,898s-3.25,7.37-1.27,10.67S920.33,902.58,918,898Z"/><path class="cls-5" d="M916,929.12s3.25-7.37,1.27-10.67S913.62,924.57,916,929.12Z"/><path class="cls-5" d="M924.49,900.28s-6,4.92-5.67,8.84S924.63,905.48,924.49,900.28Z"/><path class="cls-5" d="M909.46,926.87s6-4.92,5.67-8.84S909.32,921.66,909.46,926.87Z"/><path class="cls-5" d="M929.25,905.58s-7.43,1.43-8.76,5.09S927.19,910.29,929.25,905.58Z"/><path class="cls-5" d="M904.7,921.89s7.43-1.43,8.76-5.09S906.76,917.19,904.7,921.89Z"/><path class="cls-5" d="M930.79,918.5s-5.95-5-9.36-3.64S926.18,920,930.79,918.5Z"/><path class="cls-5" d="M902.61,912.27s6.65,3.84,9.79,1.85S906.91,909.94,902.61,912.27Z"/><path class="cls-5" d="M927.51,924.11s-3.7-7.11-7.34-7.27S922.72,923.56,927.51,924.11Z"/><path class="cls-5" d="M905.18,904.42s3.7,7.12,7.33,7.27S910,905,905.18,904.42Z"/><path class="cls-5" d="M922.64,928.3s-.49-8.14-3.7-10S918.54,925.57,922.64,928.3Z"/><path class="cls-5" d="M910.39,900.09s.49,8.15,3.7,10S914.48,902.83,910.39,900.09Z"/><path class="cls-5" d="M931.17,913.24s-7-2.91-9.93-.51S927.16,916.13,931.17,913.24Z"/><path class="cls-10" d="M911.72,913.74a5.27,5.27,0,1,1,5.26,5.68A5.49,5.49,0,0,1,911.72,913.74Z"/><path class="cls-9" d="M929.37,957s-4.57-5-10.87-5.37-8.24,0-8.24,0,3.87,4.43,8.5,5.37A35.88,35.88,0,0,0,929.37,957Z"/><path class="cls-9" d="M928.42,952.13c.8-.75,1.4-6.88,6.29-8.42a43.46,43.46,0,0,1,8.35-1.83s-4.24,8-7.32,9.16A22.41,22.41,0,0,1,928.42,952.13Z"/><path class="cls-9" d="M907.7,975.43l-.64-.17c.26-1.15.9-24.37-6.38-37.91l.59-.32C908.65,950.75,908,974.47,907.7,975.43Z"/><path class="cls-5" d="M899.43,924.91s-2.29,4.81-.9,7S901.08,927.88,899.43,924.91Z"/><path class="cls-5" d="M898,945.2s2.29-4.81.9-7S896.35,942.23,898,945.2Z"/><path class="cls-5" d="M904,926.38s-4.25,3.21-4,5.77S904.12,929.78,904,926.38Z"/><path class="cls-5" d="M893.41,943.74s4.25-3.22,4-5.77S893.31,940.34,893.41,943.74Z"/><path class="cls-5" d="M907.38,929.84s-5.24.94-6.18,3.33S905.93,932.91,907.38,929.84Z"/><path class="cls-5" d="M890.05,940.49s5.24-.94,6.18-3.33S891.5,937.42,890.05,940.49Z"/><path class="cls-5" d="M908.47,938.27s-4.21-3.27-6.61-2.37S905.21,939.25,908.47,938.27Z"/><path class="cls-5" d="M888.57,934.21s4.7,2.5,6.91,1.2S891.61,932.69,888.57,934.21Z"/><path class="cls-5" d="M906.15,941.93s-2.61-4.64-5.18-4.74S902.77,941.58,906.15,941.93Z"/><path class="cls-5" d="M890.38,929.08s2.62,4.65,5.18,4.75S893.76,929.44,890.38,929.08Z"/><path class="cls-5" d="M902.71,944.67s-.34-5.32-2.61-6.52S899.82,942.88,902.71,944.67Z"/><path class="cls-5" d="M894.07,926.26s.34,5.32,2.61,6.52S897,928.05,894.07,926.26Z"/><path class="cls-5" d="M908.74,934.84s-5-1.9-7-.33S905.91,936.73,908.74,934.84Z"/><path class="cls-10" d="M895,935.16a3.71,3.71,0,1,1,3.7,3.71A3.7,3.7,0,0,1,895,935.16Z"/><path class="cls-9" d="M907.47,963.41a12.93,12.93,0,0,0-7.68-3.51,34.53,34.53,0,0,0-5.82,0s2.74,2.9,6,3.51A27.59,27.59,0,0,0,907.47,963.41Z"/><path class="cls-9" d="M906.8,960.22c.56-.49,1-4.49,4.43-5.49a32.53,32.53,0,0,1,5.9-1.19s-3,5.19-5.17,6A17.07,17.07,0,0,1,906.8,960.22Z"/><path class="cls-11" d="M69.84,618.13V972.45H-8.32c0-.1-.08-.23-.12-.35l-.09-.23c-.26-.68-.6-1.6-1-2.77l-.17-.34v-.17a.67.67,0,0,1-.18-.36,49.67,49.67,0,0,1-1.92-4.89c-.35-.88-.7-1.93-1.22-3V960l-.18-.18c-2.4-6.23-5.37-14.35-8.81-24.17-.3-.89-.62-1.79-.94-2.7-2.58-7.41-5.41-15.71-8.42-24.86-1.39-4.29-2.82-8.78-4.28-13.44-6.07-19.38-12.67-41.76-19.14-66.43-3.15-12.06-6.3-24.64-9.27-37.75-1.75-7.57-3.51-15.45-5.2-23.41-.49-2.33-1-4.67-1.44-7-3.09-14.91-6-30.26-8.62-46-3.46-20.6-6.42-41.78-8.68-63.28Q-89.72,635-90.86,619c0-.27,0-.56-.06-.84Z"/><polygon class="cls-12" points="5.6 470.93 88.41 641.39 339.96 641.39 208.81 471.56 5.6 470.93"/><polygon class="cls-13" points="330.04 641.39 322.56 631.71 198.89 471.56 -4.32 470.93 69.84 623.61 69.84 972.43 322.56 972.43 322.56 641.39 330.04 641.39"/><path class="cls-14" d="M165.18,556.16h69.22a0,0,0,0,1,0,0v83.63A31.44,31.44,0,0,1,203,671.23h-5.29a32.5,32.5,0,0,1-32.5-32.5V556.16A0,0,0,0,1,165.18,556.16Z" transform="translate(399.59 1227.39) rotate(-180)"/><path class="cls-12" d="M209.48,470.93l-.56.76-4.9,6.52L85.73,635.89l-11.21,15H-88Q-89.72,635-90.86,619c0-.27,0-.56-.06-.84s0-.57-.07-.86c-1-15.06-1.68-30.22-1.87-45.37L-14.93,471h33l115.39,0Z"/><polygon class="cls-12" points="226.31 689 285.26 810.36 464.36 810.36 370.98 689.44 226.31 689"/><polygon class="cls-13" points="458.99 810.36 365.62 689.44 220.94 689 279.89 810.36 280.28 810.36 280.28 972.1 458.99 972.45 458.99 810.36 458.99 810.36"/><rect class="cls-11" x="128.96" y="810.35" width="151.33" height="161.74"/><polygon class="cls-12" points="112.33 817.53 274.89 817.53 370.99 689.44 322.56 689.45 211.21 689.47 112.33 817.53"/><path class="cls-14" d="M333.34,837.3V972.45h75.29V838.54a38.26,38.26,0,0,0-38.27-38.26,37,37,0,0,0-37,37Z"/><path class="cls-14" d="M379.43,756.81a8.45,8.45,0,1,0-8.45,8.45A8.45,8.45,0,0,0,379.43,756.81Z"/><polygon class="cls-15" points="112.33 817.53 143.18 817.53 322.56 689.45 211.21 689.47 112.33 817.53"/><path class="cls-7" d="M1158.32,442.9s10.89-26.22,36.94-23.31c0,0,37.83-43.71,78.16-5.83,0,0,42.88-9.38,74.63,8.13,21.17,11.67,28.16,23.92,28.16,23.92Z"/><path class="cls-7" d="M535.09,505.47S544,484,565.3,486.42c0,0,30.93-35.74,63.91-4.77,0,0,35-7.67,61,6.65,17.31,9.54,23,19.56,23,19.56Z"/><path class="cls-9" d="M1915.3,845.62a279.26,279.26,0,0,1-5.69,34.7l-.18.76c-61.44,22.26-124.78,51.79-181.17,90.79H1575.79C1597.89,957.65,1705.59,898,1915.3,845.62Z"/><path class="cls-16" d="M1576.63,813.17s117-10.26,148.81,0,47.71,58,43.17,92.8-15.15,64.37-35.6,63.61-165.08,0-165.08,0Z"/><path class="cls-16" d="M1600.53,811.38s24.76-4.61,41.61-6.32c0,0-13.25,2.72-14.89,4.1,0,0,36-5.42,49.09-4.1s31.12,3.55,31.12,3.55l20-1.34s-16.66,2-15.78,2.27,16.29,2.15,21.21,5.3c0,0,15.27,4.8,18.55,7.7,0,0-12.24-6.18-17-5.8,0,0,27.75,19.24,27.82,37.57s-119.32-27.6-119.32-27.6Z"/><path class="cls-5" d="M1593.37,812.25s-46.57-3.54-76.1,33.94-5.68,124.28,32.93,124.61,86.19-5.6,96.48-56S1635.39,813.52,1593.37,812.25Z"/><path class="cls-5" d="M1498,887s16.66-19.19,18.42-24.49l2.53,5.3Z"/><path class="cls-5" d="M1510,858.64s2.11-13.76,8.17-18.81c0,0-5.51,9.22-4.08,16.92S1510,858.64,1510,858.64Z"/><path class="cls-5" d="M1518.2,956c.3.74-9-25.18-5.93-30.1H1514S1515.23,948.75,1518.2,956Z"/><path class="cls-5" d="M1510.75,922.25s-6.94-2.27-10.85,0c0,0,6.43-1.8,10.35,2S1510.75,922.25,1510.75,922.25Z"/><path class="cls-16" d="M1574.94,969.49c-10.71,0-23.6-1.82-34.6-8.55-11.89-7.28-19.66-19-23.09-34.89-5.84-27-3-49.17,8.52-65.87,10.74-15.61,28.89-25.78,52.46-29.4,15.92-2.44,29.7,2.7,39.85,14.87,14.67,17.6,18.88,47.32,10.25,72.27-6.1,17.64-22.4,28.53-43.59,29.15l-1.81,0c-21.35,0-40.59-10.91-47.2-27-6.73-16.35-6.38-32.34,1-45,7.48-12.89,21.61-21.27,39.79-23.6,16.45-2.12,25.33,5.54,29.88,12.34,8.77,13.11,8.75,34.42,2.87,44.71-5.66,9.91-21.35,17.55-35,17.08-9.83-.35-17.33-4.9-21.13-12.81-4.88-10.16-4.56-20.67.88-28.81,4.38-6.55,11.45-10.55,18-10.2,7.53.41,10.75,6.71,11.21,12,.4,4.64-1.18,9.8-5,10.69-7.08,1.65-9.6-2.21-9.7-2.38,0,0-3.83-6.31.93-7.22,5.46-1,4,3.19,4,3.19s-1.34,5.84,4.31,4.52c2.33-.55,3.86-4.34,3.49-8.63-.42-4.7-3.1-9.85-9.38-10.19-5.9-.34-12.29,3.34-16.29,9.33-5,7.56-5.31,17.36-.74,26.89,4.44,9.26,13,11.47,19.44,11.7,13,.45,27.86-6.76,33.2-16.1,5-8.66,6.28-29.08-2.8-42.66-6.08-9.09-15.77-13.07-28-11.49-17.57,2.25-31.19,10.3-38.36,22.65-7.06,12.15-7.37,27.53-.87,43.31s25.9,26.33,47.15,25.72c20.36-.59,36-11,41.81-27.83,8.42-24.35,4.35-53.29-9.91-70.39-6.75-8.1-18.84-17.14-38-14.19-23,3.53-40.72,13.42-51.16,28.57-11.17,16.24-13.94,37.89-8.22,64.36,3.31,15.33,10.78,26.65,22.21,33.64,23.08,14.12,59.48,5.57,59.8,5.49L1597,967A96.5,96.5,0,0,1,1574.94,969.49Z"/><path class="cls-16" d="M1757.63,758.83s157.33-13.79,200.1,0,64.15,77.95,58,124.79-20.37,86.55-47.86,85.53-222,0-222,0Z"/><path class="cls-16" d="M1789.76,756.43s33.3-6.21,56-8.5c0,0-17.82,3.65-20,5.52,0,0,48.37-7.3,66-5.52s41.83,4.77,41.83,4.77l26.9-1.8s-22.4,2.72-21.21,3.06,21.89,2.88,28.51,7.13c0,0,20.54,6.44,25,10.35,0,0-16.46-8.32-22.91-7.81,0,0,37.3,25.88,37.4,50.53S1846.74,777,1846.74,777Z"/><path class="cls-5" d="M1780.14,757.6s-62.63-4.76-102.34,45.64-7.63,167.11,44.3,167.56,115.89-7.53,129.73-75.33S1836.65,759.3,1780.14,757.6Z"/><path class="cls-5" d="M1651.91,858.16s22.4-25.79,24.77-32.92l3.4,7.13Z"/><path class="cls-5" d="M1668.08,820s2.83-18.49,11-25.28c0,0-7.4,12.4-5.49,22.74S1668.08,820,1668.08,820Z"/><path class="cls-5" d="M1679.06,950.82c.41,1-12-33.85-8-40.47l2.37,0S1675.07,941.15,1679.06,950.82Z"/><path class="cls-5" d="M1669.05,905.51s-9.34-3-14.6,0c0,0,8.65-2.42,13.92,2.72S1669.05,905.51,1669.05,905.51Z"/><path class="cls-16" d="M1755.36,969c-14.4,0-31.73-2.44-46.53-11.5-16-9.79-26.44-25.57-31-46.91-7.85-36.32-4-66.12,11.46-88.57,14.45-21,38.84-34.66,70.55-39.53,21.39-3.29,39.92,3.63,53.57,20,19.73,23.65,25.4,63.61,13.79,97.17-8.21,23.72-30.12,38.37-58.61,39.19l-2.44,0c-28.7,0-54.58-14.67-63.46-36.24-9.06-22-8.59-43.48,1.32-60.55,10.06-17.33,29.06-28.6,53.51-31.74,22.12-2.85,34.06,7.46,40.18,16.6,11.79,17.64,11.76,46.28,3.86,60.12-7.62,13.32-28.71,23.61-47,23-13.21-.48-23.3-6.59-28.4-17.22-6.56-13.67-6.13-27.79,1.18-38.74,5.89-8.82,15.4-14.19,24.22-13.72,10.14.55,14.46,9,15.08,16.1.54,6.24-1.58,13.18-6.7,14.37-9.53,2.22-12.91-3-13-3.2,0,0-5.15-8.49,1.25-9.71,7.34-1.4,5.41,4.29,5.41,4.29.1.16-1.81,7.85,5.79,6.07,3.13-.73,5.19-5.82,4.69-11.59-.56-6.33-4.16-13.25-12.61-13.71-7.93-.45-16.52,4.49-21.9,12.55-6.79,10.16-7.15,23.34-1,36.16,6,12.44,17.51,15.42,26.14,15.73,17.43.6,37.46-9.09,44.64-21.65,6.66-11.65,8.45-39.11-3.76-57.36-8.18-12.23-21.2-17.58-37.67-15.46-23.62,3-41.93,13.85-51.58,30.46-9.49,16.34-9.9,37-1.16,58.24s34.82,35.41,63.4,34.58c27.37-.79,48.38-14.78,56.21-37.42,11.33-32.74,5.85-71.66-13.32-94.65-9.08-10.89-25.33-23-51.17-19.08-31,4.75-54.76,18-68.78,38.42-15,21.84-18.75,51-11.06,86.54,4.45,20.61,14.5,35.83,29.86,45.23,31,19,80,7.49,80.41,7.38l-5.54,3A129.34,129.34,0,0,1,1755.36,969Z"/><path class="cls-16" d="M673.83,670.31s-26.2-5.68-33.69-4.27-12.47,11.75-12.44,19.77,1.58,15,6.24,15.43S671.31,706,671.31,706Z"/><path class="cls-16" d="M668.47,669.22s-5.47-1.76-9.24-2.63a20.5,20.5,0,0,1,3.26,1.36s-8-2.26-11-2.34-7.15-.09-7.15-.09l-4.49-.87s3.71.93,3.51,1-3.75,0-5,.59a21.35,21.35,0,0,0-4.42,1.21s2.95-1,4-.82c0,0-6.84,3.56-7.38,7.71s27.81-2.83,27.81-2.83Z"/><path class="cls-5" d="M670.07,669.62s10.64.53,16.25,9.87-2.27,28.3-11,27.27-19.35-3.74-20.24-15.45S660.52,668.7,670.07,669.62Z"/><path class="cls-5" d="M689.51,689.29s-3.22-4.82-3.47-6.07l-.72,1.12Z"/><path class="cls-5" d="M687.61,682.51s-.09-3.17-1.31-4.49a6.74,6.74,0,0,1,.44,4C686.19,683.67,687.61,682.51,687.61,682.51Z"/><path class="cls-5" d="M683,704.31c-.09.16,2.76-5.44,2.21-6.64l-.4,0S683.84,702.77,683,704.31Z"/><path class="cls-5" d="M685.62,696.9a3.72,3.72,0,0,1,2.45.31,2.68,2.68,0,0,0-2.4.16C684.68,698.12,685.62,696.9,685.62,696.9Z"/><path class="cls-16" d="M669.73,705.75a15.17,15.17,0,0,0,8.08-.94,11.77,11.77,0,0,0,6.23-7.24c2.09-6,2.08-11.05,0-15.16-2-3.84-5.8-6.66-11-8.16a9.45,9.45,0,0,0-9.45,2.22c-3.82,3.57-5.63,10.17-4.39,16.07.88,4.17,4.25,7.11,9,7.85l.41.06c4.84.61,9.51-1.31,11.46-4.75s2.38-7.14,1.07-10.22-4.28-5.44-8.33-6.49c-3.67-1-5.9.53-7.12,1.94-2.36,2.72-3,7.54-1.93,10s4.33,4.59,7.42,4.87a5.24,5.24,0,0,0,5.15-2.29,6.52,6.52,0,0,0,.63-6.55,4.89,4.89,0,0,0-3.79-2.83,2.78,2.78,0,0,0-2.88,2.39c-.22,1,0,2.25.82,2.56,1.56.58,2.24-.22,2.27-.26s1-1.32,0-1.66c-1.21-.39-1,.61-1,.61s.14,1.36-1.1.9c-.51-.19-.75-1.09-.54-2.06a2.3,2.3,0,0,1,2.41-2,4.39,4.39,0,0,1,3.42,2.58,6.08,6.08,0,0,1-.6,6.11,4.83,4.83,0,0,1-4.74,2.09c-2.95-.27-6.11-2.33-7-4.6-.88-2.1-.59-6.77,1.85-9.58a6.24,6.24,0,0,1,6.68-1.8c3.91,1,6.76,3.23,8,6.23s.88,6.45-1,9.83S673,700.7,668.22,700c-4.59-.71-7.83-3.52-8.67-7.5-1.2-5.75.55-12.19,4.27-15.65a9,9,0,0,1,9-2.12c5.11,1.46,8.84,4.2,10.76,7.94,2.07,4,2.07,9,0,14.8a11.34,11.34,0,0,1-6,7c-5.63,2.54-13.63-.44-13.7-.47l.87.62A21.89,21.89,0,0,0,669.73,705.75Z"/><path class="cls-16" d="M634.41,652.81s-35.23-7.63-45.31-5.74-16.76,15.81-16.72,26.59,2.13,20.18,8.38,20.74S631,700.77,631,700.77Z"/><path class="cls-16" d="M627.2,651.35s-7.36-2.36-12.42-3.53c0,0,3.93,1.33,4.37,1.82,0,0-10.74-3-14.79-3.14s-9.61-.12-9.61-.12l-6-1.18s5,1.26,4.72,1.3-5,0-6.66.79c0,0-4.83.88-5.95,1.63,0,0,4-1.41,5.42-1.11,0,0-9.19,4.79-9.92,10.37s37.39-3.8,37.39-3.8Z"/><path class="cls-5" d="M629.35,651.89s14.31.72,21.86,13.27-3.07,38.05-14.84,36.67-26-5-27.21-20.78S616.5,650.65,629.35,651.89Z"/><path class="cls-5" d="M655.5,678.34s-4.34-6.49-4.67-8.17l-1,1.52Z"/><path class="cls-5" d="M652.93,669.22s-.11-4.26-1.76-6c0,0,1.32,3,.59,5.31S652.93,669.22,652.93,669.22Z"/><path class="cls-5" d="M646.69,698.54c-.12.21,3.7-7.32,3-8.94l-.54-.06S647.87,696.46,646.69,698.54Z"/><path class="cls-5" d="M650.26,688.56s2.2-.42,3.3.42a3.62,3.62,0,0,0-3.23.22C649,690.21,650.26,688.56,650.26,688.56Z"/><path class="cls-16" d="M628.89,700.47a20.45,20.45,0,0,0,10.87-1.27c3.9-1.76,6.72-5,8.37-9.73,2.82-8,2.8-14.86,0-20.38-2.67-5.17-7.8-9-14.84-11a12.68,12.68,0,0,0-12.7,3c-5.15,4.79-7.58,13.68-5.91,21.61,1.17,5.61,5.71,9.55,12.14,10.56l.55.07c6.5.83,12.78-1.75,15.41-6.38s3.2-9.6,1.44-13.75-5.76-7.31-11.2-8.72c-4.93-1.28-7.93.71-9.58,2.6-3.17,3.66-4,10.15-2.6,13.51s5.83,6.16,10,6.55a7.06,7.06,0,0,0,6.92-3.09,8.77,8.77,0,0,0,.85-8.8,6.55,6.55,0,0,0-5.09-3.8,3.72,3.72,0,0,0-3.88,3.21c-.3,1.39,0,3,1.11,3.44,2.09.78,3-.3,3-.35s1.41-1.77,0-2.23c-1.62-.53-1.35.81-1.35.81s.19,1.83-1.48,1.21c-.69-.25-1-1.46-.73-2.76a3.11,3.11,0,0,1,3.25-2.74,6,6,0,0,1,4.59,3.47,8.19,8.19,0,0,1-.81,8.22,6.47,6.47,0,0,1-6.37,2.81c-4-.37-8.22-3.13-9.48-6.18-1.18-2.83-.8-9.1,2.49-12.88,2.21-2.54,5.31-3.37,9-2.42,5.26,1.36,9.09,4.34,10.8,8.37s1.18,8.67-1.41,13.22-8.9,7-15.34,6c-6.18-1-10.53-4.73-11.66-10.08-1.62-7.74.73-16.39,5.73-21.05a12.11,12.11,0,0,1,12.14-2.85c6.87,2,11.88,5.65,14.47,10.67,2.77,5.38,2.78,12.08,0,19.91-1.6,4.54-4.31,7.7-8.06,9.39-7.57,3.41-18.32-.6-18.42-.64l1.17.84A29.9,29.9,0,0,0,628.89,700.47Z"/><path class="cls-17" d="M599.42,906.33s-18.69-10.32-42.82,2-1,71.35,18,73.69,30.47-7.16,37.4-6.94,23.34,1.2,35.28-5.72,25.91-64.65-5.39-74.59C621.78,888.37,599.42,906.33,599.42,906.33Z"/><path class="cls-18" d="M603.25,885.35s-6.81,19.06-5.41,22.28,5.7,1.11,6.87-1.15,1.1-15.12,1.54-17.26S604,883.3,603.25,885.35Z"/><path class="cls-19" d="M618.76,979.08l-11.81,2a21.47,21.47,0,0,1-24.65-17.59L577,931.67A21.47,21.47,0,0,1,594.58,907l11.81-2a21.49,21.49,0,0,1,24.66,17.6l5.31,31.78A21.49,21.49,0,0,1,618.76,979.08Z"/><path class="cls-8" d="M199.8,972.1H-8.44l-.09-.23c-.26-.68-.6-1.6-1-2.77l-.17-.34v-.17a.67.67,0,0,1-.18-.36,49.67,49.67,0,0,1-1.92-4.89c-.35-.88-.7-1.93-1.22-3V960l-.18-.18c-2.4-6.23-5.37-14.35-8.81-24.17-.3-.89-.62-1.79-.94-2.7-2.58-7.41-5.41-15.71-8.42-24.86-1.39-4.29-2.82-8.78-4.28-13.44,20.58-5.73,47.48-9.68,71.44-1.9a90.35,90.35,0,0,1,34.09,19.87c16.49,15,23.3,29.82,42.49,24.05A69.41,69.41,0,0,1,129,934.14C159.85,932.75,202.57,945.79,199.8,972.1Z"/><path class="cls-20" d="M657.32,950s-.9-5.66-7.72-5-8.42,14.61,2,18.3C663.63,967.52,671.24,951.55,657.32,950Z"/><path class="cls-21" d="M663.9,947.45s-5.47.65-7.12,2.88c0,0,3.08-2.13,6-2C662.78,948.31,663.87,948.07,663.9,947.45Z"/><path class="cls-20" d="M674.83,949.7s-5.29-2.21-8.34,3.92,8,14.85,16.6,8C693.07,953.58,683.5,938.7,674.83,949.7Z"/><path class="cls-21" d="M676.15,942.79s-2.33,5-1.3,7.56c0,0-.19-3.73,1.44-6.16C676.29,944.19,676.66,943.14,676.15,942.79Z"/><path class="cls-22" d="M692,934.49s-5.29-2.22-8.33,3.91,8,14.85,16.59,8C710.19,938.36,700.62,923.48,692,934.49Z"/><path class="cls-21" d="M693.27,927.57s-2.32,5-1.29,7.56c0,0-.2-3.73,1.43-6.16C693.41,929,693.78,927.92,693.27,927.57Z"/><path class="cls-20" d="M679.19,919.45s-5.28-2.21-8.33,3.92,8,14.85,16.6,8C697.44,923.32,687.87,908.45,679.19,919.45Z"/><path class="cls-21" d="M680.51,912.54s-2.32,5-1.29,7.56c0,0-.19-3.74,1.43-6.16C680.65,913.94,681,912.88,680.51,912.54Z"/><path class="cls-22" d="M717.11,929.55s-1.15-5.61-7.94-4.67-7.74,15,2.81,18.19C724.22,946.79,731.09,930.5,717.11,929.55Z"/><path class="cls-21" d="M723.57,926.73s-5.43.9-7,3.21c0,0,3-2.27,5.9-2.3C722.49,927.64,723.57,927.35,723.57,926.73Z"/><path class="cls-20" d="M745.18,944.24s-1.16-5.62-7.94-4.67-7.75,15,2.81,18.19C752.28,961.48,759.16,945.18,745.18,944.24Z"/><path class="cls-21" d="M751.63,941.42s-5.43.9-7,3.21c0,0,3-2.27,5.89-2.3C750.55,942.33,751.63,942,751.63,941.42Z"/><path class="cls-22" d="M719.48,945.62s-5.08-2.66-8.64,3.19,6.68,15.48,15.85,9.34C737.32,951,729.06,935.4,719.48,945.62Z"/><path class="cls-21" d="M721.83,938.84s-2.74,4.77-1.94,7.43c0,0,.13-3.74,2-6C721.85,940.25,722.31,939.23,721.83,938.84Z"/><path class="cls-23" d="M664.14,936s-5.28-2.22-8.33,3.92,8,14.85,16.6,8C682.39,939.82,672.82,924.94,664.14,936Z"/><path class="cls-21" d="M665.46,929s-2.32,5-1.29,7.57c0,0-.19-3.74,1.43-6.17C665.6,930.43,666,929.38,665.46,929Z"/><path class="cls-20" d="M697.09,950.69s-5.28-2.22-8.33,3.92,8,14.84,16.6,7.95C715.34,954.56,705.77,939.68,697.09,950.69Z"/><path class="cls-21" d="M698.41,943.77s-2.32,5-1.29,7.56c0,0-.19-3.73,1.44-6.16C698.56,945.17,698.93,944.12,698.41,943.77Z"/><path class="cls-24" d="M754.28,946.32,630,946.63a2.81,2.81,0,0,1-2.8-2.79l0-10A2.8,2.8,0,0,1,630,931l124.27-.3a2.79,2.79,0,0,1,2.8,2.78l0,10A2.8,2.8,0,0,1,754.28,946.32Z"/><rect class="cls-24" x="639.55" y="930.99" width="4.09" height="37.87" rx="0.77" transform="translate(-2.34 1.59) rotate(-0.14)"/><path class="cls-24" d="M748.73,967.82l-.09-36.33a.77.77,0,0,1,.77-.77H752a.78.78,0,0,1,.78.77l.09,36.33a.78.78,0,0,1-.77.77H749.5A.77.77,0,0,1,748.73,967.82Z"/><path class="cls-24" d="M754.34,968.57l-124.28.31a2.8,2.8,0,0,1-2.79-2.78l0-10a2.8,2.8,0,0,1,2.79-2.79L754.3,953a2.81,2.81,0,0,1,2.8,2.78l0,10A2.8,2.8,0,0,1,754.34,968.57Z"/><path class="cls-25" d="M631.36,935.3a1.45,1.45,0,1,1,1.45,1.44A1.44,1.44,0,0,1,631.36,935.3Z"/><path class="cls-25" d="M631.38,942.47a1.44,1.44,0,1,1,1.44,1.44A1.43,1.43,0,0,1,631.38,942.47Z"/><path class="cls-25" d="M631.41,957.49a1.45,1.45,0,1,1,1.45,1.44A1.45,1.45,0,0,1,631.41,957.49Z"/><path class="cls-25" d="M749.25,935a1.44,1.44,0,1,1,1.44,1.44A1.44,1.44,0,0,1,749.25,935Z"/><path class="cls-25" d="M749.26,942.18a1.45,1.45,0,0,1,1.45-1.44,1.44,1.44,0,1,1-1.45,1.44Z"/><path class="cls-25" d="M749.3,957.2a1.45,1.45,0,1,1,1.45,1.44A1.44,1.44,0,0,1,749.3,957.2Z"/><path class="cls-26" d="M1275,694s-14.85,57.3-13.52,61.82,8.79,19.92,8.79,19.92h-7.18a5.41,5.41,0,0,1-2.78-5c.12-3.56-9.94-17.41-9.94-17.41s3.94-22,0-30.65C1233.37,685.34,1261.84,685.7,1275,694Z"/><path class="cls-26" d="M1351.26,713.78s-4.26,30.78-4.49,32.67-2.25,4.26-2.14,7.34,1.19,13.49,4.5,16.1a9.39,9.39,0,0,1,3.67,5.8h-9s-1.54-3.08-1.31-5.21-2.48-4.38-2.6-8.76,0-12.55-1.18-15.39-.83-22.37-4.74-26.75S1351.26,713.78,1351.26,713.78Z"/><path class="cls-14" d="M1253.39,703.49c-.1,1.42-.15,2.74-.15,4.06.24,33.32,33.22,23.34,34.4,22.46a7.09,7.09,0,0,1,3.57-.79c16.49,6.56,39.58.54,44.37-1.42s17.57,2.89,23.49,2.45c2.4-.2,4.4-2.69,5.92-5.82a44,44,0,0,0,3.57-12.18c.1-1.13,1.62-5.44,3.67-10.72.83-2.06,1.76-4.31,2.74-6.6.2-.4.34-.84.54-1.23-.49-.54-.93-1.12-1.37-1.71-2.59-3.43-4.4-7.44-6.41-11.45a57.62,57.62,0,0,0-7.53-12.38c-4.85-1.52-10.62,1.22-13,1.08a67.13,67.13,0,0,1-8-1c-1-.2-2-.34-2.84-.49-4.89-.73-34.54,3.08-55.49,3.67-4.3.15-8.22.1-11.49-.1-.25,0-.49-.05-.74-.05-8.76-.49-13.4.05-15.85.83-2.69.84-2.74,1.86-2.74,1.86C1241.64,682.15,1253.39,703.49,1253.39,703.49Z"/><path class="cls-14" d="M1362,713.78s-4.26,30.78-4.49,32.67-2.25,4.26-2.13,7.34,1.18,13.49,4.49,16.1a9.39,9.39,0,0,1,3.67,5.8h-9s-1.54-3.08-1.31-5.21-2.48-4.38-2.6-8.76,0-12.55-1.18-15.39-.83-22.37-4.74-26.75S1362,713.78,1362,713.78Z"/><path class="cls-14" d="M1284.26,706.77s-12,44.48-10.66,49,8.79,19.92,8.79,19.92h-7.17a5.42,5.42,0,0,1-2.79-5c.12-3.56-9.94-17.41-9.94-17.41s-.81-25.1-6.73-32.56S1271.1,698.52,1284.26,706.77Z"/><path class="cls-14" d="M1406.35,718.15c.48.65.91,1.12.91,1.12a18.57,18.57,0,0,0,2.13.1,5.74,5.74,0,0,0,2.87-.78,3.6,3.6,0,0,0,1.4-1.67s-.41-1-2.54-1.33c-1.57-.2-3.11-1.29-4.42-1.43h0a1.88,1.88,0,0,0-1.32.31C1404.38,715.17,1405.46,717,1406.35,718.15Z"/><path class="cls-14" d="M1408.61,722.3c.06,0,.81.12,1.79.11,1.57,0,3.75-.38,4.62-2.46,0,0-.41-1.05-2.54-1.32l-.22,0c-1.37-.24-2.72-1.11-3.9-1.35a2.06,2.06,0,0,0-1.63.26.91.91,0,0,0-.38.65C1406.15,719.62,1408.61,722.3,1408.61,722.3Z"/><path class="cls-14" d="M1359.8,677.36c.59,15.27,3.43,44.48,5.19,47.07a68.77,68.77,0,0,1,10.62,1.17c8.8,1.81,11.25,5.14,12.08,6.71,1.57,3.13,8.91,10.27,10.18,10.52s2.1,1.95,3.47,4.74,4,3,6.17,3.13,4-2.54,4.06-3.18-1.13-2.74-.93-5.48-1.61-10.91-.15-13.11c.93-1.42.39-4.45-.09-6.51-.3-1.22-.59-2-.59-2a5.85,5.85,0,0,0-.44-1c-.3-.64-.64-1.37-1-2.15-.44-.93-1-2-1.66-3.09a128,128,0,0,0-11.79-17.22,116.65,116.65,0,0,0-19.09-19,84.61,84.61,0,0,0-15.6-9.79C1359.71,668.36,1359.61,672,1359.8,677.36Z"/><path class="cls-27" d="M1353,706.23c-.31-.79-.15-14.18-9.82-16.93s-15,1.48-27-3.39-24.77-8.89-26-3.6,1.06,20.11,0,26.88,21.85,9.17,31.25,5S1356.37,714.91,1353,706.23Z"/><path class="cls-27" d="M1250,674a24.31,24.31,0,0,0-7.32,14.87c-1.06,9.53,1.91,51.37,1.91,51.37l2.41-.13,2.6-46.3Z"/><path class="cls-27" d="M1247.41,745.57s-5.22-5.62-2-6.89,2,2.54,2,4Z"/><path class="cls-28" d="M1252.75,672.12c6.07,3,12.77,5.73,16.73,5.83,8.66.14,29.7-4.85,38.27-5.39s43.25,7.49,51.42,4.9a1.29,1.29,0,0,1,.63-.1c1.81-.15,4.55,1.12,7.93,3.18,1.91,1.22,4,2.69,6.21,4.35,14.24,10.77,32.74,29.26,32.74,29.26a128,128,0,0,0-11.79-17.22,116.65,116.65,0,0,0-19.09-19,84.61,84.61,0,0,0-15.6-9.79c-4.85-1.52-10.62,1.22-13,1.08a67.13,67.13,0,0,1-8-1c-1-.2-2-.34-2.84-.49-4.89-.73-34.54,3.08-55.49,3.67-4.3.15-8.22.1-11.49-.1-.25,0-.49-.05-.74-.05C1259.84,670.8,1255.2,671.34,1252.75,672.12Z"/><path class="cls-27" d="M1280.84,671.44c3.79,3.09,11.05,4.32,21.32,2.4,12.49-2.32,15.45,3.18,25.82,3.6,9.15.38,10.89-7.36,11.17-9.19-1-.16-2-.33-2.85-.46C1331.44,667.05,1301.76,670.84,1280.84,671.44Z"/><path class="cls-27" d="M1374.14,692a23.11,23.11,0,0,0,.83,2.94,23.75,23.75,0,0,0,1.62,3.17c5.53,8.81.29,19.38-1,27.5,8.8,1.81,11.25,5.14,12.08,6.71,1.57,3.13,8.91,10.27,10.18,10.52s2.1,1.95,3.47,4.74,4,3,6.17,3.13,4-2.54,4.06-3.18-1.13-2.74-.93-5.48-1.61-10.91-.15-13.11c.93-1.42.39-4.45-.09-6.51,1.56,0,3.76-.39,4.64-2.44,0,0-.44-1.08-2.54-1.37h-.25a3.83,3.83,0,0,0,1.42-1.72s-.44-1-2.54-1.32c-1.57-.19-3.13-1.27-4.45-1.42a128,128,0,0,0-11.79-17.22,116.65,116.65,0,0,0-19.09-19,29.64,29.64,0,0,0-1.86,6.94A21.82,21.82,0,0,0,1374.14,692Z"/><path class="cls-27" d="M1253.38,703.48c-.1,1.42-.14,2.77-.13,4.06,10.75,8,29.59,3.94,31-5.64,1.63-11-13.22-12.6-12.13-21.7.45-3.71-1.3-6.69-3.53-8.91C1250.18,670.2,1250,674,1250,674,1241.66,682.17,1253.38,703.48,1253.38,703.48Z"/></g></g></svg>