<svg id="Calque_1" data-name="Calque 1" xmlns="http://www.w3.org/2000/svg" viewBox="0 0 250 250"><defs><style>.cls-1{fill:#fff;}</style></defs><path class="cls-1" d="M170.14,80.69a4.67,4.67,0,0,0,1.41.23,4.39,4.39,0,0,0,4.17-3,7.73,7.73,0,0,1,9.82-4.84,16.55,16.55,0,0,0,21-10.35,4.39,4.39,0,1,0-8.32-2.83,7.75,7.75,0,0,1-9.82,4.85,16.52,16.52,0,0,0-21,10.34A4.41,4.41,0,0,0,170.14,80.69Z"/><path class="cls-1" d="M180.54,50a4.41,4.41,0,0,0,5.58-2.75,5.73,5.73,0,0,1,7.25-3.58,14.51,14.51,0,0,0,18.42-9.08,4.4,4.4,0,1,0-8.33-2.83,5.74,5.74,0,0,1-2.89,3.3,5.67,5.67,0,0,1-4.37.27,14.56,14.56,0,0,0-18.41,9.08A4.41,4.41,0,0,0,180.54,50Z"/><path class="cls-1" d="M247.85,87.75,219.93,68.82V48.3a4.89,4.89,0,0,0-4.9-4.89H182.42l-54.68-37a4.85,4.85,0,0,0-5.48,0L67.58,43.41H35a4.89,4.89,0,0,0-4.9,4.89V68.82L2.15,87.75A4.88,4.88,0,0,0,0,91.8V239.59a4.89,4.89,0,0,0,4.89,4.9H245.11a4.89,4.89,0,0,0,4.89-4.9V91.8a4.88,4.88,0,0,0-2.15-4ZM9.78,103.4,83.7,165.7,9.78,228Zm83.3,67.19h63.84L233,234.7H17Zm73.22-4.89,73.92-62.3V228Zm71.43-73-17.8,15V80.64ZM125,16.32l40,27.09H85Zm85.14,36.87V116L156.92,160.8H93.08L39.86,116V53.19ZM30.07,107.71l-17.8-15,17.8-12.07Z"/><path class="cls-1" d="M121.54,143.18a5,5,0,0,0,6.92,0s30.86-30.94,31.46-31.67l0,0a24.48,24.48,0,0,0-34.94-34,24.52,24.52,0,0,0-33.12,1.4,24.49,24.49,0,0,0-7.16,17.3,24.61,24.61,0,0,0,5.36,15.3c.6.73,31.46,31.67,31.46,31.67ZM95.77,90.24a14.7,14.7,0,0,1,23.82-4.42c1.56,1.56,3,3.38,5.41,3.38s3.85-1.82,5.41-3.38a14.7,14.7,0,0,1,20.78,0,14.81,14.81,0,0,1,0,20.78L125,132.8,98.81,106.6a14.83,14.83,0,0,1-3-16.36Z"/><circle class="cls-1" cx="156.26" cy="220.02" r="4.88"/><path class="cls-1" d="M134.46,215.13H88.85a4.9,4.9,0,0,0,0,9.79h45.61a4.9,4.9,0,0,0,0-9.79Z"/></svg>