<svg id="Calque_1" data-name="Calque 1" xmlns="http://www.w3.org/2000/svg" viewBox="0 0 250 250"><defs><style>.cls-1{fill:#fff;}</style></defs><circle class="cls-1" cx="125.17" cy="195.59" r="4.88"/><path class="cls-1" d="M245.28,42.91H5.06A4.89,4.89,0,0,0,.17,47.8V195.59a4.89,4.89,0,0,0,4.89,4.89h98.18a4.89,4.89,0,1,0,0-9.78H18.8l74.63-53.38,28.28,28.28a5,5,0,0,0,6.93,0l28.27-28.28,74.63,53.38H147.1a4.89,4.89,0,0,0,0,9.78h98.18a4.89,4.89,0,0,0,4.89-4.89V47.8a4.89,4.89,0,0,0-4.89-4.89ZM10,58.4l75.71,54.15a24.26,24.26,0,0,0-.77,6.09,24.51,24.51,0,0,0,2.57,10.91L10,185Zm82.1,42.93a24.56,24.56,0,0,0-2,2.31L18.8,52.69H231.54l-71.23,51a23.3,23.3,0,0,0-2-2.31,24.48,24.48,0,0,0-33.11-1.39A24.52,24.52,0,0,0,92.05,101.33Zm72.64,11.21,75.7-54.14V185l-77.5-55.43A24.38,24.38,0,0,0,164.69,112.54Zm-39.52,42.69L99,129a14.85,14.85,0,0,1,0-20.78,14.7,14.7,0,0,1,20.78,0l1.95,1.94a4.89,4.89,0,0,0,6.92,0l2-1.94a14.69,14.69,0,0,1,20.78,0,14.83,14.83,0,0,1,0,20.79Z"/></svg>