<svg id="Calque_1" data-name="Calque 1" xmlns="http://www.w3.org/2000/svg" viewBox="0 0 250 250"><defs><style>.cls-1{fill:#fff;}</style></defs><path class="cls-1" d="M159.73,111.34a4.38,4.38,0,0,0,5.58-2.75,7.76,7.76,0,0,1,9.82-4.84,16.56,16.56,0,0,0,21-10.35,4.4,4.4,0,1,0-8.33-2.83A7.74,7.74,0,0,1,178,95.41a16.58,16.58,0,0,0-21,10.35A4.4,4.4,0,0,0,159.73,111.34Z"/><path class="cls-1" d="M170.14,80.69a4.67,4.67,0,0,0,1.41.23,4.39,4.39,0,0,0,4.17-3,7.73,7.73,0,0,1,9.82-4.84,16.55,16.55,0,0,0,21-10.35,4.39,4.39,0,1,0-8.32-2.83,7.75,7.75,0,0,1-9.82,4.85,16.52,16.52,0,0,0-21,10.34A4.41,4.41,0,0,0,170.14,80.69Z"/><path class="cls-1" d="M180.54,50a4.41,4.41,0,0,0,5.58-2.75,5.73,5.73,0,0,1,7.25-3.58,14.51,14.51,0,0,0,18.42-9.08,4.4,4.4,0,1,0-8.33-2.83,5.74,5.74,0,0,1-2.89,3.3,5.67,5.67,0,0,1-4.37.27,14.56,14.56,0,0,0-18.41,9.08A4.41,4.41,0,0,0,180.54,50Z"/><path class="cls-1" d="M212.41,111a5.58,5.58,0,0,0-2.51-.94c8.74-28.41,13.54-56.24,14.23-82.75.21-8.33-3.86-19.46-12.08-24.62-3.94-2.47-10.4-4.51-18.78-.2-13.14,6.78-22.54,26.73-30.09,42.76-.44.92-.86,1.82-1.28,2.71a25.51,25.51,0,0,0-14-17.65,21,21,0,0,0-16.31-16.22c-.09-.45-.2-.9-.33-1.36A15.17,15.17,0,0,0,118.73,2a15,15,0,0,0-9.35,1.92,16,16,0,0,0-7.78-2A16.22,16.22,0,0,0,85.84,14.39,19.83,19.83,0,0,0,71.28,33.27a22,22,0,0,0-15,29.29,17.32,17.32,0,0,0-2.42,17.78c-4.39-4.79-10.58-8.71-17.52-8.46a4.4,4.4,0,0,0,.13,8.8c.15,0,.28,0,.42,0,4.13,0,8,2.73,10.75,5.9-7,2-15.39,5.28-19.32,12.68-2.36,4.47-2.64,10-1.06,16.22a7.62,7.62,0,0,0-1.1,4.32l7.49,106.42a25.06,25.06,0,0,0,25,23.79h123.5a25,25,0,0,0,25-23.71l7.68-110.12v-.07A5.7,5.7,0,0,0,212.41,111ZM165.48,60.57c1.75-3.25,3.65-7.28,5.66-11.56,6.61-14,15.67-33.27,26.16-38.68,3.82-2,7.12-2,10.08-.17,5.1,3.2,8.1,11.29,8,17-.67,26-5.42,53.38-14.13,81.36-.28.92-.91,2.78-1.82,5.32l-7.49,3.33-.48.25a13.49,13.49,0,0,1-14,0l-3.14-1.88a22.72,22.72,0,0,0-11.69-3.24h-.15a22.77,22.77,0,0,0-11.84,3.24l-3.14,1.88a13.71,13.71,0,0,1-5.63,1.78c.11-.38.24-.76.35-1.13,1.21-4.1,2.5-8.14,3.86-12.15.51-1.52,1-3,1.59-4.54q1.69-4.77,3.53-9.44c.55-1.4,1.08-2.8,1.64-4.18A295.7,295.7,0,0,1,165.48,60.57ZM109.4,71l1.49-1.92a0,0,0,0,1,0,0,11,11,0,0,0,.91-1.42,9.46,9.46,0,0,0,.83-6.56l18.36-4a11.05,11.05,0,0,0,.47,1.64,9.81,9.81,0,0,0,4.34,4.86l2.09,1.13,1.79,1,.86.47c.52.29,1,.62,1.54.94s.86.54,1.29.84,1,.71,1.42,1.09.8.7,1.19,1.07.83.83,1.21,1.29A14.74,14.74,0,0,1,149.06,74c-1.87,4.12-3.62,8.32-5.32,12.56-.26.66-.54,1.29-.8,2-4.82,1.22-9.48,3.51-15.24,7.6-7.25,5.16-12.65,6.53-21.54,5.24l-2.67-12.23C101.67,80.85,105.6,75.85,109.4,71Zm21.82-26.72a2,2,0,0,1,.34,0,1.86,1.86,0,0,1,1.79,1.43,1.83,1.83,0,0,1-.25,1.37,1.81,1.81,0,0,1-1.14.79l-24.3,5.32a1.82,1.82,0,1,1-.77-3.55l12.91-2.83ZM117,112.33c-.34,0-.68,0-1,.07a22.47,22.47,0,0,0-7,1.86l-.84-3.85c1.26.11,2.53.21,3.71.21,7.67,0,13.85-2.28,21-7.33a52.11,52.11,0,0,1,6.1-3.8c-.41,1.15-.81,2.29-1.2,3.45-.28.82-.58,1.64-.86,2.47q-1.93,5.86-3.67,11.84l-2.93-1.75a22.73,22.73,0,0,0-11.69-3.25h-.16C117.92,112.25,117.46,112.31,117,112.33ZM64.37,66.84l2.89-2.38-1.87-3.22A13.23,13.23,0,0,1,76.31,41.37l5.34-.22L80.4,36a10.82,10.82,0,0,1,9.76-13.41l4.07-.31V17.85a7.38,7.38,0,0,1,7.37-7.14,7.27,7.27,0,0,1,4.92,1.93l3.08,2.78,3-2.92a6.23,6.23,0,0,1,5.13-1.74,6.36,6.36,0,0,1,5.18,4.48,5.67,5.67,0,0,1,.2,2.34l-.51,4.91h5a12.11,12.11,0,0,1,12,11.25l.2,2.89,2.73,1a16.77,16.77,0,0,1,11.24,16.2,15.89,15.89,0,0,1-2.88,8.74,46.74,46.74,0,0,0-8.78-5.59l-2-1.09a.94.94,0,0,1-.49-.75,2.5,2.5,0,0,1,.61-2A9.43,9.43,0,0,0,142.22,45l-.54-2.43a9.38,9.38,0,0,0-11.16-7.16l-1.18.26h0l-12.91,2.82-12.6,2.75a9.4,9.4,0,0,0-7.16,11.17l.27,1.19v0l.26,1.19a9.37,9.37,0,0,0,5.44,6.59,2.64,2.64,0,0,1,1.46,1.42c.11.32,0,.49-.21.91h0c-.43.58-.9,1.17-1.38,1.79s-1,1.26-1.5,1.93c-.17.22-.33.45-.51.68-.36.5-.73,1-1.09,1.53-.2.29-.38.59-.58.89-.33.51-.65,1-1,1.59-.18.32-.37.63-.54,1-.33.61-.63,1.26-.93,1.92-.12.28-.26.55-.37.85a24.71,24.71,0,0,0-1,3c0,.17-.06.35-.1.52a24.38,24.38,0,0,0-.49,2.8c0,.38,0,.79-.08,1.19s-.1,1-.1,1.55l0-.06L94,84.71c-.76-1-1.53-1.94-2.3-2.82-.24-.28-.48-.54-.73-.81-.65-.7-1.29-1.35-2-2l-.63-.61a31.05,31.05,0,0,0-2.48-2c-.24-.17-.48-.31-.71-.47-.62-.42-1.25-.81-1.88-1.15-.31-.17-.61-.33-.93-.48a18.86,18.86,0,0,0-2-.83l-.66-.26a18.59,18.59,0,0,0-2.17-.54c-.09,0-.17,0-.25,0s-.3-.08-.45-.1c-.51-.08-1,0-1.5-.08-.35,0-.69-.1-1-.1-.1,0-.21,0-.32,0a19.23,19.23,0,0,0-2,.17c-.33,0-.66.07-1,.13a22,22,0,0,0-2.54.64l-.38.12a27.58,27.58,0,0,0-6.21,3.06,8.37,8.37,0,0,1-.61-3.15A8.58,8.58,0,0,1,64.37,66.84ZM36.11,103.37c1.86-3.51,6.38-6.19,14.22-8.43a23.75,23.75,0,0,0,9.84-5.64c1.25-1.2,2.43-2.22,3.56-3.14,3.55-2.89,6.61-4.45,9.37-4.81l.19,0a9,9,0,0,1,2.55.07c.21,0,.43.12.65.18a9.52,9.52,0,0,1,1.23.36c.26.1.52.26.79.38s.76.35,1.15.58.59.42.89.62.71.48,1.08.78.66.59,1,.89.67.58,1,.92.75.81,1.12,1.23.61.65.92,1,.83,1.07,1.26,1.62c.26.36.53.67.8,1,.48.67,1,1.41,1.44,2.15.22.32.43.61.64.95.7,1.1,1.41,2.28,2.11,3.53,3.24,5.71,4.32,14.15,2.91,21.51l-.7-.1a13.59,13.59,0,0,1-4.76-1.7l-3.14-1.88a22.63,22.63,0,0,0-11.69-3.25h-.15a22.58,22.58,0,0,0-11.84,3.24L61,116.4a16.52,16.52,0,0,1-17.25,0l-5.92-3.55h0a7.4,7.4,0,0,0-2.48-.93C34.67,108.42,34.92,105.61,36.11,103.37ZM198.45,225.75A16.27,16.27,0,0,1,182.2,241.2H58.7a16.3,16.3,0,0,1-16.26-15.53l-7.32-104L39,124a26.38,26.38,0,0,0,26.91,0l1.52-.91a13.43,13.43,0,0,1,14,0l3.14,1.88a22.64,22.64,0,0,0,12.91,3.16c.39,0,.79,0,1.19-.05a.74.74,0,0,1,.14,0,22.63,22.63,0,0,0,8.68-2.83,5.15,5.15,0,0,0,.76-.24l3.14-1.88a13.43,13.43,0,0,1,14,0l3.14,1.88a22.7,22.7,0,0,0,10.76,3.18h.23a22.41,22.41,0,0,0,3.84-.18,20.16,20.16,0,0,0,2.16-.44c.34-.08.69-.16,1-.26a22.79,22.79,0,0,0,5.64-2.31l3.14-1.89a13.49,13.49,0,0,1,14,0l3.14,1.89a22.83,22.83,0,0,0,11.78,3.23h.21a22.7,22.7,0,0,0,11.45-3.1l8.63-3.84a4.26,4.26,0,0,0,.49-.34l.67-.3Z"/><path class="cls-1" d="M52.55,189.2h30.8a4.4,4.4,0,1,0,0-8.8H52.55a4.4,4.4,0,0,0,0,8.8Z"/><path class="cls-1" d="M52.55,206.8h39.6a4.4,4.4,0,0,0,0-8.8H52.55a4.4,4.4,0,1,0,0,8.8Z"/><path class="cls-1" d="M101,215.6H52.55a4.4,4.4,0,1,0,0,8.79H101a4.4,4.4,0,1,0,0-8.79Z"/><path class="cls-1" d="M127.34,215.6h-8.79a4.4,4.4,0,1,0,0,8.79h8.79a4.4,4.4,0,1,0,0-8.79Z"/></svg>