<svg id="Calque_1" data-name="Calque 1" xmlns="http://www.w3.org/2000/svg" viewBox="0 0 122 122"><defs><style>.cls-1{fill:#f89b31;}.cls-2{fill:#fff;}</style></defs><circle class="cls-1" cx="61" cy="61" r="61"/><path class="cls-2" d="M86.21,45.86a1.36,1.36,0,0,0-.12-.48.58.58,0,0,0,0-.14h0L76.13,25.36V19.94a1.42,1.42,0,0,0-.54-1.11,1.44,1.44,0,0,0-1.2-.3L47,24.3a1.44,1.44,0,0,0-1.15,1.41V31l-9.82,14,0,0a1.44,1.44,0,0,0-.21.53.28.28,0,0,0,0,.09.88.88,0,0,0,0,.16V93.41a1.44,1.44,0,0,0,.87,1.33l20.17,8.64h.05a1.56,1.56,0,0,0,.52.11,1.49,1.49,0,0,0,.36,0l27.38-7.2a1.45,1.45,0,0,0,1.07-1.4v-49ZM66,26.05V23.24l2.88-.61v2.82Zm-2.88.61-2.88.61V24.45l2.88-.61ZM57.4,27.87l-2.88.61V25.71s0,0,0-.05l2.89-.61Zm-8,4.63,14-2.95,10.5-2.21,8.8,17.59-8.91,2.35L58.2,51.38,50.86,35.65Zm33.94,17L58.84,70.15v-16l24.49-6.45ZM38.67,47.92,56,54.09v17L38.67,63.65Zm0,18.86L56,74.19V92.67L38.67,85.26Zm20.17,7.13L83.33,53.29V72.55L58.84,91.88Zm14.4-49.37-1.44.3V22l1.44-.3ZM48.76,26.87l2.88-.6v2.81l-2.88.61Zm-1.7,7.47,3.79,8.11,3.78,8.11L39.49,45.15ZM38.67,88.39,56,95.8v4.07L38.67,92.46Zm20.17,11.8V95.55L83.33,76.22V93.74Z"/><path class="cls-2" d="M64.75,44.23a4.32,4.32,0,0,0,3.39,1.61,6.1,6.1,0,0,0,1.46-.19A4.49,4.49,0,0,0,73.14,42a9,9,0,0,0-.31-3.94c-1.35-5.19-4.29-5.58-6.51-5s-4.6,2.37-3.24,7.55A9,9,0,0,0,64.75,44.23ZM67,35.89a3.15,3.15,0,0,1,.73-.11c.82,0,1.63.56,2.28,3a6.68,6.68,0,0,1,.26,2.66c-.11.54-.36,1.08-1.44,1.37a1.65,1.65,0,0,1-1.93-.49,6.49,6.49,0,0,1-1.07-2.45C65,36.71,66,36.17,67,35.89Z"/></svg>