<svg id="Calque_1" data-name="Calque 1" xmlns="http://www.w3.org/2000/svg" viewBox="0 0 122 122"><defs><style>.cls-1{fill:#f89b31;}.cls-2{fill:#fff;}</style></defs><circle class="cls-1" cx="61" cy="61" r="61"/><path class="cls-2" d="M88.46,46.61c-1.59-1.18-3.09-2.24-4.51-3.24-5.62-4-9.69-6.87-13.39-12.4-.93-2.88-1.82-6.08-2.85-9.82l-2-7.34-5.59,2.67.26,1.23c0,.08.42,2.13.81,5.41-1,2.2-1.85,4.17-2.61,5.95-1.23,2.86-2.24,5.2-3.39,7.3-2.36,1.53-5,2.88-7.79,4.31a72.91,72.91,0,0,0-10.21,5.91C25.21,54.83,17.9,66.67,18.52,76.78c0,1.28.06,9.92,5.95,16.27,4.09,4.4,10,6.64,17.42,6.64a17,17,0,0,0,3.93-.49,19.94,19.94,0,0,0,4.39.49h.16a1.77,1.77,0,0,0,0,.61,1.61,1.61,0,0,0,1.58,1.34,1.24,1.24,0,0,0,.27,0l5.46-.91L55,103.32a1.61,1.61,0,0,0,0,2.27,1.64,1.64,0,0,0,1.14.47,1.6,1.6,0,0,0,1.13-.47L60.93,102v4.62a1.61,1.61,0,1,0,3.21,0V102l3.62,3.63a1.64,1.64,0,0,0,1.14.47A1.61,1.61,0,0,0,70,103.32l-2.62-2.62,5.42,1.08a1.63,1.63,0,0,0,.31,0,1.59,1.59,0,0,0,1.57-1.29,1.5,1.5,0,0,0,0-.7,12.81,12.81,0,0,0,4-.89,19.44,19.44,0,0,0,5,.76h.38a16.89,16.89,0,0,0,12.81-5.28c5.93-6.28,6.53-16,6.58-17.57h0A33.59,33.59,0,0,0,88.46,46.61ZM67.58,32.2h0l0,.06L68,33.54c0,.05,0,.1,0,.14.23.66.46,1.3.7,1.93l.33.87c.09.23.19.48.29.71.15.38.31.75.47,1.13l.33.73c.17.36.34.73.52,1.09s.23.46.35.69l.42.81c.13.24.26.49.4.72.23.43.48.85.74,1.27.16.27.34.54.51.81s.27.43.42.64.37.55.56.83l.49.68.85,1.13.76,1,.54.63q.4.49.84,1c.16.18.31.36.48.54.46.52.94,1,1.44,1.56.72.71,1.39,1.42,2,2.14.11.13.2.26.31.38.53.63,1,1.25,1.51,1.88l.16.23a29.05,29.05,0,0,1,4.53,26.11l-.06.2c-.18.54-.37,1.06-.57,1.57,0,.09-.07.17-.11.26-.18.44-.37.86-.56,1.28-.13.25-.25.5-.38.74s-.13.27-.21.41-.29.53-.45.79l-.19.32c-.18.29-.36.57-.55.85a1.63,1.63,0,0,1-.11.17,16.79,16.79,0,0,1-6.9,6s-.06,0-.09.06a9.67,9.67,0,0,1-5.1.73,3.39,3.39,0,0,0-.44,0c-.21,0-.4,0-.55,0l-.24,0H66.29a12.48,12.48,0,0,1-6.66-2.07c-.36-.23-.71-.49-1.06-.75l-.44-.34c-.28-.23-.55-.48-.82-.73s-.43-.43-.64-.65-.39-.41-.57-.62c-.34-.41-.67-.83-1-1.27A2.43,2.43,0,0,1,55,90a15.49,15.49,0,0,1-1-1.72c-.23-.44-.45-.89-.64-1.35,0,0,0,0,0-.06a16.07,16.07,0,0,1-.53-1.52,1,1,0,0,1-.05-.16c-.15-.53-.29-1.06-.39-1.6h0a16.85,16.85,0,0,1-.28-2.17c0-.1,0-.21,0-.32s0-.51,0-.78,0-.58,0-.88l0-.42c0-.3,0-.61.08-.91l0-.23a22.43,22.43,0,0,1,3.51-9.17,0,0,0,0,0,0,0c.28-.43.58-.86.88-1.29.56-.76,1.07-1.55,1.56-2.35.07-.13.15-.25.23-.37.46-.79.89-1.59,1.3-2.41l.18-.37q.63-1.29,1.17-2.61v0c5.5-13.62,4.23-30,3.18-37.78L64,19.81l.61,2.2C65.67,25.84,66.6,29.16,67.58,32.2ZM27,91c-5.48-5.77-5.23-14.09-5.22-14.15v-.23C21.16,67.75,28.08,56.74,39,49.2a72.28,72.28,0,0,1,9.81-5.67l1.4-.71a40.74,40.74,0,0,1-4.5,3.77,33.58,33.58,0,0,0-15,30.25h0c.05,1.77.82,13.65,8.79,19.55C34.19,96,30,94.18,27,91Zm18.3,4.71-.63-.21c-.38-.15-.75-.31-1.11-.49l-.24-.12A13.46,13.46,0,0,1,40,92.54c-5.77-5.75-6-15.65-6-15.68v-.22A30.45,30.45,0,0,1,47.68,49.2C56,43,58,38.52,61.48,30.33c.08-.18.16-.37.25-.56.43,8.2,0,19.21-3.81,28.54l-.12.29c-.19.47-.4.92-.61,1.38l-.37.76c-.18.35-.36.71-.55,1.06s-.4.73-.61,1.08-.3.52-.46.77c-.38.62-.78,1.23-1.21,1.82s-.69,1-1,1.46c0,0,0,.09-.07.13-.3.46-.57.92-.83,1.37a.2.2,0,0,0,0,.08c-.27.48-.52,1-.76,1.43a.14.14,0,0,1,0,.06c-.24.49-.46,1-.66,1.45l0,.09c-.19.48-.37.95-.53,1.42,0,0,0,.08,0,.12-.16.47-.3.94-.43,1.41l0,.11c-.13.49-.24,1-.33,1.45,0,.15-.05.31-.08.47s-.09.54-.13.8-.07.58-.1.87a2.11,2.11,0,0,1,0,.26,20.49,20.49,0,0,0,.7,7.36h0c.14.48.29,1,.46,1.44l.15.38c.13.34.27.67.42,1s.19.42.29.62l.15.33c.09.19.2.36.3.54s.16.31.25.46c.25.42.5.83.77,1.23.06.08.12.15.17.23q.36.51.75,1l.27.33c.26.32.54.63.82.92l.17.19c.37.37.74.74,1.13,1.08a16.88,16.88,0,0,1-10.43.15Zm55-18.93c0,.1-.26,10-6,15.75a13.94,13.94,0,0,1-10.48,3.94q-.36,0-.72,0a23.92,23.92,0,0,0,6.53-8.34c.1-.2.19-.42.28-.63a.77.77,0,0,0,.07-.16c.27-.59.52-1.2.76-1.83.09-.23.17-.46.25-.69.14-.4.26-.81.39-1.23s.25-.83.36-1.26c0-.15.07-.31.1-.47.13-.51.26-1,.36-1.55a31.24,31.24,0,0,0-.16-12.19c-.08-.38-.19-.77-.28-1.16s-.15-.61-.24-.91c-.14-.53-.31-1.06-.49-1.59,0-.1-.06-.2-.1-.3a32.79,32.79,0,0,0-2.44-5.42l0-.07c-.33-.58-.67-1.15-1-1.73-.06-.1-.13-.19-.2-.29-.51-.78-1.06-1.55-1.65-2.32-.33-.43-.67-.86-1-1.28l-.67-.78c-.63-.71-1.28-1.41-2-2.08q-.72-.77-1.38-1.5c-.17-.18-.32-.36-.48-.54l-.79-.92-.52-.63L78,45.76l-.5-.64c-.23-.31-.44-.61-.66-.92s-.38-.54-.56-.82-.45-.67-.66-1l-.37-.62-.49-.83c-.12-.21-.24-.42-.35-.63L74.25,40a95.18,95.18,0,0,0,7.85,6c1.41,1,2.9,2,4.48,3.22l0,0A30.48,30.48,0,0,1,100.24,76.79Z"/></svg>