<svg id="Calque_1" data-name="Calque 1" xmlns="http://www.w3.org/2000/svg" viewBox="0 0 122 122"><defs><style>.cls-1{fill:#f89b31;}.cls-2{fill:#fff;}</style></defs><circle class="cls-1" cx="61" cy="61" r="61"/><path class="cls-2" d="M53.15,41.24a1.49,1.49,0,0,0,1.09-2.77,4.32,4.32,0,1,1,3.15-8,1.49,1.49,0,1,0,1.08-2.78,7.3,7.3,0,0,0-5.32,13.6Z"/><path class="cls-2" d="M96.57,45.94a1.5,1.5,0,0,0-.77,2,4.32,4.32,0,1,1-7.91,3.47,1.49,1.49,0,1,0-2.73,1.19,7.34,7.34,0,0,0,6.69,4.38,7.34,7.34,0,0,0,2.93-.62,7.29,7.29,0,0,0,3.75-9.62A1.49,1.49,0,0,0,96.57,45.94Z"/><path class="cls-2" d="M75.77,41.8a1.5,1.5,0,0,0-.57,2,4.32,4.32,0,0,1-4.92,6.29,4.28,4.28,0,0,1-2.6-2,1.5,1.5,0,0,0-2-.56,1.48,1.48,0,0,0-.56,2A7.3,7.3,0,1,0,77.8,42.37,1.5,1.5,0,0,0,75.77,41.8Z"/><path class="cls-2" d="M63.06,44.49a7.17,7.17,0,0,0,3.17.73,7.31,7.31,0,0,0,6.58-4.12,1.49,1.49,0,1,0-2.68-1.3A4.32,4.32,0,1,1,62.35,36a1.49,1.49,0,0,0-2.69-1.3A7.31,7.31,0,0,0,63.06,44.49Z"/><path class="cls-2" d="M52,53a7.31,7.31,0,0,0,9.61-3.77A1.49,1.49,0,0,0,58.86,48a4.33,4.33,0,0,1-5.69,2.23,4.34,4.34,0,0,1-2.23-5.69,1.49,1.49,0,1,0-2.73-1.2A7.32,7.32,0,0,0,52,53Z"/><path class="cls-2" d="M70.76,37.29a5.74,5.74,0,0,0,.71,0,7.3,7.3,0,0,0,5.62-11.95,1.49,1.49,0,1,0-2.3,1.9,4.32,4.32,0,0,1-6.67,5.5,1.48,1.48,0,1,0-2.29,1.89A7.19,7.19,0,0,0,70.76,37.29Z"/><path class="cls-2" d="M40.23,50.74a1.48,1.48,0,0,0-.82-1.94,1.5,1.5,0,0,0-1.94.82,4.32,4.32,0,1,1-8-3.25,1.49,1.49,0,1,0-2.76-1.12,7.31,7.31,0,0,0,4,9.51,7.15,7.15,0,0,0,2.74.54A7.31,7.31,0,0,0,40.23,50.74Z"/><path class="cls-2" d="M102.56,46.49a7.73,7.73,0,0,0-2-7.87A7.9,7.9,0,0,0,95,36.35a6.88,6.88,0,0,0-1.62-2.48,7.09,7.09,0,0,0-7.06-1.68c0-.14,0-.26,0-.39a10.71,10.71,0,0,0-14-10,9,9,0,0,0-13.5.54,10.16,10.16,0,0,0-14.63,8.92v.06a10.16,10.16,0,0,0-3.84,3.2,8,8,0,0,0-8.23,1.64,8,8,0,0,0-8,1.9,7.78,7.78,0,0,0-2.32,5.54,7,7,0,0,0-2.52,1.59,6.89,6.89,0,0,0,0,9.85A7,7,0,0,0,22,56.66a8.2,8.2,0,0,0,2.45,5.78,8.32,8.32,0,0,0,5.76,2.39A6.09,6.09,0,0,0,32,68.68a6.05,6.05,0,0,0,6.14,1.49c6.13.18,14.46,13.65,15.56,29.37A3.73,3.73,0,0,0,57.45,103h7.44a3.75,3.75,0,0,0,3.72-3.32l.11-1.05c2-18.9,6.29-28.61,12.63-28.9a8.49,8.49,0,0,0,4,1,8.37,8.37,0,0,0,5.88-2.38,8.17,8.17,0,0,0,1.41-1.85,7.16,7.16,0,0,0,5-2,6.89,6.89,0,0,0,2-5.36,8,8,0,0,0,2.79-1.77,7.72,7.72,0,0,0,2.32-5.52A7.64,7.64,0,0,0,102.56,46.49ZM46.26,33.67a1.49,1.49,0,0,0,1-1.59,6,6,0,0,1-.06-.85,7.08,7.08,0,0,1,7.14-7,7.17,7.17,0,0,1,4.11,1.28,1.5,1.5,0,0,0,1.18.23,1.48,1.48,0,0,0,1-.73,6.06,6.06,0,0,1,10.11-.6,1.49,1.49,0,0,0,1.79.48,7.73,7.73,0,0,1,3.14-.66,7.64,7.64,0,0,1,7.71,7.55,7.2,7.2,0,0,1-.64,3h0l-.11.28h0a1.09,1.09,0,0,0,0,.17,1.78,1.78,0,0,0-.1.38s0,.06,0,.09a1.42,1.42,0,0,0,.06.46c0,.05,0,.08.07.13a1.19,1.19,0,0,0,.19.35,1.32,1.32,0,0,0,.44.37,2.41,2.41,0,0,1,0,4.29,1.49,1.49,0,0,0-.55,2.12,4.66,4.66,0,0,1,.74,2.51,4.73,4.73,0,0,1-2.94,4.35,1.48,1.48,0,0,0-.82,1.91,4.51,4.51,0,0,1,.31,1.65,4.79,4.79,0,0,1-4.84,4.73,4.65,4.65,0,0,1-.82-.08l-.16,0a5.48,5.48,0,0,1-.79-.23h0a4.86,4.86,0,0,1-2.41-2,1.5,1.5,0,0,0-1.25-.73,1.45,1.45,0,0,0-1.28.69A7.72,7.72,0,0,1,65.09,59l-.58.25-.29.09-.57.17-.39.07c-.17,0-.33.07-.5.09s-.59,0-.89.06-.44,0-.66,0H61l-.73-.12-.14,0a6.77,6.77,0,0,1-.77-.22l-.07,0a6.38,6.38,0,0,1-.82-.33,7.74,7.74,0,0,1-2.93-2.43,1.54,1.54,0,0,0-1-.6h-.22a1.51,1.51,0,0,0-.91.3,5.61,5.61,0,0,1-1.23.71h0A6.52,6.52,0,0,1,51,57.3h0a6.1,6.1,0,0,1-1.19.13,5.93,5.93,0,0,1-6-5.86,5.75,5.75,0,0,1,1.14-3.44A1.47,1.47,0,0,0,45.17,47a1.51,1.51,0,0,0-.64-1,7,7,0,0,1-3.08-5.75,6.63,6.63,0,0,1,.08-1c0-.08,0-.17,0-.25,0-.25.11-.5.18-.74,0-.08,0-.17.08-.26a7.27,7.27,0,0,1,.33-.76l.06-.15A7.15,7.15,0,0,1,46.26,33.67ZM67.51,61a10.26,10.26,0,0,0,2.09-1.69,7.84,7.84,0,0,0,2.16,1.44l.14.16a7.08,7.08,0,0,0,.79.66,43.33,43.33,0,0,0-4.85,7.11A53.31,53.31,0,0,0,67.51,61ZM57.85,76.72a45.14,45.14,0,0,0-8.09-12.51,4.59,4.59,0,0,0,1.3-.88,4.42,4.42,0,0,0,1.31-3,10,10,0,0,0,1-.68c.21-.09.43-.18.63-.29a11,11,0,0,0,2.51,1.95C57.72,65.92,57.93,72,57.85,76.72ZM34.12,66.56a3.05,3.05,0,0,1-.83-3,1.46,1.46,0,0,0-.36-1.41,1.5,1.5,0,0,0-1.08-.46l-.32,0a5.44,5.44,0,0,1-5-1.4,5.22,5.22,0,0,1-1.48-4.57A1.49,1.49,0,0,0,23.79,54a4,4,0,0,1-2.38-1.13,3.92,3.92,0,0,1,0-5.61,4.11,4.11,0,0,1,2.25-1.11,1.52,1.52,0,0,0,1-.62,1.42,1.42,0,0,0,.25-1.13,4.78,4.78,0,0,1,1.35-4.27,5,5,0,0,1,5.66-.92,1.49,1.49,0,0,0,1.81-.41,3.39,3.39,0,0,1,.4-.45A5,5,0,0,1,39,37.15a.7.7,0,0,0,0,.14,8,8,0,0,0-.27,1.07c0,.13-.07.26-.09.4a9.42,9.42,0,0,0-.12,1.51,9.9,9.9,0,0,0,3.26,7.33,8.69,8.69,0,0,0-1,4,8.85,8.85,0,0,0,0,.89c0,.1,0,.2,0,.3s0,.38.09.56l.09.35c0,.16.08.33.13.49s.08.24.13.36.1.3.16.44.12.24.17.36.13.27.2.41l.21.34.23.38.24.32c.09.12.17.24.27.35a4,4,0,0,0,.27.31c.1.11.19.22.3.32l.3.28.32.29.33.25.34.26.36.22.37.22.37.19.4.19c.12.06.26.1.39.15A3,3,0,0,0,47,60c.13,0,.27.08.4.12l.44.11.42.08.45.07.44,0,.28,0a1.39,1.39,0,0,1-.4.8,1.53,1.53,0,0,1-1.52.36,1.48,1.48,0,0,0-1.87,1.1,3.31,3.31,0,0,1-.31.81,3.11,3.11,0,0,1-.54.7,3.26,3.26,0,0,1-3.5.7,1.5,1.5,0,0,0-1.91.76,2.82,2.82,0,0,1-.64.92,3.3,3.3,0,0,1-1.15.72h0A3.28,3.28,0,0,1,34.12,66.56ZM65.76,98.31l-.12,1a.75.75,0,0,1-.75.68H57.44a.74.74,0,0,1-.74-.69C55.7,85.06,48.81,71.46,41.51,68l.35,0,.31,0a3.08,3.08,0,0,0,.43,0h.3l.42,0,.3,0,.41-.1.29-.07.41-.16.27-.1.43-.22.22-.11a5.62,5.62,0,0,0,.5-.35l.11-.07a6.33,6.33,0,0,0,.56-.49,4.47,4.47,0,0,0,.42-.45A43.73,43.73,0,0,1,57.49,84.9a1.49,1.49,0,0,0,2.93-.21c0-.57,1.24-12.91-.55-22.19l.32,0c.24,0,.47.07.72.09l.48,0,.43,0,.25,0,.5,0,.67-.07.47-.07.72-.15.23-.05a44.23,44.23,0,0,1-1.2,15.88,1.49,1.49,0,0,0,2.83.92c0-.1,3.28-8.86,8-14.78l.06.07a4.23,4.23,0,0,0,.57.71s0,0,0,0a4,4,0,0,0,.64.51,0,0,0,0,0,0,0,2.47,2.47,0,0,0,.36.19c.13.07.25.15.38.21a1.66,1.66,0,0,0,.21.06c.2.07.39.14.59.19a4,4,0,0,0,.84.09,7.15,7.15,0,0,0,.54.88C68.72,70.86,66.52,91.2,65.76,98.31Zm34.58-43.05a5,5,0,0,1-2.64,1.35,1.48,1.48,0,0,0-1,.68,1.51,1.51,0,0,0-.16,1.21,3.91,3.91,0,0,1-1,3.9A4.17,4.17,0,0,1,92,63.51a1.5,1.5,0,0,0-1.62.93,5.16,5.16,0,0,1-1.2,1.82,5.45,5.45,0,0,1-6.7.7h0a5.86,5.86,0,0,1-.89-.7,5.3,5.3,0,0,1-1.25-2,1.68,1.68,0,0,0-.27-.45.52.52,0,0,0-.11-.1,1.18,1.18,0,0,0-.28-.22l-.15-.08a2,2,0,0,0-.32-.1l-.18,0-.1,0a1.74,1.74,0,0,0-.39.05h0l-.19,0a1.52,1.52,0,0,1-1.12-.26L77,63a1.72,1.72,0,0,1-.25-.35.42.42,0,0,1,0-.1,1.76,1.76,0,0,1-.1-.3,1.44,1.44,0,0,1,0-.68,1.29,1.29,0,0,0,0-.19A7.72,7.72,0,0,0,78,61l.35-.17a7.84,7.84,0,0,0,.9-.49c.15-.09.28-.2.42-.3s.47-.36.69-.56.26-.26.39-.4a7.12,7.12,0,0,0,.55-.66,5.09,5.09,0,0,0,.31-.45,7.22,7.22,0,0,0,.43-.77c.07-.16.16-.32.23-.49a8.75,8.75,0,0,0,.28-.91c0-.15.1-.3.13-.45a7.86,7.86,0,0,0,.15-1.46,7.62,7.62,0,0,0-.14-1.43,7.64,7.64,0,0,0,3-9.35,5.41,5.41,0,0,0,1.6-2.82,5.7,5.7,0,0,0,.11-1.1,5.37,5.37,0,0,0-.11-1.06c0-.11-.06-.21-.09-.32s-.13-.46-.22-.68l-.18-.35a4.3,4.3,0,0,0-.32-.56c-.08-.12-.17-.23-.26-.35s-.15-.21-.23-.3a4.13,4.13,0,0,1,5.2.47,3.84,3.84,0,0,1,1.13,2.19,1.5,1.5,0,0,0,.61,1,1.52,1.52,0,0,0,1.13.25,5,5,0,0,1,4.39,1.33,4.76,4.76,0,0,1,.94,5.5,1.48,1.48,0,0,0,.42,1.84,5.58,5.58,0,0,1,.46.39,4.75,4.75,0,0,1,0,6.79Z"/></svg>