<svg id="Calque_1" data-name="Calque 1" xmlns="http://www.w3.org/2000/svg" viewBox="0 0 122 122"><defs><style>.cls-1{fill:#f89b31;}.cls-2{fill:#fff;}</style></defs><circle class="cls-1" cx="61" cy="61" r="61"/><path class="cls-2" d="M90.3,31.48C72.07,13.25,50.85,12.71,33.55,30,15.84,47.73,13.68,88.86,23.28,98.47c3.79,3.88,11.41,6.06,21.46,6.12h.42c15.12,0,35.27-5,46.6-16.36C109.07,70.92,108.52,49.7,90.3,31.48Zm-1.09,54.2C78.62,96.27,59.54,101,45.17,101h-.41c-8.81,0-15.88-1.93-18.92-5-3.9-3.9-5.57-15.6-4.07-28.44,1.72-14.62,7.07-27.67,14.33-34.93C43.83,24.83,52.23,21,60.77,21c9.07,0,18.28,4.36,27,13.05C104.62,50.91,105.16,69.73,89.21,85.68Z"/><path class="cls-2" d="M39.19,39.07c-.63.92-15.38,23.06-9.06,51.21a1.78,1.78,0,0,0,2.16,1.36,1.79,1.79,0,0,0,1.36-2.15c-6-26.58,8.38-48.18,8.53-48.4a1.8,1.8,0,0,0-3-2Z"/></svg>