<svg id="Calque_1" data-name="Calque 1" xmlns="http://www.w3.org/2000/svg" viewBox="0 0 122 122"><defs><style>.cls-1{fill:#f89b31;}.cls-2{fill:#fff;}</style></defs><circle class="cls-1" cx="61" cy="61" r="61"/><path class="cls-2" d="M87.84,33h0l-.1-.05a2.73,2.73,0,0,0-1.26-2.55c-4.32-2.77-12.69-6.82-21-3.5v-6.3a4.45,4.45,0,0,0-4.17-4.68H57.6a4.45,4.45,0,0,0-4.17,4.68v6.9a29,29,0,0,0-19.69,3.35,2.78,2.78,0,0,0-1.19,3.41,2.5,2.5,0,0,0,.21.35l-.52.13a2.87,2.87,0,0,0-1.11.57A39.3,39.3,0,0,0,16.58,65.41c0,22.43,19.92,40.68,44.42,40.68s44.42-18.25,44.42-40.68C105.43,52.58,99,40.76,87.84,33ZM53.43,30.91a2.74,2.74,0,0,0,2.33-.57,2.78,2.78,0,0,0,1-2.18V20.59c0-.74.44-1.32.81-1.32h3.74c.37,0,.81.58.81,1.32v7.14a2.8,2.8,0,0,0,4,2.55c6.14-2.81,12.64-.42,16.79,1.89a39,39,0,0,0-9.55.86,2.78,2.78,0,0,0-2.09,2.29,2.83,2.83,0,0,0,1.38,2.87,15.29,15.29,0,0,1,5.1,4.64,11.41,11.41,0,0,1,1.55,3.29,21.5,21.5,0,0,0-10.64-4.51,20.45,20.45,0,0,0-2.33-.21,2.79,2.79,0,0,0-2.06.81,2.83,2.83,0,0,0-.85,2.06,29.87,29.87,0,0,1-4.58,17c-1.65-3.51-2.16-11.06-2.07-17.26a2.82,2.82,0,0,0-2.48-2.83A9.6,9.6,0,0,0,53,41.14h-.25L52,41.2c-.35,0-.69.06-1,.12l-.68.14c-.35.08-.71.16-1.07.27s-.43.12-.64.2c-.37.12-.74.25-1.1.4l-.61.25c-.38.16-.74.34-1.11.52l-.57.28c-.38.2-.75.41-1.12.63-.17.1-.35.19-.52.3-.4.24-.79.49-1.18.75L42,45.3c-.51.35-1,.7-1.48,1.05a23.91,23.91,0,0,1,1.9-2.93l.1-.15a25.41,25.41,0,0,1,2.06-2.38h0A24.15,24.15,0,0,1,47.1,38.7l.33-.24.17-.12.59-.41a2.81,2.81,0,0,0-.51-5c-.09,0-.19,0-.28-.09-.37-.13-.77-.24-1.18-.35l-.79-.17-.11,0a.22.22,0,0,1-.08,0,24.87,24.87,0,0,0-6.81-.1A26.32,26.32,0,0,1,53.43,30.91ZM61,102.73c-22.64,0-41.07-16.74-41.07-37.32A35.94,35.94,0,0,1,33.2,38a98.18,98.18,0,0,1,11.47-2.3l.41.06.32.07-.48.37-.53.4L43.9,37l-.61.53c-.2.18-.4.38-.61.58l-.55.54c-.34.34-.69.73-1,1.12l-.17.18a28.75,28.75,0,0,0-4.53,7.25,2.74,2.74,0,0,0,.87,3.34,2.82,2.82,0,0,0,3.5-.07c2.87-2.37,8.24-6.22,12.64-5.93,0,4.72.2,15,3,19.35a2.81,2.81,0,0,0,2.29,1.29h.09A2.79,2.79,0,0,0,61.07,64c1.74-2.39,5.73-9,5.72-19.2A18.14,18.14,0,0,1,78.2,49.65,2.81,2.81,0,0,0,83,47.27a14.36,14.36,0,0,0-.55-2.48.53.53,0,0,0,0-.12,13.82,13.82,0,0,0-1.09-2.52c-.07-.11-.11-.23-.18-.35-.21-.36-.47-.73-.72-1.1-.09-.12-.16-.25-.26-.38-.21-.29-.48-.58-.73-.87s-.32-.4-.5-.6-.49-.46-.73-.69-.51-.51-.8-.75-.56-.42-.84-.63-.65-.52-1-.76a30.4,30.4,0,0,1,3.17-.37h.15l.79,0,.44,0,.64,0,.82,0h2l.61.06c.49.07,1,.12,1.49.18l.42,0c10.19,7.13,16,17.91,16,29.59C102.07,86,83.64,102.73,61,102.73Z"/><path class="cls-2" d="M26.75,67.5a1.66,1.66,0,0,0-1.9-1.42A1.68,1.68,0,0,0,23.43,68a19.14,19.14,0,0,0,2.44,7,1.67,1.67,0,0,0,2.31.59,1.68,1.68,0,0,0,.59-2.3A15.86,15.86,0,0,1,26.75,67.5Z"/><path class="cls-2" d="M25.18,62.41h.12A1.67,1.67,0,0,0,27,60.85a20.34,20.34,0,0,1,1.17-5.52A1.68,1.68,0,0,0,25,54.17a24.07,24.07,0,0,0-1.36,6.45A1.69,1.69,0,0,0,25.18,62.41Z"/></svg>