<svg id="Calque_1" data-name="Calque 1" xmlns="http://www.w3.org/2000/svg" viewBox="0 0 122 122"><defs><style>.cls-1{fill:#f89b31;}.cls-2{fill:#fff;}</style></defs><circle class="cls-1" cx="61" cy="61" r="61"/><path class="cls-2" d="M77.87,88.1a1.49,1.49,0,0,1,0-1.77,5.53,5.53,0,0,0,1-4.36c0-.16-.1-.31-.14-.47a3.67,3.67,0,0,0,.25-1.18v-.49a17.87,17.87,0,0,0-1.6-7.26c-3.4-7.69-3.39-14,0-21.8a17.76,17.76,0,0,0,1.57-7.18V41.68a4.28,4.28,0,0,0-1.51-3.11,9.64,9.64,0,0,0-8.15-14.82H65.14V19.61H56.86v4.14H52.72a9.64,9.64,0,0,0-8.15,14.82,4.28,4.28,0,0,0-1.51,3.11v1.9a17.77,17.77,0,0,0,1.57,7.19c3.42,7.78,3.43,14.09,0,21.81a17.93,17.93,0,0,0-1.59,7.24v.5a3.67,3.67,0,0,0,.25,1.18c0,.15-.11.31-.14.47a5.5,5.5,0,0,0,1,4.36,1.49,1.49,0,0,1,0,1.77,5.46,5.46,0,0,0-1,4.09,2.63,2.63,0,0,0-.09.66v9.54H78.93V92.85a2.65,2.65,0,0,0-.08-.66A5.46,5.46,0,0,0,77.87,88.1ZM46.24,92.8A2.53,2.53,0,0,1,45.9,92l0-.1a2.76,2.76,0,0,1,.49-2.12,4.23,4.23,0,0,0,.58-1.14h4.4a1.38,1.38,0,1,0,0-2.75h-4.4a4,4,0,0,0-.59-1.14,2.74,2.74,0,0,1-.47-2.19,2,2,0,0,1,.13-.42L46,82s0,0,0,0a2.6,2.6,0,0,1,.31-.5,3,3,0,0,1,1.81-1.09l.17,0a2.83,2.83,0,0,1,.41,0H73.23a2.73,2.73,0,0,1,.41,0l.17,0a3.09,3.09,0,0,1,1.82,1.1,4.19,4.19,0,0,1,.31.5s0,0,0,0l0,.07a2.58,2.58,0,0,1,.13.42,2.79,2.79,0,0,1-.48,2.19,4.36,4.36,0,0,0-.59,1.13H62.38a1.38,1.38,0,1,0,0,2.76H75.05a4.26,4.26,0,0,0,.59,1.14,2.75,2.75,0,0,1,.49,2.12l0,.1a2.72,2.72,0,0,1-.35.84,3,3,0,0,1-2.52,1.32H48.76A3.06,3.06,0,0,1,46.24,92.8ZM59.62,22.37h2.76v1.38H59.62Zm-6.9,4.14H69.28a6.87,6.87,0,0,1,5.06,11.55c-.11.12-.22.24-.34.35a7.69,7.69,0,0,1-.7.58,2.92,2.92,0,0,1-.37.24,5.51,5.51,0,0,1-.86.47l-.3.12a7.26,7.26,0,0,1-1.06.33l-.16,0a7.49,7.49,0,0,1-1.27.12H52.72a6.59,6.59,0,0,1-1.27-.13l-.17,0a7.53,7.53,0,0,1-1.05-.33l-.31-.12a5.89,5.89,0,0,1-.85-.47c-.13-.07-.25-.16-.37-.24a6.53,6.53,0,0,1-.7-.58c-.12-.11-.23-.23-.34-.35a6.87,6.87,0,0,1,5.06-11.55ZM47.18,73.69c3.75-8.5,3.75-15.46,0-24a15,15,0,0,1-1.34-6.08v-1.9a1.63,1.63,0,0,1,.55-1,9.79,9.79,0,0,0,1.39,1l0,0c.23.13.46.26.7.37l.1,0c.22.11.44.2.67.29l.18.07.63.2.28.08.57.13.44.07.44.06c.31,0,.61,0,.92,0H69.28c.31,0,.61,0,.92,0l.44-.06.44-.07.56-.13.29-.08.63-.2.18-.07c.23-.09.45-.18.67-.29l.1,0a6.8,6.8,0,0,0,.7-.38l0,0a9.79,9.79,0,0,0,1.39-1,1.63,1.63,0,0,1,.55,1v1.91a15.09,15.09,0,0,1-1.33,6.07c-3.78,8.58-3.79,15.54,0,24a15.65,15.65,0,0,1,1.27,4.57,5.41,5.41,0,0,0-2.66-.69H48.58a5.45,5.45,0,0,0-2.67.69A15.82,15.82,0,0,1,47.18,73.69Zm29,25.94H45.82V96.12a5.46,5.46,0,0,0,2.76.75H73.42a5.46,5.46,0,0,0,2.76-.75v3.51Z"/></svg>