<svg id="Calque_1" data-name="Calque 1" xmlns="http://www.w3.org/2000/svg" viewBox="0 0 122 122"><defs><style>.cls-1{fill:#f89b31;}.cls-2{fill:#fff;}</style></defs><circle class="cls-1" cx="61" cy="61" r="61"/><path class="cls-2" d="M81,27.37c-8.18,0-15.81,9.82-19.67,25.13a77.84,77.84,0,0,0-18.86-2.37c-7.21,0-13.29,2.43-17.57,7A22.4,22.4,0,0,0,19,72.52C19,82.91,25.9,94.1,41,94.1l.64,0,.79,0a76.54,76.54,0,0,0,25-4.22A23.11,23.11,0,0,0,91,92.56c7.61-3.51,12-10.78,12-19.92,0-.22,0-.43,0-.65s0-.53,0-.79C103,50.47,94,27.37,81,27.37ZM41.82,91.09c-.26,0-.53,0-.8,0-13,0-19-9.61-19-18.54A19.44,19.44,0,0,1,27.1,59.23c3.69-4,9-6.06,15.35-6.06a73.66,73.66,0,0,1,18.6,2.39l1,.27c1.54.43,3,.9,4.41,1.4l.75.28,1,.37,1.14.46.07,0c4.8,2,8.66,4.57,11.1,7.33.08.09.18.19.26.29l.46.59a5.74,5.74,0,0,1,.36.5c.11.16.22.32.32.48a10.59,10.59,0,0,1,.55,1c0,.08.07.17.11.25a8.43,8.43,0,0,1,.33.83c0,.11.07.23.11.34.07.26.14.52.19.77l.06.33a7.59,7.59,0,0,1,.08,1.07,7.73,7.73,0,0,1-.06,1c0,.12,0,.24-.07.35s-.07.4-.12.61-.1.3-.14.45l-.17.48c-.07.18-.15.36-.23.54l-.17.36-.35.64-.14.22c-.16.25-.32.5-.51.75,0,0,0,0,0,0-2.31,3.15-6.52,6-11.87,8.34l-.16.07-.86.35c-.32.13-.65.27-1,.39a71.39,71.39,0,0,1-24.93,4.43ZM99.93,71.83q0,.4,0,.81c0,7.91-3.72,14.17-10.21,17.16a20.15,20.15,0,0,1-18.9-1.19c9.09-3.91,15.5-9.64,15.5-16.47a10.4,10.4,0,0,0-.1-1.37.77.77,0,0,1,0-.15C85.08,63,75.88,56.8,64.22,53.31,67.68,39.55,74.32,30.4,81,30.4c9.75,0,19,19.83,19,40.8C100,71.41,99.94,71.62,99.93,71.83Z"/><path class="cls-2" d="M32.29,58.76A16.14,16.14,0,0,0,25.6,71.31,1.52,1.52,0,0,0,27,72.9h.08a1.51,1.51,0,0,0,1.51-1.44A13.16,13.16,0,0,1,34,61.24a1.52,1.52,0,1,0-1.75-2.48Z"/><path class="cls-2" d="M42.81,55.68a20.26,20.26,0,0,0-5.5.72,1.52,1.52,0,0,0,.41,3,1.84,1.84,0,0,0,.41-.05,17.09,17.09,0,0,1,4.68-.61,1.52,1.52,0,0,0,0-3Z"/><path class="cls-2" d="M87.61,43.38a26.52,26.52,0,0,1,3.29,7.18,1.53,1.53,0,0,0,1.46,1.09,1.59,1.59,0,0,0,.43-.06,1.54,1.54,0,0,0,1-1.89,29.91,29.91,0,0,0-3.68-8,1.52,1.52,0,1,0-2.53,1.68Z"/><path class="cls-2" d="M80.73,33.53a1.52,1.52,0,1,0-1,2.85A15,15,0,0,1,83.78,39a1.55,1.55,0,0,0,1,.36,1.51,1.51,0,0,0,1-2.66A17.28,17.28,0,0,0,80.73,33.53Z"/></svg>