<svg id="Calque_1" data-name="Calque 1" xmlns="http://www.w3.org/2000/svg" viewBox="0 0 122 122"><defs><style>.cls-1{fill:#f89b31;}.cls-2{fill:#fff;}</style></defs><circle class="cls-1" cx="61" cy="61" r="61"/><path class="cls-2" d="M51.77,61.77a2.31,2.31,0,1,1-2.31-2.31A2.31,2.31,0,0,1,51.77,61.77Z"/><path class="cls-2" d="M54.85,79.6a1.54,1.54,0,1,1-1.54-1.54A1.54,1.54,0,0,1,54.85,79.6Z"/><path class="cls-2" d="M64.08,68.69a1.54,1.54,0,1,1-1.54-1.54A1.54,1.54,0,0,1,64.08,68.69Z"/><path class="cls-2" d="M68.69,90.36a1.54,1.54,0,1,1-1.54-1.54A1.54,1.54,0,0,1,68.69,90.36Z"/><path class="cls-2" d="M57.92,92.67a2.31,2.31,0,1,1-2.3-2.31A2.31,2.31,0,0,1,57.92,92.67Z"/><path class="cls-2" d="M76.38,78.83a2.31,2.31,0,1,1-2.31-2.31A2.3,2.3,0,0,1,76.38,78.83Z"/><path class="cls-2" d="M74.58,37.22l-.5-.45c-1-1.19-.33-8.11.81-10.65A2.67,2.67,0,0,0,76,24.44a2,2,0,0,0,0-.24s0-.07,0-.11a1.3,1.3,0,0,0,0-.21.85.85,0,0,0,0-.23c-.79-3.86-11.82-4.18-15.3-4.18s-14.56.32-15.31,4.21c0,0,0,.06,0,.1a2.87,2.87,0,0,0,0,.31.8.8,0,0,0,0,.15.59.59,0,0,0,0,.13,2.7,2.7,0,0,0,1.18,1.81c1.31,2.58,2.44,9.41,1.57,10.58l-.5.44c-3.23,2.75-8.1,6.92-8.1,14.57V88.36a14.18,14.18,0,0,0,14.16,14.17H68.37A14.18,14.18,0,0,0,82.53,88.36V51.77C82.53,44.13,77.75,40,74.58,37.22ZM60.65,22.55c6.07,0,10.11.86,11.71,1.54-1.6.67-5.64,1.53-11.71,1.53s-10.11-.86-11.71-1.53C50.54,23.41,54.58,22.55,60.65,22.55Zm-11.08,17,.51-.44c1-.83,1.4-2.41,1.32-4.84a28.22,28.22,0,0,0-1.1-6.52,50.46,50.46,0,0,0,10.35,1,49.13,49.13,0,0,0,10.58-1,29.69,29.69,0,0,0-.68,5.16c-.13,3.18.37,5.28,1.47,6.25l.55.47C75.37,42,78.79,45,79.36,50.22c-3.57,8.25-9,9.74-11.18,10-3.54.38-6.84-3.32-9-6.52-4.75-7.06-11.51-7.23-16-5.88C44.35,44,47.18,41.57,49.57,39.53Zm18.8,59.92H53.63A11.1,11.1,0,0,1,42.54,88.36V51.77c0-.16,0-.31,0-.46,2.33-1,9.22-3.12,14.08,4.1,3.53,5.25,7.22,7.91,11,7.91a7.09,7.09,0,0,0,.92,0c2.19-.25,7-1.47,10.93-7V88.37A11.1,11.1,0,0,1,68.37,99.45Z"/></svg>