<svg id="Calque_1" data-name="Calque 1" xmlns="http://www.w3.org/2000/svg" viewBox="0 0 122 122"><defs><style>.cls-1{fill:#f89b31;}.cls-2{fill:#fff;}</style></defs><circle class="cls-1" cx="61" cy="61" r="61"/><path class="cls-2" d="M38.17,72a5.14,5.14,0,1,0,.69,7.84,5.06,5.06,0,0,0,1.5-3.63A5.14,5.14,0,0,0,38.17,72Zm-1.73,5.42a1.71,1.71,0,1,1-1.21-2.92,1.73,1.73,0,0,1,1.21.5h0a1.7,1.7,0,0,1,0,2.41Z"/><path class="cls-2" d="M104.28,40.76A3.92,3.92,0,0,0,102,37.94c-.77-.35-1.06-1.13-1.44-2.39s-1.11-3.66-3.8-3.44a2.69,2.69,0,0,1-2.26-.71,2.77,2.77,0,0,1-.72-2.26,6.11,6.11,0,0,0-1.7-5,6.25,6.25,0,0,0-4.77-1.73l-.06-.33a4.8,4.8,0,0,0-4.47-4.46,5,5,0,0,0-4,.27,4,4,0,0,0-1.79,3.3l0,10.72H59.56a35.59,35.59,0,0,0-7.91.91,29.42,29.42,0,0,0-4.59-9.69h0a1.73,1.73,0,0,0-2.15-.53h0c-.32.16-8,4-10.1,10.68a11.35,11.35,0,0,0,.47,8.15,35.79,35.79,0,0,0-11.64,26.4V97a1.71,1.71,0,0,0,1.71,1.71H54.23A35.92,35.92,0,0,0,79.8,88.08c.83-.83,1.61-1.7,2.35-2.59.75.06,1.53.11,2.37.11A28.7,28.7,0,0,0,101.59,80h0a1.71,1.71,0,0,0,.53-2.15h0c-.19-.4-4.59-9.07-12.09-10.45a34.4,34.4,0,0,0,.36-4.88V45.13l10.82.11.13,0a3.51,3.51,0,0,0,2-1.07h0A3.78,3.78,0,0,0,104.28,40.76ZM38.06,39.08a7.71,7.71,0,0,1,0-4.75c.94-3,3.47-5.34,5.51-6.85a1.72,1.72,0,0,1,2.54.55,25.44,25.44,0,0,1,2.27,5.68,36.76,36.76,0,0,0-4.49,1.84l-1,.51c-.48.25-.94.53-1.41.81s-.95.56-1.41.86-.83.56-1.24.85C38.55,38.75,38.29,38.9,38.06,39.08ZM89.43,70.75c3.43.64,6.16,3.51,7.82,5.77a1.72,1.72,0,0,1-.55,2.53,25.19,25.19,0,0,1-12.13,3.12,35.53,35.53,0,0,0,4.84-11.41Zm11.44-28.94L87,41.68V62.51a33.3,33.3,0,0,1-.54,5.84l0,.24c-.1.52-.22,1-.34,1.54,0,.22-.11.44-.17.66A32.72,32.72,0,0,1,80,82.65l-.66.85c-.63.74-1.27,1.47-2,2.16a32.56,32.56,0,0,1-23.15,9.59H28.77a1.71,1.71,0,0,1-1.71-1.71V67.83A32.59,32.59,0,0,1,47.49,37.68l.07,0a31.39,31.39,0,0,1,3.27-1.1,32.24,32.24,0,0,1,8.73-1.23H80.45l0-14c0-.37.13-.54.17-.56a1.85,1.85,0,0,1,1.16.08l.43.11c1.38.15,1.46.54,1.68,1.72.17.92.64,3.38,3.5,3.12a2.79,2.79,0,0,1,2.27.72,2.75,2.75,0,0,1,.71,2.26A6,6,0,0,0,97,35.54a10.66,10.66,0,0,1,.35,1c.42,1.4,1.07,3.51,3.32,4.52a.51.51,0,0,1,.28.38.39.39,0,0,1-.07.36Zm.23.26v0l1,.95Z"/><path class="cls-2" d="M35.23,60v3.42a24,24,0,0,1,24,24h3.43A27.42,27.42,0,0,0,35.23,60Z"/><path class="cls-2" d="M40.8,54.38V57.8a24,24,0,0,1,24,24h3.43A27.42,27.42,0,0,0,40.8,54.38Z"/><path class="cls-2" d="M46.12,49.05v3.43a24,24,0,0,1,24,24h3.42A27.42,27.42,0,0,0,46.12,49.05Z"/><path class="cls-2" d="M51.69,43.48V46.9a24,24,0,0,1,24,24h3.42A27.42,27.42,0,0,0,51.69,43.48Z"/></svg>