<svg id="Calque_1" data-name="Calque 1" xmlns="http://www.w3.org/2000/svg" viewBox="0 0 122 122"><defs><style>.cls-1{fill:#f89b31;}.cls-2{fill:#fff;}</style></defs><circle class="cls-1" cx="61" cy="61" r="61"/><path class="cls-2" d="M71.54,68a7,7,0,0,0,6,3.43,7.47,7.47,0,0,0,3.32-.8l4.25-1.5-2.83-3.5a7,7,0,0,0-4.91-3.32,7.27,7.27,0,0,0,4.22-1.73l3.77-2.47-3.59-2.73A7.48,7.48,0,0,0,79,53.74a7.42,7.42,0,0,0,2-2.4l2.6-3.68-4.33-1.22a7.16,7.16,0,0,0-5-.28,7.26,7.26,0,0,0,2.41-3.62l1.81-4.13-4.49-.33a7,7,0,0,0-8.27,5l-1.44,3.29a25.44,25.44,0,0,0-2.93-2.85l3.48-1.85A7,7,0,0,0,69.29,33l-.66-4.46-4,2.12a7,7,0,0,0-4.35,8.61L60.85,43A24.59,24.59,0,0,0,57,40.57l1.7-3.09a7,7,0,0,0-1.08-9.59l-3-3.37-2.17,3.95a7,7,0,0,0,1.08,9.59L55,39.65c-.31-.12-.62-.26-.94-.37a1.25,1.25,0,0,0-1.44.49l-2.34-2.68a7,7,0,0,0-9.37-2.29l-4.19,1.65,3,3.39a7,7,0,0,0,5.83,3.22A6.48,6.48,0,0,0,46.62,43a7.06,7.06,0,0,0-4.07,4.21l-2.07,4,4.46.62a7.66,7.66,0,0,0,2,.26,6.88,6.88,0,0,0,3.22-.79,7.41,7.41,0,0,0-.31,3.44l.11,4.5,4.21-1.61a6.41,6.41,0,0,0,1-.34,7.59,7.59,0,0,0-.26,1.07l-1.22,4.33,4.49-.3a1,1,0,0,0,.17,0,7.48,7.48,0,0,0-1.8,2.38l-2.42,3.8,4.39,1a8,8,0,0,0,1.54.37,7.07,7.07,0,0,0-5,2.74l-3.2,3.17,4,2a7.35,7.35,0,0,0,4,1.2,7.06,7.06,0,0,0,5.55-2.79L65.6,76c-4,9.67-12.62,16.77-24,18.94a1.29,1.29,0,0,0,.23,2.55,1,1,0,0,0,.25,0c11.55-2.2,20.47-9.14,25.07-18.68L67,82.54a7,7,0,0,0,5.19,8.14l4.17,1.69.21-4.49a7,7,0,0,0-5.19-8.13l-3.9-1.59a34.21,34.21,0,0,0,1.75-4.79l.54,1.91a7,7,0,0,0,7.5,6.07l4.5.29-1.23-4.33A7,7,0,0,0,73,71.24L69.81,71a36,36,0,0,0,.66-4.32Zm-5.91-35,1-.51.14.94,0,.16A4.45,4.45,0,0,1,64,39.28l-1,.51-.14-.94,0-.16A4.47,4.47,0,0,1,65.63,33.06Zm-11-3.14.55-1,.64.71.11.12A4.46,4.46,0,0,1,56.59,36L56,37l-.64-.72-.11-.11A4.46,4.46,0,0,1,54.58,29.92Zm15,53,.06-1.12.88.36.16,0A4.46,4.46,0,0,1,74,87.51L74,88.63l-.88-.36-.16,0A4.46,4.46,0,0,1,69.54,82.91Zm3.5-9.1h.08a4.45,4.45,0,0,1,4.9,4l.29,1.08-1-.07h-.09a4.46,4.46,0,0,1-4.9-4L72,73.75ZM70.6,63.87c0-.37,0-.73,0-1.1a25.2,25.2,0,0,0-.33-3.71l1.61,1.22a7.3,7.3,0,0,0,3.83,2A7.44,7.44,0,0,0,73,63ZM68.81,53.65l3.16.89.59.22a5,5,0,0,0-.47.33L69.78,56.6A24.82,24.82,0,0,0,68.81,53.65ZM80.1,67.08l.69.88-.9.31-.15.07a4.45,4.45,0,0,1-6.06-1.72l-.7-.87.9-.32.16-.07A4.45,4.45,0,0,1,80.1,67.08ZM80.88,58l-.8.52-.13.1a4.46,4.46,0,0,1-6.3-.21l-.88-.69.79-.52.14-.1a4.44,4.44,0,0,1,6.29.22Zm-2.47-9.17,1.07.32-.55.78-.09.14a4.46,4.46,0,0,1-5.94,2.09l-1.07-.31.55-.78.09-.14A4.45,4.45,0,0,1,78.41,48.82ZM68.21,44l.06-.15a4.45,4.45,0,0,1,5.39-3.25l1.12.09-.38.88-.06.15A4.46,4.46,0,0,1,68.94,45l-1.11-.09Zm.3,3.5a8.09,8.09,0,0,0,1.53.15,7.27,7.27,0,0,0,2.15-.33,7.36,7.36,0,0,0-2,2.31l-2,2.77a25.7,25.7,0,0,0-3.14-5.15ZM65.22,52l-2.84.19a7.49,7.49,0,0,0-3.06.48,7.44,7.44,0,0,0,.21-3.14l-.11-4.43A22.45,22.45,0,0,1,65.22,52ZM41.72,38.35,41,37.5l.89-.35.15-.07a4.45,4.45,0,0,1,6.11,1.49l.73.86-.89.35-.15.07A4.46,4.46,0,0,1,41.72,38.35ZM49,42.13l3.37-1.33a1.28,1.28,0,0,0,.81.91,21.49,21.49,0,0,1,6.17,3.37l-4.14,1.59a7.41,7.41,0,0,0-1.72.67h0l2.07-4-4.46-.62a7.69,7.69,0,0,0-3-.16A7.72,7.72,0,0,0,49,42.13Zm-3.48,7.15-1.11-.17.44-.85.07-.15a4.45,4.45,0,0,1,5.59-2.89l1.11.16-.44.85-.07.15A4.46,4.46,0,0,1,45.53,49.28Zm7.95,5.82-1,.39,0-1v-.17a4.45,4.45,0,0,1,3.51-5.23L57,48.75l0,1v.16A4.45,4.45,0,0,1,53.48,55.1Zm4.67,4.66-1,.07.26-.91,0-.17a4.43,4.43,0,0,1,4.54-4h.43l1-.07-.26.92,0,.16a4.44,4.44,0,0,1-4.89,4Zm7.5-3.51.6-2.12A23.62,23.62,0,0,1,68,61.64l-2.55-.58a7.33,7.33,0,0,0-2.17-.43A7.11,7.11,0,0,0,65.65,56.25ZM58.23,66.82l.51-.8.08-.15a4.45,4.45,0,0,1,5.83-2.38l1.09.26-.52.8-.08.15a4.46,4.46,0,0,1-5.83,2.39Zm5.33,7.58-.11.13a4.47,4.47,0,0,1-6.22,1l-1-.5.68-.67.11-.13a4.45,4.45,0,0,1,6.21-1l1,.49Zm1-3.36A7.47,7.47,0,0,0,61.66,70a7,7,0,0,0,5.77-4.09L68,65a32.68,32.68,0,0,1-1.11,7.22Z"/></svg>