<svg id="Calque_1" data-name="Calque 1" xmlns="http://www.w3.org/2000/svg" viewBox="0 0 122 122"><defs><style>.cls-1{fill:#f89b31;}.cls-2{fill:#fff;}</style></defs><circle class="cls-1" cx="61" cy="61.13" r="60.87"/><path class="cls-2" d="M25.49,63.48a1.73,1.73,0,1,0,1.72,1.73A1.72,1.72,0,0,0,25.49,63.48Z"/><path class="cls-2" d="M96.1,69.46,79.85,75.05A7.12,7.12,0,0,0,80,73.82a6.9,6.9,0,0,0-6.89-6.89H61.9a1.75,1.75,0,0,1-.84-.22L52,61.58A12.14,12.14,0,0,0,46,60H33.81a5.17,5.17,0,0,0-4.87-3.44H18.6a1.72,1.72,0,0,0-1.73,1.72v31a1.72,1.72,0,0,0,1.73,1.72H28.94a5.17,5.17,0,0,0,4.82-3.32,15.88,15.88,0,0,1,5.63,1.67l9,5.41A21.95,21.95,0,0,0,68.81,96L101,81.82A6.64,6.64,0,0,0,96.1,69.46ZM30.66,85.9a1.72,1.72,0,0,1-1.72,1.71H20.32V60h8.62a1.73,1.73,0,0,1,1.72,1.73Zm69-7.27-.06,0L67.39,92.84a18.33,18.33,0,0,1-7.67,1.67,18.53,18.53,0,0,1-9.54-2.64l-9-5.41a19,19,0,0,0-7.06-2.15V63.48H46a8.59,8.59,0,0,1,4.23,1.11l9.11,5.12a5.12,5.12,0,0,0,2.53.67H73.07a3.45,3.45,0,0,1,0,6.89H55.54a1.73,1.73,0,0,0,0,3.45H73.07a6.85,6.85,0,0,0,3.23-.81l21-7.2a3.2,3.2,0,1,1,2.41,5.92Z"/><path class="cls-2" d="M67.08,60.11a1.72,1.72,0,0,0,2.25,0C83.4,47.92,92.1,41.76,92.1,32.17c0-7.58-5.37-13.87-12.91-13.87-5,0-8.75,2.86-11.19,7.14-2.44-4.27-6.23-7.14-11.19-7.14a12.74,12.74,0,0,0-12.3,9.53,1.72,1.72,0,1,0,3.31,1,9.36,9.36,0,0,1,9-7c4.92,0,8.37,4.37,9.53,8.43A1.71,1.71,0,0,0,68,31.45a1.73,1.73,0,0,0,1.66-1.27c0-.08,2.42-8.43,9.53-8.43,5.39,0,9.46,4.48,9.46,10.42,0,7.67-7.5,13.2-20.45,24.36C60.31,49.76,54,45,50.48,40.32a1.72,1.72,0,0,0-2.74,2.09C51.76,47.67,58.54,52.71,67.08,60.11Z"/><path class="cls-2" d="M46,33.49a1.73,1.73,0,1,0,1.73,1.72A1.72,1.72,0,0,0,46,33.49Z"/></svg>