<svg id="Calque_1" data-name="Calque 1" xmlns="http://www.w3.org/2000/svg" viewBox="0 0 122 122"><defs><style>.cls-1{fill:#f89b31;}.cls-2{fill:#fff;}</style></defs><circle class="cls-1" cx="60.87" cy="61.13" r="60.87"/><path class="cls-2" d="M99.74,34.53H77.8V32.11a7.26,7.26,0,0,0-7.25-7.26H51.2a7.27,7.27,0,0,0-7.26,7.26v2.42H22a2.43,2.43,0,0,0-2.42,2.41V90.15a7.27,7.27,0,0,0,7.26,7.26h68a7.27,7.27,0,0,0,7.26-7.26V37h0A2.35,2.35,0,0,0,99.74,34.53Zm-51-2.42a2.42,2.42,0,0,1,2.42-2.42H70.55A2.41,2.41,0,0,1,73,32.11v2.42H48.78Zm47.59,7.25L88.86,61.89a2.42,2.42,0,0,1-2.29,1.66H73V61.13a2.41,2.41,0,0,0-2.41-2.42H51.2a2.42,2.42,0,0,0-2.42,2.42v2.42H35.17a2.42,2.42,0,0,1-2.29-1.66L25.37,39.36ZM68.13,63.55v4.83H53.62V63.55Zm29.18,26.6a2.42,2.42,0,0,1-2.42,2.42h-68a2.42,2.42,0,0,1-2.42-2.42V51.85l3.86,11.57a7.25,7.25,0,0,0,6.88,5H48.78V70.8a2.42,2.42,0,0,0,2.42,2.42H70.55A2.41,2.41,0,0,0,73,70.8V68.38H86.57a7.24,7.24,0,0,0,6.88-5l3.86-11.57Z"/></svg>