<svg id="Calque_1" data-name="Calque 1" xmlns="http://www.w3.org/2000/svg" viewBox="0 0 122 122"><defs><style>.cls-1{fill:#c6e873;}.cls-2{fill:#a8d340;}.cls-3{fill:#c6865c;}.cls-4{fill:#e2f4ff;}.cls-5{fill:#d1ecf9;}.cls-6{fill:#407093;}.cls-7{fill:#4a80aa;}.cls-8{fill:#ffddce;}.cls-9{fill:#ffcbbe;}.cls-10{fill:#afe2f7;}.cls-11{fill:#8fd6f7;}.cls-12{fill:#74ccf7;}.cls-13{fill:#b5e245;}</style></defs><path class="cls-1" d="M86.76,37.62a.27.27,0,0,1,.38-.3c.78.33,2.78,1.12,7.6.84,7.7-.45,7.11,9.48,7.11,9.48s-12.16,5.89-15.09-10Z"/><path class="cls-2" d="M101.85,62.33a1.8,1.8,0,0,1-1.81-1.8V36.23a1.81,1.81,0,0,1,3.61,0v24.3A1.8,1.8,0,0,1,101.85,62.33Z"/><path class="cls-3" d="M84.32,66.91a25.08,25.08,0,0,1,34.74,0Z"/><path class="cls-4" d="M105.66,66.31H81.33v4.06a6.53,6.53,0,0,0,7.58,6.44l10.37-1.68A5.08,5.08,0,0,0,101.76,74a11,11,0,0,0,3.9-7.69Z"/><path class="cls-5" d="M104.5,66.31a11,11,0,0,1-5.61,8.89l15.94-2.59a6.39,6.39,0,0,0,5.37-6.3Z"/><path class="cls-6" d="M120.2,68.11H69.8a1.81,1.81,0,0,1,0-3.61h50.4a1.81,1.81,0,0,1,0,3.61Z"/><path class="cls-7" d="M69,73.15H46.56V59.47H69a4.32,4.32,0,0,1,4.32,4.32v5A4.33,4.33,0,0,1,69,73.15Z"/><path class="cls-8" d="M58.79,84.37l-19-18.17A2.8,2.8,0,0,0,38,65.44a7,7,0,0,1-4.71-2L22.58,52.74l-7.12,7.12L28.14,72.54a7.12,7.12,0,0,1,1.47,2.17l2.44,5.67a29,29,0,0,0,5.55,7.76l5,5.1a4,4,0,0,0,5.61.05,4.1,4.1,0,0,0,0-5.79l-.09-.09,2,2a4.07,4.07,0,0,0,5.78,0,6.19,6.19,0,0,0,1.31-4.24,4.08,4.08,0,0,0,5.79,0,4.59,4.59,0,0,0,.48-.61,4.1,4.1,0,0,1-4.66-.21Z"/><path class="cls-9" d="M70.23,75.59l-2.14-2.14-.15-.17-8.77-8.77a2.69,2.69,0,0,1,0-3.8L60.85,59a1.25,1.25,0,0,0-.12-1.87,11.21,11.21,0,0,0-8.19-2.27l-3.47.41a7,7,0,0,1-5.73-2L32.67,42.65,21.41,53.91,32.07,64.58a6.94,6.94,0,0,0,4.71,2,2.84,2.84,0,0,1,1.87.76l19,18.17A4.07,4.07,0,0,0,63,85.19a4,4,0,0,0-.06-5.6l1.66,1.66a4,4,0,1,0,5.66-5.66Z"/><path class="cls-10" d="M22.58,52.74l1.58-1.58L11.34,38.34l-2.4-.05L1.57,45.65a2.84,2.84,0,0,0,0,4L14.25,62.35l9-9Z"/><path class="cls-11" d="M22.43,28.82a2.85,2.85,0,0,0-4,0L8.94,38.29,23.63,53,35.11,41.5Z"/><path class="cls-11" d="M30.13,56.09a2,2,0,0,0,0-2.87L26,49.12a2,2,0,0,0-2.87,0L12.39,59.89a2,2,0,0,0,0,2.87l4.1,4.1a2,2,0,0,0,2.87,0Z"/><path class="cls-12" d="M40.31,43l-4.1-4.1a2,2,0,0,0-2.86,0L21.87,50.41a2,2,0,0,1,2.87,0l4.09,4.1a2,2,0,0,1,0,2.87L40.31,45.9A2,2,0,0,0,40.31,43Z"/><path class="cls-13" d="M116,28.12a.28.28,0,0,0-.34-.35c-.82.23-2.86.5-7.65-.09-9.28-1.12-8,8.55-8,8.55S111.15,43.56,116,28.12Z"/></svg>