<svg id="Calque_1" data-name="Calque 1" xmlns="http://www.w3.org/2000/svg" viewBox="0 0 122 122"><defs><style>.cls-1{fill:#b5e245;}.cls-2{fill:#c6e873;}.cls-3{fill:#e4936b;}.cls-4{fill:#e27d47;}.cls-5{fill:#ffddce;}.cls-6{fill:#eaaadd;}.cls-7{fill:#e490d0;}.cls-8{fill:#ffcbbe;}</style></defs><path class="cls-1" d="M118.37,18c-3.84,2.51-8,5-11.83,7.81-2.11,1.55-6.93,5.78-7.77,5.4S99.21,25,100,22.83a28.44,28.44,0,0,1,6.61-11.15c2.66-2.58,7.5-3.25,10.53-1.5,2.56,1.49,4.14,5.87,1.25,7.77Z"/><path class="cls-1" d="M78.55,18c3.84,2.51,8,5,11.82,7.81,2.12,1.55,6.93,5.78,7.78,5.4S97.7,25,96.94,22.83a28.56,28.56,0,0,0-6.61-11.15c-2.67-2.58-7.5-3.25-10.53-1.5-2.56,1.49-4.14,5.87-1.25,7.77Z"/><path class="cls-2" d="M104.82,5.88c0,6.41-4.6,25.27-6.48,25.27S91.86,12.29,91.86,5.88a6.5,6.5,0,0,1,13,0Z"/><path class="cls-3" d="M92.78,112.9l9.76-67.74a16.25,16.25,0,0,0-7.69-17.49,5.07,5.07,0,0,0-4.08-.45,15.4,15.4,0,0,0-2.58,1.07l-.14.07h0A15.9,15.9,0,0,0,80,45.78l10.89,69.15a2.44,2.44,0,0,0,1.91-2Z"/><path class="cls-4" d="M101.39,26.49H95.53a15.61,15.61,0,0,0-5.11.85,15.92,15.92,0,0,1,10.41,18.44l-10,69.15a7.68,7.68,0,0,0,15.18,0l10.89-69.15a15.92,15.92,0,0,0-15.55-19.29Z"/><path class="cls-5" d="M114.84,55.39H87.69a5,5,0,0,1-2.13-.65,10.43,10.43,0,0,1-5.39-7.6L79.82,45a18.84,18.84,0,0,0-11.41,6.86l-3.63,4.61a11.64,11.64,0,0,1-9.15,4.45h-5.4v40.83H60.4a11.64,11.64,0,0,1,4.32.83l9.62,3.83A49,49,0,0,0,90.13,109h17.1a5.09,5.09,0,0,0,4.87-3.68l-.41-2.2a12.87,12.87,0,0,0-4.46-7.53h3.25a5.11,5.11,0,0,0,4.89-3.69l-.15-1.07a13.9,13.9,0,0,0-4.74-8.64h2.59a5.1,5.1,0,0,0,4.86-3.63l0-.68a12.66,12.66,0,0,0-4.82-9.09h1.77a5.1,5.1,0,0,0,4.86-3.61l-.34-2.36a11.18,11.18,0,0,0-4.52-7.44Z"/><path class="cls-6" d="M18.41,99.7a7.09,7.09,0,0,0,7.09-7.09V60.43l-1.59-4.17H6.41a4.08,4.08,0,0,0-4.08,4.07V98.48L5.15,99.7Z"/><path class="cls-7" d="M23.91,56.26V91.39a7.1,7.1,0,0,1-7.09,7.09H2.33v3.93a4.08,4.08,0,0,0,4.08,4.08h46.2V56.26Z"/><path class="cls-6" d="M52.86,53.12H43.14a3.4,3.4,0,0,0-3.4,3.4v49.71a3.4,3.4,0,0,0,3.4,3.4h9.72a3.4,3.4,0,0,0,3.4-3.4V56.52a3.4,3.4,0,0,0-3.4-3.4Z"/><path class="cls-8" d="M114.84,55.39H87.69a5,5,0,0,1-2.13-.65A10.26,10.26,0,0,1,83.18,53v1.58a7.07,7.07,0,0,0,7.07,7.07h24.59a5.41,5.41,0,0,1,4.86,3.54,5.08,5.08,0,0,0,.22-1.47V60.47a5.09,5.09,0,0,0-5.08-5.08Z"/><path class="cls-8" d="M113.07,68.8H88.77v.13a6,6,0,0,0,6,6h18.29l1.09.12a5.08,5.08,0,0,1,3.77,3.52,4.94,4.94,0,0,0,.22-1.45V73.88A5.08,5.08,0,0,0,113.07,68.8Z"/><path class="cls-8" d="M110.48,82.2H91.57a6,6,0,0,0,6,6h12.91a5.08,5.08,0,0,1,4.89,3.7,5.28,5.28,0,0,0,.19-1.38V87.28a5.07,5.07,0,0,0-5.08-5.08Z"/><path class="cls-8" d="M107.23,95.6H94.37v.06a6,6,0,0,0,6,6h6.86a5.07,5.07,0,0,1,4.87,3.67,5,5,0,0,0,.2-1.4v-3.25A5.08,5.08,0,0,0,107.23,95.6Z"/></svg>