<svg id="Calque_1" data-name="Calque 1" xmlns="http://www.w3.org/2000/svg" viewBox="0 0 122 122"><defs><style>.cls-1{fill:#ffe266;}.cls-2{fill:#e27d47;}.cls-3{fill:#afe2f7;}.cls-4{fill:#8fd6f7;}.cls-5{fill:#fff;}.cls-6{fill:#fef2a8;}</style></defs><path class="cls-1" d="M64.56,65a13.07,13.07,0,0,1-16.73,7.85c-6.78-2.46-3.41-7.46-1-14.24s3.05-12.79,9.84-10.34A13.07,13.07,0,0,1,64.56,65Z"/><path class="cls-1" d="M39.47,68A13.06,13.06,0,0,1,24.7,79.09c-7.14-1-4.86-6.6-3.85-13.75s.38-13.14,7.53-12.12A13.06,13.06,0,0,1,39.47,68Z"/><path class="cls-1" d="M89.38,65.58a13.06,13.06,0,0,1-17.11,7c-6.65-2.8-3-7.62-.23-14.27s3.72-12.61,10.37-9.81a13.06,13.06,0,0,1,7,17.11Z"/><path class="cls-1" d="M44.1,80.25A13.07,13.07,0,0,1,25.76,78c-4.44-5.69,1.07-8.13,6.76-12.57s9.39-9.21,13.83-3.52A13.07,13.07,0,0,1,44.1,80.25Z"/><path class="cls-2" d="M36.09,85.48a15.72,15.72,0,0,1-1.93-.11,15.45,15.45,0,0,1-10.34-5.86c-1.68-2.15-2.36-4.17-2.08-6.18.46-3.37,3.4-5.52,6.79-8,.81-.59,6.29-5.07,7.35-5.81a2.46,2.46,0,0,1,2.82,4c-.85.6-6.42,5.14-7.26,5.75-2.38,1.75-4.64,3.4-4.82,4.7a4,4,0,0,0,1.09,2.47,10.59,10.59,0,0,0,18.86-5.24,10.5,10.5,0,0,0-2.16-7.81,2.46,2.46,0,1,1,3.88-3,15.52,15.52,0,0,1-12.2,25.09Z"/><path class="cls-1" d="M73.63,61.91A13.07,13.07,0,0,1,53,78c-4.44-5.69,1.07-8.13,6.76-12.57,2-1.58,3.78-3.2,5.43-4.38"/><path class="cls-2" d="M63.35,85.48a15.5,15.5,0,0,1-12.25-6c-1.68-2.15-2.36-4.17-2.08-6.18.46-3.37,3.39-5.52,6.79-8,.81-.59,6.35-5.16,7.52-5.94a2.47,2.47,0,1,1,2.72,4.12c-.89.59-6.49,5.19-7.33,5.8-2.38,1.75-4.64,3.4-4.82,4.7A4,4,0,0,0,55,76.48a10.6,10.6,0,0,0,16.7-13.05c-.12-.15-.18-.26-.26-.35a2.47,2.47,0,0,1,3.33-3.64,4.46,4.46,0,0,1,.82,1A15.52,15.52,0,0,1,63.35,85.48Zm8.18-22.29Z"/><path class="cls-1" d="M96.69,80.25A13.07,13.07,0,0,1,78.35,78c-4.44-5.69,1.07-8.13,6.75-12.57s9.39-9.21,13.83-3.52a13.06,13.06,0,0,1-2.24,18.34Z"/><path class="cls-2" d="M88.67,85.48a15.43,15.43,0,0,1-12.27-6c-1.68-2.15-2.36-4.17-2.08-6.18.47-3.37,3.4-5.52,6.8-8,.8-.59,6.22-5,7.17-5.68a2.47,2.47,0,0,1,2.91,4c-.8.58-6.33,5.06-7.17,5.67-2.39,1.75-4.64,3.4-4.82,4.7a4,4,0,0,0,1.08,2.47A10.6,10.6,0,0,0,95.17,78.3a2.47,2.47,0,1,1,3,3.89,15.41,15.41,0,0,1-9.53,3.29Z"/><path class="cls-3" d="M19,74.31a4.45,4.45,0,0,0-4.42,4.87,48,48,0,0,0,29.36,39.73,29.13,29.13,0,0,0,11.21,2.2H69.49a29.09,29.09,0,0,0,11.21-2.2,48,48,0,0,0,29.36-39.73,4.44,4.44,0,0,0-4.42-4.87Z"/><path class="cls-4" d="M105.64,74.31H89.53a3.39,3.39,0,0,1,3.64,3.49c-1.41,12.87-11,23.67-24.17,28.44a27.07,27.07,0,0,1-9.22,1.57H47.92a27.07,27.07,0,0,1-9.22-1.57c-13.09-4.73-22.61-15.41-24.13-28.15a4.93,4.93,0,0,0,0,1.09,48,48,0,0,0,29.36,39.73,29.13,29.13,0,0,0,11.21,2.2H69.49a29.09,29.09,0,0,0,11.21-2.2,48,48,0,0,0,29.36-39.73,4.44,4.44,0,0,0-4.42-4.87Z"/><path class="cls-5" d="M37.06,87.51a2.47,2.47,0,0,1,0-4.94h7.72a2.47,2.47,0,0,1,0,4.94Z"/><path class="cls-5" d="M28.66,87.51H27a2.47,2.47,0,0,1,0-4.94h1.65a2.47,2.47,0,0,1,0,4.94Z"/><path class="cls-6" d="M63.09,1.49l2,5.7a.93.93,0,0,0,.48.53L70.65,10a1,1,0,0,1,0,1.79l-5.06,2.28a.9.9,0,0,0-.48.53l-2,5.7a.83.83,0,0,1-1.59,0l-2-5.7a.9.9,0,0,0-.48-.53l-5.06-2.28a1,1,0,0,1,0-1.79L59,7.72a.93.93,0,0,0,.48-.53l2-5.7A.82.82,0,0,1,63.09,1.49Z"/><path class="cls-6" d="M13.21,25l2,5.7a.88.88,0,0,0,.47.53l5.06,2.28a1,1,0,0,1,0,1.79l-5.06,2.28a.86.86,0,0,0-.47.53l-2,5.7a.83.83,0,0,1-1.59,0l-2-5.7a.9.9,0,0,0-.48-.53L4.06,35.26a1,1,0,0,1,0-1.79l5.06-2.28a.93.93,0,0,0,.48-.53l2-5.7A.83.83,0,0,1,13.21,25Z"/><path class="cls-6" d="M111.93,34.81l1.5,4.23a.65.65,0,0,0,.35.39l3.76,1.7a.75.75,0,0,1,0,1.32l-3.76,1.69a.66.66,0,0,0-.35.4l-1.5,4.22a.61.61,0,0,1-1.18,0l-1.5-4.22a.7.7,0,0,0-.35-.4l-3.76-1.69a.75.75,0,0,1,0-1.32l3.76-1.7a.68.68,0,0,0,.35-.39l1.5-4.23A.61.61,0,0,1,111.93,34.81Z"/><circle class="cls-1" cx="89.95" cy="28.92" r="4.42"/><path class="cls-1" d="M42.82,25.6a1.91,1.91,0,1,1-1.9-1.9A1.9,1.9,0,0,1,42.82,25.6Z"/></svg>