<svg id="Calque_1" data-name="Calque 1" xmlns="http://www.w3.org/2000/svg" viewBox="0 0 122 122"><defs><style>.cls-1{fill:#41495a;}.cls-2{fill:#141e32;}.cls-3{fill:#006e8c;}.cls-4{fill:#4bb4d2;}.cls-5{fill:#f7785a;}.cls-6{fill:#2691af;}</style></defs><path class="cls-1" d="M22.72,53.6A22.72,22.72,0,1,0,45.43,76.31,22.74,22.74,0,0,0,22.72,53.6Zm0,38.28A15.57,15.57,0,1,1,38.28,76.31,15.58,15.58,0,0,1,22.72,91.88Z"/><path class="cls-2" d="M22.72,53.6v7.15a15.57,15.57,0,0,1,0,31.13V99a22.72,22.72,0,0,0,0-45.43Z"/><path class="cls-3" d="M45.69,53.09a3.57,3.57,0,0,1-3.29-2.17L35.84,35.61a3.57,3.57,0,0,1,6.57-2.82L49,48.11a3.57,3.57,0,0,1-1.88,4.69A3.45,3.45,0,0,1,45.69,53.09Z"/><path class="cls-1" d="M99.28,53.6A22.72,22.72,0,1,0,122,76.31,22.74,22.74,0,0,0,99.28,53.6Zm0,38.28a15.57,15.57,0,1,1,15.57-15.57A15.58,15.58,0,0,1,99.28,91.88Z"/><path class="cls-4" d="M86.92,37.55a3.56,3.56,0,0,0-3.85-1.45l-38.28,10A3.53,3.53,0,0,0,43,47.19L20,74a3.58,3.58,0,0,0,2.72,5.9H57.17a3.59,3.59,0,0,0,2.89-1.47l26.8-36.75A3.58,3.58,0,0,0,86.92,37.55ZM30.49,72.74,44.66,56.2l7.09,16.54ZM58,69.13l-7.37-17.2,24.58-6.39Z"/><path class="cls-5" d="M49.51,37.78H34.2a3.58,3.58,0,0,1,0-7.15H49.51a3.58,3.58,0,1,1,0,7.15Z"/><path class="cls-6" d="M83.07,36.1,58,42.63V50l17.21-4.47L58,69.13V79.79a3.55,3.55,0,0,0,2.08-1.37l26.8-36.75a3.58,3.58,0,0,0-3.79-5.57Z"/><path class="cls-3" d="M102.58,74.94,83.44,29a3.58,3.58,0,1,0-6.6,2.75L96,77.69a3.58,3.58,0,0,0,6.6-2.75Z"/><path class="cls-6" d="M95,25.41a3.58,3.58,0,0,0-4.52-2.26L79,27a3.57,3.57,0,1,0,2.26,6.78l11.49-3.82A3.59,3.59,0,0,0,95,25.41Z"/><path class="cls-2" d="M99.28,53.6v7.15a15.57,15.57,0,1,1,0,31.13V99a22.72,22.72,0,1,0,0-45.43Z"/></svg>