<svg id="Calque_1" data-name="Calque 1" xmlns="http://www.w3.org/2000/svg" viewBox="0 0 122 122"><defs><style>.cls-1{fill:#b5e245;}.cls-2{fill:#a8d340;}.cls-3{fill:#c6e873;}.cls-4{fill:#ce9875;}.cls-5{fill:#c6865c;}.cls-6{fill:#ffddce;}.cls-7{fill:#ffcbbe;}.cls-8{fill:#dd636e;}</style></defs><path class="cls-1" d="M112.2,34.25l-.7-.13c-8.75.46-31,3.68-33.63,24.43A1.36,1.36,0,0,0,79.18,60c27,2.49,33.83-16.45,35.41-23.33l-.42-.74Z"/><path class="cls-2" d="M114.83,35.52a1.37,1.37,0,0,0-1.49-1.47c-.51,0-1.13,0-1.84.07C105.79,37.29,90,46.46,76.92,58c-8.69,7.69-7.19,16.71-7.12,17.09a1.84,1.84,0,0,0,1.81,1.52,1.73,1.73,0,0,0,.32,0,1.84,1.84,0,0,0,1.49-2.13c0-.08-1.22-7.36,5.93-13.7,14-12.43,31.36-22.06,35.24-24.16.1-.41.18-.78.24-1.1Z"/><path class="cls-1" d="M65.13,58.55c-2.6-20.84-25-24-33.63-24.43l-1.63.53-1,1.13-.43.84C30,43.57,36.93,62.43,63.82,60A1.36,1.36,0,0,0,65.13,58.55Z"/><path class="cls-2" d="M66.08,58C53,46.46,37.21,37.29,31.5,34.12c-.71,0-1.33-.06-1.84-.07a1.37,1.37,0,0,0-1.49,1.47c.06.33.14.69.24,1.1,3.88,2.1,21.21,11.73,35.24,24.16,7.08,6.27,6,13.39,5.93,13.7a1.84,1.84,0,0,0,1.49,2.13l.32,0a1.84,1.84,0,0,0,1.81-1.52c.07-.38,1.57-9.4-7.12-17.09Z"/><path class="cls-3" d="M72.54,2H70.15a3.79,3.79,0,0,0-.6.38C65.05,10.05,54.73,31.62,71.36,46h.06c16.67-14.44,6.3-36,1.81-43.64A5.35,5.35,0,0,0,72.54,2Z"/><path class="cls-2" d="M72.22.73a1,1,0,0,0-1.66,0c-.28.45-.62,1-1,1.66V76a1.84,1.84,0,1,0,3.68,0V2.38c-.38-.65-.73-1.21-1-1.65Z"/><path class="cls-4" d="M96.22,95.87,85,86.91a44,44,0,0,0-29.32-9.54,19.25,19.25,0,0,0-10.85,3.86c-.31.22-.61.46-.9.69l-11.25,9,38.73,18.54L97.2,97.07Z"/><path class="cls-5" d="M83.76,88.13l11.24,9,.85.63,14.27-6.83-11.24-9a44.26,44.26,0,0,0-51.56-2.46A44.23,44.23,0,0,1,83.76,88.13Z"/><path class="cls-6" d="M34.3,103.3a5.61,5.61,0,0,1,5.42-1.14l15.44,5a11.42,11.42,0,0,0,5.33.73l30.74-3.15c2-.21,6.09-3,8-7.17,1-2.23,2-4.33,2-4.33l-.39-.86-3.84,2a25.89,25.89,0,0,1-11.18,3l.11-1.82a7.3,7.3,0,0,0-.71-3.71,7.09,7.09,0,0,0-5.25-3.9L65.17,86.13c-3.41-.51-5.11-1.71-8.08-3.54a59,59,0,0,0-11.2-4.84,19.81,19.81,0,0,0-15.33,1.81L9.75,91.23l13.56,21.62Z"/><path class="cls-7" d="M9.82,91.18l-.07,0,.15.24Z"/><path class="cls-7" d="M116.23,88.66a4.23,4.23,0,0,0-6-1.23l-9.37,4.92s-.93,2.1-2,4.33c-1.92,4.15-6,7-8,7.17L60.1,107a11.29,11.29,0,0,1-5.33-.73l-15.44-5a5.61,5.61,0,0,0-5.42,1.14l-11.09,9.64,3.24,5.15L35,109.34a5.41,5.41,0,0,1,5.23-1.1L55.07,113a10.89,10.89,0,0,0,5.14.71l29.66-3a11.16,11.16,0,0,0,5.18-1.92L115.52,94.7A4.79,4.79,0,0,0,116.23,88.66Z"/><path class="cls-7" d="M65.43,98.68h.12l20.24-1.33.11-1.82a7.53,7.53,0,0,0-.11-1.84L65.31,95a1.84,1.84,0,0,0,.12,3.67Z"/><path class="cls-8" d="M30,119.05l-4.28,2.47a3.42,3.42,0,0,1-4.68-1.25l-15.61-27a3.42,3.42,0,0,1,1.26-4.68L11,86.08a3.43,3.43,0,0,1,4.69,1.25l15.61,27A3.43,3.43,0,0,1,30,119.05Z"/></svg>