<svg id="Calque_1" data-name="Calque 1" xmlns="http://www.w3.org/2000/svg" viewBox="0 0 122 122"><defs><style>.cls-1{fill:#f89b31;}.cls-2{fill:#fff;}</style></defs><circle class="cls-1" cx="61" cy="61.13" r="60.87"/><path class="cls-2" d="M28.14,35.62a1.54,1.54,0,0,1-1.08-.43A1.56,1.56,0,0,1,27,33l0,0a1.57,1.57,0,0,1,2.26,2.17l0,0A1.57,1.57,0,0,1,28.14,35.62Z"/><path class="cls-2" d="M69.67,101.16A23,23,0,0,1,51.29,92,19.76,19.76,0,0,1,41,94.9,20,20,0,0,1,21,75a19.76,19.76,0,0,1,4.87-13,21.89,21.89,0,0,1-2.8-23.29A1.56,1.56,0,1,1,25.93,40a18.76,18.76,0,0,0,3.23,20.9,1.57,1.57,0,0,1,0,2.18A16.81,16.81,0,0,0,50.78,88.63,1.56,1.56,0,0,1,53,89a19.95,19.95,0,0,0,36.24-7.12,1.55,1.55,0,0,1,1.11-1.2A10.39,10.39,0,0,0,93.15,62a1.57,1.57,0,0,1-.7-1.08,1.55,1.55,0,0,1,.36-1.24A21.54,21.54,0,1,0,58.18,34.21a1.55,1.55,0,0,1-2.4.29,18.74,18.74,0,0,0-21.84-2.93,1.56,1.56,0,0,1-1.49-2.75A21.85,21.85,0,0,1,56.57,31,24.67,24.67,0,0,1,96.22,60.39a13.51,13.51,0,0,1-4.11,23A23.1,23.1,0,0,1,69.67,101.16Z"/><path class="cls-2" d="M76.36,32.67h0a1.57,1.57,0,0,1,0-3.13h0a1.57,1.57,0,1,1,0,3.13Z"/><path class="cls-2" d="M91,47.33a1.56,1.56,0,0,1-1.56-1.56A13.19,13.19,0,0,0,82.07,34a1.56,1.56,0,1,1,1.36-2.81,16.24,16.24,0,0,1,9.16,14.61A1.56,1.56,0,0,1,91,47.33Z"/><path class="cls-2" d="M41,86.46A11.51,11.51,0,0,1,29.49,75a1.56,1.56,0,0,1,3.12,0A8.38,8.38,0,0,0,41,83.33a1.57,1.57,0,0,1,0,3.13Z"/><path class="cls-2" d="M67.93,68.81a10.95,10.95,0,1,1,10.95-11A11,11,0,0,1,67.93,68.81Zm0-18.77a7.82,7.82,0,1,0,7.82,7.82A7.83,7.83,0,0,0,67.93,50Z"/><path class="cls-2" d="M45.73,68.8a10.94,10.94,0,1,1,7.74-18.68,1.57,1.57,0,0,1-2.22,2.21,7.82,7.82,0,1,0,0,11.06,1.57,1.57,0,0,1,2.22,2.21A10.9,10.9,0,0,1,45.73,68.8Z"/><path class="cls-2" d="M85.66,75.34h-5a1.56,1.56,0,0,1-.93-2.82c1.43-1.06,4.39-3.86,4.39-5.75,0-.6-.15-1-1-1a1,1,0,0,0-1,1,1.56,1.56,0,0,1-3.12,0,4.08,4.08,0,0,1,4.07-4.08,3.86,3.86,0,0,1,4.08,4.08c0,2-1.26,3.93-2.59,5.44h1a1.57,1.57,0,0,1,0,3.13Z"/></svg>