<svg id="Calque_1" data-name="Calque 1" xmlns="http://www.w3.org/2000/svg" viewBox="0 0 122 122"><defs><style>.cls-1{fill:#f89b31;}.cls-2{fill:#fff;}</style></defs><circle class="cls-1" cx="60.87" cy="61.13" r="60.87"/><path class="cls-2" d="M82.27,75.14,70.52,69.75a1.69,1.69,0,0,1-1-1.52V64.34a15.82,15.82,0,0,0,6.93-10.4h0a4.14,4.14,0,0,0,1.26-.11,4.51,4.51,0,0,0,3.34-4.42V48.29a4.53,4.53,0,0,0-2-3.76,17.35,17.35,0,0,0,.54-4.3A17.89,17.89,0,0,0,71,25a10.11,10.11,0,0,0-20.22,0,17.89,17.89,0,0,0-8.65,15.19,17.27,17.27,0,0,0,.54,4.29,4.52,4.52,0,0,0-2,3.78v1.11A4.51,4.51,0,0,0,44,53.83a4.14,4.14,0,0,0,1.26.11h0a15.89,15.89,0,0,0,6.93,10.4v3.89a1.67,1.67,0,0,1-1,1.52L39.47,75.14a10.94,10.94,0,0,0-6.32,10.54l1.23,20.22a1.47,1.47,0,0,0,1.46,1.38h.09a1.47,1.47,0,0,0,1.38-1.55L36.08,85.5a7.88,7.88,0,0,1,1.47-5.09l4,4.8a8.61,8.61,0,0,1,2,5.52v15.08a1.47,1.47,0,1,0,2.93,0V90.73a11.56,11.56,0,0,0-2.68-7.4l-4.13-5a8.37,8.37,0,0,1,1-.57l7-3.22a14,14,0,0,0,26.3,0l7,3.22a8.37,8.37,0,0,1,1,.57l-4.13,5a11.56,11.56,0,0,0-2.68,7.4v15.08a1.47,1.47,0,1,0,2.93,0V90.73a8.61,8.61,0,0,1,2-5.52l4-4.8a8,8,0,0,1,1.48,5.09l-1.24,20.22a1.47,1.47,0,0,0,1.38,1.55h.09a1.47,1.47,0,0,0,1.46-1.38l1.23-20.22A10.91,10.91,0,0,0,82.27,75.14ZM60.87,17.92a7.19,7.19,0,0,1,7,5.57,19.5,19.5,0,0,0-14,0A7.19,7.19,0,0,1,60.87,17.92ZM48.16,53.4a2.93,2.93,0,0,0-3-2.39,1.22,1.22,0,0,1-.42,0,1.56,1.56,0,0,1-1.09-1.56V48.3a1.53,1.53,0,0,1,1.15-1.53,1.4,1.4,0,0,1,1.39.53,2.16,2.16,0,0,0,1,.74,2.13,2.13,0,0,0,1.8-.29,11.25,11.25,0,0,0,3-3.18A1.46,1.46,0,1,0,49.52,43a8.51,8.51,0,0,1-1.63,1.89,4.33,4.33,0,0,0-2.39-1A14.64,14.64,0,0,1,45,40.23c0-8.33,7.1-15.11,15.83-15.11S76.7,31.9,76.7,40.23a14.56,14.56,0,0,1-.46,3.6A6.84,6.84,0,0,0,75,44l-1.18-1a2.89,2.89,0,0,0-2-.66A34.45,34.45,0,0,1,63,41.75c-4.88-1-8.62-3.07-11.11-6a1.47,1.47,0,0,0-2.25,1.88c2.92,3.5,7.21,5.87,12.75,7a37.86,37.86,0,0,0,9.52.72l1.83,1.5a1.47,1.47,0,0,0,1.67.14A3.45,3.45,0,0,1,77,46.77a1.52,1.52,0,0,1,1.15,1.52v1.12A1.56,1.56,0,0,1,77.05,51a1.2,1.2,0,0,1-.42,0,2.92,2.92,0,0,0-3,2.39,12.93,12.93,0,0,1-25.43,0ZM60.87,80.83A11.08,11.08,0,0,1,50.4,73.35l2.05-.94a4.6,4.6,0,0,0,2.68-4.18V65.84a15.79,15.79,0,0,0,11.48,0v2.39a4.61,4.61,0,0,0,2.69,4.18l2,.94A11.06,11.06,0,0,1,60.87,80.83Z"/></svg>