<?xml version="1.0" encoding="utf-8"?>
<!-- Generator: Adobe Illustrator 25.2.0, SVG Export Plug-In . SVG Version: 6.00 Build 0)  -->
<svg version="1.1" id="Calque_1" xmlns="http://www.w3.org/2000/svg" xmlns:xlink="http://www.w3.org/1999/xlink" x="0px" y="0px"
	 viewBox="0 0 1920 1080" style="enable-background:new 0 0 1920 1080;" xml:space="preserve">
<style type="text/css">
	.st0{clip-path:url(#SVGID_2_);}
	.st1{fill:#D8E9FF;}
	.st2{opacity:0.5;}
	.st3{fill-rule:evenodd;clip-rule:evenodd;fill:url(#SVGID_3_);}
	.st4{fill-rule:evenodd;clip-rule:evenodd;fill:url(#SVGID_4_);}
	.st5{fill-rule:evenodd;clip-rule:evenodd;fill:url(#SVGID_5_);}
	.st6{fill-rule:evenodd;clip-rule:evenodd;fill:url(#SVGID_6_);}
	.st7{fill-rule:evenodd;clip-rule:evenodd;fill:url(#SVGID_7_);}
	.st8{fill-rule:evenodd;clip-rule:evenodd;fill:url(#SVGID_8_);}
	.st9{fill-rule:evenodd;clip-rule:evenodd;fill:url(#SVGID_9_);}
	.st10{fill-rule:evenodd;clip-rule:evenodd;fill:url(#SVGID_10_);}
	.st11{fill-rule:evenodd;clip-rule:evenodd;fill:url(#SVGID_11_);}
	.st12{fill-rule:evenodd;clip-rule:evenodd;fill:url(#SVGID_12_);}
	.st13{fill-rule:evenodd;clip-rule:evenodd;fill:#8990EC;}
	.st14{opacity:0.5;fill-rule:evenodd;clip-rule:evenodd;fill:#8990EC;enable-background:new    ;}
	.st15{opacity:0.28;fill-rule:evenodd;clip-rule:evenodd;fill:#8990EC;enable-background:new    ;}
	.st16{opacity:0.2;fill-rule:evenodd;clip-rule:evenodd;fill:#8990EC;enable-background:new    ;}
	.st17{fill:#A7C7FF;}
	.st18{fill:#FFCD76;}
	.st19{fill:#FFBF65;}
	.st20{fill:#F6FBFF;}
	.st21{fill:#73B471;}
	.st22{fill:#5E9F5C;}
	.st23{fill:#2C5CA8;}
	.st24{fill:#FFF2E7;}
	.st25{fill:#F89B31;}
	.st26{fill:#FDDBBA;}
	.st27{fill:#F4CBAA;}
	.st28{fill:#F28018;}
	.st29{fill:#F4BB6B;}
	.st30{fill:#F2AC6D;}
	.st31{fill:#DB9958;}
	.st32{fill:#FFC36C;}
	.st33{fill:#C45447;}
	.st34{fill:#2C3A64;}
	.st35{fill:#EC9649;}
	.st36{fill:#D85C53;}
	.st37{fill:#FDCD81;}
	.st38{fill:#BF8C4D;}
</style>
<g>
	<g id="Calque_1_1_">
		<g>
			<defs>
				<rect id="SVGID_1_" x="0" y="120" width="1920" height="960"/>
			</defs>
			<clipPath id="SVGID_2_">
				<use xlink:href="#SVGID_1_"  style="overflow:visible;"/>
			</clipPath>
			<g class="st0">
				<path class="st1" d="M145.5,1091.3c1.1,4.1,2.3,8.3,3.7,12.6c1.4,4.3,2.9,8.7,4.7,13.2c0.8,2.2,1.8,4.4,2.6,6.5
					c2.9,6.9,6.2,14,10.2,21.4c1.2,2.4,2.5,4.9,3.8,7.4c0.3,0.8,0.7,1.5,1.2,2.3c0.2,0.5,0.5,0.9,0.8,1.4h163.8l47.9-0.1h429.5
					l60.7-0.1h0.2l63.9-0.1h331.2l138.1-0.1h249.7l0.3-0.6c0-0.1,0.1-0.3,0.2-0.4c0.2-0.5,0.5-1.1,0.8-1.9l0.1-0.2v-0.1
					c0.1-0.1,0.1-0.2,0.1-0.2c0.6-1.1,1.1-2.2,1.5-3.4c0.3-0.6,0.5-1.3,1-2.1v-0.2l0.1-0.1c1.9-4.3,4.2-9.9,6.9-16.7
					c0.2-0.6,0.5-1.2,0.7-1.9c2-5.1,4.3-10.9,6.6-17.2c5.7-15.3,12.1-34.1,18.5-55.2c2.5-8.3,5-17,7.3-26.1
					c1.4-5.2,2.8-10.7,4.1-16.2c0.4-1.6,0.8-3.2,1.1-4.8c2.4-10.3,4.7-20.9,6.8-31.8c2.7-14.3,5.1-28.9,6.8-43.8
					c0.9-7.3,1.6-14.6,2.2-22c0-0.2,0-0.4,0-0.6s0-0.4,0-0.6c0.8-10.4,1.3-20.9,1.5-31.4c0.1-8.4,0-16.9-0.4-25.3
					c-0.3-5.7-0.7-11.4-1.1-17c-1.1-12.1-2.8-24.2-5.1-35.9c-1.5-8-3.4-16-5.6-23.7c-5.2-18.7-12.7-36.9-22.3-54.2
					c-3.4-5.9-7-11.8-11-17.4c-9-12.9-18.1-25-27.3-36.4h-0.1c-4.8-6-9.6-11.7-14.5-17.2c-16.6-19.1-35-36.9-54.8-53.4
					c-226.6-186-486.5-6.6-647.3-131.4c-157.2-121.9-451.4-123.7-583-11.2c-2.5,2.2-5.1,4.4-7.6,6.7c-21.5,19.8-37.9,43.5-47.8,69.4
					c-7.8,20.4-11.8,42.7-11.4,66.9c0,2.5,0.1,5.1,0.3,7.7c0.7,11.5,2.2,23,4.6,34.4c1.6,7.8,3.7,15.8,6.2,24
					c6.7,21.1,15.3,41.7,25.9,61.6l3.3,6.2c36,66,6.3,105.5-39,141.6c-28,22.4-61.7,43.4-89.9,68.5c-3.7,3.4-7.3,6.7-10.9,10.3
					c-1.4,1.4-2.7,2.8-4.1,4.2c-3.8,4-7.4,8.1-10.8,12.2c-1.7,2.2-3.4,4.4-5.1,6.6c-4.9,6.6-9.1,13.6-12.7,20.9
					c-6,12.1-9.8,24.9-11.6,37.9C138.9,1051.1,140,1070,145.5,1091.3z"/>
				<g class="st2">
					
						<linearGradient id="SVGID_3_" gradientUnits="userSpaceOnUse" x1="1177.25" y1="147.55" x2="1177.25" y2="299.96" gradientTransform="matrix(-1 0 0 -1 2098.99 978.08)">
						<stop  offset="0" style="stop-color:#D6E5FF"/>
						<stop  offset="1" style="stop-color:#A6ACF1"/>
					</linearGradient>
					<polygon class="st3" points="937.8,827 936.2,730 929.6,706.4 924.8,706.4 921.7,678.1 921.7,678.1 917.6,706.2 913.8,706.2 
						905.7,729.7 905.7,830.5 					"/>
					
						<linearGradient id="SVGID_4_" gradientUnits="userSpaceOnUse" x1="1096.98" y1="215.64" x2="1096.98" y2="290.11" gradientTransform="matrix(-1 0 0 -1 2098.99 978.08)">
						<stop  offset="0" style="stop-color:#D6E5FF"/>
						<stop  offset="1" style="stop-color:#A6ACF1"/>
					</linearGradient>
					<polygon class="st4" points="1012.3,758.1 1012.3,722.2 1008.7,718.7 1003.3,688 996.4,718.7 992.6,722.2 991.7,762.4 					"/>
					
						<linearGradient id="SVGID_5_" gradientUnits="userSpaceOnUse" x1="1027.46" y1="233.61" x2="1027.46" y2="281.74" gradientTransform="matrix(-1 0 0 -1 2098.99 978.08)">
						<stop  offset="0" style="stop-color:#D6E5FF"/>
						<stop  offset="1" style="stop-color:#A6ACF1"/>
					</linearGradient>
					<polygon class="st5" points="1078.2,741.6 1078.2,718.5 1075.9,716.2 1072.4,696.3 1067.9,716.2 1065.5,718.5 1064.8,744.5 
											"/>
					
						<linearGradient id="SVGID_6_" gradientUnits="userSpaceOnUse" x1="1313.08" y1="118.76" x2="1313.08" y2="265.55" gradientTransform="matrix(-1 0 0 -1 2098.99 978.08)">
						<stop  offset="0" style="stop-color:#D6E5FF"/>
						<stop  offset="1" style="stop-color:#A6ACF1"/>
					</linearGradient>
					<polygon class="st6" points="839.6,793.8 812.3,769.6 786.7,769 786.7,763.5 784.9,762.4 784.9,717.2 783.7,712.5 782.8,762.1 
						780.3,764.4 780.3,769.6 760.8,769.6 732.3,790.4 732.3,859.3 829.5,859.3 					"/>
					
						<linearGradient id="SVGID_7_" gradientUnits="userSpaceOnUse" x1="1230.585" y1="114.16" x2="1230.585" y2="305.97" gradientTransform="matrix(-1 0 0 -1 2098.99 978.08)">
						<stop  offset="0" style="stop-color:#C7DBFF"/>
						<stop  offset="1" style="stop-color:#8990EC"/>
					</linearGradient>
					<polygon class="st7" points="582.5,863.3 585.3,803.9 582.5,803.9 596.2,782.7 634,781 634,717.8 647.5,709.4 648.7,676.3 
						649.1,676.3 648.3,709.3 682.4,711 683,721.6 685.4,724 686,748 716.7,793.4 744.2,793.4 744.2,787.3 745.3,786 745.8,771.9 
						747,767.6 748.9,771.3 748.9,785.9 750,786.6 750,793.1 760.8,813.6 758.3,813.6 760.8,839.6 766.1,844.7 779.2,842.4 
						813.2,837.2 827,831.4 826.5,766.7 843.8,736.3 851.7,736.3 852.9,719.7 854.7,717.5 854.7,673.5 855.7,673.5 855.7,717 
						893.4,741.5 897.3,741.1 927.5,767 923.8,766.7 925.5,820.7 928.4,822.1 945.9,837.3 949.5,829.6 952,727.9 969.9,718.5 
						1031.3,723.6 1031.4,732.3 1034.9,736.3 1043.6,736.3 1043.6,717.5 1045.8,712.5 1053.6,672.1 1060.6,713.1 1062.8,718.3 
						1062.4,731.9 1069.3,736.3 1081.9,736.3 1081.9,721 1084.1,717 1092.2,690.3 1098.2,715.9 1102,721.6 1102.7,741.4 
						1101.3,759.2 1125.3,776.8 1154.3,812 1148.9,812 1153.5,863.9 					"/>
					
						<linearGradient id="SVGID_8_" gradientUnits="userSpaceOnUse" x1="884.825" y1="113.62" x2="884.825" y2="155.58" gradientTransform="matrix(-1 0 0 -1 2098.99 978.08)">
						<stop  offset="0" style="stop-color:#D6E5FF"/>
						<stop  offset="1" style="stop-color:#A6ACF1"/>
					</linearGradient>
					<polygon class="st8" points="1203.4,864.5 1205.5,823.1 1224.2,822.5 1224.9,864.3 					"/>
					
						<linearGradient id="SVGID_9_" gradientUnits="userSpaceOnUse" x1="922.6049" y1="117.99" x2="922.6049" y2="162.62" gradientTransform="matrix(-1 0 0 -1 2098.99 978.08)">
						<stop  offset="0" style="stop-color:#D6E5FF"/>
						<stop  offset="1" style="stop-color:#A6ACF1"/>
					</linearGradient>
					<polygon class="st9" points="1159.8,855.7 1161.2,822.8 1175.3,822.8 1175.3,831.4 1178.4,831.4 1178.4,816.3 1193,815.5 
						1193,860.1 					"/>
					
						<linearGradient id="SVGID_10_" gradientUnits="userSpaceOnUse" x1="1581.995" y1="117.99" x2="1581.995" y2="162.62" gradientTransform="matrix(-1 0 0 -1 2098.99 978.08)">
						<stop  offset="0" style="stop-color:#D6E5FF"/>
						<stop  offset="1" style="stop-color:#A6ACF1"/>
					</linearGradient>
					<polygon class="st10" points="500.4,855.7 500.4,822.8 516,822.8 516,831.4 519.1,831.4 519.1,816.3 533.6,815.5 533.6,860.1 
											"/>
					
						<linearGradient id="SVGID_11_" gradientUnits="userSpaceOnUse" x1="1553.975" y1="118.76" x2="1553.975" y2="167.68" gradientTransform="matrix(-1 0 0 -1 2098.99 978.08)">
						<stop  offset="0" style="stop-color:#D6E5FF"/>
						<stop  offset="1" style="stop-color:#A6ACF1"/>
					</linearGradient>
					<polygon class="st11" points="539.3,859.3 540.2,810.4 549.2,810.4 550.8,858.2 					"/>
					
						<linearGradient id="SVGID_12_" gradientUnits="userSpaceOnUse" x1="1535.9" y1="120.66" x2="1535.9" y2="162.62" gradientTransform="matrix(-1 0 0 -1 2098.99 978.08)">
						<stop  offset="0" style="stop-color:#D6E5FF"/>
						<stop  offset="1" style="stop-color:#A6ACF1"/>
					</linearGradient>
					<polygon class="st12" points="552.6,857.4 551.5,816.2 573.4,815.5 574.7,856.3 					"/>
				</g>
				<polygon class="st13" points="819.1,683.2 819.1,680.9 811.1,680.8 811.1,684.3 				"/>
				<path class="st13" d="M759,859.8h29.3c0,0,3.6-11.3,13.4-17c3.9-2.3,8.4-3.4,13-3.3c6.1,0.1,11.9,2.5,16.3,6.7
					c4,3.8,7,8.4,8.9,13.6h31l-6.4-9.6l0,0l-21.9-32.8c0,0-11.2-23.8-13.3-32.2c-6.2-24.3-10.6-99.7-10.6-99.7h-6.8
					c0,0-6.2,74.8-12.1,99c-2.1,8.5-12.2,32.9-12.2,32.9l-14.7,21.9L759,859.8z M805.2,817l5.6-32l6,0.4l8.2,31.1L805.2,817z"/>
				<path class="st13" d="M780.1,859.8h8.2c0,0,6.7-20.8,26.5-20.3c18.7,0.5,25.2,20.3,25.2,20.3h8.2l-14.9-27.4l-35.4,1
					L780.1,859.8z"/>
				<polygon class="st13" points="820.6,680.9 809.8,680.8 810.4,676.7 814.9,671.2 816.1,671.2 820.1,676.2 				"/>
				<polygon class="st13" points="816.1,671.2 816.1,647.7 815.7,647.7 814.9,671.2 				"/>
				<polygon class="st13" points="816.1,784 814.6,723.3 812.1,784 				"/>
				<polygon class="st13" points="823.7,816.3 817.1,790.5 811.8,790.5 806.3,817 805.2,817.1 810.8,785 816.8,785.4 825.1,816.5 
									"/>
				<polygon class="st13" points="851.4,830.6 776.5,833.6 776.2,834.1 852,831.5 				"/>
				<polygon class="st13" points="818.7,688.4 811.6,688 811.3,691.3 819,692.7 				"/>
				<polygon class="st13" points="845.5,819.1 844.4,820.2 785.2,820.7 783.6,819.7 				"/>
				<path class="st13" d="M777.5,859.8c0,0,11.6-23.6,37.6-23.6s35.5,23.6,35.5,23.6h-2.5c0,0-8.1-22.4-33.1-22.4
					s-34.8,22.4-34.8,22.4H777.5z"/>
				<polygon class="st13" points="868.2,857.8 850.6,832.4 835.2,833 849.5,857.3 				"/>
				<polygon class="st13" points="795.1,834.9 777.5,834.9 761.7,859.8 777.5,859.8 				"/>
				<path class="st13" d="M838.4,814.9c0,0-7.5-16.4-10-26h-8.2l6.5,26.3L838.4,814.9z"/>
				<path class="st13" d="M808.8,788.7l-5.4,27.1l-13.5,0.3c0,0,7.6-13.3,10.7-27.5L808.8,788.7z"/>
				<path class="st13" d="M826.9,784.3c0,0-8.2-48.8-8.4-91.7l-3-0.5c0,0-0.2,67.1,3.3,92L826.9,784.3z"/>
				<path class="st13" d="M810.4,784l4.5-92.1l-2.7-0.5c0,0-4.5,61.9-10.5,91.6L810.4,784z"/>
				<polygon class="st13" points="819,692.7 819.4,698 810.7,698 811.3,691.3 				"/>
				<polygon class="st13" points="819.4,698 810.7,698 810.6,698.7 819.5,699.2 				"/>
				<polygon class="st13" points="868.2,857.8 850.6,832.4 835.2,833 835.9,834.1 850,833.4 866.7,857.4 				"/>
				<polygon class="st13" points="795.1,834.9 777.5,834.9 761.7,859.8 762.5,859.8 778.4,835.5 794.7,835.4 				"/>
				<polygon class="st13" points="833.1,832.4 833.6,833.2 797.2,834.1 797.7,833.4 				"/>
				<path class="st13" d="M789.8,816h0.8c4.1-9.3,7.6-18.8,10.4-28.5c4.2-14.8,11.2-89,11.2-89h-0.5c0,0-6.9,72.4-11.1,87.9
					C797.8,796.6,794.1,806.5,789.8,816z"/>
				<path class="st13" d="M839,816h-0.8c-4.1-9.3-7.5-18.8-10.4-28.5c-4.2-14.8-11.2-89-11.2-89h0.6c0,0,6.9,72.4,11,87.9
					C831,796.6,834.6,806.5,839,816z"/>
				<path class="st13" d="M832.1,783.7l-0.2,2.7l-34.2-2.1v-1.8c5.5,0.7,11.1,1.2,16.6,1.4C821.6,784.1,832.1,783.7,832.1,783.7z"/>
				<path class="st13" d="M831.9,786.4c0,0-1.1,0.3-1.6,2.4l-31.9-0.3c0.1-1.5-0.1-2.9-0.7-4.2L831.9,786.4z"/>
				<path class="st13" d="M845.5,819.1v-4.3c-10.3,1.2-20.6,1.9-31,2.1c-16.8,0-31-0.6-31-0.6v3.5L845.5,819.1z"/>
				<polygon class="st13" points="847.8,830.4 842.1,821.7 837.5,821.7 842.2,830.4 				"/>
				<polygon class="st13" points="839.6,830.4 835.2,821.7 830.6,821.7 834,830.4 				"/>
				<polygon class="st13" points="831.4,830.4 827.8,821.7 823.1,821.7 825.8,830.4 				"/>
				<polygon class="st13" points="823.2,830.4 820.4,821.7 815.8,821.7 817.6,830.4 				"/>
				<polygon class="st13" points="814.1,830.4 813.6,821.7 809,821.7 808.5,830.4 				"/>
				<polygon class="st13" points="806.8,830.4 807.5,821.7 802.9,821.7 801.2,830.4 				"/>
				<polygon class="st13" points="798.6,830.4 801.6,821.7 797,821.7 793,830.4 				"/>
				<polygon class="st13" points="788.3,830.4 793,821.7 788.4,821.7 782.7,830.4 				"/>
				<polygon class="st13" points="837.8,822.2 841.9,822.2 847.1,830.4 847.8,830.4 842.1,821.7 837.5,821.7 				"/>
				<polygon class="st13" points="793,821.7 792.7,822.2 788.5,822.6 783.1,830.4 782.7,830.4 788.4,821.7 				"/>
				<polygon class="st13" points="801.5,822 797.2,822.2 793.5,830.4 793,830.4 797,821.7 801.6,821.7 				"/>
				<polygon class="st13" points="807.5,821.7 807.4,822.1 802.8,822.1 802.9,821.7 				"/>
				<polygon class="st13" points="813.6,821.7 813.6,822.1 808.9,822.1 809,821.7 				"/>
				<polygon class="st13" points="830.6,821.7 835.2,821.7 839.6,830.4 839,830.4 835.1,821.9 830.7,821.9 				"/>
				<polygon class="st13" points="827.8,821.7 827.8,821.9 823.2,821.9 823.1,821.7 				"/>
				<polygon class="st13" points="820.4,821.7 820.4,821.9 815.8,822.1 815.8,821.7 				"/>
				<polygon class="st14" points="844.4,820.2 845.2,821.3 783.2,823.7 785.2,820.7 				"/>
				<polygon class="st13" points="826.3,771.1 816.1,758.2 822.8,739.8 815.4,723.3 820.1,707.5 815,699.2 814.9,700.8 819.4,707.5 
					814.8,723.3 814.9,724.6 821.8,739.8 816.1,756.6 816.1,760.8 826.3,772.3 817.1,782.5 818.8,783 826.8,773.5 				"/>
				<polygon class="st13" points="810.5,782.5 803.4,771.2 812.1,759.2 812,757.3 807.5,738.6 814.1,723.5 810.6,710.8 814.8,699.2 
					814.7,698.9 810.5,710.2 810.3,712 813.3,723.9 806.6,738.3 811,758.9 802.2,771.4 810.3,783.7 810.5,783 				"/>
				<polygon class="st13" points="820.2,788.9 832.8,801 826.8,815.2 826.1,813.5 831.9,801 820.8,791.2 				"/>
				<polygon class="st13" points="808.8,788.7 795.9,801 803.3,815.7 803.9,814.1 796.7,801 808.8,790 				"/>
				<polygon class="st13" points="831.9,792.7 796.9,793.1 798.4,788.6 830.3,788.9 				"/>
				<polygon class="st13" points="831.9,792.7 831.9,793.1 796.8,793.4 796.9,792.7 				"/>
				<polygon class="st15" points="830.3,788.9 831,790.7 798.2,789.2 798.4,788.6 				"/>
				<polygon class="st13" points="835.9,834.1 857.9,842.9 849.5,857.3 848.4,855.8 856.1,843.8 836.4,834.9 				"/>
				<polygon class="st13" points="795.1,834.9 771,845.1 777.5,859.8 778.4,858.1 772.6,845.7 794.2,836.1 				"/>
				<path class="st16" d="M864.4,850.1l-33.4-4c4,3.8,7,8.4,8.9,13.6h31L864.4,850.1L864.4,850.1z"/>
				<path class="st16" d="M759,859.8h29.3c0,0,3.6-11.3,13.4-17l-29-3.4L759,859.8z"/>
				<path class="st13" d="M780.1,859.8h8.2c0,0,6.7-20.8,26.5-20.3c18.7,0.5,25.2,20.3,25.2,20.3h8.2c0,0-8.5-22.4-33.1-22.4
					S780.1,859.8,780.1,859.8z"/>
				<polygon class="st14" points="831.9,786.4 798.4,786.4 797.8,784.3 				"/>
				<path class="st13" d="M820.7,682.9l0.9,6.2c-2.2-0.4-4.5-0.6-6.8-0.7c-2.2,0-4.4,0.3-6.6,0.7l1-6.8L820.7,682.9z"/>
				<polygon class="st17" points="953.9,625.3 970.6,952.2 953.9,952.2 946.4,625.3 				"/>
				<polygon class="st17" points="952.6,595.7 948.3,615.8 872.3,525.5 				"/>
				<polygon class="st17" points="925.2,619.8 945.8,618.3 880.3,716.5 				"/>
				<polygon class="st17" points="967.2,635.9 955.3,619.1 1073.2,624.5 				"/>
				<circle class="st17" cx="950.6" cy="618.3" r="9.2"/>
				<path class="st18" d="M550,1085.5h712.1l296.8-0.2h536.8c0,0,0.3-0.5,0.9-1.6l1.8-3.1l0.3-0.4v-0.2c0,0,0.3-0.2,0.3-0.4
					c1.2-1.8,2.3-3.6,3.2-5.5c0.6-1.2,1.3-2.3,2.1-3.3v-0.4l0.3-0.2c4.1-7,9.1-16.2,14.9-27.2c0.5-1,1-2,1.6-3
					c2.9-8.4,6.1-17.7,9.5-28c8.1-25,17.3-55.5,26.4-90c3.6-13.6,7.1-27.8,10.4-42.6c2-8.5,3.9-17.4,5.9-26.4
					c0.6-2.6,1.1-5.3,1.6-7.9c3.5-16.8,6.8-34.1,9.7-51.8c5.8-34.6,10.4-70.7,13-107.3c-230.6,11.9-675.1,43.2-1009.4,117.8
					C716.5,909.1,600,926.1,400.1,945C288.3,955.6,415.9,1025.8,550,1085.5z"/>
				<path class="st19" d="M1003.7,906c0,0,610.3-167.3,802.6-184.2s8.1,22.5,8.1,22.5s-522.3,137.4-644.4,194S1003.7,906,1003.7,906
					z"/>
				<path class="st20" d="M1381.2,730.3c0,0-13.1-31.6-44.5-28.1c0,0-45.6-52.6-94.1-7c0,0-51.6-11.3-89.9,9.8
					c-25.5,14.1-33.9,28.8-33.9,28.8L1381.2,730.3z"/>
				<path class="st19" d="M1189.8,1039.6c0,0,527.7-253.2,700-300.7s11.1,18.9,11.1,18.9s-452.6,211.4-554.4,282.9
					S1189.8,1039.6,1189.8,1039.6z"/>
				<polygon class="st17" points="1381.9,686.5 1395.6,954.1 1381.9,954.1 1375.8,686.5 				"/>
				<polygon class="st17" points="1380.9,662.2 1377.4,678.7 1315.1,604.8 				"/>
				<polygon class="st17" points="1358.5,682 1375.3,680.8 1321.7,761.2 				"/>
				<polygon class="st17" points="1392.8,695.2 1383.1,681.4 1479.6,685.8 				"/>
				<path class="st17" d="M1386.8,680.8c0-4.2-3.4-7.5-7.5-7.5s-7.5,3.4-7.5,7.5c0,4.2,3.4,7.5,7.5,7.5c0,0,0,0,0,0
					C1383.4,688.3,1386.8,684.9,1386.8,680.8z"/>
				<path class="st21" d="M-63.3,887.3c1.3,16.3,3.3,33.3,6.1,51c0.1,0.4,0.1,0.8,0.2,1.2c1.5,9,3.2,18.3,5.1,27.5
					c1.8,9.7,4.1,19.9,6.7,30.1c1.2,5,2.6,10,3.7,14.9c4.1,15.8,8.9,32,14.6,48.9c1.8,5.5,3.5,11.3,5.5,16.9
					c0.5,1.7,1.1,3.5,1.7,5.2h2124.6l1.2-4.4l0.2-0.6v-0.3c0.1-0.2,0.2-0.4,0.2-0.6c0.8-2.2,1.4-4.7,2.2-7.7
					c0.4-1.4,0.8-3.1,1.4-4.7v-0.6l0.2-0.3c2.7-9.8,6.1-22.7,9.9-38.2c3.2-12.8,6.7-27.3,10.6-43.5c8.1-35.1,17.3-77.9,26.4-126.2
					c3.6-19,7.1-38.9,10.4-59.7c2-12,3.9-24.4,5.9-37c-194.7,74-695.6,240.2-1053.3,147.2c-64.3-16.7-135.2-31.7-209.6-45
					c-16.6-3-33.4-5.9-50.4-8.7c-192.9-32.3-403.9-54.7-580.6-70.1l0,0l-6.1-0.5l-6-0.5l-7.2-0.6l-14.9-1.3l-1.9-0.2l-11.3-1
					c-13.9-1.2-27.5-2.3-40.8-3.3l-9-0.7l-9.8-0.8l-13.1-1l-8-0.6l-14-1.1l-6.8-0.5l-9.3-0.7l-0.8,0l-14.9-1.1l-4.7-0.3h-0.2h-0.1
					c-39.8-2.9-75.6-5.4-106.3-7.6c-5.4,6.5-10.5,13.1-15.5,19.9c-2.5,3.5-4.9,7.1-7.2,10.8c-7,10.8-13,22.2-18.2,34
					c-3.6,8.4-6.8,17.1-9.3,25.9C-59.5,863.2-61.9,875.2-63.3,887.3z"/>
				<path class="st22" d="M860.1,852.9c50.5,28.4,159.3,101,226.2,230.1c0.5,0.9,0.9,1.8,1.4,2.7l50.9-2.7l15.9-0.8
					c-1.5-4.3-72.5-111.8-244-220.5C893.9,858.6,877.1,855.7,860.1,852.9z"/>
				<path class="st22" d="M1047.9,1082.3c-1.6-4.5-84.1-130-287.9-243.5l-16,12.5c0,0,156.7,68.9,240.8,234.4L1047.9,1082.3z"/>
				<path class="st22" d="M900.5,1082.3c-1.6-4.5-84.1-130-287.9-243.5l-16,12.5c0,0,156.8,68.9,240.8,234.4L900.5,1082.3z"/>
				<path class="st22" d="M100.4,768.4c0,0,285.5,29.1,463.8,212.7l112.5-32.2c-3.1-4.5-125.2-99.7-397.2-166.1l0,0
					C214.3,777.1,153.8,772.4,100.4,768.4L100.4,768.4z"/>
				<path class="st22" d="M-46.7,825.5c128.3,31,333.6,101.9,487.1,257.4h98.3l72.2-20.9c-4.6-7-200.3-170.8-639.5-270.5
					C-35.5,802.4-41.6,813.7-46.7,825.5z"/>
				<path class="st22" d="M977.5,1080l-1.5-0.4c0.6-2.6,2-55.3-14.5-86l1.3-0.7C979.6,1024.1,978,1077.8,977.5,1080z"/>
				<path class="st18" d="M958.7,965.5c0,0-5.2,10.9-2,15.8S962.4,972.2,958.7,965.5z"/>
				<path class="st18" d="M955.5,1011.5c0,0,5.2-10.9,2-15.8S951.7,1004.8,955.5,1011.5z"/>
				<path class="st18" d="M969.1,968.8c0,0-9.6,7.3-9.1,13.1S969.3,976.5,969.1,968.8z"/>
				<path class="st18" d="M945,1008.2c0,0,9.6-7.3,9.1-13.1S944.8,1000.5,945,1008.2z"/>
				<path class="st18" d="M976.7,976.7c0,0-11.9,2.1-14,7.5S973.4,983.6,976.7,976.7z"/>
				<path class="st18" d="M937.4,1000.8c0,0,11.9-2.1,14-7.5S940.7,993.8,937.4,1000.8z"/>
				<path class="st18" d="M979.2,995.8c0,0-9.5-7.4-15-5.4S971.8,998,979.2,995.8z"/>
				<path class="st18" d="M934.1,986.6c0,0,10.7,5.7,15.7,2.7S941,983.1,934.1,986.6z"/>
				<path class="st18" d="M973.9,1004.1c0,0-5.9-10.5-11.7-10.8S966.3,1003.3,973.9,1004.1z"/>
				<path class="st18" d="M938.2,974.9c0,0,5.9,10.5,11.7,10.8S945.8,975.8,938.2,974.9z"/>
				<path class="st18" d="M966.1,1010.3c0,0-0.8-12.1-5.9-14.8S959.6,1006.2,966.1,1010.3z"/>
				<path class="st18" d="M946.5,968.5c0,0,0.8,12.1,5.9,14.8S953.1,972.6,946.5,968.5z"/>
				<path class="st18" d="M979.8,988c0,0-11.3-4.3-15.9-0.8S973.4,992.3,979.8,988z"/>
				<path class="st23" d="M948.7,988.7c0-4.6,3.8-8.4,8.4-8.4s8.4,3.8,8.4,8.4s-3.8,8.4-8.4,8.4h0
					C952.4,997.1,948.7,993.4,948.7,988.7z"/>
				<path class="st22" d="M974.6,1031.5c0,0-7.3-7.4-17.4-7.9c-10.1-0.5-13.2,0-13.2,0s6.2,6.6,13.6,7.9S974.6,1031.5,974.6,1031.5z
					"/>
				<path class="st22" d="M973,1024.3c1.3-1.1,2.2-10.2,10-12.5c4.4-1.3,8.8-2.2,13.4-2.7c0,0-6.8,11.8-11.7,13.6
					S973,1024.3,973,1024.3z"/>
				<path class="st22" d="M1017,1080l-1.7-0.4c0.7-3.1,2.4-65-17-101.2l1.6-0.8C1019.5,1014.2,1017.6,1077.5,1017,1080z"/>
				<path class="st18" d="M994.9,945.2c0,0-6.1,12.8-2.4,18.6S999.3,953.2,994.9,945.2z"/>
				<path class="st18" d="M991.1,999.4c0,0,6.1-12.8,2.4-18.6S986.7,991.5,991.1,999.4z"/>
				<path class="st18" d="M1007.2,949.2c0,0-11.3,8.6-10.7,15.4S1007.4,958.2,1007.2,949.2z"/>
				<path class="st18" d="M978.8,995.5c0,0,11.3-8.6,10.7-15.4S978.6,986.4,978.8,995.5z"/>
				<path class="st18" d="M1016.1,958.4c0,0-14,2.5-16.5,8.9S1012.2,966.6,1016.1,958.4z"/>
				<path class="st18" d="M969.9,986.8c0,0,14-2.5,16.5-8.9S973.8,978.6,969.9,986.8z"/>
				<path class="st18" d="M1019,980.9c0,0-11.2-8.7-17.6-6.3S1010.3,983.5,1019,980.9z"/>
				<path class="st18" d="M965.9,970c0,0,12.5,6.7,18.5,3.2S974,966,965.9,970z"/>
				<path class="st18" d="M1012.8,990.7c0,0-7-12.4-13.8-12.7S1003.8,989.7,1012.8,990.7z"/>
				<path class="st18" d="M970.8,956.4c0,0,7,12.4,13.8,12.7S979.8,957.3,970.8,956.4z"/>
				<path class="st18" d="M1003.7,998c0,0-0.9-14.2-7-17.4S996,993.2,1003.7,998z"/>
				<path class="st18" d="M980.6,948.8c0,0,0.9,14.2,7,17.4S988.3,953.6,980.6,948.8z"/>
				<path class="st18" d="M1019.7,971.7c0,0-13.3-5.1-18.7-0.9S1012.2,976.8,1019.7,971.7z"/>
				<path class="st23" d="M983.1,972.6c0-5.5,4.4-9.9,9.9-9.9c5.5,0,9.9,4.4,9.9,9.9c0,5.5-4.4,9.9-9.9,9.9c0,0,0,0,0,0
					C987.5,982.5,983.1,978.1,983.1,972.6z"/>
				<path class="st22" d="M1016.3,1048c0,0-8.6-8.8-20.5-9.4s-15.5,0-15.5,0s7.3,7.7,16,9.4S1016.3,1048,1016.3,1048z"/>
				<path class="st22" d="M1014.6,1039.4c1.5-1.3,2.6-12,11.8-14.7c5.1-1.5,10.4-2.6,15.7-3.2c0,0-8,13.9-13.8,16
					C1022.6,1039.7,1014.6,1039.4,1014.6,1039.4z"/>
				<path class="st22" d="M969.3,1080l-1-0.3c0.4-1.8,1.5-39-10.2-60.7l0.9-0.5C970.8,1040.5,969.7,1078.5,969.3,1080z"/>
				<path class="st18" d="M956,999.1c0,0-3.7,7.7-1.4,11.2S958.7,1003.9,956,999.1z"/>
				<path class="st18" d="M953.8,1031.6c0,0,3.7-7.7,1.4-11.2S951.1,1026.9,953.8,1031.6z"/>
				<path class="st18" d="M963.4,1001.5c0,0-6.8,5.1-6.4,9.2S963.6,1006.9,963.4,1001.5z"/>
				<path class="st18" d="M946.4,1029.3c0,0,6.8-5.2,6.4-9.2S946.2,1023.8,946.4,1029.3z"/>
				<path class="st18" d="M968.8,1007c0,0-8.4,1.5-9.9,5.3S966.5,1012,968.8,1007z"/>
				<path class="st18" d="M941,1024.1c0,0,8.4-1.5,9.9-5.3S943.4,1019.2,941,1024.1z"/>
				<path class="st18" d="M970.5,1020.5c0,0-6.7-5.2-10.6-3.8S965.3,1022.1,970.5,1020.5z"/>
				<path class="st18" d="M938.7,1014c0,0,7.5,4,11.1,1.9S943.5,1011.6,938.7,1014z"/>
				<path class="st18" d="M966.8,1026.4c0,0-4.2-7.4-8.3-7.6S961.4,1025.8,966.8,1026.4z"/>
				<path class="st18" d="M941.6,1005.8c0,0,4.2,7.4,8.3,7.6S947,1006.4,941.6,1005.8z"/>
				<path class="st18" d="M961.3,1030.8c0,0-0.5-8.5-4.2-10.4S956.7,1027.9,961.3,1030.8z"/>
				<path class="st18" d="M947.5,1001.3c0,0,0.5,8.5,4.2,10.4S952.1,1004.2,947.5,1001.3z"/>
				<path class="st18" d="M971,1015c0,0-8-3-11.2-0.5S966.4,1018.1,971,1015z"/>
				<path class="st23" d="M949,1015.6c0-3.3,2.6-5.9,5.9-6c3.3,0,5.9,2.6,6,5.9c0,3.3-2.6,5.9-5.9,6c0,0,0,0,0,0
					C951.7,1021.5,949,1018.8,949,1015.6z"/>
				<path class="st22" d="M968.9,1060.8c0,0-5.2-5.2-12.3-5.6s-9.3,0-9.3,0s4.4,4.6,9.6,5.6S968.9,1060.8,968.9,1060.8z"/>
				<path class="st22" d="M967.9,1055.7c0.9-0.8,1.6-7.2,7.1-8.8c3.1-0.9,6.2-1.6,9.4-1.9c0,0-4.8,8.3-8.3,9.6
					C973.4,1055.3,970.6,1055.7,967.9,1055.7z"/>
				<path class="st22" d="M911.8,1080l-1.7-0.4c0.7-3.1,2.4-65-17-101.2l1.6-0.8C914.3,1014.2,912.5,1077.5,911.8,1080z"/>
				<path class="st18" d="M889.7,945.2c0,0-6.1,12.8-2.4,18.6S894.1,953.2,889.7,945.2z"/>
				<path class="st18" d="M885.9,999.4c0,0,6.1-12.8,2.4-18.6S881.5,991.5,885.9,999.4z"/>
				<path class="st18" d="M902,949.2c0,0-11.3,8.6-10.7,15.4S902.2,958.2,902,949.2z"/>
				<path class="st18" d="M873.7,995.5c0,0,11.3-8.6,10.7-15.4S873.4,986.4,873.7,995.5z"/>
				<path class="st18" d="M910.9,958.4c0,0-14,2.5-16.5,8.9S907,966.6,910.9,958.4z"/>
				<path class="st18" d="M864.7,986.8c0,0,14-2.5,16.5-8.9S868.6,978.6,864.7,986.8z"/>
				<path class="st18" d="M913.8,980.9c0,0-11.2-8.7-17.6-6.3S905.1,983.5,913.8,980.9z"/>
				<path class="st18" d="M860.7,970c0,0,12.5,6.7,18.5,3.2S868.9,966,860.7,970z"/>
				<path class="st18" d="M907.7,990.7c0,0-7-12.4-13.8-12.7S898.6,989.7,907.7,990.7z"/>
				<path class="st18" d="M865.6,956.4c0,0,7,12.4,13.8,12.7S874.6,957.3,865.6,956.4z"/>
				<path class="st18" d="M898.5,998c0,0-0.9-14.2-7-17.4S890.8,993.2,898.5,998z"/>
				<path class="st18" d="M875.4,948.8c0,0,0.9,14.2,7,17.4S883.1,953.6,875.4,948.8z"/>
				<path class="st18" d="M914.6,971.7c0,0-13.3-5.1-18.7-0.9S907,976.8,914.6,971.7z"/>
				<circle class="st23" cx="887.8" cy="972.6" r="9.9"/>
				<path class="st22" d="M908.4,1023c0,0-8.6-8.8-20.5-9.3s-15.5,0-15.5,0s7.3,7.7,16,9.3S908.4,1023,908.4,1023z"/>
				<path class="st22" d="M906.6,1014.5c1.5-1.3,2.6-12,11.8-14.7c5.1-1.5,10.4-2.6,15.7-3.2c0,0-8,13.9-13.8,16
					S906.6,1014.5,906.6,1014.5z"/>
				<path class="st22" d="M943.6,1080l-1.7-0.5c0.7-3.3,2.4-70.3-17-109.4l1.6-0.9C946.2,1008.8,944.3,1077.3,943.6,1080z"/>
				<path class="st18" d="M921.6,934.2c0,0-6.1,13.9-2.4,20.1S926,942.8,921.6,934.2z"/>
				<path class="st18" d="M917.8,992.8c0,0,6.1-13.9,2.4-20.1S913.4,984.2,917.8,992.8z"/>
				<path class="st18" d="M933.8,938.4c0,0-11.3,9.3-10.7,16.7S934.1,948.2,933.8,938.4z"/>
				<path class="st18" d="M905.5,988.5c0,0,11.3-9.3,10.7-16.7S905.2,978.7,905.5,988.5z"/>
				<path class="st18" d="M942.8,948.4c0,0-14,2.7-16.5,9.6S938.9,957.3,942.8,948.4z"/>
				<path class="st18" d="M896.5,979.2c0,0,14-2.7,16.5-9.6S900.4,970.3,896.5,979.2z"/>
				<path class="st18" d="M945.7,972.8c0,0-11.2-9.5-17.6-6.9S937,975.6,945.7,972.8z"/>
				<path class="st18" d="M892.6,961c0,0,12.5,7.2,18.5,3.5S900.7,956.6,892.6,961z"/>
				<path class="st18" d="M939.5,983.3c0,0-7-13.4-13.8-13.7S930.5,982.3,939.5,983.3z"/>
				<path class="st18" d="M897.4,946.2c0,0,7,13.4,13.8,13.7S906.4,947.3,897.4,946.2z"/>
				<path class="st18" d="M930.3,991.2c0,0-0.9-15.3-7-18.8S922.6,986.1,930.3,991.2z"/>
				<path class="st18" d="M907.3,938.1c0,0,0.9,15.3,7,18.8S915,943.2,907.3,938.1z"/>
				<path class="st18" d="M946.4,962.9c0,0-13.3-5.5-18.7-1S938.9,968.3,946.4,962.9z"/>
				<path class="st23" d="M909.8,963.8c0-5.9,4.4-10.7,9.9-10.7s9.9,4.8,9.9,10.7s-4.4,10.7-9.9,10.7S909.8,969.7,909.8,963.8z"/>
				<path class="st22" d="M943,1045.3c0,0-8.6-9.5-20.5-10.1c-11.9-0.6-15.5,0-15.5,0s7.3,8.4,16,10.1S943,1045.3,943,1045.3z"/>
				<path class="st22" d="M941.2,1036.1c1.5-1.4,2.6-13,11.8-15.8c5.1-1.7,10.4-2.8,15.7-3.5c0,0-8,15-13.8,17.3
					S941.2,1036.1,941.2,1036.1z"/>
				<path class="st22" d="M902.2,1080l-1.2-0.3c0.5-2.2,1.7-45.9-12-71.4l1.1-0.6C904,1033.5,902.7,1078.2,902.2,1080z"/>
				<path class="st18" d="M886.6,984.8c0,0-4.3,9.1-1.7,13.1S889.7,990.4,886.6,984.8z"/>
				<path class="st18" d="M883.9,1023.1c0,0,4.3-9.1,1.7-13.1S880.8,1017.5,883.9,1023.1z"/>
				<path class="st18" d="M895.2,987.6c0,0-8,6.1-7.5,10.9S895.4,994,895.2,987.6z"/>
				<path class="st18" d="M875.3,1020.3c0,0,8-6.1,7.5-10.9S875.1,1013.9,875.3,1020.3z"/>
				<path class="st18" d="M901.6,994.1c0,0-9.9,1.8-11.7,6.3S898.8,999.9,901.6,994.1z"/>
				<path class="st18" d="M868.9,1014.2c0,0,9.9-1.8,11.7-6.3S871.7,1008.4,868.9,1014.2z"/>
				<path class="st18" d="M903.6,1010c0,0-7.9-6.2-12.5-4.5S897.5,1011.8,903.6,1010z"/>
				<path class="st18" d="M866.1,1002.3c0,0,8.9,4.7,13,2.3S871.9,999.5,866.1,1002.3z"/>
				<path class="st18" d="M899.3,1016.9c0,0-4.9-8.8-9.8-8.9S892.9,1016.2,899.3,1016.9z"/>
				<path class="st18" d="M869.6,992.7c0,0,4.9,8.8,9.8,8.9S875.9,993.4,869.6,992.7z"/>
				<path class="st18" d="M892.8,1022.1c0,0-0.7-10-4.9-12.3S887.3,1018.7,892.8,1022.1z"/>
				<path class="st18" d="M876.5,987.4c0,0,0.6,10,4.9,12.3S881.9,990.8,876.5,987.4z"/>
				<path class="st18" d="M904.1,1003.5c0,0-9.4-3.6-13.2-0.6S898.8,1007.1,904.1,1003.5z"/>
				<path class="st23" d="M878.3,1004.2c0-3.9,3.1-7,7-7s7,3.1,7,7s-3.1,7-7,7l0,0C881.4,1011.2,878.3,1008,878.3,1004.2z"/>
				<path class="st22" d="M901.7,1057.4c0,0-6.1-6.2-14.5-6.6s-11,0-11,0s5.2,5.4,11.3,6.6S901.7,1057.4,901.7,1057.4z"/>
				<path class="st22" d="M900.5,1051.4c1.1-0.9,1.8-8.5,8.3-10.3c3.6-1.1,7.3-1.8,11.1-2.2c0,0-5.6,9.8-9.7,11.3
					C907.1,1051,903.8,1051.4,900.5,1051.4z"/>
				<path class="st22" d="M857.6,1080l-0.9-0.2c0.3-1.6,1.2-33.1-8.7-51.4l0.8-0.4C858.9,1046.5,858,1078.7,857.6,1080z"/>
				<path class="st18" d="M846.4,1011.5c0,0-3.1,6.5-1.2,9.5S848.7,1015.5,846.4,1011.5z"/>
				<path class="st18" d="M844.5,1039c0,0,3.1-6.5,1.2-9.4C843.8,1026.6,842.2,1035,844.5,1039z"/>
				<path class="st18" d="M852.6,1013.5c0,0-5.8,4.4-5.4,7.8S852.8,1018.1,852.6,1013.5z"/>
				<path class="st18" d="M838.2,1037c0,0,5.8-4.3,5.4-7.8C843.3,1025.7,838.1,1032.4,838.2,1037z"/>
				<path class="st18" d="M857.2,1018.2c0,0-7.1,1.3-8.4,4.5C847.5,1025.9,855.2,1022.3,857.2,1018.2z"/>
				<path class="st18" d="M833.7,1032.6c0,0,7.1-1.3,8.4-4.5S835.7,1028.4,833.7,1032.6z"/>
				<path class="st18" d="M858.7,1029.6c0,0-5.7-4.5-9-3.2S854.2,1030.9,858.7,1029.6z"/>
				<path class="st18" d="M831.7,1024.1c0,0,6.4,3.4,9.4,1.6S835.8,1022,831.7,1024.1z"/>
				<path class="st18" d="M855.5,1034.6c0,0-3.5-6.3-7-6.4S851,1034.1,855.5,1034.6z"/>
				<path class="st18" d="M834.1,1017.2c0,0,3.5,6.3,7,6.4S838.7,1017.6,834.1,1017.2z"/>
				<path class="st18" d="M850.9,1038.3c0,0-0.5-7.2-3.5-8.9C844.2,1027.8,846.9,1035.9,850.9,1038.3z"/>
				<path class="st18" d="M839.1,1013.3c0,0,0.5,7.2,3.5,8.8S843,1015.7,839.1,1013.3z"/>
				<path class="st18" d="M859,1025c0,0-6.8-2.6-9.5-0.5C846.7,1026.7,855.2,1027.5,859,1025z"/>
				
					<ellipse transform="matrix(0.1602 -0.9871 0.9871 0.1602 -302.1442 1695.6719)" class="st23" cx="845.4" cy="1025.4" rx="5" ry="5"/>
				<path class="st22" d="M855.9,1051c0,0-4.4-4.4-10.4-4.8c-2.6-0.2-5.3-0.2-7.9,0c0,0,3.7,3.9,8.1,4.8
					C849.1,1051.5,852.5,1051.5,855.9,1051z"/>
				<path class="st22" d="M855,1046.7c0.8-0.7,1.3-6.1,6-7.4c2.6-0.8,5.3-1.3,8-1.6c0,0-4,7-7,8.1
					C859.7,1046.4,857.4,1046.7,855,1046.7z"/>
				<path class="st22" d="M881.3,1080l-1-0.3c0.4-1.8,1.5-38.9-10.2-60.5l0.9-0.5C882.8,1040.6,881.7,1078.5,881.3,1080z"/>
				<path class="st18" d="M868.1,999.4c0,0-3.7,7.7-1.4,11.1S870.7,1004.1,868.1,999.4z"/>
				<path class="st18" d="M865.8,1031.8c0,0,3.7-7.7,1.4-11.1C865,1017.2,863.2,1027,865.8,1031.8z"/>
				<path class="st18" d="M875.4,1001.7c0,0-6.8,5.1-6.4,9.2S875.6,1007.1,875.4,1001.7z"/>
				<path class="st18" d="M858.5,1029.4c0,0,6.8-5.1,6.4-9.2C864.5,1016.1,858.3,1024,858.5,1029.4z"/>
				<path class="st18" d="M880.8,1007.2c0,0-8.4,1.5-9.9,5.3S878.5,1012.2,880.8,1007.2z"/>
				<path class="st18" d="M853.1,1024.2c0,0,8.4-1.5,9.9-5.3S855.4,1019.3,853.1,1024.2z"/>
				<path class="st18" d="M882.5,1020.7c0,0-6.7-5.2-10.5-3.8S877.3,1022.3,882.5,1020.7z"/>
				<path class="st18" d="M850.7,1014.2c0,0,7.5,4,11,1.9S855.6,1011.8,850.7,1014.2z"/>
				<path class="st18" d="M878.8,1026.6c0,0-4.2-7.4-8.3-7.6S873.4,1026,878.8,1026.6z"/>
				<path class="st18" d="M853.6,1006c0,0,4.2,7.4,8.3,7.6S859,1006.6,853.6,1006z"/>
				<path class="st18" d="M873.3,1030.9c0,0-0.5-8.5-4.2-10.4S868.7,1028.1,873.3,1030.9z"/>
				<path class="st18" d="M859.5,1001.5c0,0,0.5,8.5,4.2,10.4S864.1,1004.4,859.5,1001.5z"/>
				<path class="st18" d="M882.9,1015.2c0,0-7.9-3-11.2-0.5S878.4,1018.2,882.9,1015.2z"/>
				<path class="st23" d="M861,1015.7c0-3.3,2.7-5.9,5.9-5.9c3.3,0,5.9,2.7,5.9,5.9c0,3.3-2.7,5.9-5.9,5.9c0,0,0,0,0,0
					C863.7,1021.7,861,1019,861,1015.7z"/>
				<path class="st22" d="M880.9,1060.8c0,0-5.2-5.2-12.2-5.6c-7.1-0.4-9.3,0-9.3,0s4.4,4.6,9.6,5.6S880.9,1060.8,880.9,1060.8z"/>
				<path class="st22" d="M879.8,1055.7c0.9-0.8,1.6-7.2,7.1-8.8c3.1-0.9,6.2-1.6,9.4-1.9c0,0-4.8,8.3-8.2,9.5
					C885.4,1055.4,882.6,1055.8,879.8,1055.7z"/>
				<path class="st22" d="M852.8,1080l-0.6-0.2c0.2-1.1,0.9-23.3-6.1-36.3l0.6-0.3C853.7,1056.4,853,1079.1,852.8,1080z"/>
				<path class="st18" d="M844.8,1031.6c0,0-2.2,4.6-0.9,6.7C845.3,1040.4,846.4,1034.5,844.8,1031.6z"/>
				<path class="st18" d="M843.5,1051.1c0,0,2.2-4.6,0.9-6.7S841.9,1048.2,843.5,1051.1z"/>
				<path class="st18" d="M849.2,1033c0,0-4.1,3.1-3.8,5.5S849.3,1036.3,849.2,1033z"/>
				<path class="st18" d="M839,1049.7c0,0,4.1-3.1,3.8-5.5C842.6,1041.7,839,1046.4,839,1049.7z"/>
				<path class="st18" d="M852.5,1036.3c0,0-5,0.9-5.9,3.2C845.6,1041.8,851,1039.3,852.5,1036.3z"/>
				<path class="st18" d="M835.8,1046.6c0,0,5-0.9,5.9-3.2S837.2,1043.6,835.8,1046.6z"/>
				<path class="st18" d="M853.5,1044.4c0,0-4-3.1-6.3-2.3C844.8,1043,850.4,1045.4,853.5,1044.4z"/>
				<path class="st18" d="M834.4,1040.5c0,0,4.5,2.4,6.6,1.2C843.2,1040.4,837.3,1039.1,834.4,1040.5z"/>
				<path class="st18" d="M851.3,1047.9c0,0-2.5-4.4-5-4.5S848,1047.6,851.3,1047.9z"/>
				<path class="st18" d="M836.2,1035.6c0,0,2.5,4.5,5,4.5C843.7,1040.3,839.4,1036,836.2,1035.6z"/>
				<path class="st18" d="M848,1050.6c0,0-0.3-5.1-2.5-6.2C843.4,1043.2,845.2,1048.8,848,1050.6z"/>
				<path class="st18" d="M839.7,1032.9c0,0,0.3,5.1,2.5,6.2C844.4,1040.3,842.5,1034.6,839.7,1032.9z"/>
				<path class="st18" d="M853.7,1041.1c0,0-4.8-1.8-6.7-0.3S851,1042.9,853.7,1041.1z"/>
				<path class="st23" d="M840.6,1041.4c0-2,1.6-3.6,3.5-3.6s3.6,1.6,3.6,3.5c0,2-1.6,3.6-3.5,3.6c0,0,0,0,0,0
					C842.2,1045,840.6,1043.4,840.6,1041.4z"/>
				<path class="st22" d="M852.5,1068.5c-2-1.9-4.6-3.1-7.4-3.4c-1.9-0.2-3.7-0.2-5.6,0c1.6,1.6,3.6,2.8,5.8,3.4
					C847.7,1068.8,850.1,1068.8,852.5,1068.5z"/>
				<path class="st22" d="M851.9,1065.4c0.5-0.5,0.9-4.3,4.2-5.3c1.8-0.6,3.7-0.9,5.6-1.1c0,0-2.9,5-4.9,5.7
					C855.2,1065.2,853.6,1065.5,851.9,1065.4z"/>
				<path class="st22" d="M818.4,1080l-1-0.3c0.4-1.8,1.4-38.9-10.2-60.5l0.9-0.5C819.9,1040.6,818.8,1078.5,818.4,1080z"/>
				<path class="st18" d="M805.1,999.4c0,0-3.7,7.7-1.4,11.1S807.8,1004.1,805.1,999.4z"/>
				<path class="st18" d="M802.9,1031.8c0,0,3.7-7.7,1.4-11.1C802.1,1017.2,800.2,1027,802.9,1031.8z"/>
				<path class="st18" d="M812.5,1001.7c0,0-6.8,5.1-6.4,9.2S812.6,1007.1,812.5,1001.7z"/>
				<path class="st18" d="M795.5,1029.4c0,0,6.8-5.1,6.4-9.2C801.5,1016.1,795.4,1024,795.5,1029.4z"/>
				<path class="st18" d="M817.8,1007.2c0,0-8.4,1.5-9.9,5.3S815.5,1012.2,817.8,1007.2z"/>
				<path class="st18" d="M790.2,1024.2c0,0,8.4-1.5,9.9-5.3S792.5,1019.3,790.2,1024.2z"/>
				<path class="st18" d="M819.6,1020.7c0,0-6.7-5.2-10.5-3.8S814.4,1022.3,819.6,1020.7z"/>
				<path class="st18" d="M787.8,1014.2c0,0,7.5,4,11,1.9S792.7,1011.8,787.8,1014.2z"/>
				<path class="st18" d="M815.9,1026.6c0,0-4.2-7.4-8.3-7.6S810.5,1026,815.9,1026.6z"/>
				<path class="st18" d="M790.7,1006c0,0,4.2,7.4,8.3,7.6S796.1,1006.6,790.7,1006z"/>
				<path class="st18" d="M810.4,1030.9c0,0-0.5-8.5-4.2-10.4S805.8,1028.1,810.4,1030.9z"/>
				<path class="st18" d="M796.6,1001.5c0,0,0.5,8.5,4.2,10.4S801.2,1004.4,796.6,1001.5z"/>
				<path class="st18" d="M820,1015.2c0,0-8-3-11.2-0.5S815.5,1018.2,820,1015.2z"/>
				<path class="st23" d="M798.1,1015.7c0-3.3,2.7-5.9,5.9-5.9c3.3,0,5.9,2.7,5.9,5.9c0,3.3-2.7,5.9-5.9,5.9c0,0,0,0,0,0
					C800.7,1021.7,798.1,1019,798.1,1015.7z"/>
				<path class="st22" d="M816.3,1045.9c0,0-5.2-5.2-12.2-5.6s-9.3,0-9.3,0s4.4,4.6,9.6,5.6S816.3,1045.9,816.3,1045.9z"/>
				<path class="st22" d="M815.2,1040.8c0.9-0.8,1.6-7.2,7.1-8.8c3.1-0.9,6.2-1.6,9.4-1.9c0,0-4.8,8.3-8.2,9.5
					C820.8,1040.5,818,1040.8,815.2,1040.8z"/>
				<path class="st22" d="M837.4,1080l-1-0.3c0.4-2,1.5-42.1-10.2-65.5l0.9-0.5C838.9,1037.4,837.8,1078.4,837.4,1080z"/>
				<path class="st18" d="M824.2,992.8c0,0-3.7,8.3-1.4,12S826.8,997.9,824.2,992.8z"/>
				<path class="st18" d="M821.9,1027.8c0,0,3.7-8.3,1.4-12S819.3,1022.7,821.9,1027.8z"/>
				<path class="st18" d="M831.5,995.3c0,0-6.8,5.5-6.4,10S831.7,1001.2,831.5,995.3z"/>
				<path class="st18" d="M814.6,1025.3c0,0,6.8-5.5,6.4-10S814.4,1019.4,814.6,1025.3z"/>
				<path class="st18" d="M836.9,1001.3c0,0-8.4,1.6-9.9,5.7S834.6,1006.6,836.9,1001.3z"/>
				<path class="st18" d="M809.2,1019.7c0,0,8.4-1.6,9.9-5.7S811.5,1014.4,809.2,1019.7z"/>
				<path class="st18" d="M838.6,1015.8c0,0-6.7-5.7-10.5-4.1S833.4,1017.5,838.6,1015.8z"/>
				<path class="st18" d="M806.9,1008.8c0,0,7.5,4.3,11,2.1S811.7,1006.2,806.9,1008.8z"/>
				<path class="st18" d="M834.9,1022.2c0,0-4.2-8-8.3-8.2S829.5,1021.5,834.9,1022.2z"/>
				<path class="st18" d="M809.8,1000c0,0,4.2,8,8.3,8.2S815.2,1000.6,809.8,1000z"/>
				<path class="st18" d="M829.4,1026.9c0,0-0.5-9.2-4.2-11.3S824.8,1023.8,829.4,1026.9z"/>
				<path class="st18" d="M815.6,995.1c0,0,0.5,9.2,4.2,11.2S820.2,998.2,815.6,995.1z"/>
				<path class="st18" d="M839,1009.9c0,0-8-3.3-11.2-0.6S834.5,1013.2,839,1009.9z"/>
				<path class="st23" d="M817.1,1010.5c0.3-3.3,3.1-5.7,6.4-5.5c3.3,0.3,5.7,3.1,5.5,6.4c-0.2,3.1-2.8,5.5-5.9,5.5
					C819.7,1016.7,817,1013.9,817.1,1010.5z"/>
				<path class="st22" d="M837,1059.3c0,0-5.2-5.7-12.3-6.1c-7.1-0.4-9.3,0-9.3,0s4.4,5,9.6,6.1S837,1059.3,837,1059.3z"/>
				<path class="st22" d="M836,1053.8c0.9-0.8,1.6-7.8,7.1-9.5c3.1-1,6.2-1.7,9.4-2.1c0,0-4.8,9-8.2,10.3
					C841.5,1053.4,838.8,1053.8,836,1053.8z"/>
				<path class="st22" d="M812.6,1080l-0.7-0.2c0.3-1.3,1-27.5-7.2-42.7l0.7-0.4C813.7,1052.2,812.9,1078.9,812.6,1080z"/>
				<path class="st18" d="M803.3,1023.1c0,0-2.6,5.4-1,7.8C803.9,1033.3,805.1,1026.4,803.3,1023.1z"/>
				<path class="st18" d="M801.7,1046c0,0,2.6-5.4,1-7.8S799.8,1042.6,801.7,1046z"/>
				<path class="st18" d="M808.5,1024.7c0,0-4.8,3.6-4.5,6.5S808.6,1028.6,808.5,1024.7z"/>
				<path class="st18" d="M796.5,1044.3c0,0,4.8-3.6,4.5-6.5C800.7,1034.9,796.4,1040.5,796.5,1044.3z"/>
				<path class="st18" d="M812.2,1028.6c0,0-5.9,1-7,3.8S810.6,1032.1,812.2,1028.6z"/>
				<path class="st18" d="M792.7,1040.6c0,0,5.9-1,7-3.8S794.3,1037.2,792.7,1040.6z"/>
				<path class="st18" d="M813.5,1038.1c0,0-4.7-3.7-7.5-2.7S809.8,1039.2,813.5,1038.1z"/>
				<path class="st18" d="M791,1033.6c0,0,5.3,2.8,7.8,1.4C801.3,1033.4,794.5,1031.8,791,1033.6z"/>
				<path class="st18" d="M810.9,1042.3c0,0-3-5.2-5.8-5.3S807,1041.9,810.9,1042.3z"/>
				<path class="st18" d="M793.1,1027.8c0,0,3,5.2,5.8,5.3S796.9,1028.2,793.1,1027.8z"/>
				<path class="st18" d="M807,1045.3c0,0-0.4-6-3-7.3S803.7,1043.3,807,1045.3z"/>
				<path class="st18" d="M797.2,1024.6c0,0,0.4,6,3,7.3C802.7,1033.3,800.5,1026.6,797.2,1024.6z"/>
				<path class="st18" d="M813.8,1034.3c0,0-5.6-2.2-7.9-0.4S810.6,1036.4,813.8,1034.3z"/>
				<path class="st23" d="M798.3,1034.6c0-2.3,1.9-4.2,4.2-4.2s4.2,1.9,4.2,4.2c0,2.3-1.9,4.2-4.2,4.2l0,0
					C800.2,1038.8,798.3,1036.9,798.3,1034.6z"/>
				<path class="st22" d="M812.3,1066.5c-2.4-2.3-5.4-3.7-8.7-4c-2.2-0.2-4.4-0.2-6.5,0c0,0,3.1,3.3,6.8,4
					C806.7,1066.9,809.5,1066.9,812.3,1066.5z"/>
				<path class="st22" d="M811.6,1062.9c0.6-0.5,1.1-5.1,5-6.2c2.2-0.7,4.4-1.1,6.6-1.3c0,0-3.4,5.9-5.8,6.7
					C815.5,1062.6,813.5,1062.9,811.6,1062.9z"/>
				<path class="st24" d="M2016.6,685v399.4h88.1l0.1-0.4l0.1-0.3c0.3-0.8,0.7-1.8,1.2-3.1l0.2-0.4v-0.2c0.1-0.1,0.2-0.2,0.2-0.4
					c0.8-1.8,1.5-3.6,2.2-5.5c0.4-1,0.8-2.2,1.4-3.3v-0.4l0.2-0.2c2.7-7,6.1-16.2,9.9-27.2c0.3-1,0.7-2,1.1-3
					c2.9-8.4,6.1-17.7,9.5-28c1.6-4.8,3.2-9.9,4.8-15.2c6.8-21.8,14.3-47.1,21.6-74.9c3.6-13.6,7.1-27.8,10.4-42.6
					c2-8.5,4-17.4,5.9-26.4c0.5-2.6,1.1-5.3,1.6-7.9c3.5-16.8,6.8-34.1,9.7-51.8c3.9-23.2,7.2-47.1,9.8-71.3
					c1.3-11.9,2.3-23.9,3.2-35.9c0-0.3,0.1-0.6,0.1-0.9L2016.6,685z"/>
				<polygon class="st25" points="2089,519.1 1995.7,711.2 1712.1,711.2 1859.9,519.8 				"/>
				<polygon class="st26" points="1723.3,711.2 1731.7,700.3 1871.1,519.8 2100.2,519.1 2016.6,691.2 2016.6,1084.4 1731.7,1084.4 
					1731.7,711.2 				"/>
				<path class="st27" d="M1867.7,615.1h6c19.6,0,35.4,15.9,35.4,35.5v94.3l0,0h-78l0,0v-93.1
					C1831.1,631.5,1847.5,615.1,1867.7,615.1L1867.7,615.1L1867.7,615.1z"/>
				<path class="st25" d="M1859.2,519.1l0.6,0.9l5.5,7.4L1998.7,705l12.6,16.8h183.2c1.3-11.9,2.3-23.9,3.2-35.9
					c0-0.3,0.1-0.6,0.1-0.9s0.1-0.7,0.1-1c1.2-17,1.9-34.1,2.1-51.1l-87.9-113.7h-37.2h-130.1L1859.2,519.1z"/>
				<polygon class="st25" points="1840.2,764.9 1773.8,901.7 1571.9,901.7 1677.2,765.4 				"/>
				<polygon class="st26" points="1577.9,901.7 1683.2,765.4 1846.3,764.9 1779.8,901.7 1779.4,901.7 1779.4,1084 1577.9,1084.4 
					1577.9,901.7 				"/>
				<rect x="1779.4" y="901.7" class="st24" width="170.6" height="182.3"/>
				<polygon class="st25" points="1968.7,909.8 1785.5,909.8 1677.2,765.4 1731.7,765.4 1857.2,765.4 				"/>
				<path class="st27" d="M1719.6,932v152.4h-84.9V933.4c0-23.8,19.3-43.1,43.1-43.1l0,0C1700.9,890.3,1719.6,909,1719.6,932z"/>
				<path class="st27" d="M1667.6,841.3c0-5.3,4.3-9.5,9.5-9.5c5.3,0,9.5,4.3,9.5,9.5c0,5.3-4.3,9.5-9.5,9.5
					S1667.6,846.6,1667.6,841.3C1667.6,841.3,1667.6,841.3,1667.6,841.3z"/>
				<polygon class="st28" points="1968.7,909.8 1933.9,909.8 1731.7,765.4 1857.2,765.4 				"/>
				<path class="st20" d="M673.2,534.4c0,0-12.3-29.5-41.6-26.3c0,0-42.6-49.3-88.1-6.6c0,0-48.3-10.6-84.1,9.2
					c-23.9,13.2-31.8,27-31.8,27L673.2,534.4z"/>
				<path class="st20" d="M1553.1,619.2c0,0-10-24.2-34-21.5c0,0-34.9-40.3-72-5.4c0,0-39.5-8.7-68.8,7.5c-19.5,10.8-26,22-26,22
					L1553.1,619.2z"/>
				<path class="st22" d="M-63.6,941.4c1.3,13.2,3.5,26.2,6.4,39.1c0.1,0.3,0.1,0.6,0.2,0.8c69.2,25.1,140.7,58.4,204.2,102.3h171.9
					C294.2,1067.7,172.8,1000.5-63.6,941.4z"/>
				<path class="st29" d="M318.1,904.8c0,0-131.9-11.6-167.7,0s-53.8,65.3-48.7,104.6c5.1,39.3,17.1,72.5,40.1,71.7s186.1,0,186.1,0
					L318.1,904.8z"/>
				<path class="st29" d="M291.2,902.8c0,0-27.9-5.2-46.9-7.1c0,0,14.9,3,16.8,4.6c0,0-40.6-6.1-55.3-4.6s-35.1,4-35.1,4l-22.6-1.5
					c0,0,18.8,2.3,17.8,2.6s-18.4,2.4-23.9,6c0,0-17.2,5.4-20.9,8.7c0,0,13.8-7,19.2-6.5c0,0-31.3,21.7-31.4,42.4
					s134.5-31.1,134.5-31.1L291.2,902.8z"/>
				<path class="st18" d="M299.3,903.8c0,0,52.5-4,85.8,38.3s6.4,140.1-37.1,140.5s-97.1-6.3-108.8-63.2
					C227.6,962.5,251.9,905.2,299.3,903.8z"/>
				<path class="st18" d="M406.8,988.1c0,0-18.7-21.6-20.7-27.6l-2.8,6L406.8,988.1z"/>
				<path class="st18" d="M393.2,956.1c0,0-2.4-15.5-9.2-21.2c0,0,6.2,10.4,4.6,19.1S393.2,956.1,393.2,956.1z"/>
				<path class="st18" d="M384,1065.8c-0.3,0.8,10.1-28.4,6.7-33.9h-2C388.7,1031.9,387.3,1057.7,384,1065.8z"/>
				<path class="st18" d="M392.4,1027.8c0,0,7.8-2.6,12.2,0c0,0-7.2-2-11.7,2.3S392.4,1027.8,392.4,1027.8z"/>
				<path class="st29" d="M320,1081c12.1,0,26.6-2,39-9.6c13.4-8.2,22.2-21.4,26-39.3c6.6-30.5,3.4-55.4-9.6-74.3
					c-12.1-17.6-32.6-29-59.1-33.1c-17.9-2.8-33.5,3-44.9,16.8c-16.5,19.8-21.3,53.3-11.6,81.5c6.9,19.9,25.2,32.2,49.1,32.8h2
					c24.1,0,45.8-12.3,53.2-30.4c7.6-18.4,7.2-36.5-1.1-50.8c-8.4-14.5-24.4-24-44.9-26.6c-18.5-2.4-28.5,6.2-33.7,13.9
					c-9.9,14.8-9.9,38.8-3.2,50.4c6.4,11.2,24.1,19.8,39.4,19.3c11.1-0.4,19.5-5.5,23.8-14.4c5.5-11.5,5.1-23.3-1-32.5
					c-4.9-7.4-12.9-11.9-20.3-11.5c-8.5,0.5-12.1,7.6-12.6,13.5c-0.5,5.2,1.3,11,5.6,12c8,1.9,10.8-2.5,10.9-2.7c0,0,4.3-7.1-1-8.1
					c-6.1-1.2-4.5,3.6-4.5,3.6s1.5,6.6-4.9,5.1c-2.6-0.6-4.4-4.9-3.9-9.7c0.5-5.3,3.5-11.1,10.6-11.5c6.6-0.4,13.9,3.8,18.4,10.5
					c5.7,8.5,6,19.6,0.8,30.3c-5,10.4-14.7,12.9-21.9,13.2c-14.6,0.5-31.4-7.6-37.4-18.2c-5.6-9.8-7.1-32.8,3.2-48.1
					c6.9-10.2,17.8-14.7,31.6-13c19.8,2.5,35.2,11.6,43.2,25.5c8,13.7,8.3,31,1,48.8c-7.3,17.8-29.1,29.8-53.1,29.1
					c-22.9-0.7-40.6-12.4-47.1-31.4c-9.5-27.5-4.9-60.1,11.2-79.3c7.6-9.1,21.2-19.3,42.9-16c26,4,45.9,15.1,57.7,32.2
					c12.6,18.3,15.7,42.7,9.3,72.5c-3.7,17.3-12.2,30-25,37.9c-26,15.9-67,6.3-67.4,6.2l4.6,2.5C303.3,1080.1,311.6,1081,320,1081z"
					/>
				<path class="st29" d="M114.1,843.6c0,0-177.3-15.5-225.6,0s-72.3,87.9-65.4,140.6c6.9,52.8,22.9,97.6,53.9,96.4
					c31-1.1,250.2,0,250.2,0L114.1,843.6z"/>
				<path class="st29" d="M77.9,840.9c0,0-37.5-7-63.1-9.6c0,0,20.1,4.1,22.6,6.2c0,0-54.5-8.2-74.4-6.2s-47.2,5.4-47.2,5.4l-30.3-2
					c0,0,25.2,3.1,23.9,3.4s-24.7,3.2-32.1,8c0,0-23.1,7.3-28.1,11.7c0,0,18.6-9.4,25.8-8.8c0,0-42,29.2-42.2,57
					s180.9-41.9,180.9-41.9L77.9,840.9z"/>
				<path class="st18" d="M88.7,842.2c0,0,70.6-5.4,115.3,51.5s8.6,188.4-49.9,188.9S23.5,1074,7.9,997.6S25,844.1,88.7,842.2z"/>
				<path class="st18" d="M233.3,955.5c0,0-25.3-29.1-27.9-37.1l-3.8,8L233.3,955.5z"/>
				<path class="st18" d="M215,912.5c0,0-3.2-20.8-12.4-28.5c0,0,8.3,14,6.2,25.6S215,912.5,215,912.5z"/>
				<path class="st18" d="M202.7,1060c-0.5,1.1,13.6-38.2,9-45.6H209C209,1014.4,207.2,1049.1,202.7,1060z"/>
				<path class="st18" d="M214,1008.9c0,0,10.5-3.4,16.4,0c0,0-9.7-2.7-15.7,3.1S214,1008.9,214,1008.9z"/>
				<path class="st29" d="M116.7,1080.5c16.2,0,35.8-2.8,52.4-13c18-11,29.8-28.8,35-52.9c8.9-41,4.5-74.5-12.9-99.8
					c-16.3-23.7-43.8-39.1-79.5-44.6c-24.1-3.7-45,4.1-60.4,22.5c-22.3,26.7-28.6,71.7-15.5,109.6c9.2,26.7,34,43.2,66.1,44.2h2.7
					c32.4,0,61.5-16.5,71.5-40.9c10.2-24.8,9.7-49-1.5-68.2c-11.3-19.5-32.8-32.2-60.3-35.8c-25-3.2-38.4,8.4-45.3,18.7
					c-13.3,19.9-13.3,52.2-4.4,67.8c8.6,15,32.4,26.6,53,25.9c14.9-0.5,26.3-7.4,32-19.4c7.4-15.4,6.9-31.3-1.3-43.7
					c-6.6-9.9-17.4-16-27.3-15.5c-11.4,0.6-16.3,10.2-17,18.1c-0.6,7,1.8,14.9,7.6,16.2c10.7,2.5,14.6-3.4,14.7-3.6
					c0,0,5.8-9.6-1.4-11c-8.3-1.6-6.1,4.8-6.1,4.8c-0.1,0.2,2,8.8-6.5,6.8c-3.5-0.8-5.8-6.6-5.3-13.1c0.6-7.1,4.7-14.9,14.2-15.5
					c8.9-0.5,18.6,5.1,24.7,14.2c7.6,11.5,8.1,26.3,1.1,40.8c-6.7,14-19.7,17.4-29.5,17.7c-19.6,0.7-42.2-10.2-50.3-24.4
					c-7.5-13.1-9.5-44.1,4.2-64.7c9.2-13.8,23.9-19.8,42.5-17.4c26.7,3.5,47.3,15.7,58.1,34.5c10.7,18.4,11.2,41.7,1.3,65.7
					s-39.2,39.9-71.5,39c-30.8-1-54.5-16.7-63.3-42.2c-12.8-36.9-6.6-80.8,15-106.7c10.2-12.3,28.6-26,57.7-21.5
					c34.9,5.4,61.7,20.3,77.5,43.3c16.9,24.6,21.1,57.4,12.5,97.5c-5,23.2-16.3,40.4-33.7,51c-35,21.4-90.2,8.4-90.6,8.3l6.2,3.4
					C94.2,1079.3,105.4,1080.6,116.7,1080.5z"/>
				<path class="st30" d="M1419.7,1009.8c0,0,21.1-11.6,48.3,2.2c27.2,13.9,1.1,80.4-20.3,83.1s-34.3-8.1-42.2-7.8
					s-26.3,1.3-39.8-6.5s-29.2-72.9,6.1-84.1C1394.5,989.6,1419.7,1009.8,1419.7,1009.8z"/>
				<path class="st31" d="M1415.3,986.2c0,0,7.7,21.5,6.1,25.1s-6.4,1.2-7.7-1.3s-1.2-17-1.7-19.5S1414.5,983.9,1415.3,986.2z"/>
				<path class="st32" d="M1397.8,1091.8l13.3,2.2c13.1,2.2,25.6-6.7,27.8-19.8l6-35.8c2.2-13.1-6.7-25.6-19.8-27.8l-13.3-2.2
					c-13.1-2.2-25.6,6.7-27.8,19.8l-6,35.8C1375.9,1077.2,1384.7,1089.6,1397.8,1091.8z"/>
				<path class="st21" d="M1870.1,1084h234.7l0.1-0.3c0.3-0.8,0.7-1.8,1.2-3.1l0.2-0.4v-0.2c0.1-0.1,0.2-0.2,0.2-0.4
					c0.8-1.8,1.5-3.6,2.2-5.5c0.4-1,0.8-2.2,1.4-3.3v-0.4l0.2-0.2c2.7-7,6.1-16.2,9.9-27.2c0.3-1,0.7-2,1.1-3
					c2.9-8.4,6.1-17.7,9.5-28c1.6-4.8,3.2-9.9,4.8-15.2c-23.2-6.5-53.5-10.9-80.5-2.1c-14.3,4.5-27.4,12.2-38.4,22.4
					c-18.6,16.9-26.3,33.6-47.9,27.1c-6.1-1.7-12.4-2.7-18.7-2.9C1915.1,1039.6,1867,1054.3,1870.1,1084z"/>
				<path class="st33" d="M1354.4,1059c0,0,1-6.4,8.7-5.7c7.7,0.7,9.5,16.5-2.2,20.6C1347.3,1078.8,1338.7,1060.8,1354.4,1059z"/>
				<path class="st34" d="M1347,1056.2c0,0,6.2,0.7,8,3.2c0,0-3.5-2.4-6.8-2.3C1348.2,1057.2,1347,1056.9,1347,1056.2z"/>
				<path class="st33" d="M1334.7,1058.7c0,0,5.9-2.5,9.4,4.4c3.4,6.9-9,16.7-18.7,9C1314.1,1063.1,1324.9,1046.3,1334.7,1058.7z"/>
				<path class="st34" d="M1333.2,1050.9c0,0,2.6,5.6,1.4,8.5c0,0,0.2-4.2-1.6-7C1333,1052.5,1332.6,1051.3,1333.2,1050.9z"/>
				<path class="st35" d="M1315.4,1041.6c0,0,6-2.5,9.4,4.4s-9,16.7-18.7,9C1294.8,1046,1305.6,1029.2,1315.4,1041.6z"/>
				<path class="st34" d="M1313.9,1033.8c0,0,2.6,5.6,1.5,8.5c0,0,0.2-4.2-1.6-6.9C1313.7,1035.4,1313.3,1034.2,1313.9,1033.8z"/>
				<path class="st33" d="M1329.7,1024.6c0,0,6-2.5,9.4,4.4c3.4,6.9-9,16.7-18.7,9C1309.2,1029,1320,1012.2,1329.7,1024.6z"/>
				<path class="st34" d="M1328.2,1016.8c0,0,2.6,5.6,1.5,8.5c0,0,0.2-4.2-1.6-7C1328.1,1018.4,1327.7,1017.2,1328.2,1016.8z"/>
				<path class="st35" d="M1287,1036c0,0,1.3-6.3,9-5.3s8.7,16.9-3.2,20.5C1279,1055.5,1271.2,1037.1,1287,1036z"/>
				<path class="st34" d="M1279.7,1032.8c0,0,6.1,1,7.9,3.6c0,0-3.4-2.6-6.7-2.6C1280.9,1033.9,1279.7,1033.5,1279.7,1032.8z"/>
				<path class="st33" d="M1255.4,1052.6c0,0,1.3-6.3,8.9-5.2c7.6,1.1,8.7,16.9-3.2,20.5C1247.3,1072,1239.6,1053.6,1255.4,1052.6z"
					/>
				<path class="st34" d="M1248.1,1049.4c0,0,6.1,1,7.9,3.6c0,0-3.3-2.6-6.6-2.6C1249.3,1050.4,1248.1,1050.1,1248.1,1049.4z"/>
				<path class="st35" d="M1284.3,1054.1c0,0,5.7-3,9.7,3.6s-7.5,17.4-17.9,10.5C1264.2,1060.2,1273.5,1042.6,1284.3,1054.1z"/>
				<path class="st34" d="M1281.7,1046.5c0,0,3.1,5.4,2.2,8.4c0,0-0.2-4.2-2.2-6.8C1281.7,1048.1,1281.1,1046.9,1281.7,1046.5z"/>
				<path class="st36" d="M1346.7,1043.2c0,0,6-2.5,9.4,4.4c3.4,6.9-9,16.7-18.7,9C1326.1,1047.6,1336.9,1030.8,1346.7,1043.2z"/>
				<path class="st34" d="M1345.2,1035.4c0,0,2.6,5.6,1.5,8.5c0,0,0.2-4.2-1.6-6.9C1345,1037,1344.6,1035.8,1345.2,1035.4z"/>
				<path class="st33" d="M1309.6,1059.8c0,0,6-2.5,9.4,4.4s-9,16.7-18.7,9C1289,1064.2,1299.8,1047.4,1309.6,1059.8z"/>
				<path class="st34" d="M1308.1,1052.1c0,0,2.6,5.6,1.5,8.5c0,0,0.2-4.2-1.6-7C1307.9,1053.6,1307.5,1052.4,1308.1,1052.1z"/>
				<path class="st37" d="M1245.1,1054.9l140.1,0.4c1.7,0,3.1-1.4,3.2-3.1v-11.3c0-1.7-1.4-3.1-3.1-3.2l0,0l-140.1-0.3
					c-1.7,0-3.1,1.4-3.2,3.1v11.3C1241.9,1053.5,1243.4,1054.9,1245.1,1054.9z"/>
				<path class="st37" d="M1369.7,1079.4l0.1-40.9c0-0.5,0.4-0.9,0.9-0.9l2.9,0c0.5,0,0.9,0.4,0.9,0.9l-0.1,40.9
					c0,0.5-0.4,0.9-0.9,0.9l-2.9,0C1370.1,1080.3,1369.7,1079.9,1369.7,1079.4z"/>
				<path class="st37" d="M1251.4,1079.2l0.1-40.9c0-0.5-0.4-0.9-0.9-0.9h-2.9c-0.5,0-0.9,0.4-0.9,0.9l-0.1,40.9
					c0,0.5,0.4,0.9,0.9,0.9h2.9C1251,1080,1251.4,1079.6,1251.4,1079.2z"/>
				<path class="st37" d="M1245,1080l140.1,0.3c1.7,0,3.1-1.4,3.2-3.1v0v-11.3c0-1.7-1.4-3.1-3.1-3.2l-140.1-0.3
					c-1.7,0-3.1,1.4-3.2,3.1v11.3C1241.9,1078.6,1243.3,1080,1245,1080z"/>
				<path class="st38" d="M1383.7,1042.5c0-0.9-0.7-1.6-1.6-1.6s-1.6,0.7-1.6,1.6s0.7,1.6,1.6,1.6
					C1382.9,1044.1,1383.6,1043.4,1383.7,1042.5C1383.7,1042.5,1383.7,1042.5,1383.7,1042.5z"/>
				<path class="st38" d="M1383.6,1050.6c0.1-0.9-0.6-1.7-1.5-1.8c-0.9-0.1-1.7,0.6-1.8,1.5c0,0.1,0,0.2,0,0.3
					c-0.1,0.9,0.6,1.7,1.5,1.8c0.9,0.1,1.7-0.6,1.8-1.5C1383.6,1050.8,1383.6,1050.7,1383.6,1050.6z"/>
				<path class="st38" d="M1383.6,1067.5c0-0.9-0.7-1.6-1.6-1.6c-0.9,0-1.6,0.7-1.6,1.6c0,0.9,0.7,1.6,1.6,1.6c0,0,0,0,0,0
					C1382.9,1069.1,1383.6,1068.4,1383.6,1067.5C1383.6,1067.5,1383.6,1067.5,1383.6,1067.5z"/>
				<path class="st38" d="M1383.6,1075.6c0-0.9-0.7-1.6-1.6-1.6s-1.6,0.7-1.6,1.6c0,0.9,0.7,1.6,1.6,1.6
					C1382.8,1077.2,1383.6,1076.5,1383.6,1075.6C1383.6,1075.6,1383.6,1075.6,1383.6,1075.6z"/>
				<path class="st38" d="M1250.8,1042.2c0-0.9-0.7-1.6-1.6-1.6c-0.9,0-1.6,0.7-1.6,1.6c0,0.9,0.7,1.6,1.6,1.6c0,0,0,0,0,0
					C1250,1043.8,1250.8,1043.1,1250.8,1042.2C1250.8,1042.2,1250.8,1042.2,1250.8,1042.2z"/>
				<path class="st38" d="M1250.8,1050.3c0-0.9-0.7-1.6-1.6-1.6c-0.9,0-1.6,0.7-1.6,1.6c0,0.9,0.7,1.6,1.6,1.6c0,0,0,0,0,0
					C1250,1051.9,1250.7,1051.2,1250.8,1050.3z"/>
				<path class="st38" d="M1250.7,1067.2c0-0.9-0.7-1.6-1.6-1.6c-0.9,0-1.6,0.7-1.6,1.6c0,0.9,0.7,1.6,1.6,1.6c0,0,0,0,0,0
					C1250,1068.8,1250.7,1068.1,1250.7,1067.2z"/>
				<path class="st38" d="M1250.7,1075.3c0-0.9-0.7-1.6-1.6-1.6s-1.6,0.7-1.6,1.6s0.7,1.6,1.6,1.6
					C1250,1076.9,1250.7,1076.2,1250.7,1075.3z"/>
			</g>
		</g>
	</g>
</g>
</svg>
